<?xml version="1.0" encoding="UTF-8" standalone="no"?>
<!-- Created with Inkscape (http://www.inkscape.org/) -->

<svg
   version="1.1"
   id="svg1"
   width="263.72"
   height="110.096"
   viewBox="0 0 263.72 110.096"
   sodipodi:docname="main.pdf"
   xmlns:inkscape="http://www.inkscape.org/namespaces/inkscape"
   xmlns:sodipodi="http://sodipodi.sourceforge.net/DTD/sodipodi-0.dtd"
   xmlns="http://www.w3.org/2000/svg"
   xmlns:svg="http://www.w3.org/2000/svg">
  <defs
     id="defs1" />
  <sodipodi:namedview
     id="namedview1"
     pagecolor="#ffffff"
     bordercolor="#000000"
     borderopacity="0.25"
     inkscape:showpageshadow="2"
     inkscape:pageopacity="0.0"
     inkscape:pagecheckerboard="0"
     inkscape:deskcolor="#d1d1d1">
    <inkscape:page
       x="0"
       y="0"
       inkscape:label="1"
       id="page1"
       width="263.72"
       height="110.096"
       margin="0"
       bleed="0" />
  </sodipodi:namedview>
  <g
     id="g1"
     inkscape:groupmode="layer"
     inkscape:label="1">
    <path
       id="path1"
       d="M 0,0 H 197.79 V 82.572 H 0 Z"
       style="fill:#ffffff;fill-opacity:1;fill-rule:nonzero;stroke:none"
       transform="matrix(1.3333333,0,0,-1.3333333,0,110.096)" />
    <path
       id="path2"
       d="M 3.71107,14.04733 0,10.33626 -3.71107,14.04733"
       style="fill:none;stroke:#000000;stroke-width:0.3985;stroke-linecap:butt;stroke-linejoin:miter;stroke-miterlimit:10;stroke-dasharray:none;stroke-opacity:1"
       transform="matrix(1.3333333,0,0,-1.3333333,92.025333,51.345333)" />
    <path
       id="path3"
       d="M -14.04733,-14.04733 H 14.04735 V 14.04735 H -14.04733 Z"
       style="fill:none;stroke:#000000;stroke-width:0.3985;stroke-linecap:butt;stroke-linejoin:miter;stroke-miterlimit:10;stroke-dasharray:none;stroke-opacity:1"
       transform="matrix(1.3333333,0,0,-1.3333333,92.025333,51.345333)" />
    <path
       id="path4"
       d="M 4.2195625,-9.692375 H 3.9500312 c -0.234375,0.2226563 -0.9257812,0.9023438 -2.4726562,0.9257813 -0.1992188,0 -0.2109375,0.011719 -0.2109375,0.2695312 v 0.5742188 c 0.8671875,0 1.5351562,-0.2109375 1.828125,-0.3398438 V -0.833 H 1.3484687 V -9.6875e-4 H 5.9656562 V -0.833 H 4.2195625 Z m 0,0"
       style="fill:#000000;fill-opacity:1;fill-rule:nonzero;stroke:none"
       aria-label="1"
       transform="matrix(1.3333333,0,0,1.3333333,87.342667,57.610667)" />
    <path
       id="path5"
       d="M 32.20425,14.04733 28.49318,10.33626 24.7821,14.04733"
       style="fill:none;stroke:#000000;stroke-width:0.3985;stroke-linecap:butt;stroke-linejoin:miter;stroke-miterlimit:10;stroke-dasharray:none;stroke-opacity:1"
       transform="matrix(1.3333333,0,0,-1.3333333,92.025333,51.345333)" />
    <path
       id="path6"
       d="M 14.44585,-14.04733 H 42.54053 V 14.04735 H 14.44585 Z"
       style="fill:none;stroke:#000000;stroke-width:0.3985;stroke-linecap:butt;stroke-linejoin:miter;stroke-miterlimit:10;stroke-dasharray:none;stroke-opacity:1"
       transform="matrix(1.3333333,0,0,-1.3333333,92.025333,51.345333)" />
    <path
       id="path7"
       d="M 4.2177734,-9.692375 H 3.9482422 c -0.234375,0.2226563 -0.9257813,0.9023438 -2.4726563,0.9257813 -0.1992187,0 -0.2109375,0.011719 -0.2109375,0.2695312 v 0.5742188 c 0.8671875,0 1.5351563,-0.2109375 1.828125,-0.3398438 V -0.833 H 1.3466797 V -9.6875e-4 H 5.9638672 V -0.833 H 4.2177734 Z m 0,0"
       style="fill:#000000;fill-opacity:1;fill-rule:nonzero;stroke:none"
       aria-label="1"
       transform="matrix(1.3333333,0,0,1.3333333,125.33333,57.610667)" />
    <path
       id="path8"
       d="M 60.69745,14.04733 56.98637,10.33626 53.2753,14.04733"
       style="fill:none;stroke:#000000;stroke-width:0.3985;stroke-linecap:butt;stroke-linejoin:miter;stroke-miterlimit:10;stroke-dasharray:none;stroke-opacity:1"
       transform="matrix(1.3333333,0,0,-1.3333333,92.025333,51.345333)" />
    <path
       id="path9"
       d="M 42.93903,-14.04733 H 71.03371 V 14.04735 H 42.93903 Z"
       style="fill:none;stroke:#000000;stroke-width:0.3985;stroke-linecap:butt;stroke-linejoin:miter;stroke-miterlimit:10;stroke-dasharray:none;stroke-opacity:1"
       transform="matrix(1.3333333,0,0,-1.3333333,92.025333,51.345333)" />
    <path
       id="path10"
       d="m 6.4220391,-4.67675 c 0,-0.9609375 -0.035156,-2.0625 -0.4101563,-3.0820312 C 5.3907891,-9.36425 4.2775078,-9.692375 3.5157891,-9.692375 c -0.9375,0 -1.8398438,0.46875 -2.3671875,1.6054688 -0.46875004,1.0195312 -0.56250004,2.1796875 -0.56250004,3.4101562 0,1.5585938 0.12890625,2.4492188 0.58593754,3.4570313 0.4335937,0.9492187 1.3476562,1.52343745 2.3320312,1.52343745 0.9375,0 1.8515625,-0.515625 2.3320313,-1.51171875 0.4921875,-1.0195312 0.5859375,-2.0625 0.5859375,-3.46875 z m -2.90625,4.11328125 c -1.8398438,0 -1.8398438,-2.94140625 -1.8398438,-4.28906245 0,-0.9257813 0,-1.8046875 0.2578125,-2.625 0.3515625,-1.0195313 0.9726563,-1.359375 1.5703125,-1.359375 1.828125,0 1.828125,2.671875 1.828125,3.984375 0,0.9257812 0,1.8632812 -0.2578125,2.7539062 -0.3867187,1.3828125 -1.1835937,1.53515625 -1.5585937,1.53515625 z m 0,0"
       style="fill:#000000;fill-opacity:1;fill-rule:nonzero;stroke:none"
       aria-label="0"
       transform="matrix(1.3333333,0,0,1.3333333,163.324,57.610667)" />
    <path
       id="path11"
       d="m 89.19064,14.04733 -3.71107,-3.71107 -3.71109,3.71107"
       style="fill:none;stroke:#000000;stroke-width:0.3985;stroke-linecap:butt;stroke-linejoin:miter;stroke-miterlimit:10;stroke-dasharray:none;stroke-opacity:1"
       transform="matrix(1.3333333,0,0,-1.3333333,92.025333,51.345333)" />
    <path
       id="path12"
       d="M 71.43222,-14.04733 H 99.5269 V 14.04735 H 71.43222 Z"
       style="fill:none;stroke:#000000;stroke-width:0.3985;stroke-linecap:butt;stroke-linejoin:miter;stroke-miterlimit:10;stroke-dasharray:none;stroke-opacity:1"
       transform="matrix(1.3333333,0,0,-1.3333333,92.025333,51.345333)" />
    <path
       id="path13"
       d="m 6.4231797,-4.67675 c 0,-0.9609375 -0.035156,-2.0625 -0.4101563,-3.0820312 C 5.3919297,-9.36425 4.2786484,-9.692375 3.5169297,-9.692375 c -0.9375,0 -1.8398438,0.46875 -2.3671875,1.6054688 -0.46875001,1.0195312 -0.56250001,2.1796875 -0.56250001,3.4101562 0,1.5585938 0.12890625,2.4492188 0.58593751,3.4570313 0.4335937,0.9492187 1.3476562,1.52343745 2.3320312,1.52343745 0.9375,0 1.8515625,-0.515625 2.3320313,-1.51171875 0.4921875,-1.0195312 0.5859375,-2.0625 0.5859375,-3.46875 z m -2.90625,4.11328125 c -1.8398438,0 -1.8398438,-2.94140625 -1.8398438,-4.28906245 0,-0.9257813 0,-1.8046875 0.2578125,-2.625 0.3515625,-1.0195313 0.9726563,-1.359375 1.5703125,-1.359375 1.828125,0 1.828125,2.671875 1.828125,3.984375 0,0.9257812 0,1.8632812 -0.2578125,2.7539062 -0.3867187,1.3828125 -1.1835937,1.53515625 -1.5585937,1.53515625 z m 0,0"
       style="fill:#000000;fill-opacity:1;fill-rule:nonzero;stroke:none"
       aria-label="0"
       transform="matrix(1.3333333,0,0,1.3333333,201.31467,57.610667)" />
    <g
       id="g13"
       aria-label="x&#10;4"
       transform="matrix(1.3333333,0,0,1.3333333,102.23067,68.417333)">
      <path
         id="path14"
         d="m 2.0037578,-0.55030469 c -0.046875,0.046875 -0.070312,0.0703125 -0.1054687,0.12890625 -0.1171875,0.15234375 -0.1757813,0.19921875 -0.234375,0.19921875 -0.070312,0 -0.1171875,-0.0585937 -0.1523438,-0.19921875 -0.011719,-0.046875 -0.011719,-0.0703125 -0.023437,-0.0820313 C 1.3592266,-1.0073359 1.3123516,-1.2417109 1.3123516,-1.3120234 c 0.2109375,-0.3867188 0.3984375,-0.609375 0.4804687,-0.609375 0.035156,0 0.070312,0.023437 0.1289063,0.046875 0.058594,0.035156 0.09375,0.046875 0.1289062,0.046875 0.1054688,0 0.1757813,-0.082031 0.1757813,-0.1875 0,-0.1054688 -0.082031,-0.1757813 -0.1992188,-0.1757813 -0.2226562,0 -0.4101562,0.1757813 -0.7617187,0.703125 l -0.046875,-0.2695312 c -0.070312,-0.3398438 -0.1289063,-0.4335938 -0.25781254,-0.4335938 -0.1171875,0 -0.28125,0.035156 -0.5859375,0.140625 l -0.0585938,0.023437 0.0234375,0.070312 c 0.1875,-0.046875 0.234375,-0.058594 0.28125,-0.058594 0.1171875,0 0.15234375,0.046875 0.22265625,0.3515625 l 0.140625,0.609375 -0.41015625,0.58593746 c -0.09375,0.140625 -0.19921875,0.234375 -0.24609375,0.234375 -0.0351563,0 -0.0820312,-0.0117188 -0.12890625,-0.046875 -0.0703125,-0.0351563 -0.12890625,-0.046875 -0.1640625,-0.046875 -0.09375,0 -0.1640625,0.0703125 -0.1640625,0.17578125 0,0.12890625 0.09375,0.2109375 0.24609375,0.2109375 0.15234375,0 0.2109375,-0.046875 0.45703125,-0.3515625 0.140625,-0.1640625 0.24609375,-0.29296875 0.45703124,-0.5859375 l 0.140625,0.59765625 c 0.070312,0.2578125 0.1289062,0.33984375 0.2929687,0.33984375 0.1875,0 0.3164063,-0.12890625 0.6093751,-0.57421875 z m 0,0"
         style="fill:#000000;fill-opacity:1;fill-rule:nonzero;stroke:none" />
      <path
         id="path15"
         d="M 4.5818828,-2.9555781 H 4.0662578 V -5.1704219 H 3.8553203 l -1.5703125,2.2148438 v 0.3164062 h 1.40625 v 0.8320313 h 0.375 v -0.8320313 h 0.515625 z m -0.9023437,0 H 2.4842266 l 1.1953125,-1.7109375 z m 0,0"
         style="fill:#000000;fill-opacity:1;fill-rule:nonzero;stroke:none" />
    </g>
    <g
       id="g15"
       aria-label="x&#10;3"
       transform="matrix(1.3333333,0,0,1.3333333,140.22133,68.417333)">
      <path
         id="path16"
         d="m 2.0048984,-0.55030469 c -0.046875,0.046875 -0.070312,0.0703125 -0.1054687,0.12890625 -0.1171875,0.15234375 -0.1757813,0.19921875 -0.234375,0.19921875 -0.070312,0 -0.1171875,-0.0585937 -0.1523438,-0.19921875 -0.011719,-0.046875 -0.011719,-0.0703125 -0.023437,-0.0820313 C 1.3603672,-1.0073359 1.3134922,-1.2417109 1.3134922,-1.3120234 c 0.2109375,-0.3867188 0.3984375,-0.609375 0.4804687,-0.609375 0.035156,0 0.070312,0.023437 0.1289063,0.046875 0.058594,0.035156 0.09375,0.046875 0.1289062,0.046875 0.1054688,0 0.1757813,-0.082031 0.1757813,-0.1875 0,-0.1054688 -0.082031,-0.1757813 -0.1992188,-0.1757813 -0.2226562,0 -0.4101562,0.1757813 -0.7617187,0.703125 l -0.046875,-0.2695312 c -0.070312,-0.3398438 -0.1289063,-0.4335938 -0.25781251,-0.4335938 -0.1171875,0 -0.28125,0.035156 -0.5859375,0.140625 l -0.0585938,0.023437 0.0234375,0.070312 c 0.1875,-0.046875 0.234375,-0.058594 0.28125,-0.058594 0.1171875,0 0.15234375,0.046875 0.22265625,0.3515625 l 0.140625,0.609375 -0.41015625,0.58593746 c -0.09375,0.140625 -0.19921875,0.234375 -0.24609375,0.234375 -0.0351563,0 -0.0820313,-0.0117188 -0.12890625,-0.046875 -0.0703125,-0.0351563 -0.12890625,-0.046875 -0.1640625,-0.046875 -0.09375,0 -0.1640625,0.0703125 -0.1640625,0.17578125 0,0.12890625 0.09375,0.2109375 0.24609375,0.2109375 0.15234375,0 0.2109375,-0.046875 0.45703125,-0.3515625 0.140625,-0.1640625 0.24609375,-0.29296875 0.45703131,-0.5859375 l 0.140625,0.59765625 c 0.070312,0.2578125 0.1289062,0.33984375 0.2929687,0.33984375 0.1875,0 0.3164063,-0.12890625 0.609375,-0.57421875 z m 0,0"
         style="fill:#000000;fill-opacity:1;fill-rule:nonzero;stroke:none" />
      <path
         id="path17"
         d="m 2.9863437,-3.4477656 c 0.2929688,0 0.4101563,0.011719 0.5273438,0.046875 0.3046875,0.1171875 0.5039062,0.3984375 0.5039062,0.7382812 0,0.421875 -0.28125,0.75 -0.65625,0.75 -0.1289062,0 -0.234375,-0.035156 -0.4101562,-0.1640625 -0.1523438,-0.082031 -0.234375,-0.1171875 -0.328125,-0.1171875 -0.1054688,0 -0.1875,0.070312 -0.1875,0.1757813 0,0.1757812 0.2226562,0.28125 0.5625,0.28125 0.3867187,0 0.7851562,-0.1289063 1.0195312,-0.3398438 0.234375,-0.1992187 0.3632813,-0.4921875 0.3632813,-0.8203125 0,-0.2578125 -0.082031,-0.4921875 -0.234375,-0.6445312 -0.09375,-0.1054688 -0.1875,-0.1640625 -0.4101563,-0.2578125 0.3515625,-0.234375 0.46875,-0.421875 0.46875,-0.6914063 0,-0.4101562 -0.3164062,-0.6796875 -0.7734375,-0.6796875 -0.2460937,0 -0.46875,0.082031 -0.6445312,0.2460938 -0.1523438,0.1289062 -0.234375,0.2578125 -0.3398438,0.5625 l 0.082031,0.011719 c 0.1992187,-0.3632812 0.421875,-0.5273437 0.7382812,-0.5273437 0.3164063,0 0.5507813,0.2226562 0.5507813,0.5390625 0,0.1757812 -0.082031,0.3515625 -0.1992188,0.4804687 -0.1523437,0.1523438 -0.2929687,0.2226563 -0.6328125,0.3398438 z m 0,0"
         style="fill:#000000;fill-opacity:1;fill-rule:nonzero;stroke:none" />
    </g>
    <g
       id="g17"
       aria-label="x&#10;2"
       transform="matrix(1.3333333,0,0,1.3333333,178.212,68.417333)">
      <path
         id="path18"
         d="m 2.0031094,-0.55030469 c -0.046875,0.046875 -0.070312,0.0703125 -0.1054688,0.12890625 -0.1171875,0.15234375 -0.1757812,0.19921875 -0.234375,0.19921875 -0.070312,0 -0.1171875,-0.0585937 -0.1523437,-0.19921875 -0.011719,-0.046875 -0.011719,-0.0703125 -0.023437,-0.0820313 C 1.3585781,-1.0073359 1.3117031,-1.2417109 1.3117031,-1.3120234 c 0.2109375,-0.3867188 0.3984375,-0.609375 0.4804688,-0.609375 0.035156,0 0.070312,0.023437 0.1289062,0.046875 0.058594,0.035156 0.09375,0.046875 0.1289063,0.046875 0.1054687,0 0.1757812,-0.082031 0.1757812,-0.1875 0,-0.1054688 -0.082031,-0.1757813 -0.1992187,-0.1757813 -0.2226563,0 -0.4101563,0.1757813 -0.7617188,0.703125 l -0.046875,-0.2695312 c -0.070312,-0.3398438 -0.1289062,-0.4335938 -0.25781247,-0.4335938 -0.1171875,0 -0.28125,0.035156 -0.5859375,0.140625 l -0.0585938,0.023437 0.0234375,0.070312 c 0.1875,-0.046875 0.234375,-0.058594 0.28125,-0.058594 0.1171875,0 0.15234375,0.046875 0.22265625,0.3515625 l 0.140625,0.609375 -0.41015625,0.58593746 c -0.09375,0.140625 -0.19921875,0.234375 -0.24609375,0.234375 -0.0351563,0 -0.0820313,-0.0117188 -0.12890625,-0.046875 -0.0703125,-0.0351563 -0.12890625,-0.046875 -0.1640625,-0.046875 -0.09375,0 -0.1640625,0.0703125 -0.1640625,0.17578125 0,0.12890625 0.09375,0.2109375 0.24609375,0.2109375 0.15234375,0 0.2109375,-0.046875 0.45703125,-0.3515625 0.140625,-0.1640625 0.24609375,-0.29296875 0.45703117,-0.5859375 l 0.140625,0.59765625 c 0.070312,0.2578125 0.1289063,0.33984375 0.2929688,0.33984375 0.1875,0 0.3164062,-0.12890625 0.6093751,-0.57421875 z m 0,0"
         style="fill:#000000;fill-opacity:1;fill-rule:nonzero;stroke:none" />
      <path
         id="path19"
         d="m 4.5929531,-2.4868281 -0.070312,-0.023437 c -0.1757812,0.28125 -0.2460937,0.328125 -0.46875,0.328125 h -1.195313 l 0.84375,-0.8789063 c 0.4453125,-0.46875 0.6328125,-0.84375 0.6328125,-1.2304687 0,-0.5039063 -0.3984375,-0.8789063 -0.9140625,-0.8789063 -0.28125,0 -0.5390625,0.1054688 -0.7265625,0.3046875 -0.1523437,0.1640625 -0.234375,0.328125 -0.3164062,0.6796875 l 0.1054687,0.023437 c 0.1992188,-0.4804687 0.375,-0.6445312 0.7265625,-0.6445312 0.4101563,0 0.703125,0.28125 0.703125,0.703125 0,0.3867187 -0.234375,0.8554687 -0.65625,1.3007812 l -0.8789062,0.9375 v 0.058594 h 1.9453125 z m 0,0"
         style="fill:#000000;fill-opacity:1;fill-rule:nonzero;stroke:none" />
    </g>
    <g
       id="g19"
       aria-label="x&#10;1"
       transform="matrix(1.3333333,0,0,1.3333333,216.20133,68.417333)">
      <path
         id="path20"
         d="m 2.00525,-0.55030469 c -0.046875,0.046875 -0.070313,0.0703125 -0.1054687,0.12890625 -0.1171875,0.15234375 -0.1757813,0.19921875 -0.234375,0.19921875 -0.070312,0 -0.1171875,-0.0585937 -0.1523438,-0.19921875 -0.011719,-0.046875 -0.011719,-0.0703125 -0.023437,-0.0820313 C 1.3607188,-1.0073359 1.3138438,-1.2417109 1.3138438,-1.3120234 c 0.2109375,-0.3867188 0.3984375,-0.609375 0.4804687,-0.609375 0.035156,0 0.070312,0.023437 0.1289063,0.046875 0.058594,0.035156 0.09375,0.046875 0.1289062,0.046875 0.1054688,0 0.1757813,-0.082031 0.1757813,-0.1875 0,-0.1054688 -0.082031,-0.1757813 -0.1992188,-0.1757813 -0.2226562,0 -0.4101562,0.1757813 -0.7617187,0.703125 l -0.046875,-0.2695312 c -0.070312,-0.3398438 -0.1289063,-0.4335938 -0.25781255,-0.4335938 -0.1171875,0 -0.28125,0.035156 -0.5859375,0.140625 l -0.0585938,0.023437 0.0234375,0.070312 c 0.1875,-0.046875 0.234375,-0.058594 0.28125,-0.058594 0.1171875,0 0.15234375,0.046875 0.22265625,0.3515625 l 0.140625,0.609375 -0.41015625,0.58593746 c -0.09375,0.140625 -0.19921875,0.234375 -0.24609375,0.234375 -0.0351563,0 -0.0820312,-0.0117188 -0.12890625,-0.046875 -0.0703125,-0.0351563 -0.12890625,-0.046875 -0.1640625,-0.046875 -0.09375,0 -0.1640625,0.0703125 -0.1640625,0.17578125 0,0.12890625 0.09375,0.2109375 0.24609375,0.2109375 0.15234375,0 0.2109375,-0.046875 0.45703125,-0.3515625 0.140625,-0.1640625 0.24609375,-0.29296875 0.45703125,-0.5859375 l 0.140625,0.59765625 c 0.070312,0.2578125 0.1289062,0.33984375 0.2929688,0.33984375 0.1875,0 0.3164062,-0.12890625 0.609375,-0.57421875 z m 0,0"
         style="fill:#000000;fill-opacity:1;fill-rule:nonzero;stroke:none" />
      <path
         id="path21"
         d="m 3.6810313,-5.1704219 -0.9023438,0.4453125 v 0.070312 c 0.058594,-0.023437 0.1171875,-0.046875 0.140625,-0.046875 0.082031,-0.035156 0.1757813,-0.058594 0.2226563,-0.058594 0.1054687,0 0.1523437,0.070312 0.1523437,0.234375 v 2.25 c 0,0.1640625 -0.046875,0.28125 -0.1289062,0.328125 -0.070312,0.046875 -0.140625,0.058594 -0.3515625,0.070312 v 0.070312 h 1.3710937 v -0.070312 c -0.3867187,-0.011719 -0.46875,-0.058594 -0.46875,-0.2929688 v -2.9882812 z m 0,0"
         style="fill:#000000;fill-opacity:1;fill-rule:nonzero;stroke:none" />
    </g>
    <path
       id="path22"
       d="m 85.47957,-14.24658 v -14.1734 h 14.17338"
       style="fill:none;stroke:#000000;stroke-width:0.3985;stroke-linecap:butt;stroke-linejoin:miter;stroke-miterlimit:10;stroke-dasharray:none;stroke-opacity:1"
       transform="matrix(1.3333333,0,0,-1.3333333,92.025333,51.345333)" />
    <path
       id="path23"
       d="m 109.71014,-22.44234 c 6.40606,0 12.32741,-3.41867 15.53043,-8.96647 -3.20302,-5.54781 -9.12437,-8.96648 -15.53043,-8.96648 l -8.96647,3e-5 c 1.34114,2.84525 2.03123,5.88823 2.03123,8.95693 0,3.06871 -0.69009,6.11167 -2.03123,8.95693 z M 97.75476,-40.37526 97.9088,-40.103 m 0,0 0.14941,0.2753 m 0,0 0.14449,0.27745 m 0,0 0.13955,0.2802 m 0,0 0.13491,0.28241 m 0,0 0.1297,0.28484 m 0,0 0.12478,0.28706 m 0,0 0.11985,0.28921 m 0,0 0.11465,0.29116 m 0,0 0.10973,0.29306 m 0,0 0.10453,0.29497 m 0,0 0.09932,0.29689 m 0,0 0.09386,0.29855 m 0,0 0.08893,0.30017 m 0,0 0.08372,0.30154 m 0,0 0.07854,0.30318 m 0,0 0.0728,0.30429 m 0,0 0.06786,0.30539 m 0,0 0.06237,0.30675 m 0,0 0.05721,0.30784 m 0,0 0.05144,0.30864 m 0,0 0.04625,0.30948 m 0,0 0.04104,0.31031 m 0,0 0.0353,0.31114 m 0,0 0.0298,0.31138 m 0,0 0.0246,0.31194 m 0,0 0.0191,0.31251 m 0,0 0.0137,0.31275 m 0,0 0.008,0.31277 m 0,0 0.003,0.31302 m 0,0 -0.003,0.31302 m 0,0 -0.008,0.31278 m 0,0 -0.0137,0.31274 m 0,0 -0.0191,0.3125 m 0,0 -0.0246,0.31195 m 0,0 -0.0298,0.31139 m 0,0 -0.0353,0.31114 m 0,0 -0.04104,0.3103 m 0,0 -0.04625,0.30948 m 0,0 -0.05144,0.30864 m 0,0 -0.05721,0.30785 m 0,0 -0.06237,0.30674 m 0,0 -0.06786,0.30539 m 0,0 -0.0728,0.30428 m 0,0 -0.07854,0.30319 m 0,0 -0.08372,0.30153 m 0,0 -0.08893,0.30018 m 0,0 -0.09386,0.29856 m 0,0 -0.09932,0.29689 m 0,0 -0.10453,0.29497 m 0,0 -0.10973,0.29306 m 0,0 -0.11465,0.29115 m 0,0 -0.11985,0.28921 m 0,0 -0.12478,0.28707 m 0,0 -0.1297,0.28483 m 0,0 -0.13491,0.28241 m 0,0 -0.13955,0.2802 m 0,0 -0.14449,0.27745 m 0,0 -0.14941,0.2753 m 0,0 -0.15404,0.27226"
       style="fill:none;stroke:#000000;stroke-width:0.3985;stroke-linecap:butt;stroke-linejoin:miter;stroke-miterlimit:10;stroke-dasharray:none;stroke-opacity:1"
       transform="matrix(1.3333333,0,0,-1.3333333,92.025333,51.345333)" />
    <path
       id="path24"
       d="M 99.65295,-34.39761 H 85.47957"
       style="fill:none;stroke:#000000;stroke-width:0.3985;stroke-linecap:butt;stroke-linejoin:miter;stroke-miterlimit:10;stroke-dasharray:none;stroke-opacity:1"
       transform="matrix(1.3333333,0,0,-1.3333333,92.025333,51.345333)" />
    <path
       id="path25"
       d="m 69.66158,-25.43115 c 6.40605,0 12.32739,-3.41867 15.53041,-8.96648 -3.20302,-5.5478 -9.12436,-8.96647 -15.53041,-8.96647 l -8.96648,3e-5 c 1.34112,2.84524 2.03122,5.88822 2.03122,8.95692 0,3.06871 -0.6901,6.11168 -2.03122,8.95694 z m -11.95539,-17.93292 0.15404,0.27226 m 0,0 0.1494,0.2753 m 0,0 0.1445,0.27745 m 0,0 0.13956,0.28019 m 0,0 0.1349,0.28241 m 0,0 0.12968,0.28484 m 0,0 0.12479,0.28706 m 0,0 0.11984,0.28922 m 0,0 0.11466,0.29115 m 0,0 0.10972,0.29306 m 0,0 0.10454,0.29497 m 0,0 0.09932,0.29689 m 0,0 0.09386,0.29855 m 0,0 0.08893,0.30017 m 0,0 0.08374,0.30155 m 0,0 0.07853,0.30318 m 0,0 0.0728,0.30429 m 0,0 0.06784,0.30539 m 0,0 0.0624,0.30674 m 0,0 0.0572,0.30785 m 0,0 0.05142,0.30864 m 0,0 0.04625,0.30948 m 0,0 0.04105,0.3103 m 0,0 0.03529,0.31114 m 0,0 0.02985,0.31139 m 0,0 0.02463,0.31193 m 0,0 0.01915,0.31252 m 0,0 0.01368,0.31275 m 0,0 0.0082,0.31277 m 0,0 0.0027,0.31302 m 0,0 -0.0027,0.31301 m 0,0 -0.0082,0.31278 m 0,0 -0.01368,0.31274 m 0,0 -0.01915,0.3125 m 0,0 -0.02463,0.31195 m 0,0 -0.02985,0.31139 m 0,0 -0.03529,0.31114 m 0,0 -0.04105,0.3103 m 0,0 -0.04625,0.30948 m 0,0 -0.05142,0.30864 m 0,0 -0.0572,0.30785 m 0,0 -0.0624,0.30675 m 0,0 -0.06784,0.30538 m 0,0 -0.0728,0.30428 m 0,0 -0.07853,0.30319 m 0,0 -0.08374,0.30153 m 0,0 -0.08893,0.30019 m 0,0 -0.09386,0.29855 m 0,0 -0.09932,0.29689 m 0,0 -0.10454,0.29497 m 0,0 -0.10972,0.29306 m 0,0 -0.11466,0.29115 m 0,0 -0.11984,0.28922 m 0,0 -0.12479,0.28705 m 0,0 -0.12968,0.28485 m 0,0 -0.1349,0.28241 m 0,0 -0.13956,0.2802 m 0,0 -0.1445,0.27745 m 0,0 -0.1494,0.2753 m 0,0 -0.15404,0.27226"
       style="fill:none;stroke:#000000;stroke-width:0.3985;stroke-linecap:butt;stroke-linejoin:miter;stroke-miterlimit:10;stroke-dasharray:none;stroke-opacity:1"
       transform="matrix(1.3333333,0,0,-1.3333333,92.025333,51.345333)" />
    <path
       id="path26"
       d="M 0,-14.24658 V -37.38643 H 59.60439"
       style="fill:none;stroke:#000000;stroke-width:0.3985;stroke-linecap:butt;stroke-linejoin:miter;stroke-miterlimit:10;stroke-dasharray:none;stroke-opacity:1"
       transform="matrix(1.3333333,0,0,-1.3333333,92.025333,51.345333)" />
    <path
       id="path27"
       d="M 56.98637,-14.24658 V -31.4088 h 2.61802"
       style="fill:none;stroke:#000000;stroke-width:0.3985;stroke-linecap:butt;stroke-linejoin:miter;stroke-miterlimit:10;stroke-dasharray:none;stroke-opacity:1"
       transform="matrix(1.3333333,0,0,-1.3333333,92.025333,51.345333)" />
    <path
       id="path28"
       d="m 99.72615,0 h 28.34682 v -31.4088 h -2.54483"
       style="fill:none;stroke:#000000;stroke-width:0.3985;stroke-linecap:butt;stroke-linejoin:miter;stroke-miterlimit:10;stroke-dasharray:none;stroke-opacity:1"
       transform="matrix(1.3333333,0,0,-1.3333333,92.025333,51.345333)" />
    <path
       id="path29"
       d="M -14.24658,0 H -33.51416"
       style="fill:none;stroke:#000000;stroke-width:0.3985;stroke-linecap:butt;stroke-linejoin:miter;stroke-miterlimit:10;stroke-dasharray:none;stroke-opacity:1"
       transform="matrix(1.3333333,0,0,-1.3333333,92.025333,51.345333)" />
    <path
       id="path30"
       d="M 1.99252,0 -1.19551,1.59401 0,0 -1.19551,-1.59401"
       style="fill:#000000;fill-opacity:1;fill-rule:nonzero;stroke:none"
       transform="matrix(-1.3333333,0,0,1.3333333,47.339787,51.345333)" />
    <path
       id="path31"
       d="m 6.5869922,-3.1509687 c 0,-1.9453125 -1.4179688,-3.4335938 -3.0703125,-3.4335938 -1.6992188,0 -3.08203126,1.5234375 -3.08203126,3.4335938 0,1.875 1.42968746,3.2929687 3.07031246,3.2929687 1.6875,0 3.0820313,-1.4414062 3.0820313,-3.2929687 z M 3.5166797,-0.748625 c -1.03125,0 -1.9921875,-0.8554687 -1.9921875,-2.5546875 0,-1.734375 1.078125,-2.4140625 1.9804687,-2.4140625 0.984375,0 1.9921875,0.7382813 1.9921875,2.4140625 0,1.7695313 -1.0195312,2.5546875 -1.9804687,2.5546875 z m 9.5888673,-5.6132812 h -1.089844 v 4.1015625 c 0,1.0898437 -0.761719,1.61718745 -1.6875,1.61718745 -1.0078124,0 -1.1132811,-0.37499995 -1.1132811,-1.00781245 V -6.3619062 H 8.1250781 v 4.7695312 c 0,1.03125 0.328125,1.734375 1.5117188,1.734375 0.3984371,0 1.5351561,-0.0703125 2.4023441,-0.85546875 V 0.001375 h 1.066406 z m 3.574219,0.8320312 h 1.980468 v -0.8320312 h -1.980468 v -1.828125 h -0.984375 v 1.828125 h -1.207032 v 0.8320312 h 1.171875 v 3.8554688 c 0,0.8320312 0.1875,1.8164062 1.183594,1.8164062 0.960938,0 1.617188,-0.328125 2.0625,-0.55078125 L 18.695391,-1.2408125 c -0.503907,0.43359375 -1.03125,0.4921875 -1.289063,0.4921875 -0.632812,0 -0.726562,-0.6679687 -0.726562,-1.171875 z m 0,0"
       style="fill:#000000;fill-opacity:1;fill-rule:nonzero;stroke:none"
       aria-label="out"
       transform="matrix(1.3333333,0,0,1.3333333,12.44,56.810667)" />
    <path
       id="path32"
       d="m 5.7545234,-1.5473203 c -0.65625,0.5273437 -1.3945312,0.79687499 -2.1914062,0.79687499 -1.1953125,0 -1.96875,-1.05468749 -1.96875,-2.44921879 0,-1.1953125 0.5742187,-2.4960937 2.0039062,-2.4960937 0.9609375,0 1.3710938,0.234375 1.9804688,0.6445312 l 0.1757812,-0.9257812 c -0.8320312,-0.4921875 -1.3125,-0.609375 -2.15625,-0.609375 -1.9804687,0 -3.09374996,1.7578125 -3.09374996,3.3867187 0,1.8398438 1.31249996,3.33984379 3.03515626,3.33984379 0.703125,0 1.5117187,-0.1640625 2.296875,-0.73828125 0,-0.046875 -0.046875,-0.49218754 -0.058594,-0.55078124 z M 8.4234687,-9.9496641 H 7.3570625 v 9.9492187875 h 1.0664062 z m 5.0273433,6.0351563 2.355469,-2.4492188 h -1.324219 l -2.765625,2.8828125 v -6.46875 H 10.66175 v 9.9492187875 h 1.007812 V -2.0629453 l 1.089844,-1.1367188 2.179688,3.1992187875 h 1.183593 z m 0,0"
       style="fill:#000000;fill-opacity:1;fill-rule:nonzero;stroke:none"
       aria-label="clk"
       transform="matrix(1.3333333,0,0,1.3333333,6.9093333,20.192)" />
    <path
       id="path33"
       d="M -42.5934,28.3468 H 85.47957"
       style="fill:none;stroke:#000000;stroke-width:0.3985;stroke-linecap:butt;stroke-linejoin:miter;stroke-miterlimit:10;stroke-dasharray:none;stroke-opacity:1"
       transform="matrix(1.3333333,0,0,-1.3333333,92.025333,51.345333)" />
    <path
       id="path34"
       d="M 0,14.24658 V 28.3468"
       style="fill:none;stroke:#000000;stroke-width:0.3985;stroke-linecap:butt;stroke-linejoin:miter;stroke-miterlimit:10;stroke-dasharray:none;stroke-opacity:1"
       transform="matrix(1.3333333,0,0,-1.3333333,92.025333,51.345333)" />
    <path
       id="path35"
       d="m 1.75589,28.3468 c 0,0.96977 -0.78613,1.7559 -1.75589,1.7559 -0.96976,0 -1.75589,-0.78613 -1.75589,-1.7559 0,-0.96976 0.78613,-1.7559 1.75589,-1.7559 0.96976,0 1.75589,0.78614 1.75589,1.7559 z"
       style="fill:#000000;fill-opacity:1;fill-rule:nonzero;stroke:none"
       transform="matrix(1.3333333,0,0,-1.3333333,92.025333,51.345333)" />
    <path
       id="path36"
       d="M 28.49318,14.24658 V 28.3468"
       style="fill:none;stroke:#000000;stroke-width:0.3985;stroke-linecap:butt;stroke-linejoin:miter;stroke-miterlimit:10;stroke-dasharray:none;stroke-opacity:1"
       transform="matrix(1.3333333,0,0,-1.3333333,92.025333,51.345333)" />
    <path
       id="path37"
       d="m 30.24908,28.3468 c 0,0.96977 -0.78613,1.7559 -1.7559,1.7559 -0.96976,0 -1.75591,-0.78613 -1.75591,-1.7559 0,-0.96976 0.78615,-1.7559 1.75591,-1.7559 0.96977,0 1.7559,0.78614 1.7559,1.7559 z"
       style="fill:#000000;fill-opacity:1;fill-rule:nonzero;stroke:none"
       transform="matrix(1.3333333,0,0,-1.3333333,92.025333,51.345333)" />
    <path
       id="path38"
       d="M 56.98637,14.24658 V 28.3468"
       style="fill:none;stroke:#000000;stroke-width:0.3985;stroke-linecap:butt;stroke-linejoin:miter;stroke-miterlimit:10;stroke-dasharray:none;stroke-opacity:1"
       transform="matrix(1.3333333,0,0,-1.3333333,92.025333,51.345333)" />
    <path
       id="path39"
       d="m 58.74228,28.3468 c 0,0.96977 -0.78615,1.7559 -1.75591,1.7559 -0.96977,0 -1.7559,-0.78613 -1.7559,-1.7559 0,-0.96976 0.78613,-1.7559 1.7559,-1.7559 0.96976,0 1.75591,0.78614 1.75591,1.7559 z"
       style="fill:#000000;fill-opacity:1;fill-rule:nonzero;stroke:none"
       transform="matrix(1.3333333,0,0,-1.3333333,92.025333,51.345333)" />
    <path
       id="path40"
       d="M 85.47957,14.24658 V 28.3468"
       style="fill:none;stroke:#000000;stroke-width:0.3985;stroke-linecap:butt;stroke-linejoin:miter;stroke-miterlimit:10;stroke-dasharray:none;stroke-opacity:1"
       transform="matrix(1.3333333,0,0,-1.3333333,92.025333,51.345333)" />
  </g>
</svg>
