<?xml version="1.0" encoding="UTF-8" standalone="no"?>
<!-- Created with Inkscape (http://www.inkscape.org/) -->

<svg
   version="1.1"
   id="svg1"
   width="757.23865"
   height="155.11867"
   viewBox="0 0 757.23865 155.11867"
   sodipodi:docname="main.pdf"
   xmlns:inkscape="http://www.inkscape.org/namespaces/inkscape"
   xmlns:sodipodi="http://sodipodi.sourceforge.net/DTD/sodipodi-0.dtd"
   xmlns="http://www.w3.org/2000/svg"
   xmlns:svg="http://www.w3.org/2000/svg">
  <defs
     id="defs1" />
  <sodipodi:namedview
     id="namedview1"
     pagecolor="#ffffff"
     bordercolor="#000000"
     borderopacity="0.25"
     inkscape:showpageshadow="2"
     inkscape:pageopacity="0.0"
     inkscape:pagecheckerboard="0"
     inkscape:deskcolor="#d1d1d1">
    <inkscape:page
       x="0"
       y="0"
       inkscape:label="1"
       id="page1"
       width="757.23865"
       height="155.11867"
       margin="0"
       bleed="0" />
  </sodipodi:namedview>
  <g
     id="g1"
     inkscape:groupmode="layer"
     inkscape:label="1">
    <path
       id="path1"
       d="M 0,0 H 567.929 V 116.339 H 0 Z"
       style="fill:#ffffff;fill-opacity:1;fill-rule:nonzero;stroke:none"
       transform="matrix(1.3333333,0,0,-1.3333333,0,155.11867)" />
    <path
       id="path2"
       d="M 0,0 V 63.7803 H 566.93619 V 0 Z"
       style="fill:#808080;fill-opacity:1;fill-rule:nonzero;stroke:none"
       transform="matrix(1.3333333,0,0,-1.3333333,0.66666667,117.128)" />
    <path
       id="path3"
       d="M 255.12128,0 V 7.08669 H 311.8149 V 0 Z"
       style="fill:#ffffff;fill-opacity:1;fill-rule:nonzero;stroke:none"
       transform="matrix(1.3333333,0,0,-1.3333333,0.66666667,117.128)" />
    <path
       id="path4"
       d="M 255.12128,14.17339 V 21.2601 H 311.8149 V 14.17339 Z"
       style="fill:#ffffff;fill-opacity:1;fill-rule:nonzero;stroke:none"
       transform="matrix(1.3333333,0,0,-1.3333333,0.66666667,117.128)" />
    <path
       id="path5"
       d="m 255.12128,28.3468 v 7.08669 H 311.8149 V 28.3468 Z"
       style="fill:#ffffff;fill-opacity:1;fill-rule:nonzero;stroke:none"
       transform="matrix(1.3333333,0,0,-1.3333333,0.66666667,117.128)" />
    <path
       id="path6"
       d="m 255.12128,42.5202 v 7.0867 h 56.69362 v -7.0867 z"
       style="fill:#ffffff;fill-opacity:1;fill-rule:nonzero;stroke:none"
       transform="matrix(1.3333333,0,0,-1.3333333,0.66666667,117.128)" />
    <path
       id="path7"
       d="M 255.12128,56.69362 V 63.7803 H 311.8149 V 56.69362 Z"
       style="fill:#ffffff;fill-opacity:1;fill-rule:nonzero;stroke:none"
       transform="matrix(1.3333333,0,0,-1.3333333,0.66666667,117.128)" />
    <path
       id="path8"
       d="m 252.7309,70.867 c 0,2.59374 -2.10259,4.69632 -4.69632,4.69632 -2.59374,0 -4.69632,-2.10258 -4.69632,-4.69632 0,-2.59372 2.10258,-4.6963 4.69632,-4.6963 2.59373,0 4.69632,2.10258 4.69632,4.6963 z"
       style="fill:#b3f7b3;fill-opacity:1;fill-rule:nonzero;stroke:#19ba19;stroke-width:1.59404;stroke-linecap:butt;stroke-linejoin:miter;stroke-miterlimit:10;stroke-dasharray:none;stroke-opacity:1"
       transform="matrix(1.3333333,0,0,-1.3333333,0.66666667,117.128)" />
    <path
       id="path9"
       d="m 252.7309,81.8537 c 0,2.59372 -2.10259,4.6963 -4.69632,4.6963 -2.59374,0 -4.69632,-2.10258 -4.69632,-4.6963 0,-2.59374 2.10258,-4.69632 4.69632,-4.69632 2.59373,0 4.69632,2.10258 4.69632,4.69632 z"
       style="fill:#e81919;fill-opacity:1;fill-rule:nonzero;stroke:#ba1919;stroke-width:1.59404;stroke-linecap:butt;stroke-linejoin:miter;stroke-miterlimit:10;stroke-dasharray:none;stroke-opacity:1"
       transform="matrix(1.3333333,0,0,-1.3333333,0.66666667,117.128)" />
    <path
       id="path10"
       d="m 323.59792,28.3468 c 0,2.59374 -2.1026,4.69632 -4.69632,4.69632 -2.59374,0 -4.69632,-2.10258 -4.69632,-4.69632 0,-2.59373 2.10258,-4.69632 4.69632,-4.69632 2.59372,0 4.69632,2.10259 4.69632,4.69632 z"
       style="fill:#f8f5b5;fill-opacity:1;fill-rule:nonzero;stroke:#ebe8ba;stroke-width:1.59404;stroke-linecap:butt;stroke-linejoin:miter;stroke-miterlimit:10;stroke-dasharray:none;stroke-opacity:1"
       transform="matrix(1.3333333,0,0,-1.3333333,0.66666667,117.128)" />
    <path
       id="path11"
       d="m 323.59792,39.33348 c 0,2.59374 -2.1026,4.69632 -4.69632,4.69632 -2.59374,0 -4.69632,-2.10258 -4.69632,-4.69632 0,-2.59373 2.10258,-4.69632 4.69632,-4.69632 2.59372,0 4.69632,2.10259 4.69632,4.69632 z"
       style="fill:#f7b3b3;fill-opacity:1;fill-rule:nonzero;stroke:#e8b3b3;stroke-width:1.59404;stroke-linecap:butt;stroke-linejoin:miter;stroke-miterlimit:10;stroke-dasharray:none;stroke-opacity:1"
       transform="matrix(1.3333333,0,0,-1.3333333,0.66666667,117.128)" />
    <path
       id="path12"
       d="m 323.59792,17.36012 c 0,2.59374 -2.1026,4.69632 -4.69632,4.69632 -2.59374,0 -4.69632,-2.10258 -4.69632,-4.69632 0,-2.59373 2.10258,-4.69632 4.69632,-4.69632 2.59372,0 4.69632,2.10259 4.69632,4.69632 z"
       style="fill:#19e819;fill-opacity:1;fill-rule:nonzero;stroke:#19ba19;stroke-width:1.59404;stroke-linecap:butt;stroke-linejoin:miter;stroke-miterlimit:10;stroke-dasharray:none;stroke-opacity:1"
       transform="matrix(1.3333333,0,0,-1.3333333,0.66666667,117.128)" />
    <path
       id="path13"
       d="m 252.7309,-14.17339 c 0,2.59372 -2.10259,4.69632 -4.69632,4.69632 -2.59374,0 -4.69632,-2.1026 -4.69632,-4.69632 0,-2.59373 2.10258,-4.69631 4.69632,-4.69631 2.59373,0 4.69632,2.10258 4.69632,4.69631 z"
       style="fill:#000000;fill-opacity:1;fill-rule:nonzero;stroke:#000000;stroke-width:0.3985;stroke-linecap:butt;stroke-linejoin:miter;stroke-miterlimit:10;stroke-dasharray:none;stroke-opacity:1"
       transform="matrix(1.3333333,0,0,-1.3333333,0.66666667,117.128)" />
    <path
       id="path14"
       d="m 247.75279,-14.45517 -6.76297,-6.76297"
       style="fill:none;stroke:#000000;stroke-width:0.3985;stroke-linecap:butt;stroke-linejoin:miter;stroke-miterlimit:10;stroke-dasharray:none;stroke-opacity:1"
       transform="matrix(1.3333333,0,0,-1.3333333,0.66666667,117.128)" />
    <path
       id="path15"
       d="M -2.07224,2.39104 C -1.69365,0.95639 -0.84999,0.27895 0,0 -0.84999,-0.27895 -1.69365,-0.95639 -2.07224,-2.39104"
       style="fill:none;stroke:#000000;stroke-width:0.3985;stroke-linecap:round;stroke-linejoin:round;stroke-miterlimit:10;stroke-dasharray:none;stroke-opacity:1"
       transform="matrix(0.9428,-0.9428,-0.9428,-0.9428,331.19157,136.21372)" />
    <path
       id="path16"
       d="m 1.5226094,-6.7858359 -0.046875,-0.023437 c -0.421875,0.1523437 -0.69140627,0.234375 -1.16015627,0.3632812 l -0.28125,0.082031 v 0.1523437 c 0.05859375,0 0.09375,0 0.1640625,0 0.3984375,0 0.4921875,0.082031 0.4921875,0.5039063 v 5.16796871 c 0,0.3046875 0.84374997,0.64453125 1.64062497,0.64453125 1.3125,0 2.3320313,-1.1015625 2.3320313,-2.53124996 0,-1.21875 -0.7617188,-2.15625 -1.7578125,-2.15625 -0.609375,0 -1.1835938,0.3632812 -1.3828125,0.84375 z m 0,3.5742187 c 0,-0.3867187 0.46875,-0.7382812 0.984375,-0.7382812 0.7851562,0 1.2773437,0.7734375 1.2773437,1.9921875 0,1.10156246 -0.4804687,1.73437496 -1.2890625,1.73437496 -0.5273437,0 -0.9726562,-0.22265625 -0.9726562,-0.48046875 z m 8.0302734,2.70703126 h -0.046875 c -0.4570312,0 -0.5742187,-0.10546875 -0.5742187,-0.56249996 v -3.421875 H 7.3614766 v 0.1757812 c 0.6210937,0.023437 0.7382812,0.1289063 0.7382812,0.6210938 v 2.34375 c 0,0.28125 -0.046875,0.42187496 -0.1875,0.52734371 -0.2695312,0.22265625 -0.5742187,0.33984375 -0.8789062,0.33984375 -0.3867188,0 -0.703125,-0.33984375 -0.703125,-0.74999996 v -3.2578125 h -1.453125 v 0.140625 c 0.46875,0.035156 0.609375,0.1875 0.609375,0.6445312 v 2.5078125 c 0,0.78515626 0.4804687,1.30078126 1.2070312,1.30078126 0.375,0 0.7617188,-0.1640625 1.03125,-0.43359375 l 0.421875,-0.43359375 v 0.83203125 l 0.046875,0.0234375 c 0.4921875,-0.19921875 0.8554688,-0.31640625 1.359375,-0.45703125 z M 12.306789,-4.4889609 h -1.007812 v -1.1484375 c 0,-0.1054688 -0.01172,-0.1289063 -0.07031,-0.1289063 -0.07031,0.082031 -0.128906,0.1757813 -0.199219,0.28125 -0.375,0.5390625 -0.808593,1.0195313 -0.960937,1.0664063 -0.1171877,0.070312 -0.1757814,0.1289062 -0.1757814,0.1875 0,0.023437 0.011719,0.046875 0.035156,0.070312 h 0.5390624 v 3 c 0,0.83203121 0.292969,1.26562496 0.878907,1.26562496 0.492187,0 0.867187,-0.24609375 1.195312,-0.76171875 l -0.128906,-0.10546875 c -0.210938,0.24609375 -0.375,0.33984375 -0.597656,0.33984375 -0.363282,0 -0.515625,-0.26953125 -0.515625,-0.89062501 v -2.8476562 h 1.007812 z m 2.768555,0 h -1.007813 v -1.1484375 c 0,-0.1054688 -0.01172,-0.1289063 -0.07031,-0.1289063 -0.07031,0.082031 -0.128906,0.1757813 -0.199219,0.28125 -0.375,0.5390625 -0.808594,1.0195313 -0.960937,1.0664063 -0.117188,0.070312 -0.175782,0.1289062 -0.175782,0.1875 0,0.023437 0.01172,0.046875 0.03516,0.070312 H 13.2355 v 3 c 0,0.83203121 0.292969,1.26562496 0.878906,1.26562496 0.492188,0 0.867188,-0.24609375 1.195313,-0.76171875 l -0.128906,-0.10546875 c -0.210938,0.24609375 -0.375,0.33984375 -0.597657,0.33984375 -0.363281,0 -0.515625,-0.26953125 -0.515625,-0.89062501 v -2.8476562 h 1.007813 z m 2.724609,-0.09375 c -1.300781,0 -2.203125,0.9609375 -2.203125,2.3320312 0,1.34765626 0.925781,2.35546876 2.179688,2.35546876 1.253906,0 2.214843,-1.06640625 2.214843,-2.43749996 0,-1.3007813 -0.925781,-2.25 -2.191406,-2.25 z m -0.140625,0.28125 c 0.84375,0 1.429688,0.9492187 1.429688,2.3203125 0,1.12499996 -0.445313,1.80468746 -1.195313,1.80468746 -0.386719,0 -0.761719,-0.24609375 -0.960937,-0.64453125 -0.28125,-0.51562501 -0.445313,-1.20703121 -0.445313,-1.92187501 0,-0.9492187 0.46875,-1.5585937 1.171875,-1.5585937 z m 2.789063,0.3398437 c 0.05859,-0.035156 0.152343,-0.046875 0.269531,-0.046875 0.269531,0 0.363281,0.1523438 0.363281,0.6445313 v 2.46093746 c 0,0.57421875 -0.105469,0.71484375 -0.621094,0.75 v 0.1523437525 h 2.121094 V -0.15302344 c -0.515625,-0.0351563 -0.667969,-0.15234375 -0.667969,-0.515625 V -3.4694297 c 0.480469,-0.4453125 0.703125,-0.5625 1.03125,-0.5625 0.492188,0 0.726563,0.3046875 0.726563,0.9609375 v 2.08593751 c 0,0.62109375 -0.128906,0.796875 -0.632813,0.83203125 v 0.1523437525 h 2.074219 V -0.15302344 c -0.480469,-0.046875 -0.609375,-0.1640625 -0.609375,-0.65625 V -3.0944297 c 0,-0.9257812 -0.433594,-1.4882812 -1.171875,-1.4882812 -0.457031,0 -0.761719,0.1640625 -1.441406,0.8085937 v -0.7851562 l -0.07031,-0.023437 c -0.492187,0.1757812 -0.832031,0.2929687 -1.371093,0.4453125 z m 0,0"
       style="fill:#000000;fill-opacity:1;fill-rule:nonzero;stroke:none"
       aria-label="button"
       transform="matrix(1.3333333,0,0,1.3333333,283.60267,149.872)" />
  </g>
</svg>
