<?xml version="1.0" encoding="UTF-8" standalone="no"?>
<!-- Created with Inkscape (http://www.inkscape.org/) -->

<svg
   version="1.1"
   id="svg1"
   width="707.70667"
   height="386.82932"
   viewBox="0 0 707.70667 386.82932"
   sodipodi:docname="main.pdf"
   xmlns:inkscape="http://www.inkscape.org/namespaces/inkscape"
   xmlns:sodipodi="http://sodipodi.sourceforge.net/DTD/sodipodi-0.dtd"
   xmlns="http://www.w3.org/2000/svg"
   xmlns:svg="http://www.w3.org/2000/svg">
  <defs
     id="defs1" />
  <sodipodi:namedview
     id="namedview1"
     pagecolor="#ffffff"
     bordercolor="#000000"
     borderopacity="0.25"
     inkscape:showpageshadow="2"
     inkscape:pageopacity="0.0"
     inkscape:pagecheckerboard="0"
     inkscape:deskcolor="#d1d1d1">
    <inkscape:page
       x="0"
       y="0"
       inkscape:label="1"
       id="page1"
       width="707.70667"
       height="386.82932"
       margin="0"
       bleed="0" />
  </sodipodi:namedview>
  <g
     id="g1"
     inkscape:groupmode="layer"
     inkscape:label="1">
    <path
       id="path1"
       d="M 0,0 H 530.78 V 290.122 H 0 Z"
       style="fill:#ffffff;fill-opacity:1;fill-rule:nonzero;stroke:none"
       transform="matrix(1.3333333,0,0,-1.3333333,0,386.82933)" />
    <path
       id="path2"
       d="M -89.83096,-259.4439 V 29.68153 H 439.95541 V -259.4439 Z"
       style="fill:#ffffff;fill-opacity:1;fill-rule:nonzero;stroke:none"
       transform="matrix(1.3333333,0,0,-1.3333333,120.44,40.241333)" />
    <path
       id="path3"
       d="m 5.7535547,-1.5461641 c -0.65625,0.5273438 -1.3945313,0.79687504 -2.1914063,0.79687504 -1.1953125,0 -1.96875,-1.05468754 -1.96875,-2.44921874 0,-1.1953125 0.5742188,-2.4960938 2.0039063,-2.4960938 0.9609375,0 1.3710937,0.234375 1.9804687,0.6445313 l 0.1757813,-0.9257813 c -0.8320313,-0.4921875 -1.3125,-0.609375 -2.15625,-0.609375 -1.9804688,0 -3.09375001,1.7578125 -3.09375001,3.3867188 0,1.8398437 1.31250001,3.33984374 3.03515621,3.33984374 0.703125,0 1.5117188,-0.1640625 2.296875,-0.73828125 0,-0.046875 -0.046875,-0.49218749 -0.058594,-0.55078129 z M 8.4225,-9.9485078 H 7.3560937 V 7.109375e-4 H 8.4225 Z m 5.027344,6.0351562 2.355468,-2.4492187 h -1.324218 l -2.765625,2.8828125 v -6.46875 H 10.660781 V 7.109375e-4 h 1.007813 V -2.0617891 l 1.089843,-1.1367187 2.179688,3.1992187375 h 1.183594 z m 0,0"
       style="fill:#000000;fill-opacity:1;fill-rule:nonzero;stroke:none"
       aria-label="clk"
       transform="matrix(1.3333333,0,0,1.3333333,85.02,40.237333)" />
    <path
       id="path4"
       d="M 0,0.0037 H 20.40372 V 15.30649 H 40.80745 V 0.0037 H 61.21118 V 15.30649 H 81.61491 V 0.0037 h 20.40374 v 15.30279 h 20.40373 V 0.0037 h 20.40373 v 15.30279 h 20.40373 V 0.0037 h 20.40372 V 15.30649 H 204.0373 V 0.0037 h 20.40372 v 15.30279 h 20.40374 V 0.0037 h 20.40373 v 15.30279 h 20.40373 V 0.0037 h 20.40373 v 15.30279 h 20.40374 V 0.0037 h 20.40373 v 15.30279 h 20.40372 V 0.0037 h 20.40373 V 15.30649 H 408.0746 V 0.0037 h 20.40373"
       style="fill:none;stroke:#000000;stroke-width:0.95636;stroke-linecap:round;stroke-linejoin:round;stroke-miterlimit:10;stroke-dasharray:none;stroke-opacity:1"
       transform="matrix(1.3333333,0,0,-1.3333333,120.44,40.241333)" />
    <path
       id="path5"
       d="m 2.1791484,-3.1395391 c 0,-1.453125 1.0898438,-2.390625 2.3789063,-2.4140625 v -0.9609375 c -1.3007813,0.023437 -2.0625,0.7734375 -2.4492188,1.3359375 v -1.265625 H 1.1127422 V 0.00108594 H 2.1791484 Z M 10.845164,-9.9481328 H 9.7787578 v 4.1835937 c -0.65625,-0.5507812 -1.40625,-0.75 -2.015625,-0.75 -1.3710937,0 -2.484375,1.4648438 -2.484375,3.328125 0,1.8515625 1.0546875,3.32812504 2.4257813,3.32812504 0.5273437,0 1.3359375,-0.1640625 2.0507812,-0.8671875 v 0.7265625 h 1.0898437 z m -1.0898437,8.2617187 c -0.3515625,0.609375 -0.84375,0.97265629 -1.4765625,0.97265629 -0.8789062,0 -1.9101562,-0.67968749 -1.9101562,-2.46093749 0,-1.8984375 1.21875,-2.4726563 2.0507812,-2.4726563 0.5625,0 1.0195313,0.28125 1.3359375,0.7617188 z m 0,0"
       style="fill:#000000;fill-opacity:1;fill-rule:nonzero;stroke:none"
       aria-label="rd"
       transform="matrix(1.3333333,0,0,1.3333333,90.864,81.049333)" />
    <path
       id="path6"
       d="m 0,-30.6056 h 25.50465 l 2.55046,15.30279 h 38.25701 l 2.55046,-15.30279 h 201.48685 l 2.55046,15.30279 h 38.25699 l 2.55047,-15.30279 h 119.87192"
       style="fill:none;stroke:#000000;stroke-width:0.95636;stroke-linecap:round;stroke-linejoin:round;stroke-miterlimit:10;stroke-dasharray:none;stroke-opacity:1"
       transform="matrix(1.3333333,0,0,-1.3333333,120.44,40.241333)" />
    <path
       id="path7"
       d="M 9.3277656,-6.3618906 H 8.2730781 l -0.8554687,2.90625 c -0.1992188,0.6914062 -0.609375,2.0390625 -0.65625,2.64843747 H 6.7379219 C 6.7027656,-1.1470469 6.4683906,-2.1079844 6.1637031,-3.1275156 l -0.9375,-3.234375 H 4.2301094 l -0.8203125,2.8007812 c -0.2578125,0.890625 -0.5976563,2.1328125 -0.6445313,2.73046877 H 2.7535469 C 2.7418281,-1.1001719 2.5777656,-1.8618906 2.3082344,-2.8228281 L 1.2887031,-6.3618906 H 0.19885937 L 2.1207344,0.00139062 H 3.2222969 C 3.7730781,-1.8032969 4.6051094,-4.5337656 4.6871406,-5.5298594 h 0.011719 c 0.035156,0.5859375 0.3164062,1.6171875 0.421875,1.9453125 l 1.0195312,3.58593752 h 1.265625 z m 2.3994144,3.2226562 c 0,-1.453125 1.089843,-2.390625 2.378906,-2.4140625 v -0.9609375 c -1.300781,0.023437 -2.0625,0.7734375 -2.449219,1.3359375 v -1.265625 h -0.996094 v 6.44531252 h 1.066407 z m 0,0"
       style="fill:#000000;fill-opacity:1;fill-rule:nonzero;stroke:none"
       aria-label="wr"
       transform="matrix(1.3333333,0,0,1.3333333,87.742667,121.86533)" />
    <path
       id="path8"
       d="m 0,-61.21866 h 107.11958 l 2.55046,15.3028 h 38.25699 l 2.55048,-15.3028 h 283.10176"
       style="fill:none;stroke:#000000;stroke-width:0.95636;stroke-linecap:round;stroke-linejoin:round;stroke-miterlimit:10;stroke-dasharray:none;stroke-opacity:1"
       transform="matrix(1.3333333,0,0,-1.3333333,120.44,40.241333)" />
    <path
       id="path9"
       d="M 2.1809375,-9.9495938 H 1.1145312 V -3.75e-4 H 2.204375 v -0.64453125 c 0.6679687,0.6328125 1.3710937,0.78515625 1.875,0.78515625 1.359375,0 2.6015625,-1.3828125 2.6015625,-3.3398438 0,-1.7695312 -0.9375,-3.3164062 -2.2734375,-3.3164062 -0.421875,0 -1.3359375,0.09375 -2.2265625,0.8085937 z M 2.204375,-4.8285 c 0.2695312,-0.4101563 0.7851562,-0.8203125 1.4882812,-0.8203125 0.8671875,0 1.8984375,0.65625 1.8984375,2.4492187 0,1.8632813 -1.171875,2.48437505 -2.0507812,2.48437505 -0.3984375,0 -0.6679688,-0.140625 -0.9257813,-0.35156255 C 2.2629687,-1.35975 2.204375,-1.6175625 2.204375,-1.8636563 Z m 11.083008,-1.5351563 h -1.089844 v 4.1015625 c 0,1.0898438 -0.761719,1.61718755 -1.6875,1.61718755 -1.0078124,0 -1.1132812,-0.37500005 -1.1132812,-1.00781255 V -6.3636563 H 8.3069141 v 4.7695313 c 0,1.03125 0.328125,1.734375 1.5117187,1.734375 0.3984372,0 1.5351562,-0.0703125 2.4023442,-0.85546875 V -3.75e-4 h 1.066406 z M 19.228789,-6.141 c -0.914062,-0.4335938 -1.6875,-0.4453125 -2.015625,-0.4453125 -0.328125,0 -2.332031,0 -2.332031,1.8632812 0,0.6328125 0.351562,1.0664063 0.5625,1.265625 0.515625,0.4453125 0.878906,0.515625 1.722656,0.6914063 0.46875,0.09375 1.300781,0.2695312 1.300781,1.03125 0,0.984375 -1.113281,0.984375 -1.3125,0.984375 -0.574218,0 -1.40625,-0.15234375 -2.179687,-0.7148438 l -0.175781,0.9726563 c 0.07031,0.046875 1.042968,0.6328125 2.367187,0.6328125 1.851563,0 2.296875,-1.11328125 2.296875,-1.9570313 0,-0.7382812 -0.445312,-1.1953125 -0.503906,-1.265625 C 18.431914,-3.6331875 17.99832,-3.7152188 17.119414,-3.891 c -0.515625,-0.09375 -1.242187,-0.2460938 -1.242187,-0.9609375 0,-0.890625 1.007812,-0.890625 1.183593,-0.890625 0.761719,0 1.371094,0.1757812 2.003907,0.5390625 z m 6.779297,-0.2226563 h -1.078125 c -0.65625,1.6875 -1.757813,4.5 -1.816406,5.53125005 h -0.01172 C 23.019805,-1.6761563 22.269805,-3.5745938 22.152617,-3.8558438 l -1.019531,-2.5078125 h -1.136719 l 2.671875,6.3632813 -0.503906,1.3007812 c -0.316406,0.7265625 -0.527344,0.796875 -0.785156,0.796875 -0.199219,0 -0.667969,-0.046875 -1.113282,-0.2226562 l 0.09375,0.9375 c 0.08203,0.011719 0.550782,0.1171875 1.019532,0.1171875 0.339843,0 1.019531,0 1.628906,-1.5820313 z m 0,0"
       style="fill:#000000;fill-opacity:1;fill-rule:nonzero;stroke:none"
       aria-label="busy"
       transform="matrix(1.3333333,0,0,1.3333333,71.873333,162.688)" />
    <path
       id="path10"
       d="m 0,-91.83545 h 66.31212 l 2.55046,15.3028 h 38.257 l 2.55046,-15.3028 h 38.25699 l 2.55048,15.3028 h 79.06445 l 2.55046,-15.3028 h 79.06446 l 2.55047,15.3028 h 38.25699 l 2.55048,-15.3028 h 79.06445"
       style="fill:none;stroke:#000000;stroke-width:0.95636;stroke-linecap:round;stroke-linejoin:round;stroke-miterlimit:10;stroke-dasharray:none;stroke-opacity:1"
       transform="matrix(1.3333333,0,0,-1.3333333,120.44,40.241333)" />
    <path
       id="path11"
       d="m 2.1796641,-3.1399062 c 0,-1.453125 1.0898437,-2.390625 2.3789062,-2.4140625 v -0.9609375 c -1.3007812,0.023437 -2.0625,0.7734375 -2.4492187,1.3359375 v -1.265625 H 1.1132578 V 7.1875e-4 H 2.1796641 Z M 10.84568,-9.9485 H 9.7792734 v 4.1835938 c -0.65625,-0.5507813 -1.40625,-0.75 -2.015625,-0.75 -1.3710937,0 -2.484375,1.4648437 -2.484375,3.328125 0,1.8515625 1.0546875,3.32812495 2.4257813,3.32812495 0.5273437,0 1.3359375,-0.1640625 2.0507812,-0.8671875 V 7.1875e-4 H 10.84568 Z m -1.0898441,8.2617188 c -0.3515625,0.609375 -0.84375,0.9726562 -1.4765625,0.9726562 -0.8789062,0 -1.9101562,-0.6796875 -1.9101562,-2.4609375 0,-1.8984375 1.21875,-2.4726562 2.0507812,-2.4726562 0.5625,0 1.0195313,0.28125 1.3359375,0.7617187 z m 0,0"
       style="fill:#000000;fill-opacity:1;fill-rule:nonzero;stroke:none"
       aria-label="rd"
       transform="matrix(1.3333333,0,0,1.3333333,48.168,203.51467)" />
    <path
       id="path12"
       d="M 0,0 H 4.214"
       style="fill:none;stroke:#000000;stroke-width:0.398;stroke-linecap:butt;stroke-linejoin:round;stroke-miterlimit:10;stroke-dasharray:none;stroke-opacity:1"
       transform="matrix(1.3333333,0,0,-1.3333333,65.265333,203.24933)" />
    <path
       id="path13"
       d="M 6.2100469,-6.3625625 H 5.1319219 L 4.0889531,-3.5149062 C 3.8428594,-2.8235 3.3155156,-1.3000625 3.2217656,-0.77271875 H 3.2100469 C 3.1397344,-1.276625 2.8584844,-2.0617812 2.6358281,-2.682875 l -1.3125,-3.6796875 H 0.19832813 L 2.5655156,7.1875e-4 h 1.2773438 z m 5.8300781,2.15625 c 0,-1.3710937 -0.996094,-2.3789062 -2.3320312,-2.3789062 -0.8554688,0 -1.5,0.1992187 -2.203125,0.609375 l 0.082031,0.9375 c 0.6328125,-0.4570313 1.2890625,-0.7148438 2.1210938,-0.7148438 0.6679694,0 1.2421874,0.5273438 1.2421874,1.5820313 v 0.5859375 c -0.65625,0.023437 -1.5117187,0.070312 -2.3671874,0.3632812 -0.9609375,0.328125 -1.5234375,0.8554688 -1.5234375,1.5703125 0,0.6328125 0.375,1.79296875 1.59375,1.79296875 0.7851562,0 1.7929689,-0.22265625 2.3203129,-0.66796875 V 7.1875e-4 h 1.066406 z m -1.089844,2.2851563 c 0,0.28125 0,0.6328125 -0.480468,0.9140625 C 10.083094,-0.761 9.602625,-0.714125 9.3799688,-0.714125 c -0.7734375,0 -1.3007813,-0.421875 -1.3007813,-0.9492187 0,-0.9726563 1.9921875,-1.1953125 2.8710935,-1.1953125 z M 15.330164,-9.9485 H 14.263758 V 7.1875e-4 h 1.066406 z m 3.383789,0.2109375 h -1.230469 v 1.2304688 h 1.230469 z m -0.08203,3.375 H 17.565516 V 7.1875e-4 h 1.066406 z M 25.827234,-9.9485 h -1.066406 v 4.1835938 c -0.65625,-0.5507813 -1.40625,-0.75 -2.015625,-0.75 -1.371094,0 -2.484375,1.4648437 -2.484375,3.328125 0,1.8515625 1.054688,3.32812495 2.425781,3.32812495 0.527344,0 1.335938,-0.1640625 2.050782,-0.8671875 v 0.7265625 h 1.089843 z m -1.089843,8.2617188 c -0.351563,0.609375 -0.84375,0.9726562 -1.476563,0.9726562 -0.878906,0 -1.910156,-0.6796875 -1.910156,-2.4609375 0,-1.8984375 1.21875,-2.4726562 2.050781,-2.4726562 0.5625,0 1.019531,0.28125 1.335938,0.7617187 z m 0,0"
       style="fill:#000000;fill-opacity:1;fill-rule:nonzero;stroke:none"
       aria-label="valid"
       transform="matrix(1.3333333,0,0,1.3333333,70.884,203.51467)" />
    <path
       id="path14"
       d="m 0,-122.456 h 107.11958 l 2.55046,15.30282 h 38.25699 l 2.55048,-15.30282 h 201.48683 l 2.55048,15.30282 h 38.25698 l 2.55047,-15.30282 h 38.257"
       style="fill:none;stroke:#000000;stroke-width:0.95636;stroke-linecap:round;stroke-linejoin:round;stroke-miterlimit:10;stroke-dasharray:none;stroke-opacity:1"
       transform="matrix(1.3333333,0,0,-1.3333333,120.44,40.241333)" />
    <path
       id="path15"
       d="m 5.6130781,-4.2062891 c 0,-1.3710937 -0.9960937,-2.3789062 -2.3320312,-2.3789062 -0.8554688,0 -1.5,0.1992187 -2.203125,0.609375 l 0.082031,0.9375 c 0.6328125,-0.4570313 1.2890625,-0.7148438 2.1210938,-0.7148438 0.6679687,0 1.2421875,0.5273438 1.2421875,1.5820313 v 0.5859375 c -0.65625,0.023437 -1.5117188,0.070312 -2.3671875,0.3632812 -0.9609375,0.328125 -1.52343752,0.8554688 -1.52343752,1.5703125 0,0.6328125 0.37500002,1.79296879 1.59375002,1.79296879 0.7851562,0 1.7929687,-0.22265625 2.3203125,-0.66796875 V 7.421875e-4 h 1.0664062 z m -1.0898437,2.2851563 c 0,0.28125 0,0.6328125 -0.4804688,0.9140625 -0.3867187,0.24609374 -0.8671875,0.29296874 -1.0898437,0.29296874 -0.7734375,0 -1.3007813,-0.42187504 -1.3007813,-0.94921874 0,-0.9726563 1.9921875,-1.1953125 2.8710938,-1.1953125 z m 8.2705076,-8.0273438 h -1.066406 v 4.1835938 c -0.65625,-0.5507813 -1.40625,-0.75 -2.0156251,-0.75 -1.3710937,0 -2.484375,1.4648437 -2.484375,3.328125 0,1.8515625 1.0546875,3.32812499 2.4257813,3.32812499 0.5273438,0 1.3359378,-0.1640625 2.0507808,-0.8671875 V 7.421875e-4 h 1.089844 z m -1.089844,8.2617188 c -0.351562,0.609375 -0.84375,0.97265624 -1.476562,0.97265624 -0.8789063,0 -1.9101563,-0.67968754 -1.9101563,-2.46093754 0,-1.8984375 1.21875,-2.4726562 2.0507813,-2.4726562 0.5625,0 1.019531,0.28125 1.335937,0.7617187 z m 8.296875,-8.2617188 h -1.066406 v 4.1835938 c -0.65625,-0.5507813 -1.40625,-0.75 -2.015625,-0.75 -1.371094,0 -2.484375,1.4648437 -2.484375,3.328125 0,1.8515625 1.054688,3.32812499 2.425781,3.32812499 0.527344,0 1.335938,-0.1640625 2.050782,-0.8671875 V 7.421875e-4 h 1.089843 z m -1.089843,8.2617188 c -0.351563,0.609375 -0.84375,0.97265624 -1.476563,0.97265624 -0.878906,0 -1.910156,-0.67968754 -1.910156,-2.46093754 0,-1.8984375 1.21875,-2.4726562 2.050781,-2.4726562 0.5625,0 1.019531,0.28125 1.335938,0.7617187 z m 4.40625,-1.453125 c 0,-1.453125 1.089843,-2.390625 2.378906,-2.4140625 v -0.9609375 c -1.300781,0.023437 -2.0625,0.7734375 -2.449219,1.3359375 v -1.265625 H 22.250773 V 7.421875e-4 h 1.066407 z m 0,0"
       style="fill:#000000;fill-opacity:1;fill-rule:nonzero;stroke:none"
       aria-label="addr"
       transform="matrix(1.3333333,0,0,1.3333333,72.289333,244.34667)" />
    <path
       id="path16"
       d="m 0,-137.77559 25.50465,-9.3e-4 2.55046,-7.6514 -2.55046,-7.65141 L 0,-153.07838"
       style="fill:none;stroke:#000000;stroke-width:0.95636;stroke-linecap:round;stroke-linejoin:round;stroke-miterlimit:10;stroke-dasharray:none;stroke-opacity:1"
       transform="matrix(1.3333333,0,0,-1.3333333,120.44,40.241333)" />
    <path
       id="path17"
       d="m 1.3069271,-9.9596224 v 9.9609375 h 3.6914062 c 2.4023438,0 4.3164063,-2.1679687 4.3164063,-4.9023437 0,-2.7929688 -1.9140625,-5.0585938 -4.3164063,-5.0585938 z m 1.2109375,9.16015625 V -9.1588411 h 2.1484375 c 1.9140625,0 3.4375,1.6601562 3.4375,4.2578125 0,2.6171875 -1.5820313,4.10156245 -3.4375,4.10156245 z M 16.27763,-10.252591 c 0.07813,-0.175781 0.07813,-0.214844 0.07813,-0.234375 0,-0.195313 -0.15625,-0.273438 -0.273437,-0.273438 -0.175782,0 -0.214844,0.117188 -0.292969,0.3125 l -4.84375,13.5156254 c -0.05859,0.1953125 -0.05859,0.2148437 -0.05859,0.2539062 0,0.15625 0.117188,0.2734375 0.273438,0.2734375 0.175781,0 0.214843,-0.15625 0.273437,-0.3125 z m 9.033203,8.5937499 c -0.878906,0.66406245 -1.484375,0.89843745 -2.734375,0.89843745 -1.855468,0 -3.28125,-1.93359375 -3.28125,-4.25781245 0,-1.9335938 1.171875,-4.21875 3.339844,-4.21875 0.957031,0 1.679688,0.2929687 2.382813,0.78125 l 0.214843,-1.171875 c -0.917968,-0.3710938 -1.640625,-0.4882809 -2.617187,-0.4882809 -2.441406,0 -4.53125,2.1484371 -4.53125,5.1171871 0,3.1445313 2.304687,5.13671875 4.394531,5.13671875 1.445313,0 1.757813,-0.09765625 2.910156,-0.80078125 z m 0,0"
       style="fill:#000000;fill-opacity:1;fill-rule:nonzero;stroke:none"
       aria-label="D/C"
       transform="matrix(0.8,0,0,0.8,127.00133,237.01067)" />
    <path
       id="path18"
       d="m 28.05511,-145.42606 2.55048,7.6514 35.70653,-9.3e-4 2.55046,-7.6514 -2.55046,-7.65139 -35.70653,0.002 -2.55048,7.65139"
       style="fill:none;stroke:#000000;stroke-width:0.95636;stroke-linecap:round;stroke-linejoin:round;stroke-miterlimit:10;stroke-dasharray:none;stroke-opacity:1"
       transform="matrix(1.3333333,0,0,-1.3333333,120.44,40.241333)" />
    <path
       id="path19"
       d="m 5.6074349,-4.1996354 c 0,-1.3867188 -0.9765625,-2.3828125 -2.3242188,-2.3828125 -0.859375,0 -1.5039062,0.1953125 -2.2070312,0.6054687 l 0.097656,0.9375 c 0.625,-0.46875 1.2890625,-0.7226562 2.109375,-0.7226562 0.6640625,0 1.25,0.5273437 1.25,1.5820312 v 0.5859375 c -0.6640625,0.039063 -1.5234375,0.078125 -2.3828125,0.3710938 -0.9570312,0.3320312 -1.52343745,0.859375 -1.52343745,1.5625 0,0.6445312 0.37109375,1.79687498 1.60156245,1.79687498 0.78125,0 1.796875,-0.21484375 2.3242188,-0.6640625 v 0.52734375333 h 1.0546875 z m -1.0742188,2.2851562 c 0,0.2734375 0,0.625 -0.4882812,0.91796878 -0.390625,0.234375 -0.8789063,0.2734375 -1.09375,0.2734375 -0.7617188,0 -1.2890625,-0.41015628 -1.2890625,-0.93749998 0,-0.9765625 1.9921875,-1.1914063 2.8710937,-1.1914063 z m 8.2666019,-8.046875 H 11.74513 v 4.1992188 c -0.664062,-0.546875 -1.425781,-0.7617188 -2.0312498,-0.7617188 -1.3671875,0 -2.4804687,1.4648438 -2.4804687,3.3398438 0,1.8554687 1.0546875,3.32031248 2.421875,3.32031248 0.5273435,0 1.3281245,-0.15625 2.0507815,-0.859375 v 0.72265625333 h 1.09375 z m -1.09375,8.2617188 c -0.351563,0.625 -0.839844,0.97656248 -1.484375,0.97656248 -0.8593753,0 -1.8945315,-0.66406248 -1.8945315,-2.44140628 0,-1.9140625 1.2109375,-2.5 2.0507815,-2.5 0.546875,0 1.015625,0.2929688 1.328125,0.7617188 z m 8.295898,-8.2617188 h -1.054687 v 4.1992188 c -0.664063,-0.546875 -1.425782,-0.7617188 -2.03125,-0.7617188 -1.367188,0 -2.480469,1.4648438 -2.480469,3.3398438 0,1.8554687 1.054687,3.32031248 2.421875,3.32031248 0.527344,0 1.328125,-0.15625 2.050781,-0.859375 v 0.72265625333 h 1.09375 z m -1.09375,8.2617188 c -0.351562,0.625 -0.839844,0.97656248 -1.484375,0.97656248 -0.859375,0 -1.894531,-0.66406248 -1.894531,-2.44140628 0,-1.9140625 1.210937,-2.5 2.050781,-2.5 0.546875,0 1.015625,0.2929688 1.328125,0.7617188 z m 4.414063,-1.4453125 c 0,-1.4453125 1.09375,-2.4023438 2.382812,-2.4023438 v -0.9765625 c -1.308594,0.019531 -2.070312,0.78125 -2.460937,1.3476563 V -6.4457292 H 22.24806 v 6.44531253333 h 1.074219 z m 9.013672,-1.5429688 c 0,-0.9570312 -0.03906,-2.0507812 -0.410157,-3.0859375 -0.625,-1.6015625 -1.738281,-1.9335937 -2.5,-1.9335937 -0.9375,0 -1.835937,0.46875 -2.363281,1.6015625 -0.46875,1.0351562 -0.566406,2.1875 -0.566406,3.4179687 0,1.5820313 0.136719,2.4609375 0.585937,3.4765625 0.429688,0.93750003 1.347657,1.50390628 2.324219,1.50390628 0.957031,0 1.855469,-0.5078125 2.34375,-1.50390628 0.488281,-1.015625 0.585938,-2.0703125 0.585938,-3.4765625 z m -2.910157,4.12109378 c -1.835937,0 -1.835937,-2.92968748 -1.835937,-4.27734378 0,-0.9375 0,-1.8164062 0.253906,-2.6367187 0.351563,-1.015625 0.976563,-1.3671875 1.5625,-1.3671875 1.835938,0 1.835938,2.6757812 1.835938,4.0039062 0,0.9179688 0,1.8554688 -0.253907,2.7539063 -0.390625,1.36718748 -1.191406,1.52343748 -1.5625,1.52343748 z m 0,0"
       style="fill:#000000;fill-opacity:1;fill-rule:nonzero;stroke:none"
       aria-label="addr0"
       transform="matrix(0.8,0,0,0.8,171.87733,238.12533)" />
    <path
       id="path20"
       d="m 68.86258,-145.42511 2.55048,7.6514 35.70652,-9.5e-4 2.55046,-7.6514 -2.55046,-7.65139 -35.70652,0.002 -2.55048,7.6514"
       style="fill:none;stroke:#000000;stroke-width:0.95636;stroke-linecap:round;stroke-linejoin:round;stroke-miterlimit:10;stroke-dasharray:none;stroke-opacity:1"
       transform="matrix(1.3333333,0,0,-1.3333333,120.44,40.241333)" />
    <path
       id="path21"
       d="m 1.3096745,-9.9611719 v 9.960937525 h 3.6914062 c 2.4023438,0 4.3164063,-2.167968725 4.3164063,-4.902343725 0,-2.7929688 -1.9140625,-5.0585938 -4.3164063,-5.0585938 z M 2.520612,-0.80101563 V -9.1603906 h 2.1484375 c 1.9140625,0 3.4375,1.6601562 3.4375,4.2578125 0,2.6171875 -1.5820313,4.10156247 -3.4375,4.10156247 z M 16.275495,-10.254141 c 0.07813,-0.175781 0.07813,-0.214843 0.07813,-0.234375 0,-0.195312 -0.15625,-0.273437 -0.273438,-0.273437 -0.175781,0 -0.214843,0.117187 -0.292968,0.3125 l -4.84375,13.5156249 c -0.05859,0.1953125 -0.05859,0.2148437 -0.05859,0.2539062 0,0.15625 0.117187,0.2734375 0.273437,0.2734375 0.175782,0 0.214844,-0.15625 0.273438,-0.3125 z m 9.038086,8.5937504 c -0.878907,0.66406247 -1.484375,0.89843747 -2.734375,0.89843747 -1.855469,0 -3.28125,-1.93359377 -3.28125,-4.25781247 0,-1.9335938 1.171875,-4.21875 3.339843,-4.21875 0.957032,0 1.679688,0.2929687 2.382813,0.78125 l 0.214844,-1.171875 c -0.917969,-0.3710934 -1.640625,-0.4882814 -2.617188,-0.4882814 -2.441406,0 -4.53125,2.1484376 -4.53125,5.1171876 0,3.1445313 2.304688,5.13671877 4.394531,5.13671877 1.445313,0 1.757813,-0.09765625 2.910157,-0.80078125 z m 0,0"
       style="fill:#000000;fill-opacity:1;fill-rule:nonzero;stroke:none"
       aria-label="D/C"
       transform="matrix(0.8,0,0,0.8,229.01867,237.008)" />
    <path
       id="path22"
       d="m 109.67004,-145.42418 2.55046,7.6514 35.70653,-9.3e-4 2.55048,-7.6514 -2.55048,-7.65139 -35.70653,0.002 -2.55046,7.6514"
       style="fill:none;stroke:#000000;stroke-width:0.95636;stroke-linecap:round;stroke-linejoin:round;stroke-miterlimit:10;stroke-dasharray:none;stroke-opacity:1"
       transform="matrix(1.3333333,0,0,-1.3333333,120.44,40.241333)" />
    <path
       id="path23"
       d="m 5.6046094,-4.2011849 c 0,-1.3867187 -0.9765625,-2.3828125 -2.3242188,-2.3828125 -0.859375,0 -1.5039062,0.1953125 -2.2070312,0.6054688 l 0.097656,0.9375 c 0.625,-0.46875 1.2890625,-0.7226563 2.109375,-0.7226563 0.6640625,0 1.25,0.5273438 1.25,1.5820313 v 0.5859375 c -0.6640625,0.039063 -1.5234375,0.078125 -2.3828125,0.3710937 -0.9570312,0.3320313 -1.52343747,0.859375 -1.52343747,1.5625 0,0.6445313 0.37109375,1.796875 1.60156247,1.796875 0.78125,0 1.796875,-0.21484375 2.3242188,-0.6640625 v 0.52734375 h 1.0546875 z m -1.0742188,2.2851563 c 0,0.2734375 0,0.625 -0.4882812,0.9179687 -0.390625,0.234375 -0.8789063,0.2734375 -1.09375,0.2734375 -0.7617188,0 -1.2890625,-0.4101562 -1.2890625,-0.9375 0,-0.9765625 1.9921875,-1.1914062 2.8710937,-1.1914062 z m 8.2666014,-8.046875 h -1.054687 v 4.1992187 c -0.664063,-0.546875 -1.425782,-0.7617187 -2.0312503,-0.7617187 -1.3671875,0 -2.4804688,1.4648437 -2.4804688,3.3398437 0,1.8554688 1.0546875,3.3203125 2.421875,3.3203125 0.5273441,0 1.3281251,-0.15625 2.0507811,-0.859375 v 0.72265625 h 1.09375 z m -1.09375,8.2617187 c -0.351562,0.625 -0.839844,0.9765625 -1.484375,0.9765625 -0.8593748,0 -1.8945311,-0.6640625 -1.8945311,-2.4414062 0,-1.9140625 1.2109375,-2.5 2.0507811,-2.5 0.546875,0 1.015625,0.2929687 1.328125,0.7617187 z m 8.300781,-8.2617187 h -1.054687 v 4.1992187 c -0.664063,-0.546875 -1.425781,-0.7617187 -2.03125,-0.7617187 -1.367188,0 -2.480469,1.4648437 -2.480469,3.3398437 0,1.8554688 1.054688,3.3203125 2.421875,3.3203125 0.527344,0 1.328125,-0.15625 2.050781,-0.859375 v 0.72265625 h 1.09375 z m -1.09375,8.2617187 c -0.351562,0.625 -0.839843,0.9765625 -1.484375,0.9765625 -0.859375,0 -1.894531,-0.6640625 -1.894531,-2.4414062 0,-1.9140625 1.210938,-2.5 2.050781,-2.5 0.546875,0 1.015625,0.2929687 1.328125,0.7617187 z m 4.414063,-1.4453125 c 0,-1.4453125 1.09375,-2.4023437 2.382812,-2.4023437 v -0.9765625 c -1.308593,0.019531 -2.070312,0.78125 -2.460937,1.3476562 v -1.2695312 h -0.996094 v 6.44531245 h 1.074219 z m 6.806641,-6.5625 h -0.273438 c -0.234375,0.234375 -0.917969,0.8984375 -2.460937,0.9375 -0.214844,0 -0.214844,0.019531 -0.214844,0.2734375 v 0.5664063 c 0.878906,0 1.523437,-0.2148438 1.835937,-0.3320313 v 7.421875 h -1.757812 v 0.83984375 h 4.628906 V -0.8418099 h -1.757812 z m 0,0"
       style="fill:#000000;fill-opacity:1;fill-rule:nonzero;stroke:none"
       aria-label="addr1"
       transform="matrix(0.8,0,0,0.8,280.696,238.12267)" />
    <path
       id="path24"
       d="m 150.47751,-145.42325 2.55046,7.6514 117.32146,-9.3e-4 2.55046,-7.6514 -2.55046,-7.6514 -117.32146,0.002 -2.55046,7.6514"
       style="fill:none;stroke:#000000;stroke-width:0.95636;stroke-linecap:round;stroke-linejoin:round;stroke-miterlimit:10;stroke-dasharray:none;stroke-opacity:1"
       transform="matrix(1.3333333,0,0,-1.3333333,120.44,40.241333)" />
    <path
       id="path25"
       d="m 1.3078776,-9.9627214 v 9.96093755 h 3.6914063 c 2.4023437,0 4.3164062,-2.16796875 4.3164062,-4.90234375 0,-2.7929688 -1.9140625,-5.0585938 -4.3164062,-5.0585938 z m 1.2109375,9.1601563 v -8.359375 h 2.1484375 c 1.9140625,0 3.4375,1.6601562 3.4375,4.2578125 0,2.6171875 -1.5820312,4.1015625 -3.4375,4.1015625 z M 16.273698,-10.25569 c 0.07813,-0.175781 0.07813,-0.214844 0.07813,-0.234375 0,-0.195313 -0.15625,-0.273438 -0.273438,-0.273438 -0.175781,0 -0.214843,0.117188 -0.292968,0.3125 l -4.84375,13.5156254 c -0.05859,0.1953125 -0.05859,0.2148437 -0.05859,0.2539062 0,0.15625 0.117187,0.2734375 0.273437,0.2734375 0.175782,0 0.214844,-0.15625 0.273438,-0.3125 z m 9.038086,8.5937499 c -0.878906,0.6640625 -1.484375,0.8984375 -2.734375,0.8984375 -1.855469,0 -3.28125,-1.9335938 -3.28125,-4.2578125 0,-1.9335938 1.171875,-4.21875 3.339844,-4.21875 0.957031,0 1.679687,0.2929687 2.382812,0.78125 l 0.214844,-1.171875 c -0.917969,-0.3710939 -1.640625,-0.4882809 -2.617188,-0.4882809 -2.441406,0 -4.53125,2.1484371 -4.53125,5.1171871 0,3.1445313 2.304688,5.1367188 4.394532,5.1367188 1.445312,0 1.757812,-0.09765625 2.910156,-0.80078125 z m 0,0"
       style="fill:#000000;fill-opacity:1;fill-rule:nonzero;stroke:none"
       aria-label="D/C"
       transform="matrix(0.8,0,0,0.8,392.24667,237.00533)" />
    <path
       id="path26"
       d="m 272.89989,-145.42232 2.55046,7.6514 35.70653,-9.3e-4 2.55047,-7.6514 -2.55047,-7.6514 -35.70653,0.002 -2.55046,7.6514"
       style="fill:none;stroke:#000000;stroke-width:0.95636;stroke-linecap:round;stroke-linejoin:round;stroke-miterlimit:10;stroke-dasharray:none;stroke-opacity:1"
       transform="matrix(1.3333333,0,0,-1.3333333,120.44,40.241333)" />
    <path
       id="path27"
       d="m 5.6055078,-4.1978516 c 0,-1.3867187 -0.9765625,-2.3828125 -2.3242187,-2.3828125 -0.859375,0 -1.5039063,0.1953125 -2.2070313,0.6054688 l 0.097656,0.9375 c 0.625,-0.46875 1.2890625,-0.7226563 2.109375,-0.7226563 0.6640625,0 1.25,0.5273438 1.25,1.5820313 v 0.5859375 c -0.6640625,0.039063 -1.5234375,0.078125 -2.3828125,0.3710937 -0.9570313,0.3320313 -1.52343754,0.859375 -1.52343754,1.5625 0,0.6445313 0.37109375,1.79687504 1.60156254,1.79687504 0.78125,0 1.796875,-0.21484375 2.3242187,-0.6640625 v 0.52734375 h 1.0546875 z m -1.0742187,2.2851563 c 0,0.2734375 0,0.625 -0.4882813,0.91796874 -0.390625,0.234375 -0.8789062,0.2734375 -1.09375,0.2734375 -0.7617187,0 -1.2890625,-0.41015624 -1.2890625,-0.93750004 0,-0.9765625 1.9921875,-1.1914062 2.8710938,-1.1914062 z m 8.2666019,-8.046875 h -1.054688 v 4.1992187 c -0.664062,-0.546875 -1.425781,-0.7617187 -2.0312499,-0.7617187 -1.3671875,0 -2.4804687,1.4648437 -2.4804687,3.3398437 0,1.8554688 1.0546875,3.32031254 2.421875,3.32031254 0.5273436,0 1.3281246,-0.15625 2.0507816,-0.859375 v 0.72265625 h 1.09375 z m -1.09375,8.2617187 c -0.351563,0.625 -0.839844,0.97656254 -1.484375,0.97656254 -0.8593754,0 -1.8945316,-0.66406254 -1.8945316,-2.44140624 0,-1.9140625 1.2109375,-2.5 2.0507816,-2.5 0.546875,0 1.015625,0.2929687 1.328125,0.7617187 z m 8.300781,-8.2617187 h -1.054688 v 4.1992187 c -0.664062,-0.546875 -1.425781,-0.7617187 -2.03125,-0.7617187 -1.367187,0 -2.480468,1.4648437 -2.480468,3.3398437 0,1.8554688 1.054687,3.32031254 2.421875,3.32031254 0.527343,0 1.328125,-0.15625 2.050781,-0.859375 v 0.72265625 h 1.09375 z m -1.09375,8.2617187 c -0.351563,0.625 -0.839844,0.97656254 -1.484375,0.97656254 -0.859375,0 -1.894531,-0.66406254 -1.894531,-2.44140624 0,-1.9140625 1.210937,-2.5 2.050781,-2.5 0.546875,0 1.015625,0.2929687 1.328125,0.7617187 z m 4.414062,-1.4453125 c 0,-1.4453125 1.09375,-2.4023437 2.382813,-2.4023437 v -0.9765625 c -1.308594,0.019531 -2.070313,0.78125 -2.460938,1.3476562 v -1.2695312 h -0.996093 v 6.44531249 h 1.074218 z m 6.801758,-6.5625 h -0.273437 c -0.234375,0.234375 -0.917969,0.8984375 -2.460938,0.9375 -0.214844,0 -0.214844,0.019531 -0.214844,0.2734375 v 0.5664063 c 0.878907,0 1.523438,-0.2148438 1.835938,-0.3320313 v 7.42187504 h -1.757813 v 0.83984375 h 4.628907 v -0.83984375 h -1.757813 z m 0,0"
       style="fill:#000000;fill-opacity:1;fill-rule:nonzero;stroke:none"
       aria-label="addr1"
       transform="matrix(0.8,0,0,0.8,498.332,238.12)" />
    <path
       id="path28"
       d="m 313.70735,-145.42044 2.55046,7.6514 117.32146,-0.002 m 0,-15.3028 -117.32146,0.002 -2.55046,7.6514"
       style="fill:none;stroke:#000000;stroke-width:0.95636;stroke-linecap:round;stroke-linejoin:round;stroke-miterlimit:10;stroke-dasharray:none;stroke-opacity:1"
       transform="matrix(1.3333333,0,0,-1.3333333,120.44,40.241333)" />
    <path
       id="path29"
       d="m 1.3071094,-9.9626042 v 9.96093753 h 3.6914062 c 2.4023438,0 4.3164063,-2.16796873 4.3164063,-4.90234373 0,-2.7929688 -1.9140625,-5.0585938 -4.3164063,-5.0585938 z m 1.2109375,9.16015628 V -9.1618229 h 2.1484375 c 1.9140625,0 3.4375,1.6601562 3.4375,4.2578125 0,2.6171875 -1.5820313,4.10156248 -3.4375,4.10156248 z M 16.277812,-10.255573 c 0.07813,-0.175781 0.07813,-0.214844 0.07813,-0.234375 0,-0.195312 -0.15625,-0.273437 -0.273437,-0.273437 -0.175781,0 -0.214844,0.117187 -0.292969,0.3125 l -4.84375,13.5156246 c -0.05859,0.1953125 -0.05859,0.2148437 -0.05859,0.2539062 0,0.15625 0.117188,0.2734375 0.273438,0.2734375 0.175781,0 0.214844,-0.15625 0.273437,-0.3125 z m 9.033204,8.5937501 c -0.878907,0.66406248 -1.484375,0.89843748 -2.734375,0.89843748 -1.855469,0 -3.28125,-1.93359378 -3.28125,-4.25781248 0,-1.9335938 1.171875,-4.21875 3.339843,-4.21875 0.957032,0 1.679688,0.2929687 2.382813,0.78125 l 0.214844,-1.171875 c -0.917969,-0.3710941 -1.640625,-0.4882811 -2.617188,-0.4882811 -2.441406,0 -4.53125,2.1484373 -4.53125,5.1171873 0,3.1445313 2.304688,5.13671878 4.394531,5.13671878 1.445313,0 1.757813,-0.09765625 2.910157,-0.80078125 z m 0,0"
       style="fill:#000000;fill-opacity:1;fill-rule:nonzero;stroke:none"
       aria-label="D/C"
       transform="matrix(0.8,0,0,0.8,609.884,237.00133)" />
    <path
       id="path30"
       d="m 5.6132578,-4.2063359 c 0,-1.3710938 -0.9960937,-2.3789063 -2.3320312,-2.3789063 -0.8554688,0 -1.5,0.1992188 -2.203125,0.609375 l 0.082031,0.9375 c 0.6328125,-0.4570312 1.2890625,-0.7148437 2.1210938,-0.7148437 0.6679687,0 1.2421875,0.5273437 1.2421875,1.5820312 v 0.5859375 c -0.65625,0.023437 -1.5117188,0.070312 -2.3671875,0.3632813 -0.9609375,0.328125 -1.52343754,0.8554687 -1.52343754,1.5703125 0,0.6328125 0.37500004,1.79296871 1.59375004,1.79296871 0.7851562,0 1.7929687,-0.22265625 2.3203125,-0.66796875 V 6.953125e-4 h 1.0664062 z m -1.0898437,2.2851562 c 0,0.28125 0,0.6328125 -0.4804688,0.9140625 -0.3867187,0.24609376 -0.8671875,0.29296876 -1.0898437,0.29296876 -0.7734375,0 -1.3007813,-0.42187496 -1.3007813,-0.94921876 0,-0.9726562 1.9921875,-1.1953125 2.8710938,-1.1953125 z m 7.9541019,0.375 c -0.65625,0.5273438 -1.394532,0.79687501 -2.191407,0.79687501 -1.1953121,0 -1.9687496,-1.05468751 -1.9687496,-2.44921871 0,-1.1953125 0.5742187,-2.4960938 2.0039066,-2.4960938 0.960937,0 1.371093,0.234375 1.980468,0.6445313 l 0.175782,-0.9257813 c -0.832032,-0.4921875 -1.3125,-0.609375 -2.15625,-0.609375 -1.9804691,0 -3.0937504,1.7578125 -3.0937504,3.3867188 0,1.8398437 1.3125,3.33984371 3.0351564,3.33984371 0.703125,0 1.511719,-0.1640625 2.296875,-0.73828125 0,-0.046875 -0.04687,-0.49218746 -0.05859,-0.55078126 z m 6.243164,0 c -0.65625,0.5273438 -1.394532,0.79687501 -2.191407,0.79687501 -1.195312,0 -1.96875,-1.05468751 -1.96875,-2.44921871 0,-1.1953125 0.574219,-2.4960938 2.003907,-2.4960938 0.960937,0 1.371093,0.234375 1.980468,0.6445313 l 0.175782,-0.9257813 c -0.832032,-0.4921875 -1.3125,-0.609375 -2.15625,-0.609375 -1.980469,0 -3.09375,1.7578125 -3.09375,3.3867188 0,1.8398437 1.3125,3.33984371 3.035156,3.33984371 0.703125,0 1.511719,-0.1640625 2.296875,-0.73828125 0,-0.046875 -0.04687,-0.49218746 -0.05859,-0.55078126 z m 6.325195,-1.6757812 c 0,-0.6210938 -0.05859,-1.5 -0.515625,-2.2617188 -0.585937,-0.984375 -1.59375,-1.1015625 -2.003906,-1.1015625 -1.546875,0 -2.847656,1.4882813 -2.847656,3.3632813 0,1.8867187 1.382812,3.36328121 3.046875,3.36328121 0.65625,0 1.453125,-0.1875 2.238281,-0.76171875 0,-0.0585938 -0.04687,-0.49218746 -0.04687,-0.52734376 -0.01172,-0.011719 -0.04687,-0.328125 -0.04687,-0.3867187 -0.84375,0.71484371 -1.6875,0.82031246 -2.121094,0.82031246 -1.101562,0 -2.050781,-0.99609376 -2.074219,-2.50781246 z m -4.289062,-0.7734375 c 0.246093,-0.9726563 0.925781,-1.7226563 1.769531,-1.7226563 0.445312,0 1.429687,0.1992188 1.675781,1.7226563 z m 9.512695,-2.1445313 c -0.914063,-0.4335937 -1.6875,-0.4453125 -2.015625,-0.4453125 -0.328125,0 -2.332031,0 -2.332031,1.8632813 0,0.6328125 0.351562,1.0664062 0.5625,1.265625 0.515625,0.4453125 0.878906,0.515625 1.722656,0.6914062 0.46875,0.09375 1.300781,0.2695313 1.300781,1.03125 0,0.98437501 -1.113281,0.98437501 -1.3125,0.98437501 -0.574219,0 -1.40625,-0.15234375 -2.179687,-0.71484371 l -0.175782,0.97265621 c 0.07031,0.046875 1.042969,0.6328125 2.367188,0.6328125 1.851562,0 2.296875,-1.11328125 2.296875,-1.95703121 0,-0.7382813 -0.445313,-1.1953125 -0.503906,-1.265625 -0.527344,-0.5507813 -0.960938,-0.6328125 -1.839844,-0.8085938 -0.515625,-0.09375 -1.242188,-0.2460937 -1.242188,-0.9609375 0,-0.890625 1.007813,-0.890625 1.183594,-0.890625 0.761719,0 1.371094,0.1757813 2.003906,0.5390625 z m 5.384765,0 c -0.914062,-0.4335937 -1.6875,-0.4453125 -2.015625,-0.4453125 -0.328125,0 -2.332031,0 -2.332031,1.8632813 0,0.6328125 0.351563,1.0664062 0.5625,1.265625 0.515625,0.4453125 0.878906,0.515625 1.722656,0.6914062 0.46875,0.09375 1.300782,0.2695313 1.300782,1.03125 0,0.98437501 -1.113282,0.98437501 -1.3125,0.98437501 -0.574219,0 -1.40625,-0.15234375 -2.179688,-0.71484371 l -0.175781,0.97265621 c 0.07031,0.046875 1.042969,0.6328125 2.367187,0.6328125 1.851563,0 2.296875,-1.11328125 2.296875,-1.95703121 0,-0.7382813 -0.445312,-1.1953125 -0.503906,-1.265625 -0.527344,-0.5507813 -0.960937,-0.6328125 -1.839844,-0.8085938 -0.515625,-0.09375 -1.242187,-0.2460937 -1.242187,-0.9609375 0,-0.890625 1.007812,-0.890625 1.183594,-0.890625 0.761718,0 1.371093,0.1757813 2.003906,0.5390625 z m 0,0"
       style="fill:#000000;fill-opacity:1;fill-rule:nonzero;stroke:none"
       aria-label="access"
       transform="matrix(1.3333333,0,0,1.3333333,9.168,285.18267)" />
    <path
       id="path31"
       d="M 0,0 H 4.214"
       style="fill:none;stroke:#000000;stroke-width:0.398;stroke-linecap:butt;stroke-linejoin:round;stroke-miterlimit:10;stroke-dasharray:none;stroke-opacity:1"
       transform="matrix(1.3333333,0,0,-1.3333333,58.590667,284.91733)" />
    <path
       id="path32"
       d="m 9.9972969,-4.3118047 c 0,-0.9960937 -0.2578125,-2.203125 -1.9335938,-2.203125 -1.21875,0 -1.8984375,0.8554688 -2.109375,1.1601563 -0.2578125,-0.9023438 -1.0429687,-1.1601563 -1.7929687,-1.1601563 -1.171875,0 -1.7929688,0.7617188 -2.0390625,1.0664063 V -6.4446172 H 1.1027656 V 6.953125e-4 H 2.1926094 V -3.5735234 c 0,-0.9492188 0.375,-2.0742188 1.4179687,-2.0742188 1.3242188,0 1.3945313,0.9023438 1.3945313,1.4296875 V 6.953125e-4 H 6.0949531 V -3.5735234 c 0,-0.9492188 0.375,-2.0742188 1.4179688,-2.0742188 1.3242187,0 1.3945312,0.9023438 1.3945312,1.4296875 V 6.953125e-4 h 1.0898438 z m 7.6962891,1.1601563 c 0,-1.9453125 -1.417969,-3.4335938 -3.070313,-3.4335938 -1.699218,0 -3.082031,1.5234375 -3.082031,3.4335938 0,1.875 1.429688,3.29296871 3.070313,3.29296871 1.6875,0 3.082031,-1.44140621 3.082031,-3.29296871 z m -3.070313,2.40234371 c -1.03125,0 -1.992187,-0.85546871 -1.992187,-2.55468751 0,-1.734375 1.078125,-2.4140625 1.980469,-2.4140625 0.984375,0 1.992187,0.7382813 1.992187,2.4140625 0,1.7695313 -1.019531,2.55468751 -1.980469,2.55468751 z M 24.59007,-9.9485234 h -1.066406 v 4.1835937 c -0.65625,-0.5507812 -1.40625,-0.75 -2.015625,-0.75 -1.371094,0 -2.484375,1.4648438 -2.484375,3.328125 0,1.8515625 1.054688,3.32812501 2.425781,3.32812501 0.527344,0 1.335938,-0.1640625 2.050782,-0.8671875 V 6.953125e-4 h 1.089843 z m -1.089843,8.2617187 c -0.351563,0.609375 -0.84375,0.97265626 -1.476563,0.97265626 -0.878906,0 -1.910156,-0.67968746 -1.910156,-2.46093746 0,-1.8984375 1.21875,-2.4726563 2.050781,-2.4726563 0.5625,0 1.019531,0.28125 1.335938,0.7617188 z m 8.0625,-1.5351562 c 0,-0.6210938 -0.05859,-1.5 -0.515625,-2.2617188 -0.585938,-0.984375 -1.59375,-1.1015625 -2.003907,-1.1015625 -1.546875,0 -2.847656,1.4882813 -2.847656,3.3632813 0,1.8867187 1.382813,3.36328121 3.046875,3.36328121 0.65625,0 1.453125,-0.1875 2.238281,-0.76171875 0,-0.0585938 -0.04687,-0.49218746 -0.04687,-0.52734376 -0.01172,-0.011719 -0.04687,-0.328125 -0.04687,-0.3867187 -0.84375,0.71484371 -1.6875,0.82031246 -2.121093,0.82031246 -1.101563,0 -2.050782,-0.99609376 -2.074219,-2.50781246 z m -4.289063,-0.7734375 c 0.246094,-0.9726563 0.925781,-1.7226563 1.769531,-1.7226563 0.445313,0 1.429688,0.1992188 1.675782,1.7226563 z m 0,0"
       style="fill:#000000;fill-opacity:1;fill-rule:nonzero;stroke:none"
       aria-label="mode"
       transform="matrix(1.3333333,0,0,1.3333333,64.209333,285.18267)" />
    <path
       id="path33"
       d="m 0,-168.40356 25.50465,-9.5e-4 2.55046,-7.6514 -2.55046,-7.65139 L 0,-183.70638"
       style="fill:none;stroke:#000000;stroke-width:0.95636;stroke-linecap:round;stroke-linejoin:round;stroke-miterlimit:10;stroke-dasharray:none;stroke-opacity:1"
       transform="matrix(1.3333333,0,0,-1.3333333,120.44,40.241333)" />
    <path
       id="path34"
       d="m 1.3069271,-9.9613672 v 9.9609375125 h 3.6914062 c 2.4023438,0 4.3164063,-2.1679687125 4.3164063,-4.9023437125 0,-2.7929688 -1.9140625,-5.0585938 -4.3164063,-5.0585938 z m 1.2109375,9.16015626 V -9.1605859 h 2.1484375 c 1.9140625,0 3.4375,1.6601562 3.4375,4.2578125 0,2.6171875 -1.5820313,4.10156246 -3.4375,4.10156246 z M 16.27763,-10.254336 c 0.07813,-0.175781 0.07813,-0.214844 0.07813,-0.234375 0,-0.195312 -0.15625,-0.273437 -0.273437,-0.273437 -0.175782,0 -0.214844,0.117187 -0.292969,0.3125 l -4.84375,13.5156246 c -0.05859,0.1953125 -0.05859,0.2148437 -0.05859,0.2539062 0,0.15625 0.117188,0.2734375 0.273438,0.2734375 0.175781,0 0.214843,-0.15625 0.273437,-0.3125 z m 9.033203,8.5937501 c -0.878906,0.66406246 -1.484375,0.89843746 -2.734375,0.89843746 -1.855468,0 -3.28125,-1.93359376 -3.28125,-4.25781246 0,-1.9335938 1.171875,-4.21875 3.339844,-4.21875 0.957031,0 1.679688,0.2929687 2.382813,0.78125 l 0.214843,-1.171875 c -0.917968,-0.3710941 -1.640625,-0.4882811 -2.617187,-0.4882811 -2.441406,0 -4.53125,2.1484373 -4.53125,5.1171873 0,3.1445313 2.304687,5.13671876 4.394531,5.13671876 1.445313,0 1.757813,-0.09765625 2.910156,-0.80078125 z m 0,0"
       style="fill:#000000;fill-opacity:1;fill-rule:nonzero;stroke:none"
       aria-label="D/C"
       transform="matrix(0.8,0,0,0.8,127.00133,277.848)" />
    <path
       id="path35"
       d="m 28.05511,-176.05405 2.55048,7.6514 35.70653,-9.1e-4 2.55046,-7.65142 -2.55046,-7.6514 -35.70653,0.002 -2.55048,7.6514"
       style="fill:none;stroke:#000000;stroke-width:0.95636;stroke-linecap:round;stroke-linejoin:round;stroke-miterlimit:10;stroke-dasharray:none;stroke-opacity:1"
       transform="matrix(1.3333333,0,0,-1.3333333,120.44,40.241333)" />
    <path
       id="path36"
       d="m 5.6071875,-4.20125 c 0,-1.3867188 -0.9765625,-2.3828125 -2.3242187,-2.3828125 -0.859375,0 -1.5039063,0.1953125 -2.2070313,0.6054687 l 0.097656,0.9375 c 0.625,-0.46875 1.2890625,-0.7226562 2.109375,-0.7226562 0.6640625,0 1.25,0.5273437 1.25,1.5820312 v 0.5859375 c -0.6640625,0.039063 -1.5234375,0.078125 -2.3828125,0.3710938 -0.9570313,0.3320312 -1.52343755,0.859375 -1.52343755,1.5625 0,0.6445312 0.37109375,1.796875 1.60156255,1.796875 0.78125,0 1.796875,-0.21484375 2.3242187,-0.6640625 v 0.52734375 h 1.0546875 z m -1.0742187,2.2851562 c 0,0.2734375 0,0.625 -0.4882813,0.9179688 -0.390625,0.234375 -0.8789062,0.2734375 -1.09375,0.2734375 -0.7617187,0 -1.2890625,-0.4101563 -1.2890625,-0.9375 0,-0.9765625 1.9921875,-1.1914063 2.8710938,-1.1914063 z M 16.725352,-4.3184375 c 0,-0.9960938 -0.253907,-2.2070313 -1.933594,-2.2070313 -1.210938,0 -1.894531,0.859375 -2.109375,1.171875 -0.253906,-0.8984375 -1.054688,-1.171875 -1.796875,-1.171875 -1.1718752,0 -1.7968752,0.7617188 -2.0312502,1.0742188 v -0.9960938 h -1.015625 v 6.44531255 H 8.9128516 V -3.57625 c 0,-0.9570313 0.390625,-2.0898438 1.4257814,-2.0898438 1.328125,0 1.40625,0.9179688 1.40625,1.4453125 v 4.21875005 h 1.074219 V -3.57625 c 0,-0.9570313 0.371093,-2.0898438 1.425781,-2.0898438 1.328125,0 1.386719,0.9179688 1.386719,1.4453125 v 4.21875005 h 1.09375 z m 7.534179,-0.3710938 c 0,-0.9570312 -0.03906,-2.0507812 -0.410156,-3.0859375 -0.625,-1.6015625 -1.738281,-1.9335937 -2.5,-1.9335937 -0.9375,0 -1.835937,0.46875 -2.363281,1.6015625 -0.46875,1.0351562 -0.566406,2.1875 -0.566406,3.4179687 0,1.5820313 0.136718,2.4609375 0.585937,3.4765625 0.429688,0.93750005 1.347656,1.5039063 2.324219,1.5039063 0.957031,0 1.855469,-0.5078125 2.34375,-1.5039063 0.488281,-1.015625 0.585937,-2.0703125 0.585937,-3.4765625 z m -2.910156,4.1210938 c -1.835937,0 -1.835937,-2.9296875 -1.835937,-4.2773438 0,-0.9375 0,-1.8164062 0.253906,-2.6367187 0.351562,-1.015625 0.976562,-1.3671875 1.5625,-1.3671875 1.835937,0 1.835937,2.6757812 1.835937,4.0039062 0,0.9179688 0,1.8554688 -0.253906,2.7539063 -0.390625,1.3671875 -1.191406,1.5234375 -1.5625,1.5234375 z m 0,0"
       style="fill:#000000;fill-opacity:1;fill-rule:nonzero;stroke:none"
       aria-label="am0"
       transform="matrix(0.8,0,0,0.8,175.108,278.736)" />
    <path
       id="path37"
       d="m 68.86258,-176.0531 2.55048,7.6514 35.70652,-9.5e-4 2.55046,-7.6514 -2.55046,-7.65139 -35.70652,0.002 -2.55048,7.6514"
       style="fill:none;stroke:#000000;stroke-width:0.95636;stroke-linecap:round;stroke-linejoin:round;stroke-miterlimit:10;stroke-dasharray:none;stroke-opacity:1"
       transform="matrix(1.3333333,0,0,-1.3333333,120.44,40.241333)" />
    <path
       id="path38"
       d="m 1.3096745,-9.9629167 v 9.96093753 h 3.6914062 c 2.4023438,0 4.3164063,-2.16796873 4.3164063,-4.90234373 0,-2.7929688 -1.9140625,-5.0585938 -4.3164063,-5.0585938 z M 2.520612,-0.80276042 V -9.1621354 h 2.1484375 c 1.9140625,0 3.4375,1.6601562 3.4375,4.2578125 0,2.6171875 -1.5820313,4.10156248 -3.4375,4.10156248 z M 16.275495,-10.255885 c 0.07813,-0.175782 0.07813,-0.214844 0.07813,-0.234375 0,-0.195313 -0.15625,-0.273438 -0.273438,-0.273438 -0.175781,0 -0.214843,0.117188 -0.292968,0.3125 l -4.84375,13.5156251 c -0.05859,0.1953125 -0.05859,0.2148437 -0.05859,0.2539062 0,0.15625 0.117187,0.2734375 0.273437,0.2734375 0.175782,0 0.214844,-0.15625 0.273438,-0.3125 z m 9.038086,8.5937496 c -0.878907,0.66406248 -1.484375,0.89843748 -2.734375,0.89843748 -1.855469,0 -3.28125,-1.93359378 -3.28125,-4.25781248 0,-1.9335938 1.171875,-4.21875 3.339843,-4.21875 0.957032,0 1.679688,0.2929687 2.382813,0.78125 l 0.214844,-1.171875 c -0.917969,-0.3710936 -1.640625,-0.4882816 -2.617188,-0.4882816 -2.441406,0 -4.53125,2.1484378 -4.53125,5.1171878 0,3.1445313 2.304688,5.13671878 4.394531,5.13671878 1.445313,0 1.757813,-0.09765625 2.910157,-0.80078125 z m 0,0"
       style="fill:#000000;fill-opacity:1;fill-rule:nonzero;stroke:none"
       aria-label="D/C"
       transform="matrix(0.8,0,0,0.8,229.01867,277.84533)" />
    <path
       id="path39"
       d="m 109.67004,-176.05217 2.55046,7.6514 35.70653,-9.3e-4 2.55048,-7.6514 -2.55048,-7.6514 -35.70653,0.002 -2.55046,7.65142"
       style="fill:none;stroke:#000000;stroke-width:0.95636;stroke-linecap:round;stroke-linejoin:round;stroke-miterlimit:10;stroke-dasharray:none;stroke-opacity:1"
       transform="matrix(1.3333333,0,0,-1.3333333,120.44,40.241333)" />
    <path
       id="path40"
       d="m 5.604362,-4.1979167 c 0,-1.3867187 -0.9765625,-2.3828125 -2.3242188,-2.3828125 -0.859375,0 -1.5039062,0.1953125 -2.2070312,0.6054688 l 0.097656,0.9375 c 0.625,-0.46875 1.2890625,-0.7226563 2.109375,-0.7226563 0.6640625,0 1.25,0.5273438 1.25,1.5820313 v 0.5859375 c -0.6640625,0.039063 -1.5234375,0.078125 -2.3828125,0.3710937 -0.9570312,0.3320313 -1.52343747,0.859375 -1.52343747,1.5625 0,0.6445313 0.37109375,1.79687503 1.60156247,1.79687503 0.78125,0 1.796875,-0.21484375 2.3242188,-0.6640625 V 0.00130208 H 5.604362 Z m -1.0742188,2.2851563 c 0,0.2734375 0,0.625 -0.4882812,0.91796873 -0.390625,0.234375 -0.8789063,0.2734375 -1.09375,0.2734375 -0.7617188,0 -1.2890625,-0.41015623 -1.2890625,-0.93750003 0,-0.9765625 1.9921875,-1.1914062 2.8710937,-1.1914062 z M 16.722526,-4.3151042 c 0,-0.9960937 -0.253906,-2.2070312 -1.933594,-2.2070312 -1.210937,0 -1.894531,0.859375 -2.109375,1.171875 -0.253906,-0.8984375 -1.054687,-1.171875 -1.796875,-1.171875 -1.1718747,0 -1.7968747,0.7617187 -2.0312497,1.0742187 V -6.4440104 H 7.8358073 V 0.00130208 H 8.910026 V -3.5729167 c 0,-0.9570312 0.390625,-2.0898437 1.425781,-2.0898437 1.328125,0 1.40625,0.9179687 1.40625,1.4453125 v 4.21874998 h 1.074219 V -3.5729167 c 0,-0.9570312 0.371094,-2.0898437 1.425781,-2.0898437 1.328125,0 1.386719,0.9179687 1.386719,1.4453125 v 4.21874998 h 1.09375 z m 5.327148,-5.390625 h -0.273437 c -0.234375,0.234375 -0.917969,0.8984375 -2.460938,0.9375 -0.214843,0 -0.214843,0.019531 -0.214843,0.2734375 v 0.5664063 c 0.878906,0 1.523437,-0.2148438 1.835937,-0.3320313 v 7.42187503 h -1.757812 v 0.83984375 h 4.628906 v -0.83984375 h -1.757813 z m 0,0"
       style="fill:#000000;fill-opacity:1;fill-rule:nonzero;stroke:none"
       aria-label="am1"
       transform="matrix(0.8,0,0,0.8,283.92667,278.73333)" />
    <path
       id="path41"
       d="m 150.47751,-176.05122 2.55046,7.65139 117.32146,-9.4e-4 2.55046,-7.6514 -2.55046,-7.6514 -117.32146,0.002 -2.55046,7.65139"
       style="fill:none;stroke:#000000;stroke-width:0.95636;stroke-linecap:round;stroke-linejoin:round;stroke-miterlimit:10;stroke-dasharray:none;stroke-opacity:1"
       transform="matrix(1.3333333,0,0,-1.3333333,120.44,40.241333)" />
    <path
       id="path42"
       d="m 1.3078776,-9.9595833 v 9.96093747 h 3.6914063 c 2.4023437,0 4.3164062,-2.16796877 4.3164062,-4.90234377 0,-2.7929687 -1.9140625,-5.0585937 -4.3164062,-5.0585937 z m 1.2109375,9.16015622 V -9.1588021 h 2.1484375 c 1.9140625,0 3.4375,1.6601563 3.4375,4.2578125 0,2.6171875 -1.5820312,4.10156252 -3.4375,4.10156252 z M 16.273698,-10.252552 c 0.07813,-0.175781 0.07813,-0.214844 0.07813,-0.234375 0,-0.195313 -0.15625,-0.273438 -0.273438,-0.273438 -0.175781,0 -0.214843,0.117188 -0.292968,0.3125 l -4.84375,13.5156254 c -0.05859,0.1953125 -0.05859,0.2148438 -0.05859,0.2539063 0,0.15625 0.117187,0.2734375 0.273437,0.2734375 0.175782,0 0.214844,-0.15625 0.273438,-0.3125 z m 9.038086,8.5937499 c -0.878906,0.66406252 -1.484375,0.89843752 -2.734375,0.89843752 -1.855469,0 -3.28125,-1.93359372 -3.28125,-4.25781252 0,-1.9335937 1.171875,-4.21875 3.339844,-4.21875 0.957031,0 1.679687,0.2929688 2.382812,0.78125 l 0.214844,-1.171875 c -0.917969,-0.3710937 -1.640625,-0.4882809 -2.617188,-0.4882809 -2.441406,0 -4.53125,2.1484372 -4.53125,5.1171872 0,3.1445312 2.304688,5.13671872 4.394532,5.13671872 1.445312,0 1.757812,-0.09765625 2.910156,-0.80078125 z m 0,0"
       style="fill:#000000;fill-opacity:1;fill-rule:nonzero;stroke:none"
       aria-label="D/C"
       transform="matrix(0.8,0,0,0.8,392.24667,277.84267)" />
    <path
       id="path43"
       d="m 272.89989,-176.05031 2.55046,7.6514 35.70653,-9.2e-4 2.55047,-7.65139 -2.55047,-7.65142 -35.70653,0.002 -2.55046,7.6514"
       style="fill:none;stroke:#000000;stroke-width:0.95636;stroke-linecap:round;stroke-linejoin:round;stroke-miterlimit:10;stroke-dasharray:none;stroke-opacity:1"
       transform="matrix(1.3333333,0,0,-1.3333333,120.44,40.241333)" />
    <path
       id="path44"
       d="m 5.6035937,-4.1994661 c 0,-1.3867188 -0.9765625,-2.3828125 -2.3242187,-2.3828125 -0.859375,0 -1.5039063,0.1953125 -2.2070313,0.6054687 l 0.097656,0.9375 c 0.625,-0.46875 1.2890625,-0.7226562 2.109375,-0.7226562 0.6640625,0 1.25,0.5273437 1.25,1.5820312 v 0.5859375 c -0.6640625,0.039063 -1.5234375,0.078125 -2.3828125,0.3710938 -0.9570313,0.3320312 -1.5234375,0.859375 -1.5234375,1.5625 0,0.6445312 0.37109375,1.79687495 1.6015625,1.79687495 0.78125,0 1.796875,-0.21484375 2.3242187,-0.6640625 V -2.4739583e-4 H 5.6035937 Z M 4.529375,-1.9143099 c 0,0.2734375 0,0.625 -0.4882813,0.91796875 -0.390625,0.234375 -0.8789062,0.2734375 -1.09375,0.2734375 -0.7617187,0 -1.2890625,-0.41015625 -1.2890625,-0.93749995 0,-0.9765625 1.9921875,-1.1914063 2.8710938,-1.1914063 z m 12.192383,-2.4023437 c 0,-0.9960938 -0.253906,-2.2070313 -1.933594,-2.2070313 -1.210937,0 -1.894531,0.859375 -2.109375,1.171875 -0.253906,-0.8984375 -1.054687,-1.171875 -1.796875,-1.171875 -1.1718749,0 -1.7968749,0.7617188 -2.0312499,1.0742188 V -6.4455599 H 7.8350391 V -2.4739583e-4 H 8.9092578 V -3.5744661 c 0,-0.9570313 0.390625,-2.0898438 1.4257812,-2.0898438 1.328125,0 1.40625,0.9179688 1.40625,1.4453125 v 4.21875000417 h 1.074219 V -3.5744661 c 0,-0.9570313 0.371094,-2.0898438 1.425781,-2.0898438 1.328125,0 1.386719,0.9179688 1.386719,1.4453125 v 4.21875000417 h 1.09375 z m 5.327148,-5.390625 h -0.273437 c -0.234375,0.234375 -0.917969,0.8984375 -2.460938,0.9375 -0.214844,0 -0.214844,0.019531 -0.214844,0.2734375 v 0.5664062 c 0.878907,0 1.523438,-0.2148437 1.835938,-0.3320312 v 7.42187495 h -1.757813 v 0.83984375417 h 4.628907 V -0.84009115 h -1.757813 z m 0,0"
       style="fill:#000000;fill-opacity:1;fill-rule:nonzero;stroke:none"
       aria-label="am1"
       transform="matrix(0.8,0,0,0.8,501.564,278.73067)" />
    <path
       id="path45"
       d="m 313.70735,-176.04843 2.55046,7.6514 117.32146,-0.002 m 0,-15.30279 -117.32146,0.002 -2.55046,7.6514"
       style="fill:none;stroke:#000000;stroke-width:0.95636;stroke-linecap:round;stroke-linejoin:round;stroke-miterlimit:10;stroke-dasharray:none;stroke-opacity:1"
       transform="matrix(1.3333333,0,0,-1.3333333,120.44,40.241333)" />
    <path
       id="path46"
       d="m 1.3071094,-9.9594661 v 9.96093745 h 3.6914062 c 2.4023438,0 4.3164063,-2.16796875 4.3164063,-4.90234375 0,-2.7929687 -1.9140625,-5.0585937 -4.3164063,-5.0585937 z m 1.2109375,9.1601562 v -8.359375 h 2.1484375 c 1.9140625,0 3.4375,1.6601563 3.4375,4.2578125 0,2.6171875 -1.5820313,4.1015625 -3.4375,4.1015625 z M 16.277812,-10.252435 c 0.07813,-0.175781 0.07813,-0.214844 0.07813,-0.234375 0,-0.195312 -0.15625,-0.273437 -0.273437,-0.273437 -0.175781,0 -0.214844,0.117187 -0.292969,0.3125 l -4.84375,13.5156246 c -0.05859,0.1953125 -0.05859,0.2148438 -0.05859,0.2539063 0,0.15625 0.117188,0.2734375 0.273438,0.2734375 0.175781,0 0.214844,-0.15625 0.273437,-0.3125 z m 9.033204,8.5937501 c -0.878907,0.6640625 -1.484375,0.8984375 -2.734375,0.8984375 -1.855469,0 -3.28125,-1.9335937 -3.28125,-4.2578125 0,-1.9335937 1.171875,-4.21875 3.339843,-4.21875 0.957032,0 1.679688,0.2929688 2.382813,0.78125 l 0.214844,-1.171875 c -0.917969,-0.3710937 -1.640625,-0.4882811 -2.617188,-0.4882811 -2.441406,0 -4.53125,2.1484374 -4.53125,5.1171874 0,3.1445312 2.304688,5.1367187 4.394531,5.1367187 1.445313,0 1.757813,-0.09765625 2.910157,-0.80078125 z m 0,0"
       style="fill:#000000;fill-opacity:1;fill-rule:nonzero;stroke:none"
       aria-label="D/C"
       transform="matrix(0.8,0,0,0.8,609.884,277.83867)" />
    <path
       id="path47"
       d="M 9.3276094,-6.3647031 H 8.2729219 l -0.8554688,2.90625 c -0.1992187,0.6914062 -0.609375,2.0390625 -0.65625,2.64843747 H 6.7377656 C 6.7026094,-1.1498594 6.4682344,-2.1107969 6.1635469,-3.1303281 l -0.9375,-3.234375 H 4.2299531 l -0.8203125,2.8007812 c -0.2578125,0.890625 -0.5976562,2.1328125 -0.6445312,2.73046877 H 2.7533906 C 2.7416719,-1.1029844 2.5776094,-1.8647031 2.3080781,-2.8256406 L 1.2885469,-6.3647031 H 0.19870313 L 2.1205781,-0.00142188 H 3.2221406 C 3.7729219,-1.8061094 4.6049531,-4.5365781 4.6869844,-5.5326719 h 0.011719 c 0.035156,0.5859375 0.3164063,1.6171875 0.421875,1.9453125 l 1.0195313,3.58593752 h 1.265625 z m 2.3994136,3.2226562 c 0,-1.453125 1.089844,-2.390625 2.378907,-2.4140625 v -0.9609375 c -1.300782,0.023437 -2.0625,0.7734375 -2.449219,1.3359375 v -1.265625 h -0.996094 v 6.44531252 h 1.066406 z m 0,0"
       style="fill:#000000;fill-opacity:1;fill-rule:nonzero;stroke:none"
       aria-label="wr"
       transform="matrix(1.3333333,0,0,1.3333333,46.696,326.02533)" />
    <path
       id="path48"
       d="M 0,0 H 4.214"
       style="fill:none;stroke:#000000;stroke-width:0.398;stroke-linecap:butt;stroke-linejoin:round;stroke-miterlimit:10;stroke-dasharray:none;stroke-opacity:1"
       transform="matrix(1.3333333,0,0,-1.3333333,66.914667,325.75867)" />
    <path
       id="path49"
       d="M 6.0716797,-9.9506406 H 5.0052734 v 4.1835937 c -0.65625,-0.5507812 -1.40625,-0.75 -2.015625,-0.75 -1.3710937,0 -2.48437496,1.4648438 -2.48437496,3.328125 0,1.8515625 1.05468746,3.32812502 2.42578126,3.32812502 0.5273437,0 1.3359375,-0.1640625 2.0507812,-0.8671875 v 0.7265625 h 1.0898438 z m -1.0898438,8.2617187 c -0.3515625,0.609375 -0.84375,0.97265627 -1.4765625,0.97265627 -0.8789062,0 -1.9101562,-0.67968747 -1.9101562,-2.46093747 0,-1.8984375 1.21875,-2.4726563 2.0507812,-2.4726563 0.5625,0 1.0195313,0.28125 1.3359375,0.7617188 z M 12.81875,-4.2084531 c 0,-1.3710938 -0.996094,-2.3789063 -2.332031,-2.3789063 -0.855469,0 -1.5000002,0.1992188 -2.2031252,0.609375 l 0.082031,0.9375 c 0.6328125,-0.4570312 1.2890625,-0.7148437 2.1210942,-0.7148437 0.667969,0 1.242187,0.5273437 1.242187,1.5820312 v 0.5859375 c -0.65625,0.023437 -1.511718,0.070312 -2.3671874,0.3632813 -0.9609375,0.328125 -1.5234375,0.8554687 -1.5234375,1.5703125 0,0.6328125 0.375,1.79296872 1.59375,1.79296872 0.7851569,0 1.7929689,-0.22265625 2.3203129,-0.66796875 v 0.52734375 h 1.066406 z m -1.089844,2.2851562 c 0,0.28125 0,0.6328125 -0.480468,0.9140625 -0.386719,0.24609377 -0.867188,0.29296877 -1.089844,0.29296877 -0.7734377,0 -1.3007815,-0.42187497 -1.3007815,-0.94921877 0,-0.9726562 1.9921875,-1.1953125 2.8710935,-1.1953125 z m 4.649414,-3.609375 h 1.980469 V -6.3647031 H 16.37832 v -1.828125 h -0.984375 v 1.828125 h -1.207031 v 0.8320312 h 1.171875 v 3.8554688 c 0,0.83203122 0.1875,1.81640622 1.183594,1.81640622 0.960937,0 1.617187,-0.328125 2.0625,-0.55078125 L 18.393945,-1.2436094 c -0.503906,0.43359377 -1.03125,0.49218752 -1.289062,0.49218752 -0.632813,0 -0.726563,-0.66796872 -0.726563,-1.17187502 z m 8.238282,1.3242188 c 0,-1.3710938 -0.996094,-2.3789063 -2.332032,-2.3789063 -0.855468,0 -1.5,0.1992188 -2.203125,0.609375 l 0.08203,0.9375 c 0.632812,-0.4570312 1.289062,-0.7148437 2.121093,-0.7148437 0.667969,0 1.242188,0.5273437 1.242188,1.5820312 v 0.5859375 c -0.65625,0.023437 -1.511719,0.070312 -2.367188,0.3632813 -0.960937,0.328125 -1.523437,0.8554687 -1.523437,1.5703125 0,0.6328125 0.375,1.79296872 1.59375,1.79296872 0.785156,0 1.792969,-0.22265625 2.320312,-0.66796875 v 0.52734375 H 24.6166 Z m -1.089844,2.2851562 c 0,0.28125 0,0.6328125 -0.480469,0.9140625 -0.386719,0.24609377 -0.867187,0.29296877 -1.089844,0.29296877 -0.773437,0 -1.300781,-0.42187497 -1.300781,-0.94921877 0,-0.9726562 1.992188,-1.1953125 2.871094,-1.1953125 z m 0,0"
       style="fill:#000000;fill-opacity:1;fill-rule:nonzero;stroke:none"
       aria-label="data"
       transform="matrix(1.3333333,0,0,1.3333333,72.533333,326.02533)" />
    <path
       id="path50"
       d="m 0,-199.0353 107.11958,-9.4e-4 2.55046,-7.6514 -2.55046,-7.6514 L 0,-214.3381"
       style="fill:none;stroke:#000000;stroke-width:0.95636;stroke-linecap:round;stroke-linejoin:round;stroke-miterlimit:10;stroke-dasharray:none;stroke-opacity:1"
       transform="matrix(1.3333333,0,0,-1.3333333,120.44,40.241333)" />
    <path
       id="path51"
       d="m 1.3079557,-9.9632292 v 9.96093753 H 4.999362 c 2.4023437,0 4.3164062,-2.16796873 4.3164062,-4.90234373 0,-2.7929688 -1.9140625,-5.0585938 -4.3164062,-5.0585938 z m 1.2109375,9.16015628 V -9.1624479 h 2.1484375 c 1.9140625,0 3.4375,1.6601562 3.4375,4.2578125 0,2.6171875 -1.5820312,4.10156248 -3.4375,4.10156248 z M 16.273776,-10.256198 c 0.07813,-0.175781 0.07813,-0.214844 0.07813,-0.234375 0,-0.195312 -0.15625,-0.273437 -0.273437,-0.273437 -0.175782,0 -0.214844,0.117187 -0.292969,0.3125 L 10.94175,3.0641146 c -0.05859,0.1953125 -0.05859,0.2148437 -0.05859,0.2539062 0,0.15625 0.117188,0.2734375 0.273438,0.2734375 0.175781,0 0.214843,-0.15625 0.273437,-0.3125 z m 9.038086,8.5937501 c -0.878906,0.66406248 -1.484375,0.89843748 -2.734375,0.89843748 -1.855469,0 -3.28125,-1.93359378 -3.28125,-4.25781248 0,-1.9335938 1.171875,-4.21875 3.339844,-4.21875 0.957031,0 1.679687,0.2929687 2.382812,0.78125 l 0.214844,-1.171875 c -0.917969,-0.3710941 -1.640625,-0.4882811 -2.617188,-0.4882811 -2.441406,0 -4.53125,2.1484373 -4.53125,5.1171873 0,3.1445313 2.304688,5.13671878 4.394532,5.13671878 1.445312,0 1.757812,-0.09765625 2.910156,-0.80078125 z m 0,0"
       style="fill:#000000;fill-opacity:1;fill-rule:nonzero;stroke:none"
       aria-label="D/C"
       transform="matrix(0.8,0,0,0.8,181.41067,318.68933)" />
    <path
       id="path52"
       d="m 109.67004,-206.68578 2.55046,7.6514 35.70653,-9.2e-4 2.55048,-7.65139 -2.55048,-7.65141 -35.70653,0.002 -2.55046,7.6514"
       style="fill:none;stroke:#000000;stroke-width:0.95636;stroke-linecap:round;stroke-linejoin:round;stroke-miterlimit:10;stroke-dasharray:none;stroke-opacity:1"
       transform="matrix(1.3333333,0,0,-1.3333333,120.44,40.241333)" />
    <path
       id="path53"
       d="M 6.0761328,-9.9600781 H 5.0214453 v 4.1992187 c -0.6640625,-0.546875 -1.4257812,-0.7617187 -2.03125,-0.7617187 -1.3671875,0 -2.48046874,1.4648437 -2.48046874,3.3398437 0,1.8554688 1.05468754,3.32031252 2.42187504,3.32031252 0.5273437,0 1.328125,-0.15625 2.0507812,-0.859375 V 8.59375e-4 h 1.09375 z m -1.09375,8.2617187 c -0.3515625,0.625 -0.8398437,0.97656252 -1.484375,0.97656252 -0.859375,0 -1.8945312,-0.66406252 -1.8945312,-2.44140622 0,-1.9140625 1.2109375,-2.5 2.0507812,-2.5 0.546875,0 1.015625,0.2929687 1.328125,0.7617187 z m 7.8271482,-2.5 c 0,-1.3867187 -0.976562,-2.3828125 -2.324219,-2.3828125 -0.8593745,0 -1.5039058,0.1953125 -2.2070308,0.6054688 l 0.097656,0.9375 c 0.625,-0.46875 1.2890625,-0.7226563 2.1093748,-0.7226563 0.664063,0 1.25,0.5273438 1.25,1.5820313 v 0.5859375 c -0.664062,0.039063 -1.523437,0.078125 -2.3828123,0.3710937 -0.9570313,0.3320313 -1.5234375,0.859375 -1.5234375,1.5625 0,0.6445313 0.3710937,1.79687502 1.6015625,1.79687502 0.7812503,0 1.7968753,-0.21484375 2.3242193,-0.6640625 V 8.59375e-4 h 1.054687 z m -1.074219,2.2851563 c 0,0.2734375 0,0.625 -0.488281,0.91796872 -0.390625,0.234375 -0.878906,0.2734375 -1.09375,0.2734375 -0.7617185,0 -1.2890623,-0.41015622 -1.2890623,-0.93750002 0,-0.9765625 1.9921873,-1.1914062 2.8710933,-1.1914062 z m 4.658204,-3.6328125 h 1.972656 v -0.8203125 h -1.972656 v -1.8359375 h -0.996094 v 1.8359375 h -1.210938 v 0.8203125 h 1.191407 v 3.8671875 c 0,0.83984372 0.175781,1.81640622 1.171875,1.81640622 0.957031,0 1.621093,-0.33203125 2.070312,-0.546875 L 18.405234,-1.2491406 c -0.507812,0.44921872 -1.035156,0.50781247 -1.308593,0.50781247 -0.625,0 -0.703125,-0.68359377 -0.703125,-1.17187497 z m 8.21289,1.3476562 c 0,-1.3867187 -0.976562,-2.3828125 -2.324219,-2.3828125 -0.859375,0 -1.503906,0.1953125 -2.207031,0.6054688 l 0.09766,0.9375 c 0.625,-0.46875 1.289063,-0.7226563 2.109375,-0.7226563 0.664063,0 1.25,0.5273438 1.25,1.5820313 v 0.5859375 c -0.664062,0.039063 -1.523437,0.078125 -2.382812,0.3710937 -0.957031,0.3320313 -1.523438,0.859375 -1.523438,1.5625 0,0.6445313 0.371094,1.79687502 1.601563,1.79687502 0.78125,0 1.796875,-0.21484375 2.324219,-0.6640625 V 8.59375e-4 h 1.054687 z m -1.074219,2.2851563 c 0,0.2734375 0,0.625 -0.488281,0.91796872 -0.390625,0.234375 -0.878906,0.2734375 -1.09375,0.2734375 -0.761719,0 -1.289062,-0.41015622 -1.289062,-0.93750002 0,-0.9765625 1.992187,-1.1914062 2.871093,-1.1914062 z m 6.416016,-7.7929688 h -0.273437 c -0.234375,0.234375 -0.917969,0.8984375 -2.460938,0.9375 -0.214844,0 -0.214844,0.019531 -0.214844,0.2734375 v 0.5664063 c 0.878907,0 1.523438,-0.2148438 1.835938,-0.3320313 v 7.42187502 H 27.077109 V 8.59375e-4 h 4.628907 V -0.83898438 h -1.757813 z m 0,0"
       style="fill:#000000;fill-opacity:1;fill-rule:nonzero;stroke:none"
       aria-label="data1"
       transform="matrix(0.8,0,0,0.8,280.768,319.804)" />
    <path
       id="path54"
       d="m 150.47751,-206.6839 2.55046,7.6514 280.5513,-0.002 m 0,-15.30279 -280.5513,0.002 -2.55046,7.6514"
       style="fill:none;stroke:#000000;stroke-width:0.95636;stroke-linecap:round;stroke-linejoin:round;stroke-miterlimit:10;stroke-dasharray:none;stroke-opacity:1"
       transform="matrix(1.3333333,0,0,-1.3333333,120.44,40.241333)" />
    <path
       id="path55"
       d="m 1.3099349,-9.963112 v 9.96093752 h 3.6914062 c 2.4023438,0 4.3164063,-2.16796872 4.3164063,-4.90234372 0,-2.7929688 -1.9140625,-5.0585938 -4.3164063,-5.0585938 z m 1.2109375,9.16015627 V -9.1623307 h 2.1484375 c 1.9140625,0 3.4375,1.6601562 3.4375,4.2578125 0,2.6171875 -1.5820313,4.10156247 -3.4375,4.10156247 z M 16.275755,-10.256081 c 0.07813,-0.175781 0.07813,-0.214843 0.07813,-0.234375 0,-0.195312 -0.15625,-0.273437 -0.273437,-0.273437 -0.175782,0 -0.214844,0.117187 -0.292969,0.3125 l -4.84375,13.5156248 c -0.05859,0.1953125 -0.05859,0.2148437 -0.05859,0.2539062 0,0.15625 0.117188,0.2734375 0.273438,0.2734375 0.175781,0 0.214843,-0.15625 0.273437,-0.3125 z m 9.038086,8.5937503 c -0.878906,0.66406247 -1.484375,0.89843747 -2.734375,0.89843747 -1.855469,0 -3.28125,-1.93359377 -3.28125,-4.25781247 0,-1.9335938 1.171875,-4.21875 3.339844,-4.21875 0.957031,0 1.679687,0.2929687 2.382812,0.78125 l 0.214844,-1.171875 c -0.917969,-0.3710933 -1.640625,-0.4882813 -2.617187,-0.4882813 -2.441407,0 -4.53125,2.1484375 -4.53125,5.1171875 0,3.1445313 2.304687,5.13671877 4.394531,5.13671877 1.445312,0 1.757812,-0.09765625 2.910156,-0.80078125 z m 0,0"
       style="fill:#000000;fill-opacity:1;fill-rule:nonzero;stroke:none"
       aria-label="D/C"
       transform="matrix(0.8,0,0,0.8,501.06533,318.68533)" />
    <path
       id="path56"
       d="m 2.1789922,-3.1413047 c 0,-1.453125 1.0898437,-2.390625 2.3789062,-2.4140625 v -0.9609375 c -1.3007812,0.023437 -2.0625,0.7734375 -2.4492187,1.3359375 v -1.265625 H 1.1125859 V -6.796875e-4 H 2.1789922 Z M 10.845008,-9.9498984 H 9.7786016 v 4.1835937 c -0.65625,-0.5507812 -1.40625,-0.75 -2.015625,-0.75 -1.3710938,0 -2.484375,1.4648438 -2.484375,3.328125 0,1.8515625 1.0546875,3.32812501 2.4257812,3.32812501 0.5273438,0 1.3359375,-0.1640625 2.0507813,-0.8671875 v 0.7265625025 h 1.0898439 z m -1.0898439,8.2617187 c -0.3515625,0.609375 -0.84375,0.97265626 -1.4765625,0.97265626 -0.8789063,0 -1.9101563,-0.67968746 -1.9101563,-2.46093746 0,-1.8984375 1.21875,-2.4726563 2.0507813,-2.4726563 0.5625,0 1.0195312,0.28125 1.3359375,0.7617188 z m 0,0"
       style="fill:#000000;fill-opacity:1;fill-rule:nonzero;stroke:none"
       aria-label="rd"
       transform="matrix(1.3333333,0,0,1.3333333,49.817333,366.872)" />
    <path
       id="path57"
       d="M 0,0 H 4.214"
       style="fill:none;stroke:#000000;stroke-width:0.398;stroke-linecap:butt;stroke-linejoin:round;stroke-miterlimit:10;stroke-dasharray:none;stroke-opacity:1"
       transform="matrix(1.3333333,0,0,-1.3333333,66.914667,366.60533)" />
    <path
       id="path58"
       d="M 6.0716797,-9.9498984 H 5.0052734 v 4.1835937 c -0.65625,-0.5507812 -1.40625,-0.75 -2.015625,-0.75 -1.3710937,0 -2.48437496,1.4648438 -2.48437496,3.328125 0,1.8515625 1.05468746,3.32812501 2.42578126,3.32812501 0.5273437,0 1.3359375,-0.1640625 2.0507812,-0.8671875 v 0.7265625025 h 1.0898438 z m -1.0898438,8.2617187 c -0.3515625,0.609375 -0.84375,0.97265626 -1.4765625,0.97265626 -0.8789062,0 -1.9101562,-0.67968746 -1.9101562,-2.46093746 0,-1.8984375 1.21875,-2.4726563 2.0507812,-2.4726563 0.5625,0 1.0195313,0.28125 1.3359375,0.7617188 z M 12.81875,-4.2077109 c 0,-1.3710938 -0.996094,-2.3789063 -2.332031,-2.3789063 -0.855469,0 -1.5000002,0.1992188 -2.2031252,0.609375 l 0.082031,0.9375 c 0.6328125,-0.4570312 1.2890625,-0.7148437 2.1210942,-0.7148437 0.667969,0 1.242187,0.5273437 1.242187,1.5820312 v 0.5859375 c -0.65625,0.023437 -1.511718,0.070312 -2.3671874,0.3632813 -0.9609375,0.328125 -1.5234375,0.8554687 -1.5234375,1.5703125 0,0.6328125 0.375,1.79296871 1.59375,1.79296871 0.7851569,0 1.7929689,-0.22265625 2.3203129,-0.66796875 v 0.5273437525 h 1.066406 z m -1.089844,2.2851562 c 0,0.28125 0,0.6328125 -0.480468,0.9140625 -0.386719,0.24609376 -0.867188,0.29296876 -1.089844,0.29296876 -0.7734377,0 -1.3007815,-0.42187496 -1.3007815,-0.94921876 0,-0.9726562 1.9921875,-1.1953125 2.8710935,-1.1953125 z m 4.649414,-3.609375 h 1.980469 V -6.3639609 H 16.37832 v -1.828125 h -0.984375 v 1.828125 h -1.207031 v 0.8320312 h 1.171875 v 3.8554688 c 0,0.83203121 0.1875,1.81640621 1.183594,1.81640621 0.960937,0 1.617187,-0.328125 2.0625,-0.55078125 L 18.393945,-1.2428672 c -0.503906,0.43359376 -1.03125,0.49218751 -1.289062,0.49218751 -0.632813,0 -0.726563,-0.66796871 -0.726563,-1.17187501 z m 8.238282,1.3242188 c 0,-1.3710938 -0.996094,-2.3789063 -2.332032,-2.3789063 -0.855468,0 -1.5,0.1992188 -2.203125,0.609375 l 0.08203,0.9375 c 0.632812,-0.4570312 1.289062,-0.7148437 2.121093,-0.7148437 0.667969,0 1.242188,0.5273437 1.242188,1.5820312 v 0.5859375 c -0.65625,0.023437 -1.511719,0.070312 -2.367188,0.3632813 -0.960937,0.328125 -1.523437,0.8554687 -1.523437,1.5703125 0,0.6328125 0.375,1.79296871 1.59375,1.79296871 0.785156,0 1.792969,-0.22265625 2.320312,-0.66796875 V -6.796875e-4 H 24.6166 Z m -1.089844,2.2851562 c 0,0.28125 0,0.6328125 -0.480469,0.9140625 -0.386719,0.24609376 -0.867187,0.29296876 -1.089844,0.29296876 -0.773437,0 -1.300781,-0.42187496 -1.300781,-0.94921876 0,-0.9726562 1.992188,-1.1953125 2.871094,-1.1953125 z m 0,0"
       style="fill:#000000;fill-opacity:1;fill-rule:nonzero;stroke:none"
       aria-label="data"
       transform="matrix(1.3333333,0,0,1.3333333,72.533333,366.872)" />
    <path
       id="path59"
       d="m 0,-229.67076 107.11958,-9.4e-4 2.55046,-7.6514 -2.55046,-7.6514 L 0,-244.97357"
       style="fill:none;stroke:#000000;stroke-width:0.95636;stroke-linecap:round;stroke-linejoin:round;stroke-miterlimit:10;stroke-dasharray:none;stroke-opacity:1"
       transform="matrix(1.3333333,0,0,-1.3333333,120.44,40.241333)" />
    <path
       id="path60"
       d="m 109.67004,-237.32124 2.55046,7.65139 239.74384,-9.1e-4 2.55048,-7.6514 -2.55048,-7.65141 -239.74384,0.002 -2.55046,7.6514"
       style="fill:none;stroke:#000000;stroke-width:0.95636;stroke-linecap:round;stroke-linejoin:round;stroke-miterlimit:10;stroke-dasharray:none;stroke-opacity:1"
       transform="matrix(1.3333333,0,0,-1.3333333,120.44,40.241333)" />
    <path
       id="path61"
       d="M 6.0754297,-9.9588411 H 5.0207422 v 4.1992187 c -0.6640625,-0.546875 -1.4257813,-0.7617187 -2.03125,-0.7617187 -1.3671875,0 -2.48046876,1.4648437 -2.48046876,3.3398437 0,1.8554688 1.05468746,3.3203125 2.42187496,3.3203125 0.5273438,0 1.328125,-0.15625 2.0507813,-0.859375 v 0.72265625 h 1.09375 z m -1.09375,8.2617187 c -0.3515625,0.625 -0.8398438,0.9765625 -1.484375,0.9765625 -0.859375,0 -1.8945313,-0.6640625 -1.8945313,-2.4414062 0,-1.9140625 1.2109375,-2.5 2.0507813,-2.5 0.546875,0 1.015625,0.2929687 1.328125,0.7617187 z m 7.8320313,-2.5 c 0,-1.3867187 -0.976563,-2.3828125 -2.324219,-2.3828125 -0.8593748,0 -1.5039061,0.1953125 -2.2070311,0.6054688 l 0.097656,0.9375 c 0.625,-0.46875 1.2890625,-0.7226563 2.1093751,-0.7226563 0.664063,0 1.25,0.5273438 1.25,1.5820313 v 0.5859375 c -0.664062,0.039063 -1.523437,0.078125 -2.3828126,0.3710937 -0.9570313,0.3320313 -1.5234375,0.859375 -1.5234375,1.5625 0,0.6445313 0.3710937,1.796875 1.6015625,1.796875 0.7812506,0 1.7968756,-0.21484375 2.3242186,-0.6640625 v 0.52734375 h 1.054688 z m -1.074219,2.2851563 c 0,0.2734375 0,0.625 -0.488281,0.9179687 -0.390625,0.234375 -0.878906,0.2734375 -1.09375,0.2734375 -0.7617188,0 -1.2890626,-0.4101562 -1.2890626,-0.9375 0,-0.9765625 1.9921876,-1.1914062 2.8710936,-1.1914062 z m 4.65332,-3.6328125 h 1.972657 v -0.8203125 h -1.972657 v -1.8359375 h -0.996093 v 1.8359375 h -1.210938 v 0.8203125 h 1.191406 v 3.8671875 c 0,0.8398437 0.175782,1.8164062 1.171875,1.8164062 0.957032,0 1.621094,-0.33203125 2.070313,-0.546875 l -0.214844,-0.8398437 c -0.507812,0.4492187 -1.035156,0.50781245 -1.308594,0.50781245 -0.625,0 -0.703125,-0.68359375 -0.703125,-1.17187495 z m 8.217774,1.3476562 c 0,-1.3867187 -0.976563,-2.3828125 -2.324219,-2.3828125 -0.859375,0 -1.503906,0.1953125 -2.207031,0.6054688 l 0.09766,0.9375 c 0.625,-0.46875 1.289063,-0.7226563 2.109375,-0.7226563 0.664063,0 1.25,0.5273438 1.25,1.5820313 v 0.5859375 c -0.664062,0.039063 -1.523437,0.078125 -2.382812,0.3710937 -0.957032,0.3320313 -1.523438,0.859375 -1.523438,1.5625 0,0.6445313 0.371094,1.796875 1.601563,1.796875 0.78125,0 1.796875,-0.21484375 2.324218,-0.6640625 v 0.52734375 h 1.054688 z m -1.074219,2.2851563 c 0,0.2734375 0,0.625 -0.488281,0.9179687 -0.390625,0.234375 -0.878906,0.2734375 -1.09375,0.2734375 -0.761719,0 -1.289063,-0.4101562 -1.289063,-0.9375 0,-0.9765625 1.992188,-1.1914062 2.871094,-1.1914062 z m 8.618164,-2.7734375 c 0,-0.9570313 -0.03906,-2.0507813 -0.410156,-3.0859375 -0.625,-1.6015625 -1.738281,-1.9335938 -2.5,-1.9335938 -0.9375,0 -1.835938,0.46875 -2.363281,1.6015625 -0.46875,1.0351563 -0.566407,2.1875 -0.566407,3.4179688 0,1.5820312 0.136719,2.4609375 0.585938,3.4765625 0.429687,0.93749995 1.347656,1.5039062 2.324219,1.5039062 0.957031,0 1.855468,-0.5078125 2.34375,-1.5039062 0.488281,-1.015625 0.585937,-2.0703125 0.585937,-3.4765625 z m -2.910156,4.1210937 c -1.835938,0 -1.835938,-2.9296875 -1.835938,-4.2773437 0,-0.9375 0,-1.8164063 0.253907,-2.6367188 0.351562,-1.015625 0.976562,-1.3671875 1.5625,-1.3671875 1.835937,0 1.835937,2.6757813 1.835937,4.0039063 0,0.9179687 0,1.8554687 -0.253906,2.7539062 -0.390625,1.3671875 -1.191406,1.5234375 -1.5625,1.5234375 z m 0,0"
       style="fill:#000000;fill-opacity:1;fill-rule:nonzero;stroke:none"
       aria-label="data0"
       transform="matrix(0.8,0,0,0.8,416.792,360.65067)" />
    <path
       id="path62"
       d="m 354.51482,-237.31937 2.55046,7.6514 76.51399,-0.002 m 0,-15.30279 -76.51399,0.002 -2.55046,7.65139"
       style="fill:none;stroke:#000000;stroke-width:0.95636;stroke-linecap:round;stroke-linejoin:round;stroke-miterlimit:10;stroke-dasharray:none;stroke-opacity:1"
       transform="matrix(1.3333333,0,0,-1.3333333,120.44,40.241333)" />
    <path
       id="path63"
       d="M 6.0763281,-9.9603906 H 5.0216406 v 4.1992187 c -0.6640625,-0.546875 -1.4257812,-0.7617187 -2.03125,-0.7617187 -1.3671875,0 -2.48046872,1.4648437 -2.48046872,3.3398437 0,1.8554688 1.05468752,3.32031252 2.42187502,3.32031252 0.5273437,0 1.328125,-0.15625 2.0507812,-0.859375 V 5.46875e-4 h 1.09375 z m -1.09375,8.2617187 c -0.3515625,0.625 -0.8398437,0.97656252 -1.484375,0.97656252 -0.859375,0 -1.8945312,-0.66406252 -1.8945312,-2.44140622 0,-1.9140625 1.2109375,-2.5 2.0507812,-2.5 0.546875,0 1.015625,0.2929687 1.328125,0.7617187 z m 7.8271489,-2.5 c 0,-1.3867187 -0.976563,-2.3828125 -2.324219,-2.3828125 -0.8593752,0 -1.5039064,0.1953125 -2.2070314,0.6054688 l 0.097656,0.9375 c 0.625,-0.46875 1.2890625,-0.7226563 2.1093754,-0.7226563 0.664062,0 1.25,0.5273438 1.25,1.5820313 v 0.5859375 c -0.664063,0.039063 -1.523438,0.078125 -2.3828129,0.3710937 -0.9570312,0.3320313 -1.5234375,0.859375 -1.5234375,1.5625 0,0.6445313 0.3710938,1.79687502 1.6015625,1.79687502 0.7812499,0 1.7968749,-0.21484375 2.3242189,-0.6640625 V 5.46875e-4 h 1.054688 z m -1.074219,2.2851563 c 0,0.2734375 0,0.625 -0.488281,0.91796872 -0.390625,0.234375 -0.878907,0.2734375 -1.09375,0.2734375 -0.7617192,0 -1.2890629,-0.41015622 -1.2890629,-0.93750002 0,-0.9765625 1.9921879,-1.1914062 2.8710939,-1.1914062 z m 4.65332,-3.6328125 h 1.972656 v -0.8203125 h -1.972656 v -1.8359375 h -0.996094 v 1.8359375 h -1.210937 v 0.8203125 h 1.191406 v 3.8671875 c 0,0.83984372 0.175781,1.81640622 1.171875,1.81640622 0.957031,0 1.621094,-0.33203125 2.070313,-0.546875 L 18.400547,-1.2494531 c -0.507813,0.44921872 -1.035156,0.50781247 -1.308594,0.50781247 -0.625,0 -0.703125,-0.68359377 -0.703125,-1.17187497 z m 8.217774,1.3476562 c 0,-1.3867187 -0.976563,-2.3828125 -2.324219,-2.3828125 -0.859375,0 -1.503906,0.1953125 -2.207031,0.6054688 l 0.09766,0.9375 c 0.625,-0.46875 1.289062,-0.7226563 2.109375,-0.7226563 0.664062,0 1.25,0.5273438 1.25,1.5820313 v 0.5859375 c -0.664063,0.039063 -1.523438,0.078125 -2.382813,0.3710937 -0.957031,0.3320313 -1.523437,0.859375 -1.523437,1.5625 0,0.6445313 0.371094,1.79687502 1.601562,1.79687502 0.78125,0 1.796875,-0.21484375 2.324219,-0.6640625 V 5.46875e-4 h 1.054688 z m -1.074219,2.2851563 c 0,0.2734375 0,0.625 -0.488281,0.91796872 -0.390625,0.234375 -0.878907,0.2734375 -1.09375,0.2734375 -0.761719,0 -1.289063,-0.41015622 -1.289063,-0.93750002 0,-0.9765625 1.992188,-1.1914062 2.871094,-1.1914062 z m 6.411133,-7.7929688 h -0.273438 c -0.234375,0.234375 -0.917969,0.8984375 -2.460937,0.9375 -0.214844,0 -0.214844,0.019531 -0.214844,0.2734375 v 0.5664063 c 0.878906,0 1.523437,-0.2148438 1.835937,-0.3320313 v 7.42187502 H 27.072422 V 5.46875e-4 h 4.628906 V -0.83929688 h -1.757812 z m 0,0"
       style="fill:#000000;fill-opacity:1;fill-rule:nonzero;stroke:none"
       aria-label="data1"
       transform="matrix(0.8,0,0,0.8,634.428,360.648)" />
    <path
       id="path64"
       d="M 20.40372,22.9542 V -252.71654 M 40.80745,22.9542 V -252.71654 M 61.21118,22.9542 V -252.71654 M 81.61491,22.9542 V -252.71654 M 102.01865,22.9542 V -252.71654 M 122.42238,22.9542 V -252.71654 M 142.82611,22.9542 V -252.71654 M 163.22984,22.9542 V -252.71654 M 183.63356,22.9542 V -252.71654 M 204.0373,22.9542 V -252.71654 M 224.44102,22.9542 V -252.71654 M 244.84476,22.9542 V -252.71654 M 265.24849,22.9542 V -252.71654 M 285.65222,22.9542 V -252.71654 M 306.05595,22.9542 V -252.71654 M 326.45969,22.9542 V -252.71654 M 346.86342,22.9542 V -252.71654 M 367.26714,22.9542 V -252.71654 M 387.67087,22.9542 V -252.71654 M 408.0746,22.9542 v -275.67074"
       style="fill:none;stroke:#808080;stroke-width:0.59776;stroke-linecap:round;stroke-linejoin:round;stroke-miterlimit:10;stroke-dasharray:none;stroke-opacity:0.5"
       transform="matrix(1.3333333,0,0,-1.3333333,120.44,40.241333)" />
    <path
       id="path65"
       d="M 20.40372,22.9542 V -252.71654 M 102.01865,22.9542 V -252.71654 M 265.24849,22.9542 v -275.67074"
       style="fill:none;stroke:#ff0000;stroke-width:0.7024;stroke-linecap:round;stroke-linejoin:round;stroke-miterlimit:10;stroke-dasharray:2.98883, 2.98883;stroke-dashoffset:0;stroke-opacity:0.75"
       transform="matrix(1.3333333,0,0,-1.3333333,120.44,40.241333)" />
  </g>
</svg>
