<?xml version="1.0" encoding="UTF-8" standalone="no"?>
<!-- Created with Inkscape (http://www.inkscape.org/) -->

<svg
   version="1.1"
   id="svg1"
   width="524.70398"
   height="242.50932"
   viewBox="0 0 524.70398 242.50932"
   sodipodi:docname="main.pdf"
   xmlns:inkscape="http://www.inkscape.org/namespaces/inkscape"
   xmlns:sodipodi="http://sodipodi.sourceforge.net/DTD/sodipodi-0.dtd"
   xmlns="http://www.w3.org/2000/svg"
   xmlns:svg="http://www.w3.org/2000/svg">
  <defs
     id="defs1" />
  <sodipodi:namedview
     id="namedview1"
     pagecolor="#ffffff"
     bordercolor="#000000"
     borderopacity="0.25"
     inkscape:showpageshadow="2"
     inkscape:pageopacity="0.0"
     inkscape:pagecheckerboard="0"
     inkscape:deskcolor="#d1d1d1">
    <inkscape:page
       x="0"
       y="0"
       inkscape:label="1"
       id="page1"
       width="524.70398"
       height="242.50932"
       margin="0"
       bleed="0" />
  </sodipodi:namedview>
  <g
     id="g1"
     inkscape:groupmode="layer"
     inkscape:label="1">
    <path
       id="path1"
       d="M 0,0 H 393.528 V 181.882 H 0 Z"
       style="fill:#ffffff;fill-opacity:1;fill-rule:nonzero;stroke:none"
       transform="matrix(1.3333333,0,0,-1.3333333,0,242.50933)" />
    <path
       id="path2"
       d="M 0,0 V 97.63513 H 392.53308 V 0 Z"
       style="fill:#ffffff;fill-opacity:1;fill-rule:nonzero;stroke:none"
       transform="matrix(1.3333333,0,0,-1.3333333,0.66666667,241.84267)" />
    <path
       id="path3"
       d="m 29.8883,38.8548 v 97.63513 h 1.99256 V 38.8548 Z"
       style="fill:#000000;fill-opacity:1;fill-rule:nonzero;stroke:none"
       transform="matrix(1.3333333,0,0,-1.3333333,0.66666667,241.84267)" />
    <path
       id="path4"
       d="m 31.88086,38.8548 v 97.63513 h 1.99255 V 38.8548 Z"
       style="fill:#000000;fill-opacity:1;fill-rule:nonzero;stroke:none"
       transform="matrix(1.3333333,0,0,-1.3333333,0.66666667,241.84267)" />
    <path
       id="path5"
       d="m 35.86597,38.8548 v 97.63513 h 1.99255 V 38.8548 Z"
       style="fill:#000000;fill-opacity:1;fill-rule:nonzero;stroke:none"
       transform="matrix(1.3333333,0,0,-1.3333333,0.66666667,241.84267)" />
    <path
       id="path6"
       d="m 41.84363,38.8548 v 97.63513 h 1.99255 V 38.8548 Z"
       style="fill:#000000;fill-opacity:1;fill-rule:nonzero;stroke:none"
       transform="matrix(1.3333333,0,0,-1.3333333,0.66666667,241.84267)" />
    <path
       id="path7"
       d="m 51.8064,38.8548 v 97.63513 h 1.99255 V 38.8548 Z"
       style="fill:#000000;fill-opacity:1;fill-rule:nonzero;stroke:none"
       transform="matrix(1.3333333,0,0,-1.3333333,0.66666667,241.84267)" />
    <path
       id="path8"
       d="m 53.79895,38.8548 v 97.63513 H 55.7915 V 38.8548 Z"
       style="fill:#000000;fill-opacity:1;fill-rule:nonzero;stroke:none"
       transform="matrix(1.3333333,0,0,-1.3333333,0.66666667,241.84267)" />
    <path
       id="path9"
       d="m 61.76917,38.8548 v 97.63513 h 1.99255 V 38.8548 Z"
       style="fill:#000000;fill-opacity:1;fill-rule:nonzero;stroke:none"
       transform="matrix(1.3333333,0,0,-1.3333333,0.66666667,241.84267)" />
    <path
       id="path10"
       d="m 65.75427,38.8548 v 97.63513 h 1.99256 V 38.8548 Z"
       style="fill:#000000;fill-opacity:1;fill-rule:nonzero;stroke:none"
       transform="matrix(1.3333333,0,0,-1.3333333,0.66666667,241.84267)" />
    <path
       id="path11"
       d="m 73.72449,38.8548 v 97.63513 h 1.99255 V 38.8548 Z"
       style="fill:#000000;fill-opacity:1;fill-rule:nonzero;stroke:none"
       transform="matrix(1.3333333,0,0,-1.3333333,0.66666667,241.84267)" />
    <path
       id="path12"
       d="m 75.71704,38.8548 v 97.63513 H 77.7096 V 38.8548 Z"
       style="fill:#000000;fill-opacity:1;fill-rule:nonzero;stroke:none"
       transform="matrix(1.3333333,0,0,-1.3333333,0.66666667,241.84267)" />
    <path
       id="path13"
       d="m 77.7096,38.8548 v 97.63513 h 1.99255 V 38.8548 Z"
       style="fill:#000000;fill-opacity:1;fill-rule:nonzero;stroke:none"
       transform="matrix(1.3333333,0,0,-1.3333333,0.66666667,241.84267)" />
    <path
       id="path14"
       d="m 81.6947,38.8548 v 97.63513 h 1.99256 V 38.8548 Z"
       style="fill:#000000;fill-opacity:1;fill-rule:nonzero;stroke:none"
       transform="matrix(1.3333333,0,0,-1.3333333,0.66666667,241.84267)" />
    <path
       id="path15"
       d="m 89.66492,38.8548 v 97.63513 h 1.99255 V 38.8548 Z"
       style="fill:#000000;fill-opacity:1;fill-rule:nonzero;stroke:none"
       transform="matrix(1.3333333,0,0,-1.3333333,0.66666667,241.84267)" />
    <path
       id="path16"
       d="m 91.65747,38.8548 v 97.63513 h 1.99255 V 38.8548 Z"
       style="fill:#000000;fill-opacity:1;fill-rule:nonzero;stroke:none"
       transform="matrix(1.3333333,0,0,-1.3333333,0.66666667,241.84267)" />
    <path
       id="path17"
       d="m 95.64258,38.8548 v 97.63513 h 1.99255 V 38.8548 Z"
       style="fill:#000000;fill-opacity:1;fill-rule:nonzero;stroke:none"
       transform="matrix(1.3333333,0,0,-1.3333333,0.66666667,241.84267)" />
    <path
       id="path18"
       d="m 99.62769,38.8548 v 97.63513 h 1.99255 V 38.8548 Z"
       style="fill:#000000;fill-opacity:1;fill-rule:nonzero;stroke:none"
       transform="matrix(1.3333333,0,0,-1.3333333,0.66666667,241.84267)" />
    <path
       id="path19"
       d="m 105.60535,38.8548 v 97.63513 h 1.99255 V 38.8548 Z"
       style="fill:#000000;fill-opacity:1;fill-rule:nonzero;stroke:none"
       transform="matrix(1.3333333,0,0,-1.3333333,0.66666667,241.84267)" />
    <path
       id="path20"
       d="m 107.5979,38.8548 v 97.63513 h 1.99255 V 38.8548 Z"
       style="fill:#000000;fill-opacity:1;fill-rule:nonzero;stroke:none"
       transform="matrix(1.3333333,0,0,-1.3333333,0.66666667,241.84267)" />
    <path
       id="path21"
       d="m 117.56067,38.8548 v 97.63513 h 1.99255 V 38.8548 Z"
       style="fill:#000000;fill-opacity:1;fill-rule:nonzero;stroke:none"
       transform="matrix(1.3333333,0,0,-1.3333333,0.66666667,241.84267)" />
    <path
       id="path22"
       d="m 121.54578,38.8548 v 97.63513 h 1.99255 V 38.8548 Z"
       style="fill:#000000;fill-opacity:1;fill-rule:nonzero;stroke:none"
       transform="matrix(1.3333333,0,0,-1.3333333,0.66666667,241.84267)" />
    <path
       id="path23"
       d="m 123.53833,38.8548 v 97.63513 h 1.99255 V 38.8548 Z"
       style="fill:#000000;fill-opacity:1;fill-rule:nonzero;stroke:none"
       transform="matrix(1.3333333,0,0,-1.3333333,0.66666667,241.84267)" />
    <path
       id="path24"
       d="m 125.53088,38.8548 v 97.63513 h 1.99256 V 38.8548 Z"
       style="fill:#000000;fill-opacity:1;fill-rule:nonzero;stroke:none"
       transform="matrix(1.3333333,0,0,-1.3333333,0.66666667,241.84267)" />
    <path
       id="path25"
       d="m 129.51599,38.8548 v 97.63513 h 1.99255 V 38.8548 Z"
       style="fill:#000000;fill-opacity:1;fill-rule:nonzero;stroke:none"
       transform="matrix(1.3333333,0,0,-1.3333333,0.66666667,241.84267)" />
    <path
       id="path26"
       d="m 131.50854,38.8548 v 97.63513 h 1.99256 V 38.8548 Z"
       style="fill:#000000;fill-opacity:1;fill-rule:nonzero;stroke:none"
       transform="matrix(1.3333333,0,0,-1.3333333,0.66666667,241.84267)" />
    <path
       id="path27"
       d="m 139.47876,38.8548 v 97.63513 h 1.99255 V 38.8548 Z"
       style="fill:#000000;fill-opacity:1;fill-rule:nonzero;stroke:none"
       transform="matrix(1.3333333,0,0,-1.3333333,0.66666667,241.84267)" />
    <path
       id="path28"
       d="m 147.44897,38.8548 v 97.63513 h 1.99256 V 38.8548 Z"
       style="fill:#000000;fill-opacity:1;fill-rule:nonzero;stroke:none"
       transform="matrix(1.3333333,0,0,-1.3333333,0.66666667,241.84267)" />
    <path
       id="path29"
       d="m 149.44153,38.8548 v 97.63513 h 1.99255 V 38.8548 Z"
       style="fill:#000000;fill-opacity:1;fill-rule:nonzero;stroke:none"
       transform="matrix(1.3333333,0,0,-1.3333333,0.66666667,241.84267)" />
    <path
       id="path30"
       d="m 151.43408,38.8548 v 97.63513 h 1.99256 V 38.8548 Z"
       style="fill:#000000;fill-opacity:1;fill-rule:nonzero;stroke:none"
       transform="matrix(1.3333333,0,0,-1.3333333,0.66666667,241.84267)" />
    <path
       id="path31"
       d="m 155.41919,38.8548 v 97.63513 h 1.99255 V 38.8548 Z"
       style="fill:#000000;fill-opacity:1;fill-rule:nonzero;stroke:none"
       transform="matrix(1.3333333,0,0,-1.3333333,0.66666667,241.84267)" />
    <path
       id="path32"
       d="m 157.41174,38.8548 v 97.63513 h 1.99256 V 38.8548 Z"
       style="fill:#000000;fill-opacity:1;fill-rule:nonzero;stroke:none"
       transform="matrix(1.3333333,0,0,-1.3333333,0.66666667,241.84267)" />
    <path
       id="path33"
       d="m 161.39685,38.8548 v 97.63513 h 1.99255 V 38.8548 Z"
       style="fill:#000000;fill-opacity:1;fill-rule:nonzero;stroke:none"
       transform="matrix(1.3333333,0,0,-1.3333333,0.66666667,241.84267)" />
    <path
       id="path34"
       d="m 165.38196,38.8548 v 97.63513 h 1.99255 V 38.8548 Z"
       style="fill:#000000;fill-opacity:1;fill-rule:nonzero;stroke:none"
       transform="matrix(1.3333333,0,0,-1.3333333,0.66666667,241.84267)" />
    <path
       id="path35"
       d="m 167.37451,38.8548 v 97.63513 h 1.99256 V 38.8548 Z"
       style="fill:#000000;fill-opacity:1;fill-rule:nonzero;stroke:none"
       transform="matrix(1.3333333,0,0,-1.3333333,0.66666667,241.84267)" />
    <path
       id="path36"
       d="m 175.34473,38.8548 v 97.63513 h 1.99255 V 38.8548 Z"
       style="fill:#000000;fill-opacity:1;fill-rule:nonzero;stroke:none"
       transform="matrix(1.3333333,0,0,-1.3333333,0.66666667,241.84267)" />
    <path
       id="path37"
       d="m 183.31494,38.8548 v 97.63513 h 1.99256 V 38.8548 Z"
       style="fill:#000000;fill-opacity:1;fill-rule:nonzero;stroke:none"
       transform="matrix(1.3333333,0,0,-1.3333333,0.66666667,241.84267)" />
    <path
       id="path38"
       d="m 185.3075,38.8548 v 97.63513 h 1.99255 V 38.8548 Z"
       style="fill:#000000;fill-opacity:1;fill-rule:nonzero;stroke:none"
       transform="matrix(1.3333333,0,0,-1.3333333,0.66666667,241.84267)" />
    <path
       id="path39"
       d="m 189.2926,38.8548 v 97.63513 h 1.99256 V 38.8548 Z"
       style="fill:#000000;fill-opacity:1;fill-rule:nonzero;stroke:none"
       transform="matrix(1.3333333,0,0,-1.3333333,0.66666667,241.84267)" />
    <path
       id="path40"
       d="m 191.28516,38.8548 v 97.63513 h 1.99255 V 38.8548 Z"
       style="fill:#000000;fill-opacity:1;fill-rule:nonzero;stroke:none"
       transform="matrix(1.3333333,0,0,-1.3333333,0.66666667,241.84267)" />
    <path
       id="path41"
       d="m 197.26282,38.8548 v 97.63513 h 1.99255 V 38.8548 Z"
       style="fill:#000000;fill-opacity:1;fill-rule:nonzero;stroke:none"
       transform="matrix(1.3333333,0,0,-1.3333333,0.66666667,241.84267)" />
    <path
       id="path42"
       d="m 199.25537,38.8548 v 97.63513 h 1.99255 V 38.8548 Z"
       style="fill:#000000;fill-opacity:1;fill-rule:nonzero;stroke:none"
       transform="matrix(1.3333333,0,0,-1.3333333,0.66666667,241.84267)" />
    <path
       id="path43"
       d="m 205.23303,38.8548 v 97.63513 h 1.99256 V 38.8548 Z"
       style="fill:#000000;fill-opacity:1;fill-rule:nonzero;stroke:none"
       transform="matrix(1.3333333,0,0,-1.3333333,0.66666667,241.84267)" />
    <path
       id="path44"
       d="m 207.22559,38.8548 v 97.63513 h 1.99255 V 38.8548 Z"
       style="fill:#000000;fill-opacity:1;fill-rule:nonzero;stroke:none"
       transform="matrix(1.3333333,0,0,-1.3333333,0.66666667,241.84267)" />
    <path
       id="path45"
       d="m 213.20325,38.8548 v 97.63513 h 1.99255 V 38.8548 Z"
       style="fill:#000000;fill-opacity:1;fill-rule:nonzero;stroke:none"
       transform="matrix(1.3333333,0,0,-1.3333333,0.66666667,241.84267)" />
    <path
       id="path46"
       d="m 215.1958,38.8548 v 97.63513 h 1.99255 V 38.8548 Z"
       style="fill:#000000;fill-opacity:1;fill-rule:nonzero;stroke:none"
       transform="matrix(1.3333333,0,0,-1.3333333,0.66666667,241.84267)" />
    <path
       id="path47"
       d="m 217.18835,38.8548 v 97.63513 h 1.99256 V 38.8548 Z"
       style="fill:#000000;fill-opacity:1;fill-rule:nonzero;stroke:none"
       transform="matrix(1.3333333,0,0,-1.3333333,0.66666667,241.84267)" />
    <path
       id="path48"
       d="m 223.16602,38.8548 v 97.63513 h 1.99255 V 38.8548 Z"
       style="fill:#000000;fill-opacity:1;fill-rule:nonzero;stroke:none"
       transform="matrix(1.3333333,0,0,-1.3333333,0.66666667,241.84267)" />
    <path
       id="path49"
       d="m 227.15112,38.8548 v 97.63513 h 1.99256 V 38.8548 Z"
       style="fill:#000000;fill-opacity:1;fill-rule:nonzero;stroke:none"
       transform="matrix(1.3333333,0,0,-1.3333333,0.66666667,241.84267)" />
    <path
       id="path50"
       d="m 233.12878,38.8548 v 97.63513 h 1.99256 V 38.8548 Z"
       style="fill:#000000;fill-opacity:1;fill-rule:nonzero;stroke:none"
       transform="matrix(1.3333333,0,0,-1.3333333,0.66666667,241.84267)" />
    <path
       id="path51"
       d="m 235.12134,38.8548 v 97.63513 h 1.99255 V 38.8548 Z"
       style="fill:#000000;fill-opacity:1;fill-rule:nonzero;stroke:none"
       transform="matrix(1.3333333,0,0,-1.3333333,0.66666667,241.84267)" />
    <path
       id="path52"
       d="m 237.11389,38.8548 v 97.63513 h 1.99256 V 38.8548 Z"
       style="fill:#000000;fill-opacity:1;fill-rule:nonzero;stroke:none"
       transform="matrix(1.3333333,0,0,-1.3333333,0.66666667,241.84267)" />
    <path
       id="path53"
       d="m 241.099,38.8548 v 97.63513 h 1.99255 V 38.8548 Z"
       style="fill:#000000;fill-opacity:1;fill-rule:nonzero;stroke:none"
       transform="matrix(1.3333333,0,0,-1.3333333,0.66666667,241.84267)" />
    <path
       id="path54"
       d="m 243.09155,38.8548 v 97.63513 h 1.99255 V 38.8548 Z"
       style="fill:#000000;fill-opacity:1;fill-rule:nonzero;stroke:none"
       transform="matrix(1.3333333,0,0,-1.3333333,0.66666667,241.84267)" />
    <path
       id="path55"
       d="m 249.06921,38.8548 v 97.63513 h 1.99256 V 38.8548 Z"
       style="fill:#000000;fill-opacity:1;fill-rule:nonzero;stroke:none"
       transform="matrix(1.3333333,0,0,-1.3333333,0.66666667,241.84267)" />
    <path
       id="path56"
       d="m 251.06177,38.8548 v 97.63513 h 1.99255 V 38.8548 Z"
       style="fill:#000000;fill-opacity:1;fill-rule:nonzero;stroke:none"
       transform="matrix(1.3333333,0,0,-1.3333333,0.66666667,241.84267)" />
    <path
       id="path57"
       d="m 257.03943,38.8548 v 97.63513 h 1.99255 V 38.8548 Z"
       style="fill:#000000;fill-opacity:1;fill-rule:nonzero;stroke:none"
       transform="matrix(1.3333333,0,0,-1.3333333,0.66666667,241.84267)" />
    <path
       id="path58"
       d="m 259.03198,38.8548 v 97.63513 h 1.99256 V 38.8548 Z"
       style="fill:#000000;fill-opacity:1;fill-rule:nonzero;stroke:none"
       transform="matrix(1.3333333,0,0,-1.3333333,0.66666667,241.84267)" />
    <path
       id="path59"
       d="m 261.02454,38.8548 v 97.63513 h 1.99255 V 38.8548 Z"
       style="fill:#000000;fill-opacity:1;fill-rule:nonzero;stroke:none"
       transform="matrix(1.3333333,0,0,-1.3333333,0.66666667,241.84267)" />
    <path
       id="path60"
       d="m 267.0022,38.8548 v 97.63513 h 1.99255 V 38.8548 Z"
       style="fill:#000000;fill-opacity:1;fill-rule:nonzero;stroke:none"
       transform="matrix(1.3333333,0,0,-1.3333333,0.66666667,241.84267)" />
    <path
       id="path61"
       d="m 270.9873,38.8548 v 97.63513 h 1.99256 V 38.8548 Z"
       style="fill:#000000;fill-opacity:1;fill-rule:nonzero;stroke:none"
       transform="matrix(1.3333333,0,0,-1.3333333,0.66666667,241.84267)" />
    <path
       id="path62"
       d="m 272.97986,38.8548 v 97.63513 h 1.99255 V 38.8548 Z"
       style="fill:#000000;fill-opacity:1;fill-rule:nonzero;stroke:none"
       transform="matrix(1.3333333,0,0,-1.3333333,0.66666667,241.84267)" />
    <path
       id="path63"
       d="m 278.95752,38.8548 v 97.63513 h 1.99255 V 38.8548 Z"
       style="fill:#000000;fill-opacity:1;fill-rule:nonzero;stroke:none"
       transform="matrix(1.3333333,0,0,-1.3333333,0.66666667,241.84267)" />
    <path
       id="path64"
       d="m 284.93518,38.8548 v 97.63513 h 1.99255 V 38.8548 Z"
       style="fill:#000000;fill-opacity:1;fill-rule:nonzero;stroke:none"
       transform="matrix(1.3333333,0,0,-1.3333333,0.66666667,241.84267)" />
    <path
       id="path65"
       d="m 286.92773,38.8548 v 97.63513 h 1.99256 V 38.8548 Z"
       style="fill:#000000;fill-opacity:1;fill-rule:nonzero;stroke:none"
       transform="matrix(1.3333333,0,0,-1.3333333,0.66666667,241.84267)" />
    <path
       id="path66"
       d="m 288.92029,38.8548 v 97.63513 h 1.99255 V 38.8548 Z"
       style="fill:#000000;fill-opacity:1;fill-rule:nonzero;stroke:none"
       transform="matrix(1.3333333,0,0,-1.3333333,0.66666667,241.84267)" />
    <path
       id="path67"
       d="m 292.9054,38.8548 v 97.63513 h 1.99255 V 38.8548 Z"
       style="fill:#000000;fill-opacity:1;fill-rule:nonzero;stroke:none"
       transform="matrix(1.3333333,0,0,-1.3333333,0.66666667,241.84267)" />
    <path
       id="path68"
       d="m 294.89795,38.8548 v 97.63513 h 1.99255 V 38.8548 Z"
       style="fill:#000000;fill-opacity:1;fill-rule:nonzero;stroke:none"
       transform="matrix(1.3333333,0,0,-1.3333333,0.66666667,241.84267)" />
    <path
       id="path69"
       d="m 296.8905,38.8548 v 97.63513 h 1.99256 V 38.8548 Z"
       style="fill:#000000;fill-opacity:1;fill-rule:nonzero;stroke:none"
       transform="matrix(1.3333333,0,0,-1.3333333,0.66666667,241.84267)" />
    <path
       id="path70"
       d="m 300.87561,38.8548 v 97.63513 h 1.99255 V 38.8548 Z"
       style="fill:#000000;fill-opacity:1;fill-rule:nonzero;stroke:none"
       transform="matrix(1.3333333,0,0,-1.3333333,0.66666667,241.84267)" />
    <path
       id="path71"
       d="m 308.84583,38.8548 v 97.63513 h 1.99255 V 38.8548 Z"
       style="fill:#000000;fill-opacity:1;fill-rule:nonzero;stroke:none"
       transform="matrix(1.3333333,0,0,-1.3333333,0.66666667,241.84267)" />
    <path
       id="path72"
       d="m 310.83838,38.8548 v 97.63513 h 1.99255 V 38.8548 Z"
       style="fill:#000000;fill-opacity:1;fill-rule:nonzero;stroke:none"
       transform="matrix(1.3333333,0,0,-1.3333333,0.66666667,241.84267)" />
    <path
       id="path73"
       d="m 314.82349,38.8548 v 97.63513 h 1.99255 V 38.8548 Z"
       style="fill:#000000;fill-opacity:1;fill-rule:nonzero;stroke:none"
       transform="matrix(1.3333333,0,0,-1.3333333,0.66666667,241.84267)" />
    <path
       id="path74"
       d="m 316.81604,38.8548 v 97.63513 h 1.99256 V 38.8548 Z"
       style="fill:#000000;fill-opacity:1;fill-rule:nonzero;stroke:none"
       transform="matrix(1.3333333,0,0,-1.3333333,0.66666667,241.84267)" />
    <path
       id="path75"
       d="m 320.80115,38.8548 v 97.63513 h 1.99255 V 38.8548 Z"
       style="fill:#000000;fill-opacity:1;fill-rule:nonzero;stroke:none"
       transform="matrix(1.3333333,0,0,-1.3333333,0.66666667,241.84267)" />
    <path
       id="path76"
       d="m 322.7937,38.8548 v 97.63513 h 1.99255 V 38.8548 Z"
       style="fill:#000000;fill-opacity:1;fill-rule:nonzero;stroke:none"
       transform="matrix(1.3333333,0,0,-1.3333333,0.66666667,241.84267)" />
    <path
       id="path77"
       d="m 324.78625,38.8548 v 97.63513 h 1.99256 V 38.8548 Z"
       style="fill:#000000;fill-opacity:1;fill-rule:nonzero;stroke:none"
       transform="matrix(1.3333333,0,0,-1.3333333,0.66666667,241.84267)" />
    <path
       id="path78"
       d="m 328.77136,38.8548 v 97.63513 h 1.99256 V 38.8548 Z"
       style="fill:#000000;fill-opacity:1;fill-rule:nonzero;stroke:none"
       transform="matrix(1.3333333,0,0,-1.3333333,0.66666667,241.84267)" />
    <path
       id="path79"
       d="m 330.76392,38.8548 v 97.63513 h 1.99255 V 38.8548 Z"
       style="fill:#000000;fill-opacity:1;fill-rule:nonzero;stroke:none"
       transform="matrix(1.3333333,0,0,-1.3333333,0.66666667,241.84267)" />
    <path
       id="path80"
       d="m 332.75647,38.8548 v 97.63513 h 1.99255 V 38.8548 Z"
       style="fill:#000000;fill-opacity:1;fill-rule:nonzero;stroke:none"
       transform="matrix(1.3333333,0,0,-1.3333333,0.66666667,241.84267)" />
    <path
       id="path81"
       d="m 336.74158,38.8548 v 97.63513 h 1.99255 V 38.8548 Z"
       style="fill:#000000;fill-opacity:1;fill-rule:nonzero;stroke:none"
       transform="matrix(1.3333333,0,0,-1.3333333,0.66666667,241.84267)" />
    <path
       id="path82"
       d="m 338.73413,38.8548 v 97.63513 h 1.99255 V 38.8548 Z"
       style="fill:#000000;fill-opacity:1;fill-rule:nonzero;stroke:none"
       transform="matrix(1.3333333,0,0,-1.3333333,0.66666667,241.84267)" />
    <path
       id="path83"
       d="m 346.70435,38.8548 v 97.63513 h 1.99255 V 38.8548 Z"
       style="fill:#000000;fill-opacity:1;fill-rule:nonzero;stroke:none"
       transform="matrix(1.3333333,0,0,-1.3333333,0.66666667,241.84267)" />
    <path
       id="path84"
       d="m 348.6969,38.8548 v 97.63513 h 1.99255 V 38.8548 Z"
       style="fill:#000000;fill-opacity:1;fill-rule:nonzero;stroke:none"
       transform="matrix(1.3333333,0,0,-1.3333333,0.66666667,241.84267)" />
    <path
       id="path85"
       d="m 350.68945,38.8548 v 97.63513 H 352.682 V 38.8548 Z"
       style="fill:#000000;fill-opacity:1;fill-rule:nonzero;stroke:none"
       transform="matrix(1.3333333,0,0,-1.3333333,0.66666667,241.84267)" />
    <path
       id="path86"
       d="m 354.67456,38.8548 v 97.63513 h 1.99255 V 38.8548 Z"
       style="fill:#000000;fill-opacity:1;fill-rule:nonzero;stroke:none"
       transform="matrix(1.3333333,0,0,-1.3333333,0.66666667,241.84267)" />
    <path
       id="path87"
       d="m 358.65967,38.8548 v 97.63513 h 1.99255 V 38.8548 Z"
       style="fill:#000000;fill-opacity:1;fill-rule:nonzero;stroke:none"
       transform="matrix(1.3333333,0,0,-1.3333333,0.66666667,241.84267)" />
    <path
       id="path88"
       d="m 360.65222,38.8548 v 97.63513 h 1.99256 V 38.8548 Z"
       style="fill:#000000;fill-opacity:1;fill-rule:nonzero;stroke:none"
       transform="matrix(1.3333333,0,0,-1.3333333,0.66666667,241.84267)" />
    <path
       id="path89"
       d="m 29.8883,140.00974 v 10.65357 0 h 21.9181 v -10.65357"
       style="fill:none;stroke:#000000;stroke-width:0.3985;stroke-linecap:butt;stroke-linejoin:miter;stroke-miterlimit:10;stroke-dasharray:none;stroke-opacity:1"
       transform="matrix(1.3333333,0,0,-1.3333333,0.66666667,241.84267)" />
    <path
       id="path90"
       d="M 4.4530938,-6.7374766 H 4.2421563 C 4.207,-6.5031016 4.0898125,-6.3976328 3.92575,-6.3976328 c -0.1054687,0 -0.2695312,-0.035156 -0.4335937,-0.1171875 -0.375,-0.140625 -0.7382813,-0.2226563 -1.0664063,-0.2226563 -0.421875,0 -0.8671875,0.1757813 -1.1953125,0.4570313 -0.33984375,0.3164062 -0.52734375,0.7382812 -0.52734375,1.2539062 0,0.796875 0.44531255,1.3476563 1.55859375,1.9335938 0.7148438,0.3867187 1.2304688,0.796875 1.4882813,1.171875 0.082031,0.1289062 0.140625,0.3398437 0.140625,0.5742187 0,0.66796879 -0.5039063,1.12500004 -1.2304688,1.12500004 -0.890625,0 -1.5117187,-0.5390625 -2.015625,-1.75781254 H 0.42184375 L 0.7148125,0.12971094 h 0.22265625 c 0.0117188,-0.1875 0.12890625,-0.328125 0.28125005,-0.328125 0.1054687,0 0.28125,0.0351563 0.46875,0.10546875 0.375,0.15234375 0.7734375,0.234375 1.171875,0.234375 1.1484375,0 2.0273437,-0.78515625 2.0273437,-1.81640629 0,-0.8203125 -0.5390625,-1.4648437 -1.8632812,-2.1679687 -1.0429688,-0.5742188 -1.4648438,-1.0195313 -1.4648438,-1.5585938 0,-0.5390625 0.421875,-0.9257812 1.0429688,-0.9257812 0.4453125,0 0.8671875,0.1875 1.21875,0.5507812 0.3046875,0.3164063 0.4453125,0.5742188 0.5976562,1.1601563 H 4.67575 Z m 3.6298828,2.25 H 7.0751641 v -1.1484375 c 0,-0.1054687 -0.011719,-0.1289062 -0.070312,-0.1289062 -0.070312,0.082031 -0.1289063,0.1757812 -0.1992188,0.28125 -0.375,0.5390625 -0.8085937,1.0195312 -0.9609375,1.0664062 -0.1171875,0.070312 -0.1757812,0.1289063 -0.1757812,0.1875 0,0.023437 0.011719,0.046875 0.035156,0.070312 h 0.5390625 v 3 c 0,0.83203129 0.2929688,1.26562504 0.8789063,1.26562504 0.4921875,0 0.8671875,-0.24609375 1.1953125,-0.76171875 L 8.1884453,-0.76091406 c -0.2109375,0.24609375 -0.375,0.33984375 -0.5976562,0.33984375 -0.3632813,0 -0.515625,-0.26953125 -0.515625,-0.89062499 v -2.8476563 h 1.0078125 z m 4.6318364,3.83203129 c -0.175782,0.140625 -0.292969,0.1875 -0.445313,0.1875 -0.222656,0 -0.292969,-0.140625 -0.292969,-0.57421879 v -1.9453125 c 0,-0.515625 -0.04687,-0.8085937 -0.199218,-1.0429687 -0.222657,-0.3632813 -0.644532,-0.5507813 -1.242188,-0.5507813 -0.9257812,0 -1.6640625,0.4921875 -1.6640625,1.1132813 0,0.234375 0.1992188,0.4335937 0.421875,0.4335937 0.2460938,0 0.4453125,-0.1992187 0.4453125,-0.421875 0,-0.035156 0,-0.09375 -0.011719,-0.1640625 -0.023437,-0.082031 -0.035156,-0.1640625 -0.035156,-0.234375 0,-0.2695312 0.316406,-0.4921875 0.714844,-0.4921875 0.492187,0 0.761719,0.2929688 0.761719,0.8320313 v 0.609375 c -1.5351567,0.609375 -1.6992192,0.6914062 -2.132813,1.078125 -0.2226562,0.1992187 -0.3632812,0.5273437 -0.3632812,0.86718749 0,0.62109375 0.4453125,1.06640625 1.0546875,1.06640625 0.4335937,0 0.8437497,-0.2109375 1.4531247,-0.73828125 0.04687,0.52734375 0.222657,0.73828125 0.632813,0.73828125 0.339844,0 0.550781,-0.12890625 0.902344,-0.50390625 z M 11.167938,-1.2296641 c 0,0.31640629 -0.04687,0.39843754 -0.257813,0.52734379 -0.246094,0.140625 -0.515625,0.22265625 -0.726562,0.22265625 -0.351563,0 -0.632813,-0.33984375 -0.632813,-0.76171874 v -0.046875 c 0,-0.5859375 0.4101563,-0.9375 1.617188,-1.3828125 z m 1.634765,-2.6601562 c 0.140625,-0.023437 0.234375,-0.035156 0.351563,-0.035156 0.246093,0 0.339843,0.1640625 0.339843,0.5976563 v 2.49609374 c 0,0.4921875 -0.07031,0.5625 -0.714843,0.6796875 V 8.046875e-4 h 2.390625 V -0.15153906 c -0.679688,-0.0234375 -0.84375,-0.17578125 -0.84375,-0.75 V -3.1398203 c 0,-0.3164063 0.433593,-0.8085938 0.703125,-0.8085938 0.05859,0 0.140625,0.046875 0.257812,0.140625 0.152344,0.140625 0.269531,0.1992188 0.398438,0.1992188 0.234375,0 0.386718,-0.1640625 0.386718,-0.4453125 0,-0.328125 -0.210937,-0.5273438 -0.550781,-0.5273438 -0.421875,0 -0.703125,0.234375 -1.195312,0.9375 v -0.9140625 l -0.04687,-0.023437 c -0.527344,0.2226563 -0.890625,0.3515625 -1.476563,0.5390625 z m 5.789063,-0.5976563 h -1.007813 v -1.1484375 c 0,-0.1054687 -0.01172,-0.1289062 -0.07031,-0.1289062 -0.07031,0.082031 -0.128907,0.1757812 -0.199219,0.28125 -0.375,0.5390625 -0.808594,1.0195312 -0.960938,1.0664062 -0.117187,0.070312 -0.175781,0.1289063 -0.175781,0.1875 0,0.023437 0.01172,0.046875 0.03516,0.070312 h 0.539063 v 3 c 0,0.83203129 0.292969,1.26562504 0.878906,1.26562504 0.492188,0 0.867188,-0.24609375 1.195313,-0.76171875 L 18.69724,-0.76091456 c -0.210937,0.24609375 -0.375,0.33984375 -0.597656,0.33984375 -0.363281,0 -0.515625,-0.26953125 -0.515625,-0.89062499 v -2.8476563 h 1.007813 z m 0,0"
       style="fill:#000000;fill-opacity:1;fill-rule:nonzero;stroke:none"
       aria-label="Start"
       transform="matrix(0,-1.3333333,1.3333333,0,59.565333,34.609333)" />
    <path
       id="path91"
       d="m 51.8064,150.66331 v 0 h 263.01709 v -10.65357"
       style="fill:none;stroke:#000000;stroke-width:0.3985;stroke-linecap:butt;stroke-linejoin:miter;stroke-miterlimit:10;stroke-dasharray:none;stroke-opacity:1"
       transform="matrix(1.3333333,0,0,-1.3333333,0.66666667,241.84267)" />
    <path
       id="path92"
       d="m 1.0320781,-1.0888594 c 0,0.72656253 -0.11718747,0.85546878 -0.86718747,0.90234378 V 9.84375e-4 H 2.9891094 c 1.1601562,0 2.203125,-0.328124995 2.8242187,-0.890624995 0.6445313,-0.58593748 1.0078125,-1.46484378 1.0078125,-2.43749998 0,-0.890625 -0.2929687,-1.6757813 -0.84375,-2.2148438 C 5.2977031,-6.2333906 4.2195781,-6.5966719 2.8484844,-6.5966719 H 0.16489063 v 0.1875 c 0.78515625,0.070312 0.86718747,0.1640625 0.86718747,0.9023438 z m 1.0195313,-4.7460937 c 0,-0.3046875 0.1054687,-0.3867188 0.515625,-0.3867188 0.8554687,0 1.5117187,0.1523438 1.9804687,0.4921875 0.7851563,0.5390625 1.1953125,1.3945313 1.1953125,2.4726563 0,1.171875 -0.4101562,2.015625 -1.21875,2.48437498 -0.5039062,0.28125 -1.0898437,0.41015625 -1.9570312,0.41015625 -0.3984375,0 -0.515625,-0.09375 -0.515625,-0.41015625 z m 9.5478516,5.17968748 c -0.175781,0.140625 -0.292969,0.1875 -0.445313,0.1875 -0.222656,0 -0.292968,-0.140625 -0.292968,-0.57421878 v -1.9453125 c 0,-0.515625 -0.04687,-0.8085937 -0.199219,-1.0429687 -0.222656,-0.3632813 -0.644531,-0.5507813 -1.2421876,-0.5507813 -0.9257812,0 -1.6640625,0.4921875 -1.6640625,1.1132813 0,0.234375 0.1992188,0.4335937 0.421875,0.4335937 0.2460938,0 0.4453125,-0.1992187 0.4453125,-0.421875 0,-0.035156 0,-0.09375 -0.011719,-0.1640625 -0.023437,-0.082031 -0.035156,-0.1640625 -0.035156,-0.234375 0,-0.2695312 0.3164063,-0.4921875 0.7148438,-0.4921875 0.4921875,0 0.7617188,0.2929688 0.7617188,0.8320313 v 0.609375 c -1.5351563,0.609375 -1.6992188,0.6914062 -2.1328126,1.078125 -0.2226562,0.1992187 -0.3632812,0.5273437 -0.3632812,0.86718748 0,0.62109375 0.4453125,1.06640625 1.0546875,1.06640625 0.4335937,0 0.84375,-0.2109375 1.4531253,-0.73828125 0.04687,0.52734375 0.222656,0.73828125 0.632812,0.73828125 0.339844,0 0.550781,-0.12890625 0.902344,-0.50390625 z M 10.052586,-1.2294844 c 0,0.31640628 -0.04687,0.39843753 -0.2578126,0.52734378 -0.2460937,0.140625 -0.515625,0.22265625 -0.7265625,0.22265625 -0.3515625,0 -0.6328125,-0.33984375 -0.6328125,-0.76171873 v -0.046875 c 0,-0.5859375 0.4101563,-0.9375 1.6171876,-1.3828125 z m 4.107422,-3.2578125 h -1.007813 v -1.1484375 c 0,-0.1054687 -0.01172,-0.1289062 -0.07031,-0.1289062 -0.07031,0.082031 -0.128906,0.1757812 -0.199219,0.28125 -0.375,0.5390625 -0.808594,1.0195312 -0.960937,1.0664062 -0.117188,0.070312 -0.175782,0.1289063 -0.175782,0.1875 0,0.023437 0.01172,0.046875 0.03516,0.070312 h 0.539062 v 3 c 0,0.83203128 0.292969,1.26562503 0.878906,1.26562503 0.492188,0 0.867188,-0.24609375 1.195313,-0.76171875 l -0.128906,-0.10546875 c -0.210938,0.24609375 -0.375,0.33984375 -0.597657,0.33984375 -0.363281,0 -0.515625,-0.26953125 -0.515625,-0.89062498 v -2.8476563 h 1.007813 z m 4.631836,3.83203128 c -0.175781,0.140625 -0.292969,0.1875 -0.445313,0.1875 -0.222656,0 -0.292968,-0.140625 -0.292968,-0.57421878 v -1.9453125 c 0,-0.515625 -0.04687,-0.8085937 -0.199219,-1.0429687 -0.222656,-0.3632813 -0.644531,-0.5507813 -1.242188,-0.5507813 -0.925781,0 -1.664062,0.4921875 -1.664062,1.1132813 0,0.234375 0.199219,0.4335937 0.421875,0.4335937 0.246094,0 0.445312,-0.1992187 0.445312,-0.421875 0,-0.035156 0,-0.09375 -0.01172,-0.1640625 -0.02344,-0.082031 -0.03516,-0.1640625 -0.03516,-0.234375 0,-0.2695312 0.316407,-0.4921875 0.714844,-0.4921875 0.492188,0 0.761719,0.2929688 0.761719,0.8320313 v 0.609375 c -1.535156,0.609375 -1.699219,0.6914062 -2.132813,1.078125 -0.222656,0.1992187 -0.363281,0.5273437 -0.363281,0.86718748 0,0.62109375 0.445313,1.06640625 1.054688,1.06640625 0.433593,0 0.84375,-0.2109375 1.453125,-0.73828125 0.04687,0.52734375 0.222656,0.73828125 0.632812,0.73828125 0.339844,0 0.550781,-0.12890625 0.902344,-0.50390625 z M 17.244969,-1.2294844 c 0,0.31640628 -0.04687,0.39843753 -0.257813,0.52734378 -0.246093,0.140625 -0.515625,0.22265625 -0.726562,0.22265625 -0.351563,0 -0.632813,-0.33984375 -0.632813,-0.76171873 v -0.046875 c 0,-0.5859375 0.410157,-0.9375 1.617188,-1.3828125 z m 0,0"
       style="fill:#000000;fill-opacity:1;fill-rule:nonzero;stroke:none"
       aria-label="Data"
       transform="matrix(0,-1.3333333,1.3333333,0,249.444,34.602667)" />
    <path
       id="path93"
       d="m 314.82349,150.66331 v 0 h 21.91809 v -10.65357"
       style="fill:none;stroke:#000000;stroke-width:0.3985;stroke-linecap:butt;stroke-linejoin:miter;stroke-miterlimit:10;stroke-dasharray:none;stroke-opacity:1"
       transform="matrix(1.3333333,0,0,-1.3333333,0.66666667,241.84267)" />
    <path
       id="path94"
       d="m 6.1744141,-4.4868594 -0.09375,-2.25 H 5.8814453 c -0.070312,0.2109375 -0.2226562,0.328125 -0.421875,0.328125 -0.09375,0 -0.2460937,-0.023437 -0.3867187,-0.082031 -0.4921875,-0.1640625 -0.984375,-0.2460938 -1.453125,-0.2460938 -0.8203125,0 -1.6523438,0.3164063 -2.2617188,0.8554688 -0.70312499,0.6210937 -1.07812499,1.546875 -1.07812499,2.6484375 0,0.9257812 0.29296875,1.78125 0.80859379,2.34374998 0.5976562,0.65625 1.5117187,1.03125 2.4960937,1.03125 1.125,0 2.109375,-0.45703125 2.71875,-1.26562498 L 6.1275391,-1.2993594 c -0.7382813,0.70312503 -1.3945313,0.99609378 -2.2265625,0.99609378 -0.6210938,0 -1.1835938,-0.19921875 -1.6054688,-0.57421875 C 1.7447266,-1.3579531 1.4283203,-2.2602969 1.4283203,-3.3618594 c 0,-1.8046875 0.9257813,-2.9765625 2.3789063,-2.9765625 0.5625,0 1.078125,0.2109375 1.4765625,0.609375 0.328125,0.3164063 0.46875,0.5976563 0.65625,1.2421875 z m 2.0302734,1.0664063 c 0.421875,-0.4570313 0.7265625,-0.6210938 1.1132813,-0.6210938 0.4921875,0 0.7500002,0.3515625 0.7500002,1.0546875 v 1.96875 c 0,0.67968753 -0.105469,0.80859378 -0.6796877,0.86718753 V 0.00142188 H 11.497656 V -0.15092187 C 10.958594,-0.24467187 10.9,-0.32670312 10.9,-1.0181094 v -1.9804687 c 0,-1.0429688 -0.421875,-1.5820313 -1.2304687,-1.5820313 -0.5859375,0 -0.9960938,0.234375 -1.4648438,0.8320313 v -3.0234375 l -0.046875,-0.035156 c -0.3398437,0.128906 -0.5859375,0.1992185 -1.1484375,0.363281 l -0.2578125,0.082031 v 0.1523438 c 0.035156,0 0.058594,0 0.1171875,0 0.421875,0 0.5039063,0.070312 0.5039063,0.5039062 v 4.6875 c 0,0.70312503 -0.058594,0.78515628 -0.6328125,0.86718753 V 0.00142188 H 8.884375 V -0.15092187 C 8.3101563,-0.20951562 8.2046875,-0.32670312 8.2046875,-1.0181094 Z m 7.4882815,1.7929687 c -0.480469,0.75000003 -0.914063,1.04296878 -1.546875,1.04296878 -0.5625,0 -0.996094,-0.29296875 -1.289063,-0.85546878 -0.175781,-0.3867187 -0.246093,-0.7148437 -0.269531,-1.3125 h 3.070313 c -0.08203,-0.65625 -0.175782,-0.9375 -0.421875,-1.265625 -0.304688,-0.3515625 -0.761719,-0.5625 -1.277344,-0.5625 -0.503906,0 -0.972656,0.1757813 -1.347656,0.515625 -0.46875,0.4101563 -0.738282,1.1132813 -0.738282,1.9335938 0,1.37109373 0.714844,2.23828123 1.863282,2.23828123 0.949218,0 1.699218,-0.59765625 2.109375,-1.66406253 z m -3.082031,-1.453125 c 0.117187,-0.7734375 0.445312,-1.1367187 1.054687,-1.1367187 0.609375,0 0.855469,0.2695312 0.984375,1.1367187 z m 7.40039,1.5234375 c -0.46875,0.70312503 -0.832031,0.93750003 -1.40625,0.93750003 -0.902344,0 -1.535156,-0.79687503 -1.535156,-1.93359373 0,-1.03125 0.539062,-1.734375 1.347656,-1.734375 0.363281,0 0.492188,0.1054687 0.585938,0.46875 l 0.07031,0.2226562 c 0.07031,0.28125 0.257813,0.4570313 0.46875,0.4570313 0.257813,0 0.46875,-0.1875 0.46875,-0.4101563 0,-0.5625 -0.691406,-1.03125 -1.535156,-1.03125 -0.480469,0 -0.996094,0.1992188 -1.394531,0.5625 -0.503907,0.4335938 -0.785157,1.1132813 -0.785157,1.8984375 0,1.28906253 0.785157,2.22656253 1.898438,2.22656253 0.445312,0 0.84375,-0.1640625 1.207031,-0.46875 0.269531,-0.24609375 0.457031,-0.515625 0.75,-1.10156253 z m 0.533203,-4.6523437 c 0.128907,0 0.222657,-0.011719 0.316407,-0.011719 0.328125,0 0.433593,0.1289063 0.433593,0.609375 v 4.79296878 c 0,0.515625 -0.03516,0.55078125 -0.75,0.66796875 v 0.15234375 h 2.332032 v -0.15234375 l -0.199219,-0.0117188 c -0.398438,-0.0117188 -0.550781,-0.15234375 -0.550781,-0.50390625 V -2.4946719 l 1.394531,1.86328128 0.03516,0.0351563 c 0.01172,0.0351563 0.03516,0.0585938 0.07031,0.09375 0.07031,0.09375 0.105468,0.15234375 0.105468,0.19921875 0,0.09375 -0.09375,0.15234375 -0.210937,0.15234375 h -0.1875 v 0.15234375 h 2.167969 v -0.15234375 c -0.433594,-0.0234375 -0.738282,-0.2109375 -1.160157,-0.7265625 L 22.81797,-2.811078 23.09922,-3.0806094 c 0.714844,-0.65625 1.324219,-1.1132811 1.617187,-1.1953124 0.152344,-0.035156 0.292969,-0.058594 0.457032,-0.058594 h 0.08203 v -0.1523438 h -2.027344 v 0.140625 c 0.386719,0.011719 0.492188,0.058594 0.492188,0.1992188 0,0.070312 -0.09375,0.2109375 -0.222657,0.328125 l -1.371093,1.21875 v -4.1835938 l -0.03516,-0.023437 c -0.386718,0.1289063 -0.667968,0.1992188 -1.253906,0.3632813 l -0.292969,0.082031 z m 0,0"
       style="fill:#000000;fill-opacity:1;fill-rule:nonzero;stroke:none"
       aria-label="Check"
       transform="matrix(0,-1.3333333,1.3333333,0,439.47467,39.033333)" />
    <path
       id="path95"
       d="m 336.74158,150.66331 v 0 h 25.9032 v -10.65357"
       style="fill:none;stroke:#000000;stroke-width:0.3985;stroke-linecap:butt;stroke-linejoin:miter;stroke-miterlimit:10;stroke-dasharray:none;stroke-opacity:1"
       transform="matrix(1.3333333,0,0,-1.3333333,0.66666667,241.84267)" />
    <path
       id="path96"
       d="M 4.4544844,-6.7394219 H 4.2435469 c -0.035156,0.234375 -0.1523438,0.3398438 -0.3164063,0.3398438 -0.1054687,0 -0.2695312,-0.035156 -0.4335937,-0.1171875 -0.375,-0.140625 -0.7382813,-0.2226563 -1.0664063,-0.2226563 -0.421875,0 -0.8671875,0.1757813 -1.1953125,0.4570313 -0.33984372,0.3164062 -0.52734372,0.7382812 -0.52734372,1.2539062 0,0.796875 0.44531252,1.3476563 1.55859372,1.9335938 0.7148438,0.3867187 1.2304688,0.796875 1.4882813,1.171875 0.082031,0.1289062 0.140625,0.3398437 0.140625,0.5742187 0,0.66796877 -0.5039063,1.12500002 -1.2304688,1.12500002 -0.890625,0 -1.5117187,-0.5390625 -2.01562497,-1.75781252 H 0.42323438 l 0.29296875,2.10937502 h 0.22265625 c 0.0117188,-0.1875 0.12890622,-0.328125 0.28125002,-0.328125 0.1054687,0 0.28125,0.0351563 0.46875,0.10546875 0.375,0.15234375 0.7734375,0.234375 1.171875,0.234375 1.1484375,0 2.0273437,-0.78515625 2.0273437,-1.81640627 0,-0.8203125 -0.5390625,-1.4648437 -1.8632812,-2.1679687 -1.0429688,-0.5742188 -1.4648438,-1.0195313 -1.4648438,-1.5585938 0,-0.5390625 0.421875,-0.9257812 1.0429688,-0.9257812 0.4453125,0 0.8671875,0.1875 1.21875,0.5507812 0.3046875,0.3164063 0.4453125,0.5742188 0.5976562,1.1601563 h 0.2578125 z m 3.6269531,2.25 H 7.073625 v -1.1484375 c 0,-0.1054687 -0.011719,-0.1289062 -0.070312,-0.1289062 -0.070312,0.082031 -0.1289062,0.1757812 -0.1992187,0.28125 -0.375,0.5390625 -0.8085938,1.0195312 -0.9609375,1.0664062 -0.1171875,0.070312 -0.1757813,0.1289063 -0.1757813,0.1875 0,0.023437 0.011719,0.046875 0.035156,0.070312 H 6.241594 v 3 c 0,0.83203127 0.2929687,1.26562502 0.8789062,1.26562502 0.4921875,0 0.8671875,-0.24609375 1.1953125,-0.76171875 L 8.1869063,-0.76285938 c -0.2109375,0.24609375 -0.375,0.33984375 -0.5976563,0.33984375 -0.3632812,0 -0.515625,-0.26953125 -0.515625,-0.89062497 v -2.8476563 h 1.0078125 z m 2.7246095,-0.09375 c -1.3007814,0 -2.2031251,0.9609375 -2.2031251,2.3320313 0,1.34765622 0.9257812,2.35546872 2.1796871,2.35546872 1.253907,0 2.214844,-1.06640625 2.214844,-2.43750002 0,-1.3007812 -0.925781,-2.25 -2.191406,-2.25 z m -0.140625,0.28125 c 0.84375,0 1.429687,0.9492188 1.429687,2.3203125 0,1.12500002 -0.445312,1.80468752 -1.195312,1.80468752 -0.386719,0 -0.761719,-0.24609375 -0.9609376,-0.64453125 -0.28125,-0.51562497 -0.4453125,-1.20703127 -0.4453125,-1.92187497 0,-0.9492188 0.46875,-1.5585938 1.1718751,-1.5585938 z m 2.71875,0.3867188 c 0.08203,-0.011719 0.152344,-0.011719 0.246094,-0.011719 0.339843,0 0.410156,0.1054688 0.410156,0.5742188 v 4.6523437 c 0,0.5273438 -0.117188,0.6328125 -0.703125,0.6914063 v 0.1640625 h 2.414062 V 1.9793281 c -0.75,-0.011719 -0.878906,-0.1171875 -0.878906,-0.75 v -1.55859373 c 0.351563,0.328125 0.585938,0.43359375 1.007813,0.43359375 1.171875,0 2.097656,-1.12500002 2.097656,-2.56640622 0,-1.2304688 -0.703125,-2.1210938 -1.664063,-2.1210938 -0.5625,0 -0.996093,0.2460938 -1.441406,0.7851563 v -0.7617188 l -0.05859,-0.023437 c -0.539062,0.2109375 -0.890625,0.3398438 -1.429687,0.5039063 z m 1.488281,0.5859375 c 0,-0.2929688 0.5625,-0.65625 1.019531,-0.65625 0.738282,0 1.21875,0.7617187 1.21875,1.9101562 0,1.11328127 -0.480468,1.85156252 -1.195312,1.85156252 -0.46875,0 -1.042969,-0.3515625 -1.042969,-0.65625 z m 0,0"
       style="fill:#000000;fill-opacity:1;fill-rule:nonzero;stroke:none"
       aria-label="Stop"
       transform="matrix(0,-1.3333333,1.3333333,0,470.00933,34.244)" />
    <path
       id="path97"
       d="M 51.8064,76.71332 H 73.72449 V 98.63141 H 51.8064 Z"
       style="fill:#ffffff;fill-opacity:1;fill-rule:nonzero;stroke:#000000;stroke-width:0.3985;stroke-linecap:butt;stroke-linejoin:miter;stroke-miterlimit:10;stroke-dasharray:none;stroke-opacity:1"
       transform="matrix(1.3333333,0,0,-1.3333333,0.66666667,241.84267)" />
    <path
       id="path98"
       d="m 2.0868828,-3.5751094 v -1.9335937 c 0,-0.7148438 0.1054688,-0.8320313 0.8671875,-0.9023438 v -0.1875 H 0.18844531 v 0.1875 c 0.7734375,0.070312 0.87890629,0.1875 0.87890629,0.9023438 v 4.3125 c 0,0.83203122 -0.10546879,0.96093747 -0.87890629,1.00781247 V -8.90625e-4 H 2.9540703 V -0.18839063 c -0.7382812,-0.0585938 -0.8671875,-0.1875 -0.8671875,-0.90234377 v -2.0507812 h 3.0117188 v 1.9453125 c 0,0.83203122 -0.09375,0.96093747 -0.8789063,1.00781247 V -8.90625e-4 H 6.9970391 V -0.18839063 c -0.75,-0.0585938 -0.8789063,-0.1875 -0.8789063,-0.90234377 v -4.4179687 c 0,-0.7148438 0.1054688,-0.8320313 0.8789063,-0.9023438 v -0.1875 H 4.2196953 v 0.1875 c 0.7734375,0.070312 0.8789063,0.1875 0.8789063,0.9023438 v 1.9335937 z m 0,0"
       style="fill:#000000;fill-opacity:1;fill-rule:nonzero;stroke:none"
       aria-label="H"
       transform="matrix(1.3333333,0,0,1.3333333,79.557333,129.384)" />
    <path
       id="path99"
       d="M 73.72449,76.71332 H 95.64258 V 98.63141 H 73.72449 Z"
       style="fill:#ffffff;fill-opacity:1;fill-rule:nonzero;stroke:#000000;stroke-width:0.3985;stroke-linecap:butt;stroke-linejoin:miter;stroke-miterlimit:10;stroke-dasharray:none;stroke-opacity:1"
       transform="matrix(1.3333333,0,0,-1.3333333,0.66666667,241.84267)" />
    <path
       id="path100"
       d="m 9.2826953,-6.5972109 h -1.96875 v 0.1875 c 0.5039063,0.058594 0.6914063,0.1640625 0.6914063,0.4335937 0,0.2109375 -0.070312,0.46875 -0.1640625,0.75 l -1.2421875,3.375 -1.3125,-3.3984375 c -0.023437,-0.046875 -0.1171875,-0.2695312 -0.1289063,-0.2929687 -0.082031,-0.2109375 -0.140625,-0.3984375 -0.140625,-0.515625 0,-0.234375 0.2226563,-0.3398438 0.7617188,-0.3515625 v -0.1875 H 3.1186328 v 0.1875 c 0.5742188,0.011719 0.6679688,0.1054687 1.0078125,0.9023437 l 0.328125,0.8203125 -1.0664062,2.8007813 -1.4296875,-3.7382813 c -0.070312,-0.1875 -0.1171875,-0.3515625 -0.1171875,-0.4570312 0,-0.2226563 0.140625,-0.2929688 0.65625,-0.328125 v -0.1875 H 0.04832031 v 0.1875 c 0.515625,0.058594 0.65625,0.234375 1.03124999,1.171875 l 1.921875,5.34374996 h 0.1523438 l 1.5351562,-4.20703126 1.59375,4.20703126 h 0.140625 C 7.2787891,-2.4956484 7.3725391,-2.7651797 8.4623828,-5.6948672 c 0.1875,-0.515625 0.2929688,-0.609375 0.8203125,-0.7148437 z m 0,0"
       style="fill:#000000;fill-opacity:1;fill-rule:nonzero;stroke:none"
       aria-label="W"
       transform="matrix(1.3333333,0,0,1.3333333,107.30667,129.308)" />
    <path
       id="path101"
       d="m 95.64258,76.71332 h 21.91809 V 98.63141 H 95.64258 Z"
       style="fill:#ffffff;fill-opacity:1;fill-rule:nonzero;stroke:#000000;stroke-width:0.3985;stroke-linecap:butt;stroke-linejoin:miter;stroke-miterlimit:10;stroke-dasharray:none;stroke-opacity:1"
       transform="matrix(1.3333333,0,0,-1.3333333,0.66666667,241.84267)" />
    <path
       id="path102"
       d="M 0,0 H 2.989"
       style="fill:none;stroke:#000000;stroke-width:0.398;stroke-linecap:butt;stroke-linejoin:miter;stroke-miterlimit:10;stroke-dasharray:none;stroke-opacity:1"
       transform="matrix(1.3333333,0,0,-1.3333333,141.20667,129.11867)" />
    <path
       id="path103"
       d="m 117.56067,76.71332 h 21.91809 v 21.91809 h -21.91809 z"
       style="fill:#ffffff;fill-opacity:1;fill-rule:nonzero;stroke:#000000;stroke-width:0.3985;stroke-linecap:butt;stroke-linejoin:miter;stroke-miterlimit:10;stroke-dasharray:none;stroke-opacity:1"
       transform="matrix(1.3333333,0,0,-1.3333333,0.66666667,241.84267)" />
    <path
       id="path104"
       d="m 6.7156641,-5.7079219 v 4.5117188 c 0,0.83203122 -0.1171875,0.96093747 -0.9023438,1.00781247 V -8.90625e-4 H 8.6023828 V -0.18839063 c -0.7265625,-0.046875 -0.8671875,-0.1875 -0.8671875,-0.90234377 v -4.4179687 c 0,-0.703125 0.1289063,-0.8320313 0.8671875,-0.9023438 v -0.1875 H 6.6101953 L 4.4187891,-1.5594844 2.1101953,-6.5985469 H 0.14144531 v 0.1875 c 0.8203125,0.058594 0.94921879,0.1757813 0.94921879,0.9023438 v 4.0429687 c 0,1.03125002 -0.14062504,1.21875002 -0.97265629,1.27734377 V -8.90625e-4 H 2.4617578 V -0.18839063 c -0.7617187,-0.046875 -0.9375,-0.26953125 -0.9375,-1.27734377 v -4.0195312 l 2.4960938,5.484374975 h 0.140625 z m 0,0"
       style="fill:#000000;fill-opacity:1;fill-rule:nonzero;stroke:none"
       aria-label="M"
       transform="matrix(1.3333333,0,0,1.3333333,166.12,129.384)" />
    <path
       id="path105"
       d="m 139.47876,76.71332 h 21.91809 v 21.91809 h -21.91809 z"
       style="fill:#ffffff;fill-opacity:1;fill-rule:nonzero;stroke:#000000;stroke-width:0.3985;stroke-linecap:butt;stroke-linejoin:miter;stroke-miterlimit:10;stroke-dasharray:none;stroke-opacity:1"
       transform="matrix(1.3333333,0,0,-1.3333333,0.66666667,241.84267)" />
    <path
       id="path106"
       d="m 3.5985,-6.7391719 c -1.8984375,0 -3.2578125,1.4414063 -3.2578125,3.4453125 0,0.9375 0.31640625,1.8398438 0.8554688,2.41406252 0.5742187,0.6328125 1.4648437,1.01953125 2.34375,1.01953125 1.9570312,0 3.3164062,-1.39453127 3.3164062,-3.39843747 0,-0.984375 -0.2929687,-1.828125 -0.84375,-2.4257813 C 5.3914688,-6.3758906 4.5477188,-6.7391719 3.5985,-6.7391719 Z m 0,0.3632813 c 0.4570313,0 0.9140625,0.1757812 1.2773438,0.4921875 0.5390625,0.4921875 0.84375,1.4296875 0.84375,2.6132812 0,0.5859375 -0.1289063,1.2773438 -0.328125,1.7929688 -0.09375,0.2460937 -0.2578125,0.50390622 -0.4921875,0.72656247 -0.3515625,0.3515625 -0.796875,0.52734375 -1.3242188,0.52734375 -0.4570312,0 -0.9023437,-0.17578125 -1.2539062,-0.48046875 -0.515625,-0.45703127 -0.84375,-1.46484377 -0.84375,-2.57812497 0,-1.0078125 0.28125,-1.9804688 0.6914062,-2.4492188 0.3867188,-0.421875 0.8789063,-0.6445312 1.4296875,-0.6445312 z m 0,0"
       style="fill:#000000;fill-opacity:1;fill-rule:nonzero;stroke:none"
       aria-label="O"
       transform="matrix(1.3333333,0,0,1.3333333,196.452,129.384)" />
    <path
       id="path107"
       d="m 161.39685,76.71332 h 21.91809 v 21.91809 h -21.91809 z"
       style="fill:#ffffff;fill-opacity:1;fill-rule:nonzero;stroke:#000000;stroke-width:0.3985;stroke-linecap:butt;stroke-linejoin:miter;stroke-miterlimit:10;stroke-dasharray:none;stroke-opacity:1"
       transform="matrix(1.3333333,0,0,-1.3333333,0.66666667,241.84267)" />
    <path
       id="path108"
       d="m 1.0310859,-1.0907344 c 0,0.72656252 -0.11718746,0.85546877 -0.86718746,0.90234377 V -8.90625e-4 H 2.9881172 c 1.1601562,0 2.203125,-0.328125005 2.8242187,-0.890625005 0.6445313,-0.58593747 1.0078125,-1.46484377 1.0078125,-2.43749997 0,-0.890625 -0.2929687,-1.6757813 -0.84375,-2.2148438 C 5.2967109,-6.2352656 4.2185859,-6.5985469 2.8474922,-6.5985469 H 0.16389844 v 0.1875 c 0.78515625,0.070312 0.86718746,0.1640625 0.86718746,0.9023438 z m 1.0195313,-4.7460937 c 0,-0.3046875 0.1054687,-0.3867188 0.515625,-0.3867188 0.8554687,0 1.5117187,0.1523438 1.9804687,0.4921875 0.7851563,0.5390625 1.1953125,1.3945313 1.1953125,2.4726563 0,1.171875 -0.4101562,2.015625 -1.21875,2.48437497 -0.5039062,0.28125 -1.0898437,0.41015625 -1.9570312,0.41015625 -0.3984375,0 -0.515625,-0.09375 -0.515625,-0.41015625 z m 0,0"
       style="fill:#000000;fill-opacity:1;fill-rule:nonzero;stroke:none"
       aria-label="D"
       transform="matrix(1.3333333,0,0,1.3333333,225.676,129.384)" />
    <path
       id="path109"
       d="m 183.31494,76.71332 h 21.91809 v 21.91809 h -21.91809 z"
       style="fill:#ffffff;fill-opacity:1;fill-rule:nonzero;stroke:#000000;stroke-width:0.3985;stroke-linecap:butt;stroke-linejoin:miter;stroke-miterlimit:10;stroke-dasharray:none;stroke-opacity:1"
       transform="matrix(1.3333333,0,0,-1.3333333,0.66666667,241.84267)" />
    <path
       id="path110"
       d="m 205.23303,76.71332 h 21.91809 v 21.91809 h -21.91809 z"
       style="fill:#ffffff;fill-opacity:1;fill-rule:nonzero;stroke:#000000;stroke-width:0.3985;stroke-linecap:butt;stroke-linejoin:miter;stroke-miterlimit:10;stroke-dasharray:none;stroke-opacity:1"
       transform="matrix(1.3333333,0,0,-1.3333333,0.66666667,241.84267)" />
    <path
       id="path111"
       d="m 4.7336172,-1.3599531 -0.1289063,-0.058594 c -0.375,0.57421877 -0.5039062,0.65625002 -0.9492187,0.65625002 H 1.2765859 L 2.9523672,-2.5083906 c 0.8789062,-0.9257813 1.265625,-1.6875 1.265625,-2.4609375 0,-0.9960938 -0.796875,-1.7695313 -1.8398438,-1.7695313 -0.5507812,0 -1.0664062,0.2226563 -1.42968746,0.6210938 -0.31640625,0.3398437 -0.46875,0.65625 -0.64453125,1.3710937 l 0.2109375,0.046875 c 0.3984375,-0.984375 0.76171871,-1.3007812 1.44140621,-1.3007812 0.84375,0 1.40625,0.5742187 1.40625,1.40625 0,0.7734375 -0.4570312,1.6992187 -1.2890625,2.5898437 L 0.30392969,-0.11776563 V -5.78125e-4 H 4.1828359 Z m 0,0"
       style="fill:#000000;fill-opacity:1;fill-rule:nonzero;stroke:none"
       aria-label="2"
       transform="matrix(1.3333333,0,0,1.3333333,285.59867,129.47733)" />
    <path
       id="path112"
       d="m 227.15112,76.71332 h 21.91809 v 21.91809 h -21.91809 z"
       style="fill:#ffffff;fill-opacity:1;fill-rule:nonzero;stroke:#000000;stroke-width:0.3985;stroke-linecap:butt;stroke-linejoin:miter;stroke-miterlimit:10;stroke-dasharray:none;stroke-opacity:1"
       transform="matrix(1.3333333,0,0,-1.3333333,0.66666667,241.84267)" />
    <path
       id="path113"
       d="m 2.5304844,-6.7391719 c -0.5507813,0 -0.9726563,0.1757813 -1.3359375,0.5273438 -0.57421877,0.5507812 -0.96093752,1.6992187 -0.96093752,2.859375 0,1.0898437 0.328125,2.25 0.79687502,2.81249997 0.375,0.43359375 0.8789062,0.6796875 1.4648437,0.6796875 0.5039063,0 0.9257813,-0.17578125 1.2890625,-0.515625 0.5742188,-0.55078125 0.9609375,-1.71093747 0.9609375,-2.91796877 0,-2.0390625 -0.9140625,-3.4453125 -2.2148437,-3.4453125 z m -0.035156,0.2578125 c 0.84375,0 1.2890625,1.1367188 1.2890625,3.2109375 0,2.0859375 -0.4335937,3.15234377 -1.2890625,3.15234377 -0.8671875,0 -1.3007812,-1.06640627 -1.3007812,-3.14062497 0,-2.109375 0.4453125,-3.2226563 1.3007812,-3.2226563 z m 0,0"
       style="fill:#000000;fill-opacity:1;fill-rule:nonzero;stroke:none"
       aria-label="0"
       transform="matrix(1.3333333,0,0,1.3333333,314.82133,129.384)" />
    <path
       id="path114"
       d="M 249.06921,76.71332 H 270.9873 V 98.63141 H 249.06921 Z"
       style="fill:#ffffff;fill-opacity:1;fill-rule:nonzero;stroke:#000000;stroke-width:0.3985;stroke-linecap:butt;stroke-linejoin:miter;stroke-miterlimit:10;stroke-dasharray:none;stroke-opacity:1"
       transform="matrix(1.3333333,0,0,-1.3333333,0.66666667,241.84267)" />
    <path
       id="path115"
       d="M 4.7355313,-1.3599531 4.606625,-1.4185469 c -0.375,0.57421877 -0.5039062,0.65625002 -0.9492187,0.65625002 H 1.2785 L 2.9542813,-2.5083906 c 0.8789062,-0.9257813 1.265625,-1.6875 1.265625,-2.4609375 0,-0.9960938 -0.796875,-1.7695313 -1.8398438,-1.7695313 -0.5507812,0 -1.0664062,0.2226563 -1.4296875,0.6210938 -0.31640625,0.3398437 -0.46875,0.65625 -0.64453125,1.3710937 l 0.2109375,0.046875 C 0.91521875,-5.6841719 1.2785,-6.0005781 1.9581875,-6.0005781 c 0.84375,0 1.40625,0.5742187 1.40625,1.40625 0,0.7734375 -0.4570312,1.6992187 -1.2890625,2.5898437 L 0.30584375,-0.11776563 V -5.78125e-4 H 4.18475 Z m 0,0"
       style="fill:#000000;fill-opacity:1;fill-rule:nonzero;stroke:none"
       aria-label="2"
       transform="matrix(1.3333333,0,0,1.3333333,344.04533,129.47733)" />
    <path
       id="path116"
       d="m 270.9873,76.71332 h 21.91809 V 98.63141 H 270.9873 Z"
       style="fill:#ffffff;fill-opacity:1;fill-rule:nonzero;stroke:#000000;stroke-width:0.3985;stroke-linecap:butt;stroke-linejoin:miter;stroke-miterlimit:10;stroke-dasharray:none;stroke-opacity:1"
       transform="matrix(1.3333333,0,0,-1.3333333,0.66666667,241.84267)" />
    <path
       id="path117"
       d="M 4.6993672,-2.2974531 H 3.6915547 V -6.7388594 H 3.2462422 l -3.12890626,4.4414063 v 0.6328125 H 2.9181172 V -5.78125e-4 H 3.6915547 V -1.6646406 h 1.0078125 z m -1.7929688,0 H 0.51577344 l 2.39062496,-3.421875 z m 0,0"
       style="fill:#000000;fill-opacity:1;fill-rule:nonzero;stroke:none"
       aria-label="4"
       transform="matrix(1.3333333,0,0,1.3333333,373.26933,129.47733)" />
    <path
       id="path118"
       d="m 292.9054,76.71332 h 21.91809 V 98.63141 H 292.9054 Z"
       style="fill:#ffffff;fill-opacity:1;fill-rule:nonzero;stroke:#000000;stroke-width:0.3985;stroke-linecap:butt;stroke-linejoin:miter;stroke-miterlimit:10;stroke-dasharray:none;stroke-opacity:1"
       transform="matrix(1.3333333,0,0,-1.3333333,0.66666667,241.84267)" />
    <path
       id="path119"
       d="m 9.2804766,-6.5972109 h -1.96875 v 0.1875 c 0.5039062,0.058594 0.6914062,0.1640625 0.6914062,0.4335937 0,0.2109375 -0.070312,0.46875 -0.1640625,0.75 l -1.2421875,3.375 -1.3125,-3.3984375 c -0.023437,-0.046875 -0.1171875,-0.2695312 -0.1289062,-0.2929687 -0.082031,-0.2109375 -0.140625,-0.3984375 -0.140625,-0.515625 0,-0.234375 0.2226562,-0.3398438 0.7617187,-0.3515625 v -0.1875 H 3.1164141 v 0.1875 c 0.5742187,0.011719 0.6679687,0.1054687 1.0078125,0.9023437 l 0.328125,0.8203125 -1.0664063,2.8007813 -1.4296875,-3.7382813 c -0.070312,-0.1875 -0.1171875,-0.3515625 -0.1171875,-0.4570312 0,-0.2226563 0.140625,-0.2929688 0.65625,-0.328125 v -0.1875 H 0.04610156 v 0.1875 c 0.515625,0.058594 0.65625,0.234375 1.03125004,1.171875 l 1.921875,5.34374996 h 0.1523437 l 1.5351563,-4.20703126 1.59375,4.20703126 h 0.140625 C 7.2765703,-2.4956484 7.3703203,-2.7651797 8.4601641,-5.6948672 c 0.1875,-0.515625 0.2929687,-0.609375 0.8203125,-0.7148437 z m 0,0"
       style="fill:#000000;fill-opacity:1;fill-rule:nonzero;stroke:none"
       aria-label="W"
       transform="matrix(1.3333333,0,0,1.3333333,399.544,129.308)" />
  </g>
</svg>
