<?xml version="1.0" encoding="UTF-8" standalone="no"?>
<!-- Created with Inkscape (http://www.inkscape.org/) -->

<svg
   version="1.1"
   id="svg2"
   xml:space="preserve"
   width="448.09732"
   height="176.22667"
   viewBox="0 0 448.09732 176.22667"
   sodipodi:docname="main.pdf"
   xmlns:inkscape="http://www.inkscape.org/namespaces/inkscape"
   xmlns:sodipodi="http://sodipodi.sourceforge.net/DTD/sodipodi-0.dtd"
   xmlns="http://www.w3.org/2000/svg"
   xmlns:svg="http://www.w3.org/2000/svg"><defs
     id="defs6" /><sodipodi:namedview
     id="namedview4"
     pagecolor="#ffffff"
     bordercolor="#666666"
     borderopacity="1.0"
     inkscape:pageshadow="2"
     inkscape:pageopacity="0.0"
     inkscape:pagecheckerboard="0" /><g
     id="g8"
     inkscape:groupmode="layer"
     inkscape:label="main"
     transform="matrix(1.3333333,0,0,-1.3333333,0,176.22667)"><g
       id="g10"><path
         d="M 0,0 H 336.073 V 132.17 H 0 Z"
         style="fill:#ffffff;fill-opacity:1;fill-rule:nonzero;stroke:none"
         id="path12" /></g><g
       id="g14"
       transform="translate(79.774,77.585)"><g
         id="g16"><g
           id="g18" /><g
           id="g20"><g
             id="g22"><g
               id="g24"><path
                 d="M 17.85837,26.78787 H -17.85837 V -26.78787 H 17.85837 Z"
                 style="fill:none;stroke:#000000;stroke-width:0.797;stroke-linecap:butt;stroke-linejoin:miter;stroke-miterlimit:10;stroke-dasharray:none;stroke-opacity:1"
                 id="path26" /></g><path
               d="m -17.85837,-14.2869 3.57167,-3.57167 -3.57167,-3.57165"
               style="fill:none;stroke:#000000;stroke-width:0.3985;stroke-linecap:butt;stroke-linejoin:miter;stroke-miterlimit:10;stroke-dasharray:none;stroke-opacity:1"
               id="path28" /><g
               id="g30"
               transform="matrix(0.75,0,0,0.75,-14.287,-21.019)"><g
                 id="g32" /><g
                 id="g34"
                 transform="translate(14.287,21.019)" /></g><g
               id="g36"
               transform="matrix(0.75,0,0,0.75,10.834,-21.019)"><g
                 id="g38" /><g
                 id="g40"
                 transform="translate(-10.834,21.019)" /></g><g
               id="g42"
               transform="matrix(0.75,0,0,0.75,-17.859,-3.161)"><g
                 id="g44"
                 transform="translate(-61.915,-74.424)"><text
                   transform="matrix(1,0,0,-1,66.598,74.424)"
                   style="font-variant:normal;font-weight:normal;font-size:14.3462px;font-family:CMSS12;-inkscape-font-specification:CMSS12;writing-mode:lr-tb;fill:#000000;fill-opacity:1;fill-rule:nonzero;stroke:none"
                   id="text48"><tspan
                     x="0 6.2434664"
                     y="0"
                     sodipodi:role="line"
                     id="tspan46">en</tspan></text><g
                   id="g50"
                   transform="translate(61.915,74.424)" /></g><g
                 id="g52"
                 transform="translate(17.859,3.161)" /></g><g
               id="g54"
               transform="matrix(0.75,0,0,0.75,10.834,-3.161)"><g
                 id="g56" /><g
                 id="g58"
                 transform="translate(-10.834,3.161)" /></g><g
               id="g60"
               transform="matrix(0.75,0,0,0.75,-17.859,14.697)"><g
                 id="g62"
                 transform="translate(-61.915,-92.282)"><text
                   transform="matrix(1,0,0,-1,66.598,92.282)"
                   style="font-variant:normal;font-weight:normal;font-size:14.3462px;font-family:CMSS12;-inkscape-font-specification:CMSS12;writing-mode:lr-tb;fill:#000000;fill-opacity:1;fill-rule:nonzero;stroke:none"
                   id="text66"><tspan
                     x="0"
                     y="0"
                     id="tspan64">D</tspan></text><g
                   id="g68"
                   transform="translate(61.915,92.282)" /></g><g
                 id="g70"
                 transform="translate(17.859,-14.697)" /></g><g
               id="g72"
               transform="matrix(0.75,0,0,0.75,3.063,14.697)"><g
                 id="g74"
                 transform="translate(-82.837,-92.282)"><text
                   transform="matrix(1,0,0,-1,87.52,92.282)"
                   style="font-variant:normal;font-weight:normal;font-size:14.3462px;font-family:CMSS12;-inkscape-font-specification:CMSS12;writing-mode:lr-tb;fill:#000000;fill-opacity:1;fill-rule:nonzero;stroke:none"
                   id="text78"><tspan
                     x="0"
                     y="0"
                     id="tspan76">Q</tspan></text><g
                   id="g80"
                   transform="translate(82.837,92.282)" /></g><g
                 id="g82"
                 transform="translate(-3.063,-14.697)" /></g><g
               id="g84"
               transform="matrix(0.75,0,0,0.75,-1.868,19.315)"><g
                 id="g86" /><g
                 id="g88"
                 transform="translate(1.868,-19.315)" /></g><g
               id="g90"
               transform="matrix(0.75,0,0,0.75,-9.029,-23.799)"><g
                 id="g92"><g
                   id="g94"
                   transform="translate(2.491,8.313)"><path
                     d="M 0,0 H 18.265"
                     style="fill:none;stroke:#000000;stroke-width:0.398;stroke-linecap:butt;stroke-linejoin:miter;stroke-miterlimit:10;stroke-dasharray:none;stroke-opacity:1"
                     id="path96" /></g><g
                   id="g98"
                   transform="translate(-70.745,-53.786)"><text
                     transform="matrix(1,0,0,-1,73.236,53.786)"
                     style="font-variant:normal;font-weight:normal;font-size:9.9626px;font-family:CMSS10;-inkscape-font-specification:CMSS10;writing-mode:lr-tb;fill:#000000;fill-opacity:1;fill-rule:nonzero;stroke:none"
                     id="text102"><tspan
                       x="0 5.5352206 11.484885"
                       y="0"
                       sodipodi:role="line"
                       id="tspan100">SET</tspan></text><g
                     id="g104"
                     transform="translate(70.745,53.786)" /></g></g><g
                 id="g106"
                 transform="translate(9.029,23.799)" /></g><g
               id="g108" /><g
               id="g110"
               transform="scale(0.75)"><g
                 id="g112" /></g></g><g
             id="g114"><g
               id="g116"><path
                 d="M 87.59785,26.78787 H 51.8811 v -53.57574 h 35.71675 z"
                 style="fill:none;stroke:#000000;stroke-width:0.797;stroke-linecap:butt;stroke-linejoin:miter;stroke-miterlimit:10;stroke-dasharray:none;stroke-opacity:1"
                 id="path118" /></g><path
               d="m 51.8811,-14.2869 3.57167,-3.57167 -3.57167,-3.57165"
               style="fill:none;stroke:#000000;stroke-width:0.3985;stroke-linecap:butt;stroke-linejoin:miter;stroke-miterlimit:10;stroke-dasharray:none;stroke-opacity:1"
               id="path120" /><g
               id="g122"
               transform="matrix(0.75,0,0,0.75,55.452,-21.019)"><g
                 id="g124" /><g
                 id="g126"
                 transform="translate(-55.452,21.019)" /></g><g
               id="g128"
               transform="matrix(0.75,0,0,0.75,80.573,-21.019)"><g
                 id="g130" /><g
                 id="g132"
                 transform="translate(-80.573,21.019)" /></g><g
               id="g134"
               transform="matrix(0.75,0,0,0.75,51.88,-3.161)"><g
                 id="g136"
                 transform="translate(-131.654,-74.424)"><text
                   transform="matrix(1,0,0,-1,136.336,74.424)"
                   style="font-variant:normal;font-weight:normal;font-size:14.3462px;font-family:CMSS12;-inkscape-font-specification:CMSS12;writing-mode:lr-tb;fill:#000000;fill-opacity:1;fill-rule:nonzero;stroke:none"
                   id="text140"><tspan
                     x="0 6.2434664"
                     y="0"
                     sodipodi:role="line"
                     id="tspan138">en</tspan></text><g
                   id="g142"
                   transform="translate(131.654,74.424)" /></g><g
                 id="g144"
                 transform="translate(-51.88,3.161)" /></g><g
               id="g146"
               transform="matrix(0.75,0,0,0.75,80.573,-3.161)"><g
                 id="g148" /><g
                 id="g150"
                 transform="translate(-80.573,3.161)" /></g><g
               id="g152"
               transform="matrix(0.75,0,0,0.75,51.88,14.697)"><g
                 id="g154"
                 transform="translate(-131.654,-92.282)"><text
                   transform="matrix(1,0,0,-1,136.336,92.282)"
                   style="font-variant:normal;font-weight:normal;font-size:14.3462px;font-family:CMSS12;-inkscape-font-specification:CMSS12;writing-mode:lr-tb;fill:#000000;fill-opacity:1;fill-rule:nonzero;stroke:none"
                   id="text158"><tspan
                     x="0"
                     y="0"
                     id="tspan156">D</tspan></text><g
                   id="g160"
                   transform="translate(131.654,92.282)" /></g><g
                 id="g162"
                 transform="translate(-51.88,-14.697)" /></g><g
               id="g164"
               transform="matrix(0.75,0,0,0.75,72.802,14.697)"><g
                 id="g166"
                 transform="translate(-152.576,-92.282)"><text
                   transform="matrix(1,0,0,-1,157.258,92.282)"
                   style="font-variant:normal;font-weight:normal;font-size:14.3462px;font-family:CMSS12;-inkscape-font-specification:CMSS12;writing-mode:lr-tb;fill:#000000;fill-opacity:1;fill-rule:nonzero;stroke:none"
                   id="text170"><tspan
                     x="0"
                     y="0"
                     id="tspan168">Q</tspan></text><g
                   id="g172"
                   transform="translate(152.576,92.282)" /></g><g
                 id="g174"
                 transform="translate(-72.802,-14.697)" /></g><g
               id="g176"
               transform="matrix(0.75,0,0,0.75,67.87,19.315)"><g
                 id="g178" /><g
                 id="g180"
                 transform="translate(-67.87,-19.315)" /></g><g
               id="g182"
               transform="matrix(0.75,0,0,0.75,60.528,-23.799)"><g
                 id="g184"><g
                   id="g186"
                   transform="translate(2.491,8.313)"><path
                     d="M 0,0 H 18.749"
                     style="fill:none;stroke:#000000;stroke-width:0.398;stroke-linecap:butt;stroke-linejoin:miter;stroke-miterlimit:10;stroke-dasharray:none;stroke-opacity:1"
                     id="path188" /></g><g
                   id="g190"
                   transform="translate(-140.302,-53.786)"><text
                     transform="matrix(1,0,0,-1,142.793,53.786)"
                     style="font-variant:normal;font-weight:normal;font-size:9.9626px;font-family:CMSS10;-inkscape-font-specification:CMSS10;writing-mode:lr-tb;fill:#000000;fill-opacity:1;fill-rule:nonzero;stroke:none"
                     id="text194"><tspan
                       x="0 6.433847 11.969068"
                       y="0"
                       sodipodi:role="line"
                       id="tspan192">RST</tspan></text><g
                     id="g196"
                     transform="translate(140.302,53.786)" /></g></g><g
                 id="g198"
                 transform="translate(-60.528,23.799)" /></g><g
               id="g200" /><g
               id="g202"
               transform="matrix(0.75,0,0,0.75,69.738,0)"><g
                 id="g204" /><g
                 id="g206"
                 transform="translate(-69.738)" /></g></g><g
             id="g208"><g
               id="g210"><path
                 d="m 157.33734,26.78787 h -35.71675 v -53.57574 h 35.71675 z"
                 style="fill:none;stroke:#000000;stroke-width:0.797;stroke-linecap:butt;stroke-linejoin:miter;stroke-miterlimit:10;stroke-dasharray:none;stroke-opacity:1"
                 id="path212" /></g><path
               d="m 121.62059,-14.2869 3.57167,-3.57167 -3.57167,-3.57165"
               style="fill:none;stroke:#000000;stroke-width:0.3985;stroke-linecap:butt;stroke-linejoin:miter;stroke-miterlimit:10;stroke-dasharray:none;stroke-opacity:1"
               id="path214" /><g
               id="g216"
               transform="matrix(0.75,0,0,0.75,125.19,-21.019)"><g
                 id="g218" /><g
                 id="g220"
                 transform="translate(-125.19,21.019)" /></g><g
               id="g222"
               transform="matrix(0.75,0,0,0.75,150.311,-21.019)"><g
                 id="g224" /><g
                 id="g226"
                 transform="translate(-150.311,21.019)" /></g><g
               id="g228"
               transform="matrix(0.75,0,0,0.75,121.619,-3.161)"><g
                 id="g230"
                 transform="translate(-201.393,-74.424)"><text
                   transform="matrix(1,0,0,-1,206.075,74.424)"
                   style="font-variant:normal;font-weight:normal;font-size:14.3462px;font-family:CMSS12;-inkscape-font-specification:CMSS12;writing-mode:lr-tb;fill:#000000;fill-opacity:1;fill-rule:nonzero;stroke:none"
                   id="text234"><tspan
                     x="0 6.2434664"
                     y="0"
                     sodipodi:role="line"
                     id="tspan232">en</tspan></text><g
                   id="g236"
                   transform="translate(201.393,74.424)" /></g><g
                 id="g238"
                 transform="translate(-121.619,3.161)" /></g><g
               id="g240"
               transform="matrix(0.75,0,0,0.75,150.311,-3.161)"><g
                 id="g242" /><g
                 id="g244"
                 transform="translate(-150.311,3.161)" /></g><g
               id="g246"
               transform="matrix(0.75,0,0,0.75,121.619,14.697)"><g
                 id="g248"
                 transform="translate(-201.393,-92.282)"><text
                   transform="matrix(1,0,0,-1,206.075,92.282)"
                   style="font-variant:normal;font-weight:normal;font-size:14.3462px;font-family:CMSS12;-inkscape-font-specification:CMSS12;writing-mode:lr-tb;fill:#000000;fill-opacity:1;fill-rule:nonzero;stroke:none"
                   id="text252"><tspan
                     x="0"
                     y="0"
                     id="tspan250">D</tspan></text><g
                   id="g254"
                   transform="translate(201.393,92.282)" /></g><g
                 id="g256"
                 transform="translate(-121.619,-14.697)" /></g><g
               id="g258"
               transform="matrix(0.75,0,0,0.75,142.541,14.697)"><g
                 id="g260"
                 transform="translate(-222.315,-92.282)"><text
                   transform="matrix(1,0,0,-1,226.997,92.282)"
                   style="font-variant:normal;font-weight:normal;font-size:14.3462px;font-family:CMSS12;-inkscape-font-specification:CMSS12;writing-mode:lr-tb;fill:#000000;fill-opacity:1;fill-rule:nonzero;stroke:none"
                   id="text264"><tspan
                     x="0"
                     y="0"
                     id="tspan262">Q</tspan></text><g
                   id="g266"
                   transform="translate(222.315,92.282)" /></g><g
                 id="g268"
                 transform="translate(-142.541,-14.697)" /></g><g
               id="g270"
               transform="matrix(0.75,0,0,0.75,137.609,19.315)"><g
                 id="g272" /><g
                 id="g274"
                 transform="translate(-137.609,-19.315)" /></g><g
               id="g276"
               transform="matrix(0.75,0,0,0.75,130.267,-23.799)"><g
                 id="g278"><g
                   id="g280"
                   transform="translate(2.49,8.313)"><path
                     d="M 0,0 H 18.749"
                     style="fill:none;stroke:#000000;stroke-width:0.398;stroke-linecap:butt;stroke-linejoin:miter;stroke-miterlimit:10;stroke-dasharray:none;stroke-opacity:1"
                     id="path282" /></g><g
                   id="g284"
                   transform="translate(-210.041,-53.786)"><text
                     transform="matrix(1,0,0,-1,212.531,53.786)"
                     style="font-variant:normal;font-weight:normal;font-size:9.9626px;font-family:CMSS10;-inkscape-font-specification:CMSS10;writing-mode:lr-tb;fill:#000000;fill-opacity:1;fill-rule:nonzero;stroke:none"
                     id="text288"><tspan
                       x="0 6.433847 11.969068"
                       y="0"
                       sodipodi:role="line"
                       id="tspan286">RST</tspan></text><g
                     id="g290"
                     transform="translate(210.041,53.786)" /></g></g><g
                 id="g292"
                 transform="translate(-130.267,23.799)" /></g><g
               id="g294" /><g
               id="g296"
               transform="matrix(0.75,0,0,0.75,139.477,0)"><g
                 id="g298" /><g
                 id="g300"
                 transform="translate(-139.477)" /></g></g><g
             id="g302"><g
               id="g304"><path
                 d="m 227.07683,26.78787 h -35.71675 v -53.57574 h 35.71675 z"
                 style="fill:none;stroke:#000000;stroke-width:0.797;stroke-linecap:butt;stroke-linejoin:miter;stroke-miterlimit:10;stroke-dasharray:none;stroke-opacity:1"
                 id="path306" /></g><path
               d="m 191.36008,-14.2869 3.57167,-3.57167 -3.57167,-3.57165"
               style="fill:none;stroke:#000000;stroke-width:0.3985;stroke-linecap:butt;stroke-linejoin:miter;stroke-miterlimit:10;stroke-dasharray:none;stroke-opacity:1"
               id="path308" /><g
               id="g310"
               transform="matrix(0.75,0,0,0.75,194.929,-21.019)"><g
                 id="g312" /><g
                 id="g314"
                 transform="translate(-194.929,21.019)" /></g><g
               id="g316"
               transform="matrix(0.75,0,0,0.75,220.05,-21.019)"><g
                 id="g318" /><g
                 id="g320"
                 transform="translate(-220.05,21.019)" /></g><g
               id="g322"
               transform="matrix(0.75,0,0,0.75,191.357,-3.161)"><g
                 id="g324"
                 transform="translate(-271.131,-74.424)"><text
                   transform="matrix(1,0,0,-1,275.814,74.424)"
                   style="font-variant:normal;font-weight:normal;font-size:14.3462px;font-family:CMSS12;-inkscape-font-specification:CMSS12;writing-mode:lr-tb;fill:#000000;fill-opacity:1;fill-rule:nonzero;stroke:none"
                   id="text328"><tspan
                     x="0 6.2434664"
                     y="0"
                     sodipodi:role="line"
                     id="tspan326">en</tspan></text><g
                   id="g330"
                   transform="translate(271.131,74.424)" /></g><g
                 id="g332"
                 transform="translate(-191.357,3.161)" /></g><g
               id="g334"
               transform="matrix(0.75,0,0,0.75,220.05,-3.161)"><g
                 id="g336" /><g
                 id="g338"
                 transform="translate(-220.05,3.161)" /></g><g
               id="g340"
               transform="matrix(0.75,0,0,0.75,191.357,14.697)"><g
                 id="g342"
                 transform="translate(-271.131,-92.282)"><text
                   transform="matrix(1,0,0,-1,275.814,92.282)"
                   style="font-variant:normal;font-weight:normal;font-size:14.3462px;font-family:CMSS12;-inkscape-font-specification:CMSS12;writing-mode:lr-tb;fill:#000000;fill-opacity:1;fill-rule:nonzero;stroke:none"
                   id="text346"><tspan
                     x="0"
                     y="0"
                     id="tspan344">D</tspan></text><g
                   id="g348"
                   transform="translate(271.131,92.282)" /></g><g
                 id="g350"
                 transform="translate(-191.357,-14.697)" /></g><g
               id="g352"
               transform="matrix(0.75,0,0,0.75,212.279,14.697)"><g
                 id="g354"
                 transform="translate(-292.053,-92.282)"><text
                   transform="matrix(1,0,0,-1,296.736,92.282)"
                   style="font-variant:normal;font-weight:normal;font-size:14.3462px;font-family:CMSS12;-inkscape-font-specification:CMSS12;writing-mode:lr-tb;fill:#000000;fill-opacity:1;fill-rule:nonzero;stroke:none"
                   id="text358"><tspan
                     x="0"
                     y="0"
                     id="tspan356">Q</tspan></text><g
                   id="g360"
                   transform="translate(292.053,92.282)" /></g><g
                 id="g362"
                 transform="translate(-212.279,-14.697)" /></g><g
               id="g364"
               transform="matrix(0.75,0,0,0.75,207.347,19.315)"><g
                 id="g366" /><g
                 id="g368"
                 transform="translate(-207.347,-19.315)" /></g><g
               id="g370"
               transform="matrix(0.75,0,0,0.75,200.005,-23.799)"><g
                 id="g372"><g
                   id="g374"
                   transform="translate(2.491,8.313)"><path
                     d="M 0,0 H 18.749"
                     style="fill:none;stroke:#000000;stroke-width:0.398;stroke-linecap:butt;stroke-linejoin:miter;stroke-miterlimit:10;stroke-dasharray:none;stroke-opacity:1"
                     id="path376" /></g><g
                   id="g378"
                   transform="translate(-279.779,-53.786)"><text
                     transform="matrix(1,0,0,-1,282.27,53.786)"
                     style="font-variant:normal;font-weight:normal;font-size:9.9626px;font-family:CMSS10;-inkscape-font-specification:CMSS10;writing-mode:lr-tb;fill:#000000;fill-opacity:1;fill-rule:nonzero;stroke:none"
                     id="text382"><tspan
                       x="0 6.433847 11.969068"
                       y="0"
                       sodipodi:role="line"
                       id="tspan380">RST</tspan></text><g
                     id="g384"
                     transform="translate(279.779,53.786)" /></g></g><g
                 id="g386"
                 transform="translate(-200.005,23.799)" /></g><g
               id="g388" /><g
               id="g390"
               transform="matrix(0.75,0,0,0.75,209.215,0)"><g
                 id="g392" /><g
                 id="g394"
                 transform="translate(-209.215)" /></g></g><g
             id="g396"><path
               d="m 140.67442,39.54027 c -5.12484,0 -9.86192,2.73492 -12.42433,7.17317 2.56241,4.43825 7.29949,7.17317 12.42433,7.17317 h 7.17318 c -1.07291,-2.27621 -1.62499,-4.71057 -1.62499,-7.16554 0,-2.45497 0.55208,-4.88934 1.62499,-7.16554 z m 9.5643,14.34634 -0.12324,-0.21781 m 0,0 -0.11951,-0.22024 m 0,0 -0.1156,-0.22195 m 0,0 -0.11165,-0.22417 m 0,0 -0.10791,-0.22592 m 0,0 -0.10376,-0.22787 m 0,0 -0.0998,-0.22965 m 0,0 -0.0959,-0.23137 m 0,0 -0.0917,-0.23293 m 0,0 -0.0878,-0.23445 m 0,0 -0.0836,-0.23597 m 0,0 -0.0795,-0.23752 m 0,0 -0.0751,-0.23883 m 0,0 -0.0711,-0.24016 m 0,0 -0.067,-0.24123 m 0,0 -0.0628,-0.24254 m 0,0 -0.0582,-0.24343 m 0,0 -0.0543,-0.24431 m 0,0 -0.0499,-0.24539 m 0,0 -0.0457,-0.24627 m 0,0 -0.0411,-0.24693 m 0,0 -0.037,-0.24757 m 0,0 -0.0328,-0.24825 m 0,0 -0.0282,-0.2489 m 0,0 -0.0239,-0.24911 m 0,0 -0.0197,-0.24956 m 0,0 -0.0153,-0.25 m 0,0 -0.0109,-0.25021 m 0,0 -0.007,-0.25022 m 0,0 -0.002,-0.25041 m 0,0 0.002,-0.25043 m 0,0 0.007,-0.25021 m 0,0 0.0109,-0.2502 m 0,0 0.0153,-0.25 m 0,0 0.0197,-0.24956 m 0,0 0.0239,-0.24911 m 0,0 0.0282,-0.2489 m 0,0 0.0328,-0.24825 m 0,0 0.037,-0.24758 m 0,0 0.0411,-0.24693 m 0,0 0.0457,-0.24627 m 0,0 0.0499,-0.2454 m 0,0 0.0543,-0.2443 m 0,0 0.0582,-0.24343 m 0,0 0.0628,-0.24255 m 0,0 0.067,-0.24122 m 0,0 0.0711,-0.24015 m 0,0 0.0751,-0.23883 m 0,0 0.0795,-0.23752 m 0,0 0.0836,-0.23597 m 0,0 0.0878,-0.23446 m 0,0 0.0917,-0.23292 m 0,0 0.0959,-0.23137 m 0,0 0.0998,-0.22965 m 0,0 0.10376,-0.22787 m 0,0 0.10791,-0.22592 m 0,0 0.11165,-0.22417 m 0,0 0.1156,-0.22197 m 0,0 0.11951,-0.22023 m 0,0 0.12324,-0.2178"
               style="fill:none;stroke:#000000;stroke-width:0.3985;stroke-linecap:butt;stroke-linejoin:miter;stroke-miterlimit:10;stroke-dasharray:none;stroke-opacity:1"
               id="path398" /><g
               id="g400"
               transform="rotate(180,69.7385,23.3565)"><g
                 id="g402" /><g
                 id="g404"
                 transform="translate(-139.477,-46.713)" /></g></g><path
             d="m 17.85837,17.85857 34.02273,3e-5"
             style="fill:none;stroke:#000000;stroke-width:0.3985;stroke-linecap:butt;stroke-linejoin:miter;stroke-miterlimit:10;stroke-dasharray:none;stroke-opacity:1"
             id="path406" /><path
             d="m 87.59785,17.85857 34.02274,3e-5"
             style="fill:none;stroke:#000000;stroke-width:0.3985;stroke-linecap:butt;stroke-linejoin:miter;stroke-miterlimit:10;stroke-dasharray:none;stroke-opacity:1"
             id="path408" /><path
             d="m 157.33734,17.85857 34.02274,3e-5"
             style="fill:none;stroke:#000000;stroke-width:0.3985;stroke-linecap:butt;stroke-linejoin:miter;stroke-miterlimit:10;stroke-dasharray:none;stroke-opacity:1"
             id="path410" /><g
             id="g412"><g
               id="g414"><path
                 d="m 175.59404,17.85858 c 0,0.68778 -0.55756,1.24535 -1.24534,1.24535 -0.68778,0 -1.24535,-0.55757 -1.24535,-1.24535 0,-0.68779 0.55757,-1.24534 1.24535,-1.24534 0.68778,0 1.24534,0.55755 1.24534,1.24534 z"
                 style="fill:#000000;fill-opacity:1;fill-rule:nonzero;stroke:none"
                 id="path416" /></g><g
               id="g418"
               transform="translate(174.346,17.858)"><g
                 id="g420" /><g
                 id="g422"
                 transform="translate(-174.346,-17.858)" /></g></g><path
             d="M 174.3487,19.10393 V 44.32237 H 148.72017"
             style="fill:none;stroke:#000000;stroke-width:0.3985;stroke-linecap:butt;stroke-linejoin:miter;stroke-miterlimit:10;stroke-dasharray:none;stroke-opacity:1"
             id="path424" /><path
             d="M 227.07683,17.85857 H 242.021 v 31.24592 h -93.30083"
             style="fill:none;stroke:#000000;stroke-width:0.3985;stroke-linecap:butt;stroke-linejoin:miter;stroke-miterlimit:10;stroke-dasharray:none;stroke-opacity:1"
             id="path426" /><path
             d="M -17.85837,17.8586 H -47.74672 V 46.71344 H 128.02002"
             style="fill:none;stroke:#000000;stroke-width:0.3985;stroke-linecap:butt;stroke-linejoin:miter;stroke-miterlimit:10;stroke-dasharray:none;stroke-opacity:1"
             id="path428" /><g
             id="g430" /><g
             id="g432"><g
               id="g434"
               transform="translate(22.341,7.42)"><g
                 id="g436"><g
                   id="g438"
                   transform="translate(-102.115,-85.005)"><text
                     transform="matrix(1,0,0,-1,102.115,85.005)"
                     style="font-variant:normal;font-weight:normal;font-size:9.9626px;font-family:CMTT10;-inkscape-font-specification:CMTT10;writing-mode:lr-tb;fill:#000000;fill-opacity:1;fill-rule:nonzero;stroke:none"
                     id="text442"><tspan
                       x="0 5.2303648 10.46073 15.691095"
                       y="0"
                       sodipodi:role="line"
                       id="tspan440">x(0)</tspan></text><g
                     id="g444"
                     transform="translate(102.115,85.005)" /></g></g><g
                 id="g446"
                 transform="translate(-22.341,-7.42)" /></g></g><path
             d="m -17.85837,-17.85857 h -9.96278"
             style="fill:none;stroke:#000000;stroke-width:0.3985;stroke-linecap:butt;stroke-linejoin:miter;stroke-miterlimit:10;stroke-dasharray:none;stroke-opacity:1"
             id="path448" /><g
             id="g450" /><path
             d="M -17.85837,0 H -37.78394"
             style="fill:none;stroke:#000000;stroke-width:0.3985;stroke-linecap:butt;stroke-linejoin:miter;stroke-miterlimit:10;stroke-dasharray:none;stroke-opacity:1"
             id="path452" /><g
             id="g454" /><g
             id="g456"><g
               id="g458"
               transform="translate(92.08,7.42)"><g
                 id="g460"><g
                   id="g462"
                   transform="translate(-171.854,-85.005)"><text
                     transform="matrix(1,0,0,-1,171.854,85.005)"
                     style="font-variant:normal;font-weight:normal;font-size:9.9626px;font-family:CMTT10;-inkscape-font-specification:CMTT10;writing-mode:lr-tb;fill:#000000;fill-opacity:1;fill-rule:nonzero;stroke:none"
                     id="text466"><tspan
                       x="0 5.2303648 10.46073 15.691095"
                       y="0"
                       sodipodi:role="line"
                       id="tspan464">x(1)</tspan></text><g
                     id="g468"
                     transform="translate(171.854,85.005)" /></g></g><g
                 id="g470"
                 transform="translate(-92.08,-7.42)" /></g></g><path
             d="M 51.8811,-17.85857 H 41.91832"
             style="fill:none;stroke:#000000;stroke-width:0.3985;stroke-linecap:butt;stroke-linejoin:miter;stroke-miterlimit:10;stroke-dasharray:none;stroke-opacity:1"
             id="path472" /><g
             id="g474" /><path
             d="M 51.8811,0 H 31.95554"
             style="fill:none;stroke:#000000;stroke-width:0.3985;stroke-linecap:butt;stroke-linejoin:miter;stroke-miterlimit:10;stroke-dasharray:none;stroke-opacity:1"
             id="path476" /><g
             id="g478" /><g
             id="g480"><g
               id="g482"
               transform="translate(161.818,7.42)"><g
                 id="g484"><g
                   id="g486"
                   transform="translate(-241.592,-85.005)"><text
                     transform="matrix(1,0,0,-1,241.592,85.005)"
                     style="font-variant:normal;font-weight:normal;font-size:9.9626px;font-family:CMTT10;-inkscape-font-specification:CMTT10;writing-mode:lr-tb;fill:#000000;fill-opacity:1;fill-rule:nonzero;stroke:none"
                     id="text490"><tspan
                       x="0 5.2303648 10.46073 15.691095"
                       y="0"
                       sodipodi:role="line"
                       id="tspan488">x(2)</tspan></text><g
                     id="g492"
                     transform="translate(241.592,85.005)" /></g></g><g
                 id="g494"
                 transform="translate(-161.818,-7.42)" /></g></g><path
             d="M 121.62059,-17.85857 H 111.6578"
             style="fill:none;stroke:#000000;stroke-width:0.3985;stroke-linecap:butt;stroke-linejoin:miter;stroke-miterlimit:10;stroke-dasharray:none;stroke-opacity:1"
             id="path496" /><g
             id="g498" /><path
             d="M 121.62059,0 H 101.69502"
             style="fill:none;stroke:#000000;stroke-width:0.3985;stroke-linecap:butt;stroke-linejoin:miter;stroke-miterlimit:10;stroke-dasharray:none;stroke-opacity:1"
             id="path500" /><g
             id="g502" /><g
             id="g504"><g
               id="g506"
               transform="translate(231.557,7.42)"><g
                 id="g508"><g
                   id="g510"
                   transform="translate(-311.331,-85.005)"><text
                     transform="matrix(1,0,0,-1,311.331,85.005)"
                     style="font-variant:normal;font-weight:normal;font-size:9.9626px;font-family:CMTT10;-inkscape-font-specification:CMTT10;writing-mode:lr-tb;fill:#000000;fill-opacity:1;fill-rule:nonzero;stroke:none"
                     id="text514"><tspan
                       x="0 5.2303648 10.46073 15.691095"
                       y="0"
                       sodipodi:role="line"
                       id="tspan512">x(3)</tspan></text><g
                     id="g516"
                     transform="translate(311.331,85.005)" /></g></g><g
                 id="g518"
                 transform="translate(-231.557,-7.42)" /></g></g><path
             d="M 191.36008,-17.85857 H 181.3973"
             style="fill:none;stroke:#000000;stroke-width:0.3985;stroke-linecap:butt;stroke-linejoin:miter;stroke-miterlimit:10;stroke-dasharray:none;stroke-opacity:1"
             id="path520" /><g
             id="g522" /><path
             d="M 191.36008,0 H 171.43451"
             style="fill:none;stroke:#000000;stroke-width:0.3985;stroke-linecap:butt;stroke-linejoin:miter;stroke-miterlimit:10;stroke-dasharray:none;stroke-opacity:1"
             id="path524" /><g
             id="g526" /><path
             d="M -47.74672,-71.62039 H 0 v 44.83252"
             style="fill:none;stroke:#000000;stroke-width:0.3985;stroke-linecap:butt;stroke-linejoin:miter;stroke-miterlimit:10;stroke-dasharray:none;stroke-opacity:1"
             id="path528" /><g
             id="g530" /><g
             id="g532"><g
               id="g534"
               transform="translate(-75.953,-73.764)"><g
                 id="g536"><g
                   id="g538"
                   transform="translate(-3.821,-3.821)"><text
                     transform="matrix(1,0,0,-1,3.821,3.821)"
                     style="font-variant:normal;font-weight:normal;font-size:9.9626px;font-family:CMTT10;-inkscape-font-specification:CMTT10;writing-mode:lr-tb;fill:#000000;fill-opacity:1;fill-rule:nonzero;stroke:none"
                     id="text542"><tspan
                       x="0 5.2303648 10.46073"
                       y="0"
                       sodipodi:role="line"
                       id="tspan540">res</tspan></text><g
                     id="g544"
                     transform="translate(20.139,4.02)"><path
                       d="M 0,0 H 3.138"
                       style="fill:none;stroke:#000000;stroke-width:0.398;stroke-linecap:butt;stroke-linejoin:miter;stroke-miterlimit:10;stroke-dasharray:none;stroke-opacity:1"
                       id="path546" /></g><text
                     transform="matrix(1,0,0,-1,23.278,3.821)"
                     style="font-variant:normal;font-weight:normal;font-size:9.9626px;font-family:CMTT10;-inkscape-font-specification:CMTT10;writing-mode:lr-tb;fill:#000000;fill-opacity:1;fill-rule:nonzero;stroke:none"
                     id="text550"><tspan
                       x="0"
                       y="0"
                       id="tspan548">n</tspan></text><g
                     id="g552"
                     transform="translate(3.821,3.821)" /></g></g><g
                 id="g554"
                 transform="translate(75.953,73.764)" /></g></g><g
             id="g556"><g
               id="g558"><path
                 d="m 1.24535,-71.62039 c 0,0.68779 -0.55758,1.24534 -1.24535,1.24534 -0.68777,0 -1.24535,-0.55755 -1.24535,-1.24534 0,-0.68778 0.55758,-1.24535 1.24535,-1.24535 0.68777,0 1.24535,0.55757 1.24535,1.24535 z"
                 style="fill:#000000;fill-opacity:1;fill-rule:nonzero;stroke:none"
                 id="path560" /></g><g
               id="g562"
               transform="translate(0,-71.62)"><g
                 id="g564" /><g
                 id="g566"
                 transform="translate(0,71.62)" /></g></g><path
             d="m 1.24535,-71.62039 h 68.49412 v 44.83252"
             style="fill:none;stroke:#000000;stroke-width:0.3985;stroke-linecap:butt;stroke-linejoin:miter;stroke-miterlimit:10;stroke-dasharray:none;stroke-opacity:1"
             id="path568" /><g
             id="g570"><g
               id="g572"><path
                 d="m 70.98482,-71.62039 c 0,0.68779 -0.55756,1.24534 -1.24535,1.24534 -0.68777,0 -1.24534,-0.55755 -1.24534,-1.24534 0,-0.68778 0.55757,-1.24535 1.24534,-1.24535 0.68779,0 1.24535,0.55757 1.24535,1.24535 z"
                 style="fill:#000000;fill-opacity:1;fill-rule:nonzero;stroke:none"
                 id="path574" /></g><g
               id="g576"
               transform="translate(69.738,-71.62)"><g
                 id="g578" /><g
                 id="g580"
                 transform="translate(-69.738,71.62)" /></g></g><path
             d="m 70.98482,-71.62039 h 68.49414 v 44.83252"
             style="fill:none;stroke:#000000;stroke-width:0.3985;stroke-linecap:butt;stroke-linejoin:miter;stroke-miterlimit:10;stroke-dasharray:none;stroke-opacity:1"
             id="path582" /><g
             id="g584"><g
               id="g586"><path
                 d="m 140.7243,-71.62039 c 0,0.68779 -0.55755,1.24534 -1.24534,1.24534 -0.68778,0 -1.24535,-0.55755 -1.24535,-1.24534 0,-0.68778 0.55757,-1.24535 1.24535,-1.24535 0.68779,0 1.24534,0.55757 1.24534,1.24535 z"
                 style="fill:#000000;fill-opacity:1;fill-rule:nonzero;stroke:none"
                 id="path588" /></g><g
               id="g590"
               transform="translate(139.477,-71.62)"><g
                 id="g592" /><g
                 id="g594"
                 transform="translate(-139.477,71.62)" /></g></g><path
             d="m 140.7243,-71.62039 h 68.49414 v 44.83252"
             style="fill:none;stroke:#000000;stroke-width:0.3985;stroke-linecap:butt;stroke-linejoin:miter;stroke-miterlimit:10;stroke-dasharray:none;stroke-opacity:1"
             id="path596" /><path
             d="m -47.74672,-41.73204 h 9.96278 V 0"
             style="fill:none;stroke:#000000;stroke-width:0.3985;stroke-linecap:butt;stroke-linejoin:miter;stroke-miterlimit:10;stroke-dasharray:none;stroke-opacity:1"
             id="path598" /><g
             id="g600"><g
               id="g602"
               transform="translate(-61.727,-43.876)"><g
                 id="g604"><g
                   id="g606"
                   transform="translate(-18.047,-33.709)"><text
                     transform="matrix(1,0,0,-1,18.047,33.709)"
                     style="font-variant:normal;font-weight:normal;font-size:9.9626px;font-family:CMTT10;-inkscape-font-specification:CMTT10;writing-mode:lr-tb;fill:#000000;fill-opacity:1;fill-rule:nonzero;stroke:none"
                     id="text610"><tspan
                       x="0 5.2303648"
                       y="0"
                       sodipodi:role="line"
                       id="tspan608">en</tspan></text><g
                     id="g612"
                     transform="translate(18.047,33.709)" /></g></g><g
                 id="g614"
                 transform="translate(61.727,43.876)" /></g></g><g
             id="g616"><g
               id="g618"><path
                 d="m -36.53859,-41.73204 c 0,0.68779 -0.55756,1.24534 -1.24535,1.24534 -0.68777,0 -1.24534,-0.55755 -1.24534,-1.24534 0,-0.68778 0.55757,-1.24535 1.24534,-1.24535 0.68779,0 1.24535,0.55757 1.24535,1.24535 z"
                 style="fill:#000000;fill-opacity:1;fill-rule:nonzero;stroke:none"
                 id="path620" /></g><g
               id="g622"
               transform="translate(-37.784,-41.732)"><g
                 id="g624" /><g
                 id="g626"
                 transform="translate(37.784,41.732)" /></g></g><path
             d="M -36.53859,-41.73204 H 31.95554 V 0"
             style="fill:none;stroke:#000000;stroke-width:0.3985;stroke-linecap:butt;stroke-linejoin:miter;stroke-miterlimit:10;stroke-dasharray:none;stroke-opacity:1"
             id="path628" /><g
             id="g630"><g
               id="g632"><path
                 d="m 33.20088,-41.73204 c 0,0.68779 -0.55755,1.24534 -1.24534,1.24534 -0.68778,0 -1.24535,-0.55755 -1.24535,-1.24534 0,-0.68778 0.55757,-1.24535 1.24535,-1.24535 0.68779,0 1.24534,0.55757 1.24534,1.24535 z"
                 style="fill:#000000;fill-opacity:1;fill-rule:nonzero;stroke:none"
                 id="path634" /></g><g
               id="g636"
               transform="translate(31.955,-41.732)"><g
                 id="g638" /><g
                 id="g640"
                 transform="translate(-31.955,41.732)" /></g></g><path
             d="m 33.20088,-41.73204 h 68.49414 V 0"
             style="fill:none;stroke:#000000;stroke-width:0.3985;stroke-linecap:butt;stroke-linejoin:miter;stroke-miterlimit:10;stroke-dasharray:none;stroke-opacity:1"
             id="path642" /><g
             id="g644"><g
               id="g646"><path
                 d="m 102.94037,-41.73204 c 0,0.68779 -0.55756,1.24534 -1.24535,1.24534 -0.68777,0 -1.24534,-0.55755 -1.24534,-1.24534 0,-0.68778 0.55757,-1.24535 1.24534,-1.24535 0.68779,0 1.24535,0.55757 1.24535,1.24535 z"
                 style="fill:#000000;fill-opacity:1;fill-rule:nonzero;stroke:none"
                 id="path648" /></g><g
               id="g650"
               transform="translate(101.693,-41.732)"><g
                 id="g652" /><g
                 id="g654"
                 transform="translate(-101.693,41.732)" /></g></g><path
             d="m 102.94037,-41.73204 h 68.49414 V 0"
             style="fill:none;stroke:#000000;stroke-width:0.3985;stroke-linecap:butt;stroke-linejoin:miter;stroke-miterlimit:10;stroke-dasharray:none;stroke-opacity:1"
             id="path656" /><path
             d="m -47.74672,-56.67622 h 19.92557 v 38.81765"
             style="fill:none;stroke:#000000;stroke-width:0.3985;stroke-linecap:butt;stroke-linejoin:miter;stroke-miterlimit:10;stroke-dasharray:none;stroke-opacity:1"
             id="path658" /><g
             id="g660"><g
               id="g662"
               transform="translate(-66.957,-59.72)"><g
                 id="g664"><g
                   id="g666"
                   transform="translate(-12.817,-17.865)"><text
                     transform="matrix(1,0,0,-1,12.817,17.865)"
                     style="font-variant:normal;font-weight:normal;font-size:9.9626px;font-family:CMTT10;-inkscape-font-specification:CMTT10;writing-mode:lr-tb;fill:#000000;fill-opacity:1;fill-rule:nonzero;stroke:none"
                     id="text670"><tspan
                       x="0 5.2303648 10.46073"
                       y="0"
                       sodipodi:role="line"
                       id="tspan668">clk</tspan></text><g
                     id="g672"
                     transform="translate(12.817,17.865)" /></g></g><g
                 id="g674"
                 transform="translate(66.957,59.72)" /></g></g><g
             id="g676"><g
               id="g678"><path
                 d="m -26.5758,-56.67622 c 0,0.68779 -0.55756,1.24534 -1.24535,1.24534 -0.68778,0 -1.24535,-0.55755 -1.24535,-1.24534 0,-0.68778 0.55757,-1.24535 1.24535,-1.24535 0.68779,0 1.24535,0.55757 1.24535,1.24535 z"
                 style="fill:#000000;fill-opacity:1;fill-rule:nonzero;stroke:none"
                 id="path680" /></g><g
               id="g682"
               transform="translate(-27.821,-56.676)"><g
                 id="g684" /><g
                 id="g686"
                 transform="translate(27.821,56.676)" /></g></g><path
             d="m -26.5758,-56.67622 h 68.49412 v 38.81765"
             style="fill:none;stroke:#000000;stroke-width:0.3985;stroke-linecap:butt;stroke-linejoin:miter;stroke-miterlimit:10;stroke-dasharray:none;stroke-opacity:1"
             id="path688" /><g
             id="g690"><g
               id="g692"><path
                 d="m 43.16367,-56.67622 c 0,0.68779 -0.55756,1.24534 -1.24535,1.24534 -0.68777,0 -1.24535,-0.55755 -1.24535,-1.24534 0,-0.68778 0.55758,-1.24535 1.24535,-1.24535 0.68779,0 1.24535,0.55757 1.24535,1.24535 z"
                 style="fill:#000000;fill-opacity:1;fill-rule:nonzero;stroke:none"
                 id="path694" /></g><g
               id="g696"
               transform="translate(41.918,-56.676)"><g
                 id="g698" /><g
                 id="g700"
                 transform="translate(-41.918,56.676)" /></g></g><path
             d="m 43.16367,-56.67622 h 68.49413 v 38.81765"
             style="fill:none;stroke:#000000;stroke-width:0.3985;stroke-linecap:butt;stroke-linejoin:miter;stroke-miterlimit:10;stroke-dasharray:none;stroke-opacity:1"
             id="path702" /><g
             id="g704"><g
               id="g706"><path
                 d="m 112.90315,-56.67622 c 0,0.68779 -0.55755,1.24534 -1.24535,1.24534 -0.68777,0 -1.24534,-0.55755 -1.24534,-1.24534 0,-0.68778 0.55757,-1.24535 1.24534,-1.24535 0.6878,0 1.24535,0.55757 1.24535,1.24535 z"
                 style="fill:#000000;fill-opacity:1;fill-rule:nonzero;stroke:none"
                 id="path708" /></g><g
               id="g710"
               transform="translate(111.656,-56.676)"><g
                 id="g712" /><g
                 id="g714"
                 transform="translate(-111.656,56.676)" /></g></g><path
             d="m 112.90315,-56.67622 h 68.49415 v 38.81765"
             style="fill:none;stroke:#000000;stroke-width:0.3985;stroke-linecap:butt;stroke-linejoin:miter;stroke-miterlimit:10;stroke-dasharray:none;stroke-opacity:1"
             id="path716" /></g></g></g></g></svg>
