<?xml version="1.0" encoding="UTF-8" standalone="no"?>
<!-- Created with Inkscape (http://www.inkscape.org/) -->

<svg
   version="1.1"
   id="svg1"
   width="448.09732"
   height="176.22667"
   viewBox="0 0 448.09732 176.22667"
   sodipodi:docname="main.pdf"
   xmlns:inkscape="http://www.inkscape.org/namespaces/inkscape"
   xmlns:sodipodi="http://sodipodi.sourceforge.net/DTD/sodipodi-0.dtd"
   xmlns="http://www.w3.org/2000/svg"
   xmlns:svg="http://www.w3.org/2000/svg">
  <defs
     id="defs1" />
  <sodipodi:namedview
     id="namedview1"
     pagecolor="#ffffff"
     bordercolor="#000000"
     borderopacity="0.25"
     inkscape:showpageshadow="2"
     inkscape:pageopacity="0.0"
     inkscape:pagecheckerboard="0"
     inkscape:deskcolor="#d1d1d1">
    <inkscape:page
       x="0"
       y="0"
       inkscape:label="1"
       id="page1"
       width="448.09732"
       height="176.22667"
       margin="0"
       bleed="0" />
  </sodipodi:namedview>
  <g
     id="g1"
     inkscape:groupmode="layer"
     inkscape:label="1">
    <path
       id="path1"
       d="M 0,0 H 336.073 V 132.17 H 0 Z"
       style="fill:#ffffff;fill-opacity:1;fill-rule:nonzero;stroke:none"
       transform="matrix(1.3333333,0,0,-1.3333333,0,176.22667)" />
    <path
       id="path2"
       d="M 17.85837,26.78787 H -17.85837 V -26.78787 H 17.85837 Z"
       style="fill:none;stroke:#000000;stroke-width:0.797;stroke-linecap:butt;stroke-linejoin:miter;stroke-miterlimit:10;stroke-dasharray:none;stroke-opacity:1"
       transform="matrix(1.3333333,0,0,-1.3333333,106.36533,72.78)" />
    <path
       id="path3"
       d="m -17.85837,-14.2869 3.57167,-3.57167 -3.57167,-3.57165"
       style="fill:none;stroke:#000000;stroke-width:0.3985;stroke-linecap:butt;stroke-linejoin:miter;stroke-miterlimit:10;stroke-dasharray:none;stroke-opacity:1"
       transform="matrix(1.3333333,0,0,-1.3333333,106.36533,72.78)" />
    <path
       id="path4"
       d="m 5.8456979,-3.2329479 c 0,-0.609375 -0.0625,-1.484375 -0.515625,-2.25 -0.59375,-0.984375 -1.59375,-1.09375 -2.015625,-1.09375 -1.546875,0 -2.84374998,1.484375 -2.84374998,3.34375 0,1.90625 1.37499998,3.37499998 3.04687498,3.37499998 0.65625,0 1.453125,-0.1875 2.234375,-0.75 0,-0.0625 -0.046875,-0.51562498 -0.046875,-0.53124998 -0.015625,-0.015625 -0.03125,-0.34375 -0.03125,-0.390625 -0.859375,0.71874998 -1.703125,0.81249998 -2.125,0.81249998 -1.109375,0 -2.0625,-0.98437498 -2.078125,-2.51562498 z m -4.296875,-0.765625 c 0.25,-0.96875 0.921875,-1.71875 1.765625,-1.71875 0.453125,0 1.4375,0.203125 1.671875,1.71875 z m 10.7734371,-0.3125 c 0,-0.875 -0.1875,-2.203125 -1.921875,-2.203125 -0.7968746,0 -1.4843746,0.359375 -2.0312496,1.046875 v -0.96875 h -1.015625 v 6.43749998 h 1.078125 V -3.5766979 c 0,-0.875 0.34375,-2.078125 1.421875,-2.078125 1.3437496,0 1.3749996,0.9375 1.3749996,1.4375 v 4.21874998 h 1.09375 z m 0,0"
       style="fill:#000000;fill-opacity:1;fill-rule:nonzero;stroke:none"
       aria-label="en"
       transform="translate(87.236333,76.994667)" />
    <path
       id="path5"
       d="m 1.3144479,-9.9535312 v 9.95312495 h 3.671875 c 2.40625,0 4.328125,-2.17187495 4.328125,-4.89062495 0,-2.796875 -1.90625,-5.0625 -4.328125,-5.0625 z m 1.203125,9.15624995 V -9.1566562 h 2.140625 c 1.921875,0 3.453125,1.65625 3.453125,4.25 0,2.625 -1.59375,4.10937495 -3.453125,4.10937495 z m 0,0"
       style="fill:#000000;fill-opacity:1;fill-rule:nonzero;stroke:none"
       aria-label="D"
       transform="translate(87.236333,53.184)" />
    <path
       id="path6"
       d="m 7.4848542,-0.46915625 c 1.421875,-1.15624995 2.078125,-2.71874995 2.078125,-4.48437495 0,-3.03125 -2.0625,-5.2968748 -4.390625,-5.2968748 -2.375,0 -4.39062503,2.2968748 -4.39062503,5.2968748 0,3 2.03125003,5.24999995 4.39062503,5.24999995 0.609375,0 1.15625,-0.171875 1.34375,-0.234375 l 1.203125,1.73437505 h 1.453125 z m -1.5,-0.25 c -0.296875,0.109375 -0.40625,0.125 -0.8125,0.125 -1.65625,0 -3.1875,-1.68749995 -3.1875,-4.35937495 0,-2.71875 1.5625,-4.40625 3.171875,-4.40625 1.6875,0 3.203125,1.734375 3.203125,4.40625 0,1.84375 -0.71875,3.078125 -1.453125,3.671875 l -1.109375,-1.5 h -1.25 z m 0,0"
       style="fill:#000000;fill-opacity:1;fill-rule:nonzero;stroke:none"
       aria-label="Q"
       transform="translate(115.13233,53.184)" />
    <path
       id="path7"
       d="M 0,0 H 18.265"
       style="fill:none;stroke:#000000;stroke-width:0.398;stroke-linecap:butt;stroke-linejoin:miter;stroke-miterlimit:10;stroke-dasharray:none;stroke-opacity:1"
       transform="matrix(1,0,0,-1,96.817667,96.199)" />
    <path
       id="path8"
       d="m 4.6393646,-6.6409062 c -0.546875,-0.328125 -1.109375,-0.5 -1.828125,-0.5 -1.390625,0 -2.25000002,0.984375 -2.25000002,1.96875 0,0.421875 0.140625,0.84375 0.53125002,1.265625 0.421875,0.453125 0.859375,0.5625 1.453125,0.703125 0.84375,0.21875 0.9375,0.25 1.21875,0.484375 0.203125,0.171875 0.421875,0.5 0.421875,0.9375 0,0.65625 -0.546875,1.31249995 -1.453125,1.31249995 -0.40625,0 -1.3125,-0.09375 -2.14062502,-0.81249995 l -0.15625,0.81249995 c 0.87500002,0.546875 1.67187502,0.6875 2.29687502,0.6875 1.328125,0 2.234375,-1 2.234375,-2.10937495 0,-0.640625 -0.296875,-1.125 -0.515625,-1.359375 -0.46875,-0.5 -0.796875,-0.59375 -1.71875,-0.8125 -0.578125,-0.140625 -0.734375,-0.1875 -1.046875,-0.4375 -0.0625,-0.0625 -0.34375,-0.359375 -0.34375,-0.796875 0,-0.578125 0.546875,-1.1875 1.453125,-1.1875 0.84375,0 1.3125,0.328125 1.6875,0.640625 z m 6.0039064,3.359375 v -0.609375 H 7.3620208 v -2.359375 h 1.375 c 0.109375,0 0.234375,0.015625 0.359375,0.015625 h 1.8281252 v -0.65625 H 6.4713958 v 6.89062495 h 4.5781252 v -0.703125 H 9.7995208 c -0.125,0 -0.234375,0 -0.359375,0 H 7.3620208 V -3.2815312 Z m 4.683594,-2.9375 h 0.875 c 0.125,0 0.25,0.015625 0.359375,0.015625 h 1.34375 v -0.65625 h -6.0625 v 0.65625 h 1.328125 c 0.125,0 0.25,-0.015625 0.359375,-0.015625 h 0.90625 v 6.21874995 h 0.890625 z m 0,0"
       style="fill:#000000;fill-opacity:1;fill-rule:nonzero;stroke:none"
       aria-label="SET"
       transform="translate(96.817667,104.512)" />
    <path
       id="path9"
       d="M 87.59785,26.78787 H 51.8811 v -53.57574 h 35.71675 z"
       style="fill:none;stroke:#000000;stroke-width:0.797;stroke-linecap:butt;stroke-linejoin:miter;stroke-miterlimit:10;stroke-dasharray:none;stroke-opacity:1"
       transform="matrix(1.3333333,0,0,-1.3333333,106.36533,72.78)" />
    <path
       id="path10"
       d="m 51.8811,-14.2869 3.57167,-3.57167 -3.57167,-3.57165"
       style="fill:none;stroke:#000000;stroke-width:0.3985;stroke-linecap:butt;stroke-linejoin:miter;stroke-miterlimit:10;stroke-dasharray:none;stroke-opacity:1"
       transform="matrix(1.3333333,0,0,-1.3333333,106.36533,72.78)" />
    <path
       id="path11"
       d="m 5.8418333,-3.2329479 c 0,-0.609375 -0.0625,-1.484375 -0.515625,-2.25 -0.59375,-0.984375 -1.59375,-1.09375 -2.015625,-1.09375 -1.546875,0 -2.84374997,1.484375 -2.84374997,3.34375 0,1.90625 1.37499997,3.37499998 3.04687497,3.37499998 0.65625,0 1.453125,-0.1875 2.234375,-0.75 0,-0.0625 -0.046875,-0.51562498 -0.046875,-0.53124998 -0.015625,-0.015625 -0.03125,-0.34375 -0.03125,-0.390625 -0.859375,0.71874998 -1.703125,0.81249998 -2.125,0.81249998 -1.109375,0 -2.0625,-0.98437498 -2.078125,-2.51562498 z m -4.296875,-0.765625 c 0.25,-0.96875 0.921875,-1.71875 1.765625,-1.71875 0.453125,0 1.4375,0.203125 1.671875,1.71875 z m 10.7773437,-0.3125 c 0,-0.875 -0.1875,-2.203125 -1.921875,-2.203125 -0.7968749,0 -1.4843749,0.359375 -2.0312499,1.046875 v -0.96875 h -1.015625 v 6.43749998 h 1.078125 V -3.5766979 c 0,-0.875 0.34375,-2.078125 1.421875,-2.078125 1.3437499,0 1.3749999,0.9375 1.3749999,1.4375 v 4.21874998 h 1.09375 z m 0,0"
       style="fill:#000000;fill-opacity:1;fill-rule:nonzero;stroke:none"
       aria-label="en"
       transform="translate(180.22067,76.994667)" />
    <path
       id="path12"
       d="m 1.3105833,-9.9535312 v 9.95312495 h 3.671875 c 2.40625,0 4.328125,-2.17187495 4.328125,-4.89062495 0,-2.796875 -1.90625,-5.0625 -4.328125,-5.0625 z m 1.203125,9.15624995 V -9.1566562 h 2.140625 c 1.921875,0 3.453125,1.65625 3.453125,4.25 0,2.625 -1.59375,4.10937495 -3.453125,4.10937495 z m 0,0"
       style="fill:#000000;fill-opacity:1;fill-rule:nonzero;stroke:none"
       aria-label="D"
       transform="translate(180.22067,53.184)" />
    <path
       id="path13"
       d="m 7.4848958,-0.46915625 c 1.421875,-1.15624995 2.078125,-2.71874995 2.078125,-4.48437495 0,-3.03125 -2.0625,-5.2968748 -4.390625,-5.2968748 -2.375,0 -4.39062497,2.2968748 -4.39062497,5.2968748 0,3 2.03124997,5.24999995 4.39062497,5.24999995 0.609375,0 1.15625,-0.171875 1.34375,-0.234375 l 1.203125,1.73437505 h 1.453125 z m -1.5,-0.25 c -0.296875,0.109375 -0.40625,0.125 -0.8125,0.125 -1.65625,0 -3.1875,-1.68749995 -3.1875,-4.35937495 0,-2.71875 1.5625,-4.40625 3.171875,-4.40625 1.6875,0 3.203125,1.734375 3.203125,4.40625 0,1.84375 -0.71875,3.078125 -1.453125,3.671875 l -1.109375,-1.5 h -1.25 z m 0,0"
       style="fill:#000000;fill-opacity:1;fill-rule:nonzero;stroke:none"
       aria-label="Q"
       transform="translate(208.11667,53.184)" />
    <path
       id="path14"
       d="M 0,0 H 18.749"
       style="fill:none;stroke:#000000;stroke-width:0.398;stroke-linecap:butt;stroke-linejoin:miter;stroke-miterlimit:10;stroke-dasharray:none;stroke-opacity:1"
       transform="matrix(1,0,0,-1,189.56033,96.199)" />
    <path
       id="path15"
       d="m 4.1701354,-3.2502812 c 1.03125,-0.296875 1.703125,-1 1.703125,-1.8125 0,-0.984375 -1.09375,-1.859375 -2.515625,-1.859375 H 0.95138542 V -2.8125e-4 H 1.8107604 V -3.1565312 h 1.578125 l 1.875,3.15624995 h 0.890625 z m -2.359375,-0.515625 v -2.59375 h 1.4375 c 1.15625,0 1.8125,0.59375 1.8125,1.296875 0,0.703125 -0.640625,1.296875 -1.8125,1.296875 z m 9.2656246,-2.875 c -0.546875,-0.328125 -1.1093746,-0.5 -1.8281246,-0.5 -1.390625,0 -2.25,0.984375 -2.25,1.96875 0,0.421875 0.140625,0.84375 0.53125,1.265625 0.421875,0.453125 0.859375,0.5625 1.453125,0.703125 0.84375,0.21875 0.9375,0.25 1.2187496,0.484375 0.203125,0.171875 0.421875,0.5 0.421875,0.9375 0,0.65625 -0.546875,1.31249995 -1.4531246,1.31249995 -0.40625,0 -1.3125,-0.09375 -2.140625,-0.81249995 l -0.15625,0.81249995 c 0.875,0.546875 1.671875,0.6875 2.296875,0.6875 1.3281246,0 2.2343746,-1 2.2343746,-2.10937495 0,-0.640625 -0.296875,-1.125 -0.515625,-1.359375 -0.46875,-0.5 -0.796875,-0.59375 -1.7187496,-0.8125 -0.578125,-0.140625 -0.734375,-0.1875 -1.046875,-0.4375 -0.0625,-0.0625 -0.34375,-0.359375 -0.34375,-0.796875 0,-0.578125 0.546875,-1.1875 1.453125,-1.1875 0.8437496,0 1.3124996,0.328125 1.6874996,0.640625 z m 4.738282,0.421875 h 0.875 c 0.125,0 0.25,0.015625 0.359375,0.015625 h 1.34375 v -0.65625 h -6.0625 v 0.65625 h 1.328125 c 0.125,0 0.25,-0.015625 0.359375,-0.015625 h 0.90625 v 6.21874995 h 0.890625 z m 0,0"
       style="fill:#000000;fill-opacity:1;fill-rule:nonzero;stroke:none"
       aria-label="RST"
       transform="translate(189.56033,104.512)" />
    <path
       id="path16"
       d="m 157.33734,26.78787 h -35.71675 v -53.57574 h 35.71675 z"
       style="fill:none;stroke:#000000;stroke-width:0.797;stroke-linecap:butt;stroke-linejoin:miter;stroke-miterlimit:10;stroke-dasharray:none;stroke-opacity:1"
       transform="matrix(1.3333333,0,0,-1.3333333,106.36533,72.78)" />
    <path
       id="path17"
       d="m 121.62059,-14.2869 3.57167,-3.57167 -3.57167,-3.57165"
       style="fill:none;stroke:#000000;stroke-width:0.3985;stroke-linecap:butt;stroke-linejoin:miter;stroke-miterlimit:10;stroke-dasharray:none;stroke-opacity:1"
       transform="matrix(1.3333333,0,0,-1.3333333,106.36533,72.78)" />
    <path
       id="path18"
       d="m 5.8447812,-3.2329479 c 0,-0.609375 -0.0625,-1.484375 -0.515625,-2.25 -0.59375,-0.984375 -1.59375,-1.09375 -2.015625,-1.09375 -1.546875,0 -2.84374995,1.484375 -2.84374995,3.34375 0,1.90625 1.37499995,3.37499998 3.04687495,3.37499998 0.65625,0 1.453125,-0.1875 2.234375,-0.75 0,-0.0625 -0.046875,-0.51562498 -0.046875,-0.53124998 -0.015625,-0.015625 -0.03125,-0.34375 -0.03125,-0.390625 -0.859375,0.71874998 -1.703125,0.81249998 -2.125,0.81249998 -1.109375,0 -2.0625,-0.98437498 -2.078125,-2.51562498 z m -4.296875,-0.765625 c 0.25,-0.96875 0.921875,-1.71875 1.765625,-1.71875 0.453125,0 1.4375,0.203125 1.671875,1.71875 z m 10.7734378,-0.3125 c 0,-0.875 -0.1875,-2.203125 -1.921875,-2.203125 -0.7968753,0 -1.4843753,0.359375 -2.0312503,1.046875 v -0.96875 h -1.015625 v 6.43749998 h 1.078125 V -3.5766979 c 0,-0.875 0.34375,-2.078125 1.421875,-2.078125 1.3437503,0 1.3750003,0.9375 1.3750003,1.4375 v 4.21874998 h 1.09375 z m 0,0"
       style="fill:#000000;fill-opacity:1;fill-rule:nonzero;stroke:none"
       aria-label="en"
       transform="translate(273.206,76.994667)" />
    <path
       id="path19"
       d="m 1.3135312,-9.9535312 v 9.95312495 h 3.671875 c 2.40625,0 4.328125,-2.17187495 4.328125,-4.89062495 0,-2.796875 -1.90625,-5.0625 -4.328125,-5.0625 z m 1.203125,9.15624995 V -9.1566562 h 2.140625 c 1.921875,0 3.453125,1.65625 3.453125,4.25 0,2.625 -1.59375,4.10937495 -3.453125,4.10937495 z m 0,0"
       style="fill:#000000;fill-opacity:1;fill-rule:nonzero;stroke:none"
       aria-label="D"
       transform="translate(273.206,53.184)" />
    <path
       id="path20"
       d="m 7.4839375,-0.46915625 c 1.421875,-1.15624995 2.078125,-2.71874995 2.078125,-4.48437495 0,-3.03125 -2.0625,-5.2968748 -4.390625,-5.2968748 -2.375,0 -4.390625,2.2968748 -4.390625,5.2968748 0,3 2.03125,5.24999995 4.390625,5.24999995 0.609375,0 1.15625,-0.171875 1.34375,-0.234375 l 1.203125,1.73437505 h 1.453125 z m -1.5,-0.25 c -0.296875,0.109375 -0.40625,0.125 -0.8125,0.125 -1.65625,0 -3.1875,-1.68749995 -3.1875,-4.35937495 0,-2.71875 1.5625,-4.40625 3.171875,-4.40625 1.6875,0 3.203125,1.734375 3.203125,4.40625 0,1.84375 -0.71875,3.078125 -1.453125,3.671875 l -1.109375,-1.5 h -1.25 z m 0,0"
       style="fill:#000000;fill-opacity:1;fill-rule:nonzero;stroke:none"
       aria-label="Q"
       transform="translate(301.102,53.184)" />
    <path
       id="path21"
       d="M 0,0 H 18.749"
       style="fill:none;stroke:#000000;stroke-width:0.398;stroke-linecap:butt;stroke-linejoin:miter;stroke-miterlimit:10;stroke-dasharray:none;stroke-opacity:1"
       transform="matrix(1,0,0,-1,282.54467,96.199)" />
    <path
       id="path22"
       d="m 4.1701771,-3.2502812 c 1.03125,-0.296875 1.703125,-1 1.703125,-1.8125 0,-0.984375 -1.09375,-1.859375 -2.515625,-1.859375 H 0.95142708 V -2.8125e-4 H 1.8108021 V -3.1565312 h 1.578125 l 1.875,3.15624995 h 0.890625 z m -2.359375,-0.515625 v -2.59375 h 1.4375 c 1.15625,0 1.8125,0.59375 1.8125,1.296875 0,0.703125 -0.640625,1.296875 -1.8125,1.296875 z m 9.2617189,-2.875 c -0.546875,-0.328125 -1.1093752,-0.5 -1.8281252,-0.5 -1.390625,0 -2.25,0.984375 -2.25,1.96875 0,0.421875 0.140625,0.84375 0.53125,1.265625 0.421875,0.453125 0.859375,0.5625 1.453125,0.703125 0.84375,0.21875 0.9375,0.25 1.2187502,0.484375 0.203125,0.171875 0.421875,0.5 0.421875,0.9375 0,0.65625 -0.546875,1.31249995 -1.4531252,1.31249995 -0.40625,0 -1.3125,-0.09375 -2.140625,-0.81249995 l -0.15625,0.81249995 c 0.875,0.546875 1.671875,0.6875 2.296875,0.6875 1.3281252,0 2.2343752,-1 2.2343752,-2.10937495 0,-0.640625 -0.296875,-1.125 -0.515625,-1.359375 -0.46875,-0.5 -0.796875,-0.59375 -1.7187502,-0.8125 -0.578125,-0.140625 -0.734375,-0.1875 -1.046875,-0.4375 -0.0625,-0.0625 -0.34375,-0.359375 -0.34375,-0.796875 0,-0.578125 0.546875,-1.1875 1.453125,-1.1875 0.8437502,0 1.3125002,0.328125 1.6875002,0.640625 z m 4.742187,0.421875 h 0.875 c 0.125,0 0.25,0.015625 0.359375,0.015625 h 1.34375 v -0.65625 h -6.0625 v 0.65625 h 1.328125 c 0.125,0 0.25,-0.015625 0.359375,-0.015625 h 0.90625 v 6.21874995 h 0.890625 z m 0,0"
       style="fill:#000000;fill-opacity:1;fill-rule:nonzero;stroke:none"
       aria-label="RST"
       transform="translate(282.54467,104.512)" />
    <path
       id="path23"
       d="m 227.07683,26.78787 h -35.71675 v -53.57574 h 35.71675 z"
       style="fill:none;stroke:#000000;stroke-width:0.797;stroke-linecap:butt;stroke-linejoin:miter;stroke-miterlimit:10;stroke-dasharray:none;stroke-opacity:1"
       transform="matrix(1.3333333,0,0,-1.3333333,106.36533,72.78)" />
    <path
       id="path24"
       d="m 191.36008,-14.2869 3.57167,-3.57167 -3.57167,-3.57165"
       style="fill:none;stroke:#000000;stroke-width:0.3985;stroke-linecap:butt;stroke-linejoin:miter;stroke-miterlimit:10;stroke-dasharray:none;stroke-opacity:1"
       transform="matrix(1.3333333,0,0,-1.3333333,106.36533,72.78)" />
    <path
       id="path25"
       d="m 5.8441562,-3.2329479 c 0,-0.609375 -0.0625,-1.484375 -0.515625,-2.25 -0.59375,-0.984375 -1.59375,-1.09375 -2.015625,-1.09375 -1.546875,0 -2.84374995,1.484375 -2.84374995,3.34375 0,1.90625 1.37499995,3.37499998 3.04687495,3.37499998 0.65625,0 1.453125,-0.1875 2.234375,-0.75 0,-0.0625 -0.046875,-0.51562498 -0.046875,-0.53124998 -0.015625,-0.015625 -0.03125,-0.34375 -0.03125,-0.390625 -0.859375,0.71874998 -1.703125,0.81249998 -2.125,0.81249998 -1.109375,0 -2.0625,-0.98437498 -2.078125,-2.51562498 z m -4.296875,-0.765625 c 0.25,-0.96875 0.921875,-1.71875 1.765625,-1.71875 0.453125,0 1.4375,0.203125 1.671875,1.71875 z m 10.7734378,-0.3125 c 0,-0.875 -0.1875,-2.203125 -1.921875,-2.203125 -0.7968753,0 -1.4843753,0.359375 -2.0312503,1.046875 v -0.96875 h -1.015625 v 6.43749998 h 1.078125 V -3.5766979 c 0,-0.875 0.34375,-2.078125 1.421875,-2.078125 1.3437503,0 1.3750003,0.9375 1.3750003,1.4375 v 4.21874998 h 1.09375 z m 0,0"
       style="fill:#000000;fill-opacity:1;fill-rule:nonzero;stroke:none"
       aria-label="en"
       transform="translate(366.191,76.994667)" />
    <path
       id="path26"
       d="m 1.3129062,-9.9535312 v 9.95312495 h 3.671875 c 2.40625,0 4.328125,-2.17187495 4.328125,-4.89062495 0,-2.796875 -1.90625,-5.0625 -4.328125,-5.0625 z m 1.203125,9.15624995 V -9.1566562 h 2.140625 c 1.921875,0 3.453125,1.65625 3.453125,4.25 0,2.625 -1.59375,4.10937495 -3.453125,4.10937495 z m 0,0"
       style="fill:#000000;fill-opacity:1;fill-rule:nonzero;stroke:none"
       aria-label="D"
       transform="translate(366.191,53.184)" />
    <path
       id="path27"
       d="m 7.4833125,-0.46915625 c 1.421875,-1.15624995 2.078125,-2.71874995 2.078125,-4.48437495 0,-3.03125 -2.0625,-5.2968748 -4.390625,-5.2968748 -2.375,0 -4.390625,2.2968748 -4.390625,5.2968748 0,3 2.03125,5.24999995 4.390625,5.24999995 0.609375,0 1.15625,-0.171875 1.34375,-0.234375 l 1.203125,1.73437505 h 1.453125 z m -1.5,-0.25 c -0.296875,0.109375 -0.40625,0.125 -0.8125,0.125 -1.65625,0 -3.1875,-1.68749995 -3.1875,-4.35937495 0,-2.71875 1.5625,-4.40625 3.171875,-4.40625 1.6875,0 3.203125,1.734375 3.203125,4.40625 0,1.84375 -0.71875,3.078125 -1.453125,3.671875 l -1.109375,-1.5 h -1.25 z m 0,0"
       style="fill:#000000;fill-opacity:1;fill-rule:nonzero;stroke:none"
       aria-label="Q"
       transform="translate(394.087,53.184)" />
    <path
       id="path28"
       d="M 0,0 H 18.749"
       style="fill:none;stroke:#000000;stroke-width:0.398;stroke-linecap:butt;stroke-linejoin:miter;stroke-miterlimit:10;stroke-dasharray:none;stroke-opacity:1"
       transform="matrix(1,0,0,-1,375.52967,96.199)" />
    <path
       id="path29"
       d="m 4.1734583,-3.2502812 c 1.03125,-0.296875 1.703125,-1 1.703125,-1.8125 0,-0.984375 -1.09375,-1.859375 -2.515625,-1.859375 H 0.95470833 V -2.8125e-4 H 1.8140833 V -3.1565312 h 1.578125 l 1.875,3.15624995 h 0.890625 z m -2.359375,-0.515625 v -2.59375 h 1.4375 c 1.15625,0 1.8125,0.59375 1.8125,1.296875 0,0.703125 -0.640625,1.296875 -1.8125,1.296875 z m 9.2617187,-2.875 c -0.546875,-0.328125 -1.1093749,-0.5 -1.8281249,-0.5 -1.390625,0 -2.25,0.984375 -2.25,1.96875 0,0.421875 0.140625,0.84375 0.53125,1.265625 0.421875,0.453125 0.859375,0.5625 1.453125,0.703125 0.84375,0.21875 0.9375,0.25 1.2187499,0.484375 0.203125,0.171875 0.421875,0.5 0.421875,0.9375 0,0.65625 -0.546875,1.31249995 -1.4531249,1.31249995 -0.40625,0 -1.3125,-0.09375 -2.140625,-0.81249995 l -0.15625,0.81249995 c 0.875,0.546875 1.671875,0.6875 2.296875,0.6875 1.3281249,0 2.2343749,-1 2.2343749,-2.10937495 0,-0.640625 -0.296875,-1.125 -0.515625,-1.359375 -0.46875,-0.5 -0.796875,-0.59375 -1.7187499,-0.8125 -0.578125,-0.140625 -0.734375,-0.1875 -1.046875,-0.4375 -0.0625,-0.0625 -0.34375,-0.359375 -0.34375,-0.796875 0,-0.578125 0.546875,-1.1875 1.453125,-1.1875 0.8437499,0 1.3124999,0.328125 1.6874999,0.640625 z m 4.738281,0.421875 h 0.875 c 0.125,0 0.25,0.015625 0.359375,0.015625 h 1.34375 v -0.65625 h -6.0625 v 0.65625 h 1.328125 c 0.125,0 0.25,-0.015625 0.359375,-0.015625 h 0.90625 v 6.21874995 h 0.890625 z m 0,0"
       style="fill:#000000;fill-opacity:1;fill-rule:nonzero;stroke:none"
       aria-label="RST"
       transform="translate(375.52967,104.512)" />
    <path
       id="path30"
       d="m 140.67442,39.54027 c -5.12484,0 -9.86192,2.73492 -12.42433,7.17317 2.56241,4.43825 7.29949,7.17317 12.42433,7.17317 h 7.17318 c -1.07291,-2.27621 -1.62499,-4.71057 -1.62499,-7.16554 0,-2.45497 0.55208,-4.88934 1.62499,-7.16554 z m 9.5643,14.34634 -0.12324,-0.21781 m 0,0 -0.11951,-0.22024 m 0,0 -0.1156,-0.22195 m 0,0 -0.11165,-0.22417 m 0,0 -0.10791,-0.22592 m 0,0 -0.10376,-0.22787 m 0,0 -0.0998,-0.22965 m 0,0 -0.0959,-0.23137 m 0,0 -0.0917,-0.23293 m 0,0 -0.0878,-0.23445 m 0,0 -0.0836,-0.23597 m 0,0 -0.0795,-0.23752 m 0,0 -0.0751,-0.23883 m 0,0 -0.0711,-0.24016 m 0,0 -0.067,-0.24123 m 0,0 -0.0628,-0.24254 m 0,0 -0.0582,-0.24343 m 0,0 -0.0543,-0.24431 m 0,0 -0.0499,-0.24539 m 0,0 -0.0457,-0.24627 m 0,0 -0.0411,-0.24693 m 0,0 -0.037,-0.24757 m 0,0 -0.0328,-0.24825 m 0,0 -0.0282,-0.2489 m 0,0 -0.0239,-0.24911 m 0,0 -0.0197,-0.24956 m 0,0 -0.0153,-0.25 m 0,0 -0.0109,-0.25021 m 0,0 -0.007,-0.25022 m 0,0 -0.002,-0.25041 m 0,0 0.002,-0.25043 m 0,0 0.007,-0.25021 m 0,0 0.0109,-0.2502 m 0,0 0.0153,-0.25 m 0,0 0.0197,-0.24956 m 0,0 0.0239,-0.24911 m 0,0 0.0282,-0.2489 m 0,0 0.0328,-0.24825 m 0,0 0.037,-0.24758 m 0,0 0.0411,-0.24693 m 0,0 0.0457,-0.24627 m 0,0 0.0499,-0.2454 m 0,0 0.0543,-0.2443 m 0,0 0.0582,-0.24343 m 0,0 0.0628,-0.24255 m 0,0 0.067,-0.24122 m 0,0 0.0711,-0.24015 m 0,0 0.0751,-0.23883 m 0,0 0.0795,-0.23752 m 0,0 0.0836,-0.23597 m 0,0 0.0878,-0.23446 m 0,0 0.0917,-0.23292 m 0,0 0.0959,-0.23137 m 0,0 0.0998,-0.22965 m 0,0 0.10376,-0.22787 m 0,0 0.10791,-0.22592 m 0,0 0.11165,-0.22417 m 0,0 0.1156,-0.22197 m 0,0 0.11951,-0.22023 m 0,0 0.12324,-0.2178"
       style="fill:none;stroke:#000000;stroke-width:0.3985;stroke-linecap:butt;stroke-linejoin:miter;stroke-miterlimit:10;stroke-dasharray:none;stroke-opacity:1"
       transform="matrix(1.3333333,0,0,-1.3333333,106.36533,72.78)" />
    <path
       id="path31"
       d="m 17.85837,17.85857 34.02273,3e-5"
       style="fill:none;stroke:#000000;stroke-width:0.3985;stroke-linecap:butt;stroke-linejoin:miter;stroke-miterlimit:10;stroke-dasharray:none;stroke-opacity:1"
       transform="matrix(1.3333333,0,0,-1.3333333,106.36533,72.78)" />
    <path
       id="path32"
       d="m 87.59785,17.85857 34.02274,3e-5"
       style="fill:none;stroke:#000000;stroke-width:0.3985;stroke-linecap:butt;stroke-linejoin:miter;stroke-miterlimit:10;stroke-dasharray:none;stroke-opacity:1"
       transform="matrix(1.3333333,0,0,-1.3333333,106.36533,72.78)" />
    <path
       id="path33"
       d="m 157.33734,17.85857 34.02274,3e-5"
       style="fill:none;stroke:#000000;stroke-width:0.3985;stroke-linecap:butt;stroke-linejoin:miter;stroke-miterlimit:10;stroke-dasharray:none;stroke-opacity:1"
       transform="matrix(1.3333333,0,0,-1.3333333,106.36533,72.78)" />
    <path
       id="path34"
       d="m 175.59404,17.85858 c 0,0.68778 -0.55756,1.24535 -1.24534,1.24535 -0.68778,0 -1.24535,-0.55757 -1.24535,-1.24535 0,-0.68779 0.55757,-1.24534 1.24535,-1.24534 0.68778,0 1.24534,0.55755 1.24534,1.24534 z"
       style="fill:#000000;fill-opacity:1;fill-rule:nonzero;stroke:none"
       transform="matrix(1.3333333,0,0,-1.3333333,106.36533,72.78)" />
    <path
       id="path35"
       d="M 174.3487,19.10393 V 44.32237 H 148.72017"
       style="fill:none;stroke:#000000;stroke-width:0.3985;stroke-linecap:butt;stroke-linejoin:miter;stroke-miterlimit:10;stroke-dasharray:none;stroke-opacity:1"
       transform="matrix(1.3333333,0,0,-1.3333333,106.36533,72.78)" />
    <path
       id="path36"
       d="M 227.07683,17.85857 H 242.021 v 31.24592 h -93.30083"
       style="fill:none;stroke:#000000;stroke-width:0.3985;stroke-linecap:butt;stroke-linejoin:miter;stroke-miterlimit:10;stroke-dasharray:none;stroke-opacity:1"
       transform="matrix(1.3333333,0,0,-1.3333333,106.36533,72.78)" />
    <path
       id="path37"
       d="M -17.85837,17.8586 H -47.74672 V 46.71344 H 128.02002"
       style="fill:none;stroke:#000000;stroke-width:0.3985;stroke-linecap:butt;stroke-linejoin:miter;stroke-miterlimit:10;stroke-dasharray:none;stroke-opacity:1"
       transform="matrix(1.3333333,0,0,-1.3333333,106.36533,72.78)" />
    <path
       id="path38"
       d="m 2.8586328,-2.2148047 1.1367188,-1.4765625 h 0.3984375 c 0.140625,0 0.4101562,0 0.4101562,-0.2929687 0,-0.3046875 -0.2578125,-0.3046875 -0.4101562,-0.3046875 h -1.171875 c -0.140625,0 -0.3984375,0 -0.3984375,0.2929687 0,0.3046875 0.2226562,0.3046875 0.4921875,0.3046875 l -0.7382813,1.0078125 -0.75,-1.0078125 c 0.2578125,0 0.46875,0 0.46875,-0.3046875 0,-0.2929687 -0.2460937,-0.2929687 -0.3984375,-0.2929687 H 0.73753906 c -0.15234375,0 -0.41015625,0 -0.41015625,0.3046875 0,0.2929687 0.26953125,0.2929687 0.41015625,0.2929687 H 1.1359766 l 1.171875,1.4765625 -1.2304688,1.60546876 H 0.67894531 c -0.15234375,0 -0.41015625,0 -0.41015625,0.3046875 0,0.3046875025 0.26953125,0.3046875025 0.41015625,0.3046875025 H 1.8391016 c 0.1523437,0 0.3984375,0 0.3984375,-0.3046875025 0,-0.3046875 -0.2109375,-0.3046875 -0.515625,-0.3046875 l 0.8554687,-1.21874996 0.890625,1.21874996 c -0.28125,0 -0.5039062,0 -0.5039062,0.3046875 0,0.3046875025 0.2578125,0.3046875025 0.3984375,0.3046875025 h 1.171875 c 0.140625,0 0.4101562,0 0.4101562,-0.3046875025 0,-0.3046875 -0.2578125,-0.3046875 -0.4101562,-0.3046875 H 4.1359766 Z m 6.7207031,2.75390626 c 0,-0.15234375 -0.058594,-0.1875 -0.2460937,-0.3046875 -1.2304688,-0.84375 -1.6875,-2.16796876 -1.6875,-3.28124996 0,-0.9960938 0.375,-2.3789063 1.7109375,-3.2929688 0.1640625,-0.1054687 0.2226562,-0.140625 0.2226562,-0.2929687 0,-0.082031 -0.046875,-0.28125 -0.3046875,-0.28125 -0.2929687,0 -2.3203125,1.3125 -2.3203125,3.8671875 0,1.1835937 0.4570313,2.08593746 0.8085938,2.57812496 0.5273437,0.7265625 1.2773437,1.2890625 1.5117187,1.2890625 0.2578125,0 0.3046875,-0.19921875 0.3046875,-0.28125 z M 15.183828,-3.0351172 c 0,-1.8515625 -1.019531,-3.1640625 -2.109375,-3.1640625 -1.113281,0 -2.109375,1.3359375 -2.109375,3.1523438 0,1.8515625 1.007813,3.15234371 2.109375,3.15234371 1.113281,0 2.109375,-1.33593751 2.109375,-3.14062501 z m -2.109375,2.53125001 c -0.785156,0 -1.429687,-1.17187501 -1.429687,-2.64843751 0,-1.453125 0.691406,-2.4375 1.429687,-2.4375 0.726563,0 1.417969,0.9726563 1.417969,2.4375 0,1.4765625 -0.644531,2.64843751 -1.417969,2.64843751 z M 19.19457,-3.0468359 c 0,-1.1835938 -0.457031,-2.0859375 -0.808593,-2.578125 -0.527344,-0.7265625 -1.265625,-1.2890625 -1.511719,-1.2890625 -0.246094,0 -0.304688,0.1992187 -0.304688,0.28125 0,0.1523437 0.105469,0.2226562 0.152344,0.2460937 1.640625,1.0898438 1.792969,2.6953125 1.792969,3.3398438 0,0.9960937 -0.375,2.37890621 -1.722656,3.28124996 -0.140625,0.10546875 -0.222657,0.15234375 -0.222657,0.3046875 0,0.0820313 0.05859,0.28125 0.304688,0.28125 0.292969,0 2.320312,-1.32421875 2.320312,-3.86718746 z m 0,0"
       style="fill:#000000;fill-opacity:1;fill-rule:nonzero;stroke:none"
       aria-label="x(0)"
       transform="matrix(1.3333333,0,0,1.3333333,136.15333,62.886667)" />
    <path
       id="path39"
       d="m -17.85837,-17.85857 h -9.96278"
       style="fill:none;stroke:#000000;stroke-width:0.3985;stroke-linecap:butt;stroke-linejoin:miter;stroke-miterlimit:10;stroke-dasharray:none;stroke-opacity:1"
       transform="matrix(1.3333333,0,0,-1.3333333,106.36533,72.78)" />
    <path
       id="path40"
       d="M -17.85837,0 H -37.78394"
       style="fill:none;stroke:#000000;stroke-width:0.3985;stroke-linecap:butt;stroke-linejoin:miter;stroke-miterlimit:10;stroke-dasharray:none;stroke-opacity:1"
       transform="matrix(1.3333333,0,0,-1.3333333,106.36533,72.78)" />
    <path
       id="path41"
       d="m 2.8579141,-2.2148047 1.1367187,-1.4765625 h 0.3984375 c 0.140625,0 0.4101563,0 0.4101563,-0.2929687 0,-0.3046875 -0.2578125,-0.3046875 -0.4101563,-0.3046875 h -1.171875 c -0.140625,0 -0.3984375,0 -0.3984375,0.2929687 0,0.3046875 0.2226563,0.3046875 0.4921875,0.3046875 l -0.7382812,1.0078125 -0.75,-1.0078125 c 0.2578125,0 0.46875,0 0.46875,-0.3046875 0,-0.2929687 -0.2460938,-0.2929687 -0.3984375,-0.2929687 H 0.73682031 c -0.15234375,0 -0.41015625,0 -0.41015625,0.3046875 0,0.2929687 0.26953125,0.2929687 0.41015625,0.2929687 H 1.1352578 l 1.171875,1.4765625 -1.2304687,1.60546876 H 0.67822656 c -0.15234375,0 -0.41015625,0 -0.41015625,0.3046875 0,0.3046875025 0.26953125,0.3046875025 0.41015625,0.3046875025 H 1.8383828 c 0.1523438,0 0.3984375,0 0.3984375,-0.3046875025 0,-0.3046875 -0.2109375,-0.3046875 -0.515625,-0.3046875 l 0.8554688,-1.21874996 0.890625,1.21874996 c -0.28125,0 -0.5039063,0 -0.5039063,0.3046875 0,0.3046875025 0.2578125,0.3046875025 0.3984375,0.3046875025 h 1.171875 c 0.140625,0 0.4101563,0 0.4101563,-0.3046875025 0,-0.3046875 -0.2578125,-0.3046875 -0.4101563,-0.3046875 H 4.1352578 Z m 6.7207031,2.75390626 c 0,-0.15234375 -0.058594,-0.1875 -0.2460938,-0.3046875 -1.2304687,-0.84375 -1.6875,-2.16796876 -1.6875,-3.28124996 0,-0.9960938 0.375,-2.3789063 1.7109375,-3.2929688 0.1640625,-0.1054687 0.2226563,-0.140625 0.2226563,-0.2929687 0,-0.082031 -0.046875,-0.28125 -0.3046875,-0.28125 -0.2929688,0 -2.3203125,1.3125 -2.3203125,3.8671875 0,1.1835937 0.4570312,2.08593746 0.8085937,2.57812496 0.5273438,0.7265625 1.2773438,1.2890625 1.5117188,1.2890625 0.2578125,0 0.3046875,-0.19921875 0.3046875,-0.28125 z M 13.554203,-5.7890234 c 0,-0.1523438 0,-0.4101563 -0.292969,-0.4101563 -0.1875,0 -0.246093,0.1171875 -0.304687,0.2460938 -0.375,0.84375 -0.890625,0.9492187 -1.078125,0.9726562 -0.164063,0.011719 -0.375,0.035156 -0.375,0.3046875 0,0.2578125 0.1875,0.3046875 0.328125,0.3046875 0.1875,0 0.597656,-0.058594 1.042969,-0.4453125 v 4.20703126 h -0.914063 c -0.152344,0 -0.398437,0 -0.398437,0.3046875 0,0.3046875025 0.257812,0.3046875025 0.398437,0.3046875025 h 2.507813 c 0.140625,0 0.398437,0 0.398437,-0.3046875025 0,-0.3046875 -0.246094,-0.3046875 -0.398437,-0.3046875 h -0.914063 z m 5.639649,2.7421875 c 0,-1.1835938 -0.457032,-2.0859375 -0.808594,-2.578125 -0.527344,-0.7265625 -1.265625,-1.2890625 -1.511719,-1.2890625 -0.246094,0 -0.304687,0.1992187 -0.304687,0.28125 0,0.1523437 0.105468,0.2226562 0.152343,0.2460937 1.640625,1.0898438 1.792969,2.6953125 1.792969,3.3398438 0,0.9960937 -0.375,2.37890621 -1.722656,3.28124996 -0.140625,0.10546875 -0.222656,0.15234375 -0.222656,0.3046875 0,0.0820313 0.05859,0.28125 0.304687,0.28125 0.292969,0 2.320313,-1.32421875 2.320313,-3.86718746 z m 0,0"
       style="fill:#000000;fill-opacity:1;fill-rule:nonzero;stroke:none"
       aria-label="x(1)"
       transform="matrix(1.3333333,0,0,1.3333333,229.13867,62.886667)" />
    <path
       id="path42"
       d="M 51.8811,-17.85857 H 41.91832"
       style="fill:none;stroke:#000000;stroke-width:0.3985;stroke-linecap:butt;stroke-linejoin:miter;stroke-miterlimit:10;stroke-dasharray:none;stroke-opacity:1"
       transform="matrix(1.3333333,0,0,-1.3333333,106.36533,72.78)" />
    <path
       id="path43"
       d="M 51.8811,0 H 31.95554"
       style="fill:none;stroke:#000000;stroke-width:0.3985;stroke-linecap:butt;stroke-linejoin:miter;stroke-miterlimit:10;stroke-dasharray:none;stroke-opacity:1"
       transform="matrix(1.3333333,0,0,-1.3333333,106.36533,72.78)" />
    <path
       id="path44"
       d="m 2.8581953,-2.2148047 1.1367188,-1.4765625 h 0.3984375 c 0.140625,0 0.4101562,0 0.4101562,-0.2929687 0,-0.3046875 -0.2578125,-0.3046875 -0.4101562,-0.3046875 h -1.171875 c -0.140625,0 -0.3984375,0 -0.3984375,0.2929687 0,0.3046875 0.2226562,0.3046875 0.4921875,0.3046875 l -0.7382813,1.0078125 -0.75,-1.0078125 c 0.2578125,0 0.46875,0 0.46875,-0.3046875 0,-0.2929687 -0.2460937,-0.2929687 -0.3984375,-0.2929687 H 0.73710156 c -0.15234375,0 -0.41015625,0 -0.41015625,0.3046875 0,0.2929687 0.26953125,0.2929687 0.41015625,0.2929687 H 1.1355391 l 1.171875,1.4765625 -1.2304688,1.60546876 H 0.67850781 c -0.15234375,0 -0.41015625,0 -0.41015625,0.3046875 0,0.3046875025 0.26953125,0.3046875025 0.41015625,0.3046875025 H 1.8386641 c 0.1523437,0 0.3984375,0 0.3984375,-0.3046875025 0,-0.3046875 -0.2109375,-0.3046875 -0.515625,-0.3046875 l 0.8554687,-1.21874996 0.890625,1.21874996 c -0.28125,0 -0.5039062,0 -0.5039062,0.3046875 0,0.3046875025 0.2578125,0.3046875025 0.3984375,0.3046875025 h 1.171875 c 0.140625,0 0.4101562,0 0.4101562,-0.3046875025 0,-0.3046875 -0.2578125,-0.3046875 -0.4101562,-0.3046875 H 4.1355391 Z m 6.7207031,2.75390626 c 0,-0.15234375 -0.058594,-0.1875 -0.2460937,-0.3046875 -1.2304688,-0.84375 -1.6875,-2.16796876 -1.6875,-3.28124996 0,-0.9960938 0.375,-2.3789063 1.7109375,-3.2929688 0.1640625,-0.1054687 0.2226562,-0.140625 0.2226562,-0.2929687 0,-0.082031 -0.046875,-0.28125 -0.3046875,-0.28125 -0.2929687,0 -2.3203125,1.3125 -2.3203125,3.8671875 0,1.1835937 0.4570313,2.08593746 0.8085938,2.57812496 0.5273437,0.7265625 1.2773437,1.2890625 1.5117187,1.2890625 0.2578125,0 0.3046875,-0.19921875 0.3046875,-0.28125 z m 1.5498046,-1.11328125 c -0.09375,0.0703125 -0.152344,0.12890625 -0.152344,0.26953125 0,0.3046875025 0.246094,0.3046875025 0.410157,0.3046875025 h 3.375 c 0.328125,0 0.398437,-0.0937500025 0.398437,-0.4101562525 v -0.2578125 c 0,-0.1875 0,-0.41015621 -0.339844,-0.41015621 -0.339843,0 -0.339843,0.18749996 -0.339843,0.46874996 h -2.378907 c 0.585938,-0.50390626 1.546875,-1.25390626 1.980469,-1.65234376 0.621094,-0.5625 1.078125,-1.1953125 1.078125,-1.9921875 0,-1.1953125 -1.007812,-1.9453125 -2.214844,-1.9453125 -1.183593,0 -1.96875,0.8203125 -1.96875,1.6640625 0,0.375 0.28125,0.4804688 0.445313,0.4804688 0.210937,0 0.445312,-0.1640625 0.445312,-0.4453125 0,-0.1171875 -0.04687,-0.2460938 -0.140625,-0.3164063 0.152344,-0.46875 0.621094,-0.7734375 1.160157,-0.7734375 0.820312,0 1.59375,0.4570313 1.59375,1.3359375 0,0.703125 -0.492188,1.2773438 -1.148438,1.828125 z m 8.06543,-2.47265621 c 0,-1.1835938 -0.457031,-2.0859375 -0.808594,-2.578125 -0.527344,-0.7265625 -1.265625,-1.2890625 -1.511719,-1.2890625 -0.246093,0 -0.304687,0.1992187 -0.304687,0.28125 0,0.1523437 0.105469,0.2226562 0.152344,0.2460937 1.640625,1.0898438 1.792968,2.6953125 1.792968,3.3398438 0,0.9960937 -0.375,2.37890621 -1.722656,3.28124996 -0.140625,0.10546875 -0.222656,0.15234375 -0.222656,0.3046875 0,0.0820313 0.05859,0.28125 0.304687,0.28125 0.292969,0 2.320313,-1.32421875 2.320313,-3.86718746 z m 0,0"
       style="fill:#000000;fill-opacity:1;fill-rule:nonzero;stroke:none"
       aria-label="x(2)"
       transform="matrix(1.3333333,0,0,1.3333333,322.12267,62.886667)" />
    <path
       id="path45"
       d="M 121.62059,-17.85857 H 111.6578"
       style="fill:none;stroke:#000000;stroke-width:0.3985;stroke-linecap:butt;stroke-linejoin:miter;stroke-miterlimit:10;stroke-dasharray:none;stroke-opacity:1"
       transform="matrix(1.3333333,0,0,-1.3333333,106.36533,72.78)" />
    <path
       id="path46"
       d="M 121.62059,0 H 101.69502"
       style="fill:none;stroke:#000000;stroke-width:0.3985;stroke-linecap:butt;stroke-linejoin:miter;stroke-miterlimit:10;stroke-dasharray:none;stroke-opacity:1"
       transform="matrix(1.3333333,0,0,-1.3333333,106.36533,72.78)" />
    <path
       id="path47"
       d="M 2.8604063,-2.2148047 3.997125,-3.6913672 h 0.3984375 c 0.140625,0 0.4101563,0 0.4101563,-0.2929687 0,-0.3046875 -0.2578125,-0.3046875 -0.4101563,-0.3046875 h -1.171875 c -0.140625,0 -0.3984375,0 -0.3984375,0.2929687 0,0.3046875 0.2226563,0.3046875 0.4921875,0.3046875 l -0.7382812,1.0078125 -0.75,-1.0078125 c 0.2578125,0 0.46875,0 0.46875,-0.3046875 0,-0.2929687 -0.2460938,-0.2929687 -0.3984375,-0.2929687 H 0.7393125 c -0.15234375,0 -0.41015625,0 -0.41015625,0.3046875 0,0.2929687 0.26953125,0.2929687 0.41015625,0.2929687 H 1.13775 l 1.171875,1.4765625 -1.2304687,1.60546876 H 0.68071875 c -0.15234375,0 -0.41015625,0 -0.41015625,0.3046875 0,0.3046875025 0.26953125,0.3046875025 0.41015625,0.3046875025 H 1.840875 c 0.1523438,0 0.3984375,0 0.3984375,-0.3046875025 0,-0.3046875 -0.2109375,-0.3046875 -0.515625,-0.3046875 l 0.8554688,-1.21874996 0.890625,1.21874996 c -0.28125,0 -0.5039063,0 -0.5039063,0.3046875 0,0.3046875025 0.2578125,0.3046875025 0.3984375,0.3046875025 h 1.171875 c 0.140625,0 0.4101563,0 0.4101563,-0.3046875025 0,-0.3046875 -0.2578125,-0.3046875 -0.4101563,-0.3046875 H 4.13775 Z m 6.7177734,2.75390626 c 0,-0.15234375 -0.058594,-0.1875 -0.2460938,-0.3046875 -1.2304687,-0.84375 -1.6875,-2.16796876 -1.6875,-3.28124996 0,-0.9960938 0.375,-2.3789063 1.7109375,-3.2929688 0.1640625,-0.1054687 0.2226563,-0.140625 0.2226563,-0.2929687 0,-0.082031 -0.046875,-0.28125 -0.3046875,-0.28125 -0.2929688,0 -2.3203125,1.3125 -2.3203125,3.8671875 0,1.1835937 0.4570312,2.08593746 0.8085937,2.57812496 0.5273438,0.7265625 1.2773438,1.2890625 1.5117188,1.2890625 0.2578125,0 0.3046875,-0.19921875 0.3046875,-0.28125 z M 14.116266,-3.3280859 c 0.5625,-0.3632813 0.832031,-0.9257813 0.832031,-1.4648438 0,-0.7382812 -0.726563,-1.40625 -1.863281,-1.40625 -1.195313,0 -1.898438,0.4804688 -1.898438,1.171875 0,0.328125 0.246094,0.46875 0.445313,0.46875 0.210937,0 0.445312,-0.1757812 0.445312,-0.4570312 0,-0.1289063 -0.05859,-0.234375 -0.09375,-0.2695313 0.304688,-0.3046875 1.019531,-0.3046875 1.101563,-0.3046875 0.679687,0 1.183593,0.3632813 1.183593,0.8085938 0,0.2929687 -0.152343,0.6445312 -0.421875,0.8671875 -0.316406,0.2578125 -0.5625,0.28125 -0.925781,0.2929687 -0.5625,0.046875 -0.714844,0.046875 -0.714844,0.328125 0,0.3164063 0.234375,0.3164063 0.398438,0.3164063 h 0.457031 c 0.984375,0 1.488281,0.6679687 1.488281,1.2421875 0,0.609375 -0.550781,1.23046871 -1.464843,1.23046871 -0.398438,0 -1.160157,-0.10546875 -1.417969,-0.57421871 0.04687,-0.046875 0.117187,-0.1054688 0.117187,-0.3046875 0,-0.2460938 -0.1875,-0.4453125 -0.433593,-0.4453125 -0.234375,0 -0.457032,0.1523437 -0.457032,0.46875 0,0.89062496 0.972657,1.46484371 2.191407,1.46484371 1.3125,0 2.15625,-0.9140625 2.15625,-1.83984371 0,-0.703125 -0.46875,-1.2890625 -1.125,-1.59375 z m 5.080078,0.28125 c 0,-1.1835938 -0.457031,-2.0859375 -0.808594,-2.578125 -0.527344,-0.7265625 -1.265625,-1.2890625 -1.511719,-1.2890625 -0.246093,0 -0.304687,0.1992187 -0.304687,0.28125 0,0.1523437 0.105469,0.2226562 0.152344,0.2460937 1.640625,1.0898438 1.792968,2.6953125 1.792968,3.3398438 0,0.9960937 -0.375,2.37890621 -1.722656,3.28124996 -0.140625,0.10546875 -0.222656,0.15234375 -0.222656,0.3046875 0,0.0820313 0.05859,0.28125 0.304687,0.28125 0.292969,0 2.320313,-1.32421875 2.320313,-3.86718746 z m 0,0"
       style="fill:#000000;fill-opacity:1;fill-rule:nonzero;stroke:none"
       aria-label="x(3)"
       transform="matrix(1.3333333,0,0,1.3333333,415.108,62.886667)" />
    <path
       id="path48"
       d="M 191.36008,-17.85857 H 181.3973"
       style="fill:none;stroke:#000000;stroke-width:0.3985;stroke-linecap:butt;stroke-linejoin:miter;stroke-miterlimit:10;stroke-dasharray:none;stroke-opacity:1"
       transform="matrix(1.3333333,0,0,-1.3333333,106.36533,72.78)" />
    <path
       id="path49"
       d="M 191.36008,0 H 171.43451"
       style="fill:none;stroke:#000000;stroke-width:0.3985;stroke-linecap:butt;stroke-linejoin:miter;stroke-miterlimit:10;stroke-dasharray:none;stroke-opacity:1"
       transform="matrix(1.3333333,0,0,-1.3333333,106.36533,72.78)" />
    <path
       id="path50"
       d="M -47.74672,-71.62039 H 0 v 44.83252"
       style="fill:none;stroke:#000000;stroke-width:0.3985;stroke-linecap:butt;stroke-linejoin:miter;stroke-miterlimit:10;stroke-dasharray:none;stroke-opacity:1"
       transform="matrix(1.3333333,0,0,-1.3333333,106.36533,72.78)" />
    <path
       id="path51"
       d="m 2.2141563,-1.8509531 c 0,-0.9375 0.5859375,-1.8984375 1.7929687,-1.8984375 0.011719,0.2460937 0.1757813,0.4453125 0.421875,0.4453125 0.2226563,0 0.421875,-0.1640625 0.421875,-0.4335938 0,-0.1992187 -0.1171875,-0.609375 -0.9492187,-0.609375 -0.5039063,0 -1.1484375,0.1757813 -1.6875,0.796875 v -0.3398437 c 0,-0.3046875 -0.058594,-0.3984375 -0.3984375,-0.3984375 H 0.71415625 c -0.15234375,0 -0.3984375,0 -0.3984375,0.2929687 0,0.3046875 0.24609375,0.3046875 0.3984375,0.3046875 H 1.52275 v 3.08203128 H 0.71415625 c -0.15234375,0 -0.3984375,0 -0.3984375,0.3046875 0,0.304687495 0.24609375,0.304687495 0.3984375,0.304687495 H 3.3157188 c 0.1523437,0 0.4101562,0 0.4101562,-0.304687495 0,-0.3046875 -0.2578125,-0.3046875 -0.4101562,-0.3046875 H 2.2141563 Z m 7.2363281,-0.046875 c 0.2109375,0 0.3984375,0 0.3984375,-0.375 0,-1.1367188 -0.6328125,-2.109375 -1.921875,-2.109375 -1.1953125,0 -2.1445313,0.9960937 -2.1445313,2.2265625 0,1.20703123 1.0078125,2.21484373 2.2851563,2.21484373 1.3125,0 1.78125,-0.890625 1.78125,-1.14843753 0,-0.2695312 -0.28125,-0.2695312 -0.3398438,-0.2695312 -0.1875,0 -0.2578125,0.023437 -0.328125,0.2109375 -0.2226562,0.51562498 -0.7617187,0.59765623 -1.0429687,0.59765623 -0.75,0 -1.4882813,-0.49218753 -1.6523438,-1.34765623 z m -2.953125,-0.5976563 c 0.140625,-0.7265625 0.7265625,-1.2773437 1.4296875,-1.2773437 0.515625,0 1.125,0.2460937 1.21875,1.2773437 z m 6.9287106,-0.046875 c -0.222656,-0.035156 -0.421875,-0.070312 -0.667968,-0.1171875 -0.292969,-0.035156 -0.972657,-0.1640625 -0.972657,-0.5507812 0,-0.2578125 0.316407,-0.5625 1.265625,-0.5625 0.832032,0 0.960938,0.2929687 0.996094,0.5507812 0.01172,0.1757813 0.03516,0.3398438 0.339844,0.3398438 0.351562,0 0.351562,-0.2109375 0.351562,-0.4101563 v -0.6796875 c 0,-0.1640625 0,-0.4101562 -0.304687,-0.4101562 -0.234375,0 -0.28125,0.140625 -0.292969,0.2109375 -0.445312,-0.2109375 -0.878906,-0.2109375 -1.066406,-0.2109375 -1.664063,0 -1.898438,0.8203125 -1.898438,1.171875 0,0.9140625 1.042969,1.0898437 1.96875,1.2304687 0.480469,0.082031 1.277344,0.2109375 1.277344,0.7382813 0,0.36328123 -0.363281,0.69140623 -1.265625,0.69140623 -0.46875,0 -1.03125,-0.10546875 -1.277344,-0.87890623 -0.05859,-0.1875 -0.09375,-0.2929688 -0.351562,-0.2929688 -0.351563,0 -0.351563,0.2109375 -0.351563,0.4101563 v 0.96093748 c 0,0.1640625 0,0.41015625 0.304688,0.41015625 0.08203,0 0.246094,-0.01171875 0.363281,-0.375 0.492188,0.3515625 1.019531,0.375 1.300781,0.375 1.570313,0 1.886719,-0.8203125 1.886719,-1.30078123 0,-1.0429688 -1.277344,-1.2539063 -1.605469,-1.3007813 z m 0,0"
       style="fill:#000000;fill-opacity:1;fill-rule:nonzero;stroke:none"
       aria-label="res"
       transform="matrix(1.3333333,0,0,1.3333333,5.0946667,171.132)" />
    <path
       id="path52"
       d="M 0,0 H 3.138"
       style="fill:none;stroke:#000000;stroke-width:0.398;stroke-linecap:butt;stroke-linejoin:miter;stroke-miterlimit:10;stroke-dasharray:none;stroke-opacity:1"
       transform="matrix(1.3333333,0,0,-1.3333333,26.852,170.86667)" />
    <path
       id="path53"
       d="m 1.6536406,-3.8197031 c 0,-0.328125 0,-0.46875 -0.3984375,-0.46875 H 0.52864063 c -0.1640625,0 -0.41015625,0 -0.41015625,0.3046875 0,0.2929687 0.2578125,0.2929687 0.3984375,0.2929687 h 0.4453125 v 3.08203128 H 0.52864063 c -0.1640625,0 -0.41015625,0 -0.41015625,0.3046875 0,0.304687495 0.2578125,0.304687495 0.3984375,0.304687495 H 2.0989531 c 0.140625,0 0.3984375,0 0.3984375,-0.304687495 0,-0.3046875 -0.2460937,-0.3046875 -0.3984375,-0.3046875 H 1.6536406 V -2.3665781 c 0,-0.9960938 0.7382813,-1.3828125 1.2421875,-1.3828125 0.5273438,0 0.6679688,0.28125 0.6679688,0.8789062 v 2.26171878 H 3.1770781 c -0.1523437,0 -0.4101562,0 -0.4101562,0.3046875 0,0.304687495 0.2695312,0.304687495 0.4101562,0.304687495 h 1.5234375 c 0.140625,0 0.3984375,0 0.3984375,-0.304687495 0,-0.3046875 -0.2460937,-0.3046875 -0.4101562,-0.3046875 H 4.2552031 V -2.9173594 c 0,-1.0078125 -0.5039062,-1.4296875 -1.3007812,-1.4296875 -0.65625,0 -1.1132813,0.328125 -1.3007813,0.5273438 z m 0,0"
       style="fill:#000000;fill-opacity:1;fill-rule:nonzero;stroke:none"
       aria-label="n"
       transform="matrix(1.3333333,0,0,1.3333333,31.037333,171.132)" />
    <path
       id="path54"
       d="m 1.24535,-71.62039 c 0,0.68779 -0.55758,1.24534 -1.24535,1.24534 -0.68777,0 -1.24535,-0.55755 -1.24535,-1.24534 0,-0.68778 0.55758,-1.24535 1.24535,-1.24535 0.68777,0 1.24535,0.55757 1.24535,1.24535 z"
       style="fill:#000000;fill-opacity:1;fill-rule:nonzero;stroke:none"
       transform="matrix(1.3333333,0,0,-1.3333333,106.36533,72.78)" />
    <path
       id="path55"
       d="m 1.24535,-71.62039 h 68.49412 v 44.83252"
       style="fill:none;stroke:#000000;stroke-width:0.3985;stroke-linecap:butt;stroke-linejoin:miter;stroke-miterlimit:10;stroke-dasharray:none;stroke-opacity:1"
       transform="matrix(1.3333333,0,0,-1.3333333,106.36533,72.78)" />
    <path
       id="path56"
       d="m 70.98482,-71.62039 c 0,0.68779 -0.55756,1.24534 -1.24535,1.24534 -0.68777,0 -1.24534,-0.55755 -1.24534,-1.24534 0,-0.68778 0.55757,-1.24535 1.24534,-1.24535 0.68779,0 1.24535,0.55757 1.24535,1.24535 z"
       style="fill:#000000;fill-opacity:1;fill-rule:nonzero;stroke:none"
       transform="matrix(1.3333333,0,0,-1.3333333,106.36533,72.78)" />
    <path
       id="path57"
       d="m 70.98482,-71.62039 h 68.49414 v 44.83252"
       style="fill:none;stroke:#000000;stroke-width:0.3985;stroke-linecap:butt;stroke-linejoin:miter;stroke-miterlimit:10;stroke-dasharray:none;stroke-opacity:1"
       transform="matrix(1.3333333,0,0,-1.3333333,106.36533,72.78)" />
    <path
       id="path58"
       d="m 140.7243,-71.62039 c 0,0.68779 -0.55755,1.24534 -1.24534,1.24534 -0.68778,0 -1.24535,-0.55755 -1.24535,-1.24534 0,-0.68778 0.55757,-1.24535 1.24535,-1.24535 0.68779,0 1.24534,0.55757 1.24534,1.24535 z"
       style="fill:#000000;fill-opacity:1;fill-rule:nonzero;stroke:none"
       transform="matrix(1.3333333,0,0,-1.3333333,106.36533,72.78)" />
    <path
       id="path59"
       d="m 140.7243,-71.62039 h 68.49414 v 44.83252"
       style="fill:none;stroke:#000000;stroke-width:0.3985;stroke-linecap:butt;stroke-linejoin:miter;stroke-miterlimit:10;stroke-dasharray:none;stroke-opacity:1"
       transform="matrix(1.3333333,0,0,-1.3333333,106.36533,72.78)" />
    <path
       id="path60"
       d="m -47.74672,-41.73204 h 9.96278 V 0"
       style="fill:none;stroke:#000000;stroke-width:0.3985;stroke-linecap:butt;stroke-linejoin:miter;stroke-miterlimit:10;stroke-dasharray:none;stroke-opacity:1"
       transform="matrix(1.3333333,0,0,-1.3333333,106.36533,72.78)" />
    <path
       id="path61"
       d="m 4.218625,-1.8985 c 0.2109375,0 0.3984375,0 0.3984375,-0.375 0,-1.1367187 -0.6328125,-2.109375 -1.921875,-2.109375 -1.1953125,0 -2.14453125,0.9960938 -2.14453125,2.2265625 0,1.20703125 1.00781255,2.21484375 2.28515625,2.21484375 1.3125,0 1.78125,-0.890625 1.78125,-1.14843745 0,-0.2695313 -0.28125,-0.2695313 -0.3398437,-0.2695313 -0.1875,0 -0.2578125,0.023437 -0.328125,0.2109375 -0.2226563,0.515625 -0.7617188,0.59765625 -1.0429688,0.59765625 -0.75,0 -1.4882812,-0.49218745 -1.6523437,-1.34765625 z M 1.2655,-2.4961562 C 1.406125,-3.2227187 1.9920625,-3.7735 2.6951875,-3.7735 c 0.515625,0 1.125,0.2460938 1.21875,1.2773438 z M 6.8817109,-3.820375 c 0,-0.328125 0,-0.46875 -0.3984375,-0.46875 H 5.7567109 c -0.1640625,0 -0.4101562,0 -0.4101562,0.3046875 0,0.2929688 0.2578125,0.2929688 0.3984375,0.2929688 h 0.4453125 v 3.0820312 H 5.7567109 c -0.1640625,0 -0.4101562,0 -0.4101562,0.3046875 0,0.3046875 0.2578125,0.3046875 0.3984375,0.3046875 h 1.5820312 c 0.140625,0 0.3984375,0 0.3984375,-0.3046875 0,-0.3046875 -0.2460937,-0.3046875 -0.3984375,-0.3046875 H 6.8817109 V -2.36725 c 0,-0.9960937 0.7382813,-1.3828125 1.2421875,-1.3828125 0.5273438,0 0.6679688,0.28125 0.6679688,0.8789063 v 2.2617187 H 8.4051484 c -0.1523437,0 -0.4101562,0 -0.4101562,0.3046875 0,0.3046875 0.2695312,0.3046875 0.4101562,0.3046875 h 1.5234375 c 0.1406251,0 0.3984371,0 0.3984371,-0.3046875 0,-0.3046875 -0.246093,-0.3046875 -0.4101558,-0.3046875 H 9.4832734 v -2.3085937 c 0,-1.0078125 -0.5039062,-1.4296875 -1.3007812,-1.4296875 -0.65625,0 -1.1132813,0.328125 -1.3007813,0.5273437 z m 0,0"
       style="fill:#000000;fill-opacity:1;fill-rule:nonzero;stroke:none"
       aria-label="en"
       transform="matrix(1.3333333,0,0,1.3333333,24.062667,131.28133)" />
    <path
       id="path62"
       d="m -36.53859,-41.73204 c 0,0.68779 -0.55756,1.24534 -1.24535,1.24534 -0.68777,0 -1.24534,-0.55755 -1.24534,-1.24534 0,-0.68778 0.55757,-1.24535 1.24534,-1.24535 0.68779,0 1.24535,0.55757 1.24535,1.24535 z"
       style="fill:#000000;fill-opacity:1;fill-rule:nonzero;stroke:none"
       transform="matrix(1.3333333,0,0,-1.3333333,106.36533,72.78)" />
    <path
       id="path63"
       d="M -36.53859,-41.73204 H 31.95554 V 0"
       style="fill:none;stroke:#000000;stroke-width:0.3985;stroke-linecap:butt;stroke-linejoin:miter;stroke-miterlimit:10;stroke-dasharray:none;stroke-opacity:1"
       transform="matrix(1.3333333,0,0,-1.3333333,106.36533,72.78)" />
    <path
       id="path64"
       d="m 33.20088,-41.73204 c 0,0.68779 -0.55755,1.24534 -1.24534,1.24534 -0.68778,0 -1.24535,-0.55755 -1.24535,-1.24534 0,-0.68778 0.55757,-1.24535 1.24535,-1.24535 0.68779,0 1.24534,0.55757 1.24534,1.24535 z"
       style="fill:#000000;fill-opacity:1;fill-rule:nonzero;stroke:none"
       transform="matrix(1.3333333,0,0,-1.3333333,106.36533,72.78)" />
    <path
       id="path65"
       d="m 33.20088,-41.73204 h 68.49414 V 0"
       style="fill:none;stroke:#000000;stroke-width:0.3985;stroke-linecap:butt;stroke-linejoin:miter;stroke-miterlimit:10;stroke-dasharray:none;stroke-opacity:1"
       transform="matrix(1.3333333,0,0,-1.3333333,106.36533,72.78)" />
    <path
       id="path66"
       d="m 102.94037,-41.73204 c 0,0.68779 -0.55756,1.24534 -1.24535,1.24534 -0.68777,0 -1.24534,-0.55755 -1.24534,-1.24534 0,-0.68778 0.55757,-1.24535 1.24534,-1.24535 0.68779,0 1.24535,0.55757 1.24535,1.24535 z"
       style="fill:#000000;fill-opacity:1;fill-rule:nonzero;stroke:none"
       transform="matrix(1.3333333,0,0,-1.3333333,106.36533,72.78)" />
    <path
       id="path67"
       d="m 102.94037,-41.73204 h 68.49414 V 0"
       style="fill:none;stroke:#000000;stroke-width:0.3985;stroke-linecap:butt;stroke-linejoin:miter;stroke-miterlimit:10;stroke-dasharray:none;stroke-opacity:1"
       transform="matrix(1.3333333,0,0,-1.3333333,106.36533,72.78)" />
    <path
       id="path68"
       d="m -47.74672,-56.67622 h 19.92557 v 38.81765"
       style="fill:none;stroke:#000000;stroke-width:0.3985;stroke-linecap:butt;stroke-linejoin:miter;stroke-miterlimit:10;stroke-dasharray:none;stroke-opacity:1"
       transform="matrix(1.3333333,0,0,-1.3333333,106.36533,72.78)" />
    <path
       id="path69"
       d="m 4.6410078,-1.0901562 c 0,-0.2695313 -0.2929687,-0.2695313 -0.3515625,-0.2695313 -0.1523437,0 -0.2578125,0.011719 -0.328125,0.2109375 -0.058594,0.1289063 -0.2460937,0.59765625 -0.984375,0.59765625 -0.84375,0 -1.5585937,-0.69140625 -1.5585937,-1.60546875 0,-0.46875 0.28125,-1.6171875 1.6171875,-1.6171875 0.2109375,0 0.5976562,0 0.5976562,0.082031 0.011719,0.3515625 0.1992188,0.4921875 0.4453125,0.4921875 0.234375,0 0.4453125,-0.1640625 0.4453125,-0.4570313 0,-0.7265625 -1.03125,-0.7265625 -1.4882812,-0.7265625 -1.7109375,0 -2.30859379,1.359375 -2.30859379,2.2265625 0,1.1953125 0.93749999,2.21484375 2.19140629,2.21484375 1.3828125,0 1.7226562,-0.97265625 1.7226562,-1.14843715 z M 8.183,-5.6839062 c 0,-0.3046875 -0.058594,-0.3984375 -0.3984375,-0.3984375 H 6.21425 c -0.1523437,0 -0.4101562,0 -0.4101562,0.3046875 0,0.2929687 0.2578125,0.2929687 0.3984375,0.2929687 h 1.3007812 v 4.875 H 6.21425 c -0.1523437,0 -0.4101562,0 -0.4101562,0.3046875 0,0.3046875 0.2578125,0.3046875 0.3984375,0.3046875 h 3.28125 c 0.1523437,0 0.3984375,0 0.3984375,-0.3046875 0,-0.3046875 -0.234375,-0.3046875 -0.3984375,-0.3046875 H 8.183 Z m 5.135742,3.140625 1.230469,-1.1484375 h 0.339844 c 0.152343,0 0.410156,0 0.410156,-0.2929688 0,-0.3046875 -0.257813,-0.3046875 -0.410156,-0.3046875 h -1.535157 c -0.152343,0 -0.398437,0 -0.398437,0.3046875 0,0.2929688 0.257812,0.2929688 0.398437,0.2929688 h 0.375 l -1.617187,1.5234375 v -3.515625 c 0,-0.3046875 -0.05859,-0.3984375 -0.398438,-0.3984375 h -0.644531 c -0.152344,0 -0.398437,0 -0.398437,0.2929687 0,0.3046875 0.234375,0.3046875 0.398437,0.3046875 h 0.492188 v 4.875 h -0.492188 c -0.152344,0 -0.398437,0 -0.398437,0.3046875 0,0.3046875 0.234375,0.3046875 0.398437,0.3046875 h 1.535156 c 0.152344,0 0.398438,0 0.398438,-0.3046875 0,-0.3046875 -0.246094,-0.3046875 -0.398438,-0.3046875 h -0.492187 v -0.8085937 l 0.796875,-0.7382813 1.183594,1.546875 c -0.351563,0 -0.550782,0 -0.550782,0.3046875 0,0.3046875 0.246094,0.3046875 0.398438,0.3046875 h 1.171875 c 0.152344,0 0.410156,0 0.410156,-0.3046875 0,-0.3046875 -0.257812,-0.3046875 -0.410156,-0.3046875 h -0.304688 z m 0,0"
       style="fill:#000000;fill-opacity:1;fill-rule:nonzero;stroke:none"
       aria-label="clk"
       transform="matrix(1.3333333,0,0,1.3333333,17.089333,152.40667)" />
    <path
       id="path70"
       d="m -26.5758,-56.67622 c 0,0.68779 -0.55756,1.24534 -1.24535,1.24534 -0.68778,0 -1.24535,-0.55755 -1.24535,-1.24534 0,-0.68778 0.55757,-1.24535 1.24535,-1.24535 0.68779,0 1.24535,0.55757 1.24535,1.24535 z"
       style="fill:#000000;fill-opacity:1;fill-rule:nonzero;stroke:none"
       transform="matrix(1.3333333,0,0,-1.3333333,106.36533,72.78)" />
    <path
       id="path71"
       d="m -26.5758,-56.67622 h 68.49412 v 38.81765"
       style="fill:none;stroke:#000000;stroke-width:0.3985;stroke-linecap:butt;stroke-linejoin:miter;stroke-miterlimit:10;stroke-dasharray:none;stroke-opacity:1"
       transform="matrix(1.3333333,0,0,-1.3333333,106.36533,72.78)" />
    <path
       id="path72"
       d="m 43.16367,-56.67622 c 0,0.68779 -0.55756,1.24534 -1.24535,1.24534 -0.68777,0 -1.24535,-0.55755 -1.24535,-1.24534 0,-0.68778 0.55758,-1.24535 1.24535,-1.24535 0.68779,0 1.24535,0.55757 1.24535,1.24535 z"
       style="fill:#000000;fill-opacity:1;fill-rule:nonzero;stroke:none"
       transform="matrix(1.3333333,0,0,-1.3333333,106.36533,72.78)" />
    <path
       id="path73"
       d="m 43.16367,-56.67622 h 68.49413 v 38.81765"
       style="fill:none;stroke:#000000;stroke-width:0.3985;stroke-linecap:butt;stroke-linejoin:miter;stroke-miterlimit:10;stroke-dasharray:none;stroke-opacity:1"
       transform="matrix(1.3333333,0,0,-1.3333333,106.36533,72.78)" />
    <path
       id="path74"
       d="m 112.90315,-56.67622 c 0,0.68779 -0.55755,1.24534 -1.24535,1.24534 -0.68777,0 -1.24534,-0.55755 -1.24534,-1.24534 0,-0.68778 0.55757,-1.24535 1.24534,-1.24535 0.6878,0 1.24535,0.55757 1.24535,1.24535 z"
       style="fill:#000000;fill-opacity:1;fill-rule:nonzero;stroke:none"
       transform="matrix(1.3333333,0,0,-1.3333333,106.36533,72.78)" />
    <path
       id="path75"
       d="m 112.90315,-56.67622 h 68.49415 v 38.81765"
       style="fill:none;stroke:#000000;stroke-width:0.3985;stroke-linecap:butt;stroke-linejoin:miter;stroke-miterlimit:10;stroke-dasharray:none;stroke-opacity:1"
       transform="matrix(1.3333333,0,0,-1.3333333,106.36533,72.78)" />
  </g>
</svg>
