<?xml version="1.0" encoding="UTF-8" standalone="no"?>
<!-- Created with Inkscape (http://www.inkscape.org/) -->

<svg
   version="1.1"
   id="svg1"
   width="203.46001"
   height="72.425331"
   viewBox="0 0 203.46001 72.425331"
   sodipodi:docname="main.pdf"
   xmlns:inkscape="http://www.inkscape.org/namespaces/inkscape"
   xmlns:sodipodi="http://sodipodi.sourceforge.net/DTD/sodipodi-0.dtd"
   xmlns="http://www.w3.org/2000/svg"
   xmlns:svg="http://www.w3.org/2000/svg">
  <defs
     id="defs1" />
  <sodipodi:namedview
     id="namedview1"
     pagecolor="#ffffff"
     bordercolor="#000000"
     borderopacity="0.25"
     inkscape:showpageshadow="2"
     inkscape:pageopacity="0.0"
     inkscape:pagecheckerboard="0"
     inkscape:deskcolor="#d1d1d1">
    <inkscape:page
       x="0"
       y="0"
       inkscape:label="1"
       id="page1"
       width="203.46001"
       height="72.425331"
       margin="0"
       bleed="0" />
  </sodipodi:namedview>
  <g
     id="g1"
     inkscape:groupmode="layer"
     inkscape:label="1">
    <path
       id="path1"
       d="M 0,0 H 152.595 V 54.319 H 0 Z"
       style="fill:#ffffff;fill-opacity:1;fill-rule:nonzero;stroke:none"
       transform="matrix(1.3333333,0,0,-1.3333333,0,72.425333)" />
    <path
       id="path2"
       d="M -1.19545,7.17317 C 3.92938,7.17317 8.66646,4.43825 11.22887,0 8.66646,-4.43825 3.92938,-7.17317 -1.19545,-7.17317 h -7.17317 c 1.0729,2.27621 1.62498,4.71058 1.62498,7.16554 0,2.45496 -0.55208,4.88933 -1.62498,7.16553 z m -9.5643,-14.34634 0.12325,0.21782 m 0,0 0.1195,0.22023 m 0,0 0.1156,0.22197 m 0,0 0.11165,0.22416 m 0,0 0.10791,0.22591 m 0,0 0.10376,0.22789 m 0,0 0.09982,0.22963 m 0,0 0.09589,0.23138 m 0,0 0.09171,0.23293 m 0,0 0.08779,0.23444 m 0,0 0.08362,0.23597 m 0,0 0.07947,0.23752 m 0,0 0.07509,0.23885 m 0,0 0.07114,0.24014 m 0,0 0.06698,0.24123 m 0,0 0.06282,0.24253 m 0,0 0.05825,0.24344 m 0,0 0.05429,0.24431 m 0,0 0.04991,0.24539 m 0,0 0.04574,0.24628 m 0,0 0.04116,0.24692 m 0,0 0.03698,0.24759 m 0,0 0.03284,0.24824 m 0,0 0.02824,0.2489 m 0,0 0.02387,0.24912 m 0,0 0.01971,0.24956 m 0,0 0.01532,0.24998 m 0,0 0.01094,0.25021 m 0,0 0.00658,0.25022 m 0,0 L -8.83774,0 m 0,0 -0.00218,0.25041 m 0,0 -0.00658,0.25022 m 0,0 -0.01094,0.25021 m 0,0 -0.01532,0.24998 m 0,0 -0.01971,0.24956 m 0,0 -0.02387,0.24912 m 0,0 -0.02824,0.2489 m 0,0 -0.03284,0.24824 m 0,0 -0.03698,0.24759 m 0,0 -0.04116,0.24692 m 0,0 -0.04574,0.24628 m 0,0 -0.04991,0.24539 m 0,0 -0.05429,0.24431 m 0,0 -0.05825,0.24344 m 0,0 -0.06282,0.24253 m 0,0 -0.06698,0.24123 m 0,0 -0.07114,0.24014 m 0,0 -0.07509,0.23885 m 0,0 -0.07947,0.23752 m 0,0 -0.08362,0.23597 m 0,0 -0.08779,0.23444 m 0,0 -0.09171,0.23293 m 0,0 -0.09589,0.23138 m 0,0 -0.09982,0.22963 m 0,0 -0.10376,0.22789 m 0,0 -0.10791,0.22591 m 0,0 -0.11165,0.22416 m 0,0 -0.1156,0.22197 m 0,0 -0.1195,0.22023 m 0,0 -0.12325,0.21782"
       style="fill:none;stroke:#000000;stroke-width:0.3985;stroke-linecap:butt;stroke-linejoin:miter;stroke-miterlimit:10;stroke-dasharray:none;stroke-opacity:1"
       transform="matrix(1.3333333,0,0,-1.3333333,57.476,36.468)" />
    <path
       id="path3"
       d="m 2.391,-9.63748 c 3.96169,0 7.17318,-3.2115 7.17318,-7.17317 0,-3.96169 -3.21149,-7.17319 -7.17318,-7.17319 H -8.36862 v 14.34636 z"
       style="fill:none;stroke:#000000;stroke-width:0.3985;stroke-linecap:butt;stroke-linejoin:miter;stroke-miterlimit:10;stroke-dasharray:none;stroke-opacity:1"
       transform="matrix(1.3333333,0,0,-1.3333333,57.476,36.468)" />
    <path
       id="path4"
       d="M 11.45894,0 H 28.39589"
       style="fill:none;stroke:#000000;stroke-width:0.3985;stroke-linecap:butt;stroke-linejoin:miter;stroke-miterlimit:10;stroke-dasharray:none;stroke-opacity:1"
       transform="matrix(1.3333333,0,0,-1.3333333,57.476,36.468)" />
    <path
       id="path5"
       d="m 39.35489,9.56422 c 3.96168,0 7.17317,-3.21148 7.17317,-7.17317 0,-3.96167 -3.21149,-7.17315 -7.17317,-7.17315 H 28.59525 V 9.56422 Z"
       style="fill:none;stroke:#000000;stroke-width:0.3985;stroke-linecap:butt;stroke-linejoin:miter;stroke-miterlimit:10;stroke-dasharray:none;stroke-opacity:1"
       transform="matrix(1.3333333,0,0,-1.3333333,57.476,36.468)" />
    <path
       id="path6"
       d="m 35.76842,26.3749 c 5.12484,0 9.86192,-2.73493 12.42434,-7.17318 -2.56242,-4.43825 -7.2995,-7.17317 -12.42434,-7.17317 h -7.17317 c 1.0729,2.2762 1.62498,4.71057 1.62498,7.16554 0,2.45496 -0.55208,4.88933 -1.62498,7.16554 z m -9.5643,-14.34635 0.12324,0.2178 m 0,0 0.11951,0.22023 m 0,0 0.1156,0.22197 m 0,0 0.11165,0.22417 m 0,0 0.10791,0.22592 m 0,0 0.10376,0.22788 m 0,0 0.09982,0.22964 m 0,0 0.09589,0.23137 m 0,0 0.0917,0.23293 m 0,0 0.0878,0.23444 m 0,0 0.08362,0.23598 m 0,0 0.07947,0.23752 m 0,0 0.07509,0.23883 m 0,0 0.07113,0.24015 m 0,0 0.06699,0.24122 m 0,0 0.06282,0.24256 m 0,0 0.05824,0.24342 m 0,0 0.05429,0.24431 m 0,0 0.04991,0.24539 m 0,0 0.04575,0.24628 m 0,0 0.04115,0.24691 m 0,0 0.03699,0.24759 m 0,0 0.03284,0.24825 m 0,0 0.02824,0.2489 m 0,0 0.02387,0.24911 m 0,0 0.01971,0.24956 m 0,0 0.01532,0.25 m 0,0 0.01094,0.2502 m 0,0 0.0066,0.25022 m 0,0 0.0022,0.25042 m 0,0 -0.0022,0.25041 m 0,0 -0.0066,0.25022 m 0,0 -0.01094,0.25021 m 0,0 -0.01532,0.25 m 0,0 -0.01971,0.24956 m 0,0 -0.02387,0.24911 m 0,0 -0.02824,0.2489 m 0,0 -0.03284,0.24825 m 0,0 -0.03699,0.24757 m 0,0 -0.04115,0.24694 m 0,0 -0.04575,0.24626 m 0,0 -0.04991,0.24539 m 0,0 -0.05429,0.24431 m 0,0 -0.05824,0.24344 m 0,0 -0.06282,0.24254 m 0,0 -0.06699,0.24122 m 0,0 -0.07113,0.24015 m 0,0 -0.07509,0.23884 m 0,0 -0.07947,0.23752 m 0,0 -0.08362,0.23598 m 0,0 -0.0878,0.23445 m 0,0 -0.0917,0.23292 m 0,0 -0.09589,0.23137 m 0,0 -0.09982,0.22965 m 0,0 -0.10376,0.22787 m 0,0 -0.10791,0.22592 m 0,0 -0.11165,0.22417 m 0,0 -0.1156,0.22195 m 0,0 -0.11951,0.22023 m 0,0 -0.12324,0.21783"
       style="fill:none;stroke:#000000;stroke-width:0.3985;stroke-linecap:butt;stroke-linejoin:miter;stroke-miterlimit:10;stroke-dasharray:none;stroke-opacity:1"
       transform="matrix(1.3333333,0,0,-1.3333333,57.476,36.468)" />
    <path
       id="path7"
       d="M 46.72731,2.39105 H 63.66426"
       style="fill:none;stroke:#000000;stroke-width:0.3985;stroke-linecap:butt;stroke-linejoin:miter;stroke-miterlimit:10;stroke-dasharray:none;stroke-opacity:1"
       transform="matrix(1.3333333,0,0,-1.3333333,57.476,36.468)" />
    <path
       id="path8"
       d="M 69.319,7.17317 C 74.44385,7.17317 79.18092,4.43825 81.74335,0 79.18092,-4.43825 74.44385,-7.17317 69.319,-7.17317 h -7.17317 c 1.25882,2.18034 1.92203,4.65553 1.92203,7.17317 0,2.51764 -0.66321,4.99283 -1.92203,7.17317 z"
       style="fill:none;stroke:#000000;stroke-width:0.3985;stroke-linecap:butt;stroke-linejoin:miter;stroke-miterlimit:10;stroke-dasharray:none;stroke-opacity:1"
       transform="matrix(1.3333333,0,0,-1.3333333,57.476,36.468)" />
    <path
       id="path9"
       d="m 63.66426,-2.39105 h -4.23424 v -14.4196 H 9.76343"
       style="fill:none;stroke:#000000;stroke-width:0.3985;stroke-linecap:butt;stroke-linejoin:miter;stroke-miterlimit:10;stroke-dasharray:none;stroke-opacity:1"
       transform="matrix(1.3333333,0,0,-1.3333333,57.476,36.468)" />
    <path
       id="path10"
       d="M -9.2412,2.39105 H -24.06104"
       style="fill:none;stroke:#000000;stroke-width:0.3985;stroke-linecap:butt;stroke-linejoin:miter;stroke-miterlimit:10;stroke-dasharray:none;stroke-opacity:1"
       transform="matrix(1.3333333,0,0,-1.3333333,57.476,36.468)" />
    <path
       id="path11"
       d="m 3.4326563,-2.2501953 c 0,-0.65625 -0.515625,-1.2539063 -1.6054688,-1.2539063 -0.375,0 -1.1953125,0 -1.1953125,0.6210938 0,0.2109375 0.15234375,0.3867187 0.3867188,0.3867187 0.1523437,0 0.3632812,-0.09375 0.3867187,-0.375 0,-0.070312 0,-0.082031 0.1054688,-0.09375 0.09375,-0.011719 0.2226562,-0.011719 0.3164062,-0.011719 0.65625,0 0.9960938,0.3046875 0.9960938,0.7382812 -0.84375,0 -2.4023438,0.1992188 -2.4023438,1.1835938 0,0.58593749 0.55078125,1.08984374 1.359375,1.08984374 0.6328125,0 1.03125,-0.234375 1.1367188,-0.3046875 0.1640625,0.24609375 0.5039062,0.2695312475 0.8789062,0.2695312475 0.2226563,0 0.421875,0 0.421875,-0.2578124975 0,-0.26953125 -0.2226562,-0.26953125 -0.328125,-0.26953125 -0.3046875,0 -0.375,-0.0234375 -0.4570312,-0.0585938 z m -0.609375,1.1132812 c 0,0.16406254 0,0.35156254 -0.3046875,0.50390629 -0.28125,0.140625 -0.5859375,0.15234375 -0.6914063,0.15234375 -0.46875,0 -0.796875,-0.28125 -0.796875,-0.57421874 0,-0.421875 0.8789063,-0.6679688 1.7929688,-0.6796875 z m 0,0"
       style="fill:#000000;fill-opacity:1;fill-rule:nonzero;stroke:none"
       aria-label="a"
       transform="matrix(1.3333333,0,0,1.3333333,15.72,35.566667)" />
    <path
       id="path12"
       d="M -8.56798,-19.20172 H -23.38782"
       style="fill:none;stroke:#000000;stroke-width:0.3985;stroke-linecap:butt;stroke-linejoin:miter;stroke-miterlimit:10;stroke-dasharray:none;stroke-opacity:1"
       transform="matrix(1.3333333,0,0,-1.3333333,57.476,36.468)" />
    <path
       id="path13"
       d="m 1.3592656,-4.5231328 c 0,-0.2695313 -0.082031,-0.3398438 -0.3398437,-0.3398438 H 0.43348437 c -0.12890625,0 -0.3515625,0 -0.3515625,0.2578125 0,0.2578125 0.22265625,0.2578125 0.3515625,0.2578125 h 0.328125 v 4.00781254 c 0,0.140625 0,0.3398437475 0.29296873,0.3398437475 0.3046875,0 0.3046875,-0.1874999975 0.3046875,-0.3398437475 0.2460938,0.24609375 0.5625,0.375 0.9140625,0.375 0.8789063,0 1.6757813,-0.75 1.6757813,-1.75781254 0,-0.9609375 -0.703125,-1.7460937 -1.59375,-1.7460937 -0.375,0 -0.703125,0.1289062 -0.9960938,0.3515625 z m 0,2.4257812 c 0,-0.4570312 0.46875,-0.8554687 0.9609375,-0.8554687 0.5507813,0 1.03125,0.5507812 1.03125,1.2304687 0,0.72656254 -0.5507812,1.24218754 -1.1015625,1.24218754 -0.5976562,0 -0.890625,-0.66796874 -0.890625,-1.06640624 z m 0,0"
       style="fill:#000000;fill-opacity:1;fill-rule:nonzero;stroke:none"
       aria-label="b"
       transform="matrix(1.3333333,0,0,1.3333333,16.617333,65.316)" />
    <path
       id="path14"
       d="m -9.2412,2.39105 h -4.23423 V -14.4196 h 4.90745"
       style="fill:none;stroke:#000000;stroke-width:0.3985;stroke-linecap:butt;stroke-linejoin:miter;stroke-miterlimit:10;stroke-dasharray:none;stroke-opacity:1"
       transform="matrix(1.3333333,0,0,-1.3333333,57.476,36.468)" />
    <path
       id="path15"
       d="m -12.41687,2.39105 c 0,0.58463 -0.47394,1.05857 -1.05856,1.05857 -0.58463,0 -1.05857,-0.47394 -1.05857,-1.05857 0,-0.58462 0.47394,-1.05856 1.05857,-1.05856 0.58462,0 1.05856,0.47394 1.05856,1.05856 z"
       style="fill:#000000;fill-opacity:1;fill-rule:nonzero;stroke:none"
       transform="matrix(1.3333333,0,0,-1.3333333,57.476,36.468)" />
    <path
       id="path16"
       d="m -8.56798,-19.20172 h -8.46847 v 16.81067 h 7.79525"
       style="fill:none;stroke:#000000;stroke-width:0.3985;stroke-linecap:butt;stroke-linejoin:miter;stroke-miterlimit:10;stroke-dasharray:none;stroke-opacity:1"
       transform="matrix(1.3333333,0,0,-1.3333333,57.476,36.468)" />
    <path
       id="path17"
       d="m -15.97789,-19.20172 c 0,0.58462 -0.47394,1.05856 -1.05856,1.05856 -0.58463,0 -1.05857,-0.47394 -1.05857,-1.05856 0,-0.58463 0.47394,-1.05856 1.05857,-1.05856 0.58462,0 1.05856,0.47393 1.05856,1.05856 z"
       style="fill:#000000;fill-opacity:1;fill-rule:nonzero;stroke:none"
       transform="matrix(1.3333333,0,0,-1.3333333,57.476,36.468)" />
    <path
       id="path18"
       d="M 27.72267,21.59277 H -24.06104"
       style="fill:none;stroke:#000000;stroke-width:0.3985;stroke-linecap:butt;stroke-linejoin:miter;stroke-miterlimit:10;stroke-dasharray:none;stroke-opacity:1"
       transform="matrix(1.3333333,0,0,-1.3333333,57.476,36.468)" />
    <path
       id="path19"
       d="m 3.7502656,-0.85413281 c 0,-0.17578129 -0.140625,-0.25781249 -0.3046875,-0.25781249 -0.1171875,0 -0.2226562,0 -0.2929687,0.18749999 -0.1523438,0.3515625 -0.46875,0.4453125 -0.75,0.4453125 -0.6679688,0 -1.21875,-0.55078129 -1.21875,-1.24218749 0,-0.4101563 0.2460937,-1.2539063 1.265625,-1.2539063 0.2226562,0 0.3632812,0.023437 0.3984375,0.023437 0.023437,0.011719 0.035156,0.023437 0.035156,0.09375 0.023437,0.234375 0.1875,0.3632813 0.3867188,0.3632813 0.234375,0 0.3867187,-0.1757813 0.3867187,-0.3867188 0,-0.6210937 -0.8320312,-0.6210937 -1.1953125,-0.6210937 -1.4179687,0 -1.88671872,1.1015625 -1.88671872,1.78125 0,0.96093749 0.76171872,1.75781249 1.78125002,1.75781249 1.1367187,0 1.3945312,-0.76171875 1.3945314,-0.8906245 z M 6.7531953,-4.4400703 c 0,-0.2460938 -0.1875,-0.4335938 -0.4335937,-0.4335938 -0.234375,0 -0.4335938,0.1875 -0.4335938,0.4335938 0,0.234375 0.1992188,0.421875 0.4335938,0.421875 0.2460937,0 0.4335937,-0.1875 0.4335937,-0.421875 z m -1.4765625,1.0078125 c -0.1171875,0 -0.3515625,0 -0.3515625,0.2578125 0,0.2695312 0.2460938,0.2695312 0.3515625,0.2695312 h 0.8671875 v 2.37890629 H 5.2180391 c -0.1289063,0 -0.3515625,0 -0.3515625,0.26953125 0,0.2578125 0.234375,0.2578125 0.3515625,0.2578125 h 2.34375 c 0.1054687,0 0.3398437,0 0.3398437,-0.2578125 0,-0.26953125 -0.234375,-0.26953125 -0.3398437,-0.26953125 H 6.7531953 V -3.0924141 c 0,-0.2695312 -0.082031,-0.3398437 -0.3398437,-0.3398437 z m 6.6621092,1.1132812 c 0,-0.796875 -0.398437,-1.1484375 -1.054687,-1.1484375 -0.585938,0 -0.9726566,0.3164063 -1.0546878,0.3984375 0,-0.2460937 -0.023437,-0.3632812 -0.3398438,-0.3632812 H 8.9035859 c -0.1289062,0 -0.3515625,0 -0.3515625,0.2578125 0,0.2695312 0.2226563,0.2695312 0.3515625,0.2695312 h 0.328125 v 2.37890629 h -0.328125 c -0.1289062,0 -0.3515625,0 -0.3515625,0.26953125 0,0.2578125 0.2226563,0.2578125 0.3515625,0.2578125 h 1.2539061 c 0.128906,0 0.339844,0 0.339844,-0.2578125 0,-0.26953125 -0.210938,-0.26953125 -0.339844,-0.26953125 H 9.8293672 V -1.8971016 c 0,-0.7617187 0.6210938,-1.0546875 1.0195308,-1.0546875 0.363282,0 0.480469,0.1757813 0.480469,0.6445313 v 1.78124999 h -0.257812 c -0.128907,0 -0.351563,0 -0.351563,0.26953125 0,0.2578125 0.222656,0.2578125 0.351563,0.2578125 h 1.195312 c 0.128906,0 0.339844,0 0.339844,-0.2578125 0,-0.26953125 -0.210938,-0.26953125 -0.339844,-0.26953125 h -0.328125 z m 0,0"
       style="fill:#000000;fill-opacity:1;fill-rule:nonzero;stroke:none"
       aria-label="cin"
       transform="matrix(1.3333333,0,0,1.3333333,4.4293333,10.924)" />
    <path
       id="path20"
       d="M 27.72267,21.59277 H 23.48843 V 4.7821 h 4.90746"
       style="fill:none;stroke:#000000;stroke-width:0.3985;stroke-linecap:butt;stroke-linejoin:miter;stroke-miterlimit:10;stroke-dasharray:none;stroke-opacity:1"
       transform="matrix(1.3333333,0,0,-1.3333333,57.476,36.468)" />
    <path
       id="path21"
       d="m 24.547,21.59277 c 0,0.58463 -0.47394,1.05857 -1.05857,1.05857 -0.58462,0 -1.05856,-0.47394 -1.05856,-1.05857 0,-0.58462 0.47394,-1.05856 1.05856,-1.05856 0.58463,0 1.05857,0.47394 1.05857,1.05856 z"
       style="fill:#000000;fill-opacity:1;fill-rule:nonzero;stroke:none"
       transform="matrix(1.3333333,0,0,-1.3333333,57.476,36.468)" />
    <path
       id="path22"
       d="m 28.39589,0 h -8.46848 v 16.81065 h 7.79526"
       style="fill:none;stroke:#000000;stroke-width:0.3985;stroke-linecap:butt;stroke-linejoin:miter;stroke-miterlimit:10;stroke-dasharray:none;stroke-opacity:1"
       transform="matrix(1.3333333,0,0,-1.3333333,57.476,36.468)" />
    <path
       id="path23"
       d="m 20.98598,0 c 0,0.58461 -0.47394,1.05855 -1.05857,1.05855 -0.58462,0 -1.05856,-0.47394 -1.05856,-1.05855 0,-0.58461 0.47394,-1.05855 1.05856,-1.05855 0.58463,0 1.05857,0.47394 1.05857,1.05855 z"
       style="fill:#000000;fill-opacity:1;fill-rule:nonzero;stroke:none"
       transform="matrix(1.3333333,0,0,-1.3333333,57.476,36.468)" />
    <path
       id="path24"
       d="m 81.9734,0 h 4.23424"
       style="fill:none;stroke:#000000;stroke-width:0.3985;stroke-linecap:butt;stroke-linejoin:miter;stroke-miterlimit:10;stroke-dasharray:none;stroke-opacity:1"
       transform="matrix(1.3333333,0,0,-1.3333333,57.476,36.468)" />
    <path
       id="path25"
       d="m 3.7489844,-0.85485156 c 0,-0.17578124 -0.140625,-0.25781254 -0.3046875,-0.25781254 -0.1171875,0 -0.2226563,0 -0.2929688,0.18750004 -0.1523437,0.3515625 -0.46875,0.4453125 -0.75,0.4453125 -0.6679687,0 -1.21875,-0.55078124 -1.21875,-1.24218754 0,-0.4101562 0.2460938,-1.2539062 1.265625,-1.2539062 0.2226563,0 0.3632813,0.023437 0.3984375,0.023437 0.023437,0.011719 0.035156,0.023437 0.035156,0.09375 0.023437,0.234375 0.1875,0.3632812 0.3867187,0.3632812 0.234375,0 0.3867188,-0.1757812 0.3867188,-0.3867187 0,-0.6210938 -0.8320313,-0.6210938 -1.1953125,-0.6210938 -1.4179688,0 -1.88671877,1.1015625 -1.88671877,1.78125 0,0.96093754 0.76171877,1.75781254 1.78124997,1.75781254 1.1367188,0 1.3945313,-0.76171875 1.3945316,-0.8906245 z M 8.0204688,-1.7220391 c 0,-0.9726562 -0.75,-1.78125 -1.6757813,-1.78125 -0.9257812,0 -1.6757812,0.8085938 -1.6757812,1.78125 0,0.99609379 0.7734375,1.75781254 1.6757812,1.75781254 0.9140625,0 1.6757813,-0.76171875 1.6757813,-1.75781254 z m -1.6757813,1.24218754 c -0.5742187,0 -1.0664062,-0.57421874 -1.0664062,-1.30078124 0,-0.6914063 0.5039062,-1.1953125 1.0664062,-1.1953125 0.5625,0 1.0664063,0.5039062 1.0664063,1.1953125 0,0.7265625 -0.4921875,1.30078124 -1.0664063,1.30078124 z M 11.937461,-3.0931328 c 0,-0.2695313 -0.08203,-0.3398438 -0.339844,-0.3398438 h -0.597656 c -0.128906,0 -0.339844,0 -0.339844,0.2578125 0,0.2695313 0.210938,0.2695313 0.339844,0.2695313 h 0.328125 v 1.6757812 c 0,0.62109379 -0.585938,0.75000004 -0.878906,0.75000004 -0.6210941,0 -0.6210941,-0.234375 -0.6210941,-0.46875 V -3.0931328 c 0,-0.2695313 -0.082031,-0.3398438 -0.3398437,-0.3398438 H 8.9023047 c -0.1289063,0 -0.3515625,0 -0.3515625,0.2578125 0,0.2695313 0.2226562,0.2695313 0.3515625,0.2695313 h 0.328125 v 1.98046874 c 0,0.73828125 0.4921875,0.9609375 1.1718753,0.9609375 0.421875,0 0.714843,-0.1171875 0.914062,-0.26953125 0.04687,0.2343749975 0.234375,0.2343749975 0.351563,0.2343749975 h 0.597656 c 0.128906,0 0.339844,0 0.339844,-0.2578124975 0,-0.26953125 -0.210938,-0.26953125 -0.339844,-0.26953125 h -0.328125 z m 2.581055,0.1875 h 1.277343 c 0.117188,0 0.339844,0 0.339844,-0.2695313 0,-0.2578125 -0.222656,-0.2578125 -0.339844,-0.2578125 h -1.277343 v -0.6328125 c 0,-0.1523437 0,-0.3515625 -0.304688,-0.3515625 -0.304687,0 -0.304687,0.1992188 -0.304687,0.3515625 v 0.6328125 h -0.65625 c -0.117188,0 -0.351563,0 -0.351563,0.2578125 0,0.2695313 0.222656,0.2695313 0.339844,0.2695313 h 0.667969 v 1.8164062 c 0,0.85546879 0.609375,1.12500004 1.171875,1.12500004 0.714843,0 1.242187,-0.4921875 1.242187,-1.06640624 0,-0.28125 -0.234375,-0.28125 -0.304687,-0.28125 -0.210938,0 -0.292969,0.082031 -0.304688,0.28125 -0.01172,0.32812499 -0.304687,0.55078124 -0.609375,0.55078124 -0.585937,0 -0.585937,-0.4453125 -0.585937,-0.63281254 z m 0,0"
       style="fill:#000000;fill-opacity:1;fill-rule:nonzero;stroke:none"
       aria-label="cout"
       transform="matrix(1.3333333,0,0,1.3333333,176.44667,39.409333)" />
    <path
       id="path26"
       d="M 48.42282,19.20172 H 86.20764"
       style="fill:none;stroke:#000000;stroke-width:0.3985;stroke-linecap:butt;stroke-linejoin:miter;stroke-miterlimit:10;stroke-dasharray:none;stroke-opacity:1"
       transform="matrix(1.3333333,0,0,-1.3333333,57.476,36.468)" />
    <path
       id="path27"
       d="m 3.4442969,-3.1530859 c 0,-0.1171875 0,-0.3515625 -0.2578125,-0.3515625 -0.1875,0 -0.2226563,0.1054687 -0.2460938,0.1523437 -0.328125,-0.1523437 -0.6445312,-0.1523437 -0.8320312,-0.1523437 -1.34765627,0 -1.52343752,0.6796875 -1.52343752,0.9492187 0,0.75 0.83203122,0.8789063 1.53515622,0.984375 0.4335938,0.070312 1.0429688,0.1640625 1.0429688,0.5625 0,0.28125001 -0.3046875,0.52734376 -0.9960938,0.52734376 -0.4921875,0 -0.8085937,-0.17578125 -0.984375,-0.65624996 -0.035156,-0.1171875 -0.070312,-0.2226563 -0.30468747,-0.2226563 -0.29296875,0 -0.29296875,0.1992188 -0.29296875,0.3515625 v 0.70312501 c 0,0.1171875 0,0.33984375 0.2578125,0.33984375 0.0820313,0 0.22265622,-0.0234375 0.30468752,-0.2578125 0.4101562,0.2578125 0.8554687,0.2578125 1.0078125,0.2578125 1.359375,0 1.5351562,-0.75 1.5351562,-1.04296876 0,-0.1875 -0.070312,-0.46875 -0.3632812,-0.703125 -0.328125,-0.2460937 -0.6328125,-0.2929687 -1.1953125,-0.3867187 -0.5390625,-0.082031 -1.0195313,-0.1640625 -1.0195313,-0.4570313 0,-0.1523437 0.1875,-0.421875 0.984375,-0.421875 0.7148438,0 0.7382813,0.2578125 0.75,0.3984375 0.011719,0.2578125 0.2109375,0.2578125 0.3046875,0.2578125 0.2929688,0 0.2929688,-0.1875 0.2929688,-0.3398437 z m 4.2597656,0.058594 c 0,-0.2695312 -0.082031,-0.3398437 -0.3398437,-0.3398437 H 6.7665625 c -0.1289062,0 -0.3398437,0 -0.3398437,0.2578125 0,0.2695312 0.2109375,0.2695312 0.3398437,0.2695312 h 0.328125 v 1.6757813 c 0,0.62109371 -0.5859375,0.74999996 -0.8789062,0.74999996 -0.6210938,0 -0.6210938,-0.234375 -0.6210938,-0.46875 V -3.0944922 c 0,-0.2695312 -0.082031,-0.3398437 -0.3398437,-0.3398437 H 4.6689063 c -0.1289063,0 -0.3515625,0 -0.3515625,0.2578125 0,0.2695312 0.2226562,0.2695312 0.3515625,0.2695312 h 0.328125 v 1.98046876 c 0,0.73828125 0.4921875,0.9609375 1.171875,0.9609375 0.421875,0 0.7148437,-0.1171875 0.9140625,-0.26953125 0.046875,0.2343750025 0.234375,0.2343750025 0.3515625,0.2343750025 h 0.5976562 c 0.1289063,0 0.3398438,0 0.3398438,-0.2578125025 0,-0.26953125 -0.2109375,-0.26953125 -0.3398438,-0.26953125 h -0.328125 z m 4.4677735,0.6914063 c 0,-0.1757813 0,-1.0664063 -0.714844,-1.0664063 -0.257812,0 -0.585937,0.1171875 -0.796875,0.3867188 -0.152344,-0.2929688 -0.375,-0.3867188 -0.609375,-0.3867188 -0.1640623,0 -0.4218748,0.046875 -0.6679686,0.2578125 -0.058594,-0.2226562 -0.234375,-0.2226562 -0.3515625,-0.2226562 H 8.7733984 c -0.1171875,0 -0.3398437,0 -0.3398437,0.2578125 0,0.2695312 0.1875,0.2695312 0.4453125,0.2695312 v 2.37890626 c -0.2578125,0 -0.4453125,0 -0.4453125,0.26953125 0,0.2578125025 0.2226562,0.2578125025 0.3398437,0.2578125025 h 0.703125 c 0.1171875,0 0.3398438,0 0.3398438,-0.2578125025 0,-0.26953125 -0.1875,-0.26953125 -0.4453125,-0.26953125 V -1.9226172 c 0,-0.65625 0.3398437,-1.03125 0.6562503,-1.03125 0.175781,0 0.246093,0.1875 0.246093,0.5976563 v 1.82812496 c -0.07031,0 -0.3046871,0 -0.3046871,0.26953125 0,0.2578125025 0.2226561,0.2578125025 0.3398441,0.2578125025 h 0.5625 c 0.128906,0 0.351562,0 0.351562,-0.2578125025 0,-0.26953125 -0.199219,-0.26953125 -0.445312,-0.26953125 V -1.9226172 c 0,-0.65625 0.339843,-1.03125 0.65625,-1.03125 0.164062,0 0.246093,0.1875 0.246093,0.5976563 v 1.82812496 c -0.08203,0 -0.304687,0 -0.304687,0.26953125 0,0.2578125025 0.222656,0.2578125025 0.339844,0.2578125025 h 0.5625 c 0.117187,0 0.339843,0 0.339843,-0.2578125025 0,-0.26953125 -0.1875,-0.26953125 -0.445312,-0.26953125 z m 0,0"
       style="fill:#000000;fill-opacity:1;fill-rule:nonzero;stroke:none"
       aria-label="sum"
       transform="matrix(1.3333333,0,0,1.3333333,176.44667,13.153333)" />
    <path
       id="path28"
       d="m 2.3306953,-1.7687734 0.890625,-1.1367188 h 0.2929688 c 0.1054687,0 0.3515625,0 0.3515625,-0.2695312 0,-0.2578125 -0.2460938,-0.2578125 -0.3515625,-0.2578125 H 2.5885078 c -0.1171875,0 -0.3398437,0 -0.3398437,0.2578125 0,0.2695312 0.2109375,0.2695312 0.375,0.2695312 L 2.0846016,-2.1906484 1.5455391,-2.9054922 c 0.1289062,0 0.3632812,0 0.3632812,-0.2695312 0,-0.2578125 -0.234375,-0.2578125 -0.3515625,-0.2578125 H 0.63147656 c -0.10546875,0 -0.3515625,0 -0.3515625,0.2578125 0,0.2695312 0.24609375,0.2695312 0.3515625,0.2695312 h 0.3046875 L 1.8502266,-1.7687734 0.87757031,-0.52658594 H 0.58460156 c -0.1171875,0 -0.3515625,0 -0.3515625,0.26953125 0,0.2578125025 0.24609375,0.2578125025 0.3515625,0.2578125025 H 1.5103828 c 0.1171875,0 0.3398438,0 0.3398438,-0.2578125025 0,-0.26953125 -0.2226563,-0.26953125 -0.3984375,-0.26953125 l 0.6328125,-0.90234376 0.65625,0.90234376 c -0.1640625,0 -0.3867188,0 -0.3867188,0.26953125 0,0.2578125025 0.2226563,0.2578125025 0.3515625,0.2578125025 h 0.9140625 c 0.1171875,0 0.3515625,0 0.3515625,-0.2578125025 0,-0.26953125 -0.234375,-0.26953125 -0.3515625,-0.26953125 H 3.3267891 Z m 0,0"
       style="fill:#000000;fill-opacity:1;fill-rule:nonzero;stroke:none"
       aria-label="x"
       transform="matrix(1.3333333,0,0,1.3333333,75.576,44.401333)" />
    <path
       id="path29"
       d="m 3.4573359,-2.9066406 c 0.140625,0 0.3515625,0 0.3984375,-0.023437 0.09375,-0.023437 0.1640625,-0.09375 0.1640625,-0.2460938 0,-0.2578125 -0.2226562,-0.2578125 -0.3632812,-0.2578125 H 2.7776484 c -0.140625,0 -0.375,0 -0.375,0.2578125 0,0.023437 0.011719,0.1757813 0.1523438,0.2460938 0.046875,0.023437 0.2460937,0.023437 0.3867187,0.023437 -0.09375,0.2578125 -0.28125,0.8320312 -0.4101562,1.1953125 -0.1171875,0.3632812 -0.2929688,0.89062497 -0.3398438,1.08984372 h -0.011719 c -0.023437,-0.1171875 -0.070312,-0.2578125 -0.3984375,-1.11328122 l -0.4570313,-1.171875 c 0.1171875,0 0.3046875,0 0.3515625,-0.023437 0.082031,-0.023437 0.1523438,-0.1054688 0.1523438,-0.2460938 0,-0.2578125 -0.2226563,-0.2578125 -0.3632813,-0.2578125 H 0.58624219 c -0.140625,0 -0.375,0 -0.375,0.2578125 0,0.046875 0.0234375,0.1992188 0.17578125,0.2460938 0.046875,0.023437 0.26953125,0.023437 0.3984375,0.023437 l 1.12499996,2.80078122 c 0.023437,0.0703125 0.023437,0.09375 0.023437,0.105468755 0,0.023437495 -0.1992187,0.656249995 -0.28125,0.808593745 C 1.5237422,1.0777344 1.3128047,1.2535156 1.0198359,1.2769531 l 0.070312,-0.140625 C 1.0784297,0.87851562 0.91436719,0.76132812 0.71514844,0.76132812 c -0.2109375,0 -0.375,0.140625 -0.375,0.37499998 0,0.3164063 0.2578125,0.6679688 0.66796876,0.6679688 0.6328125,0 1.0429687,-0.609375 1.2304687,-1.14843753 z m 0,0"
       style="fill:#000000;fill-opacity:1;fill-rule:nonzero;stroke:none"
       aria-label="y"
       transform="matrix(1.3333333,0,0,1.3333333,73.316,65.633333)" />
    <path
       id="path30"
       d="m 3.6808594,-2.8582422 c 0.1171875,-0.1171875 0.1171875,-0.1757812 0.1171875,-0.28125 0,-0.2929687 -0.1992188,-0.2929687 -0.3398438,-0.2929687 H 0.75117188 c -0.24609375,0 -0.3515625,0.046875 -0.3515625,0.3398437 v 0.375 c 0,0.1523438 0,0.3398438 0.3046875,0.3398438 0.30468752,0 0.30468752,-0.1875 0.30468752,-0.3398438 v -0.1875 h 1.875 l -2.49609377,2.33203126 c -0.12890625,0.1171875 -0.12890625,0.17578125 -0.12890625,0.28125 0,0.29296875 0.19921875,0.29296875 0.3515625,0.29296875 H 3.4816406 c 0.2695313,0 0.3398438,-0.05859375 0.3398438,-0.33984375 v -0.46875 c 0,-0.15234375 0,-0.33984376 -0.2929688,-0.33984376 -0.3046875,0 -0.3046875,0.18750001 -0.3046875,0.33984376 v 0.28125 H 1.1847656 Z m 0,0"
       style="fill:#000000;fill-opacity:1;fill-rule:nonzero;stroke:none"
       aria-label="z"
       transform="matrix(1.3333333,0,0,1.3333333,122.6,41.213333)" />
  </g>
</svg>
