<?xml version="1.0" encoding="UTF-8" standalone="no"?>
<!-- Created with Inkscape (http://www.inkscape.org/) -->

<svg
   version="1.1"
   id="svg1"
   width="389.11469"
   height="179.092"
   viewBox="0 0 389.11469 179.092"
   sodipodi:docname="main.pdf"
   xmlns:inkscape="http://www.inkscape.org/namespaces/inkscape"
   xmlns:sodipodi="http://sodipodi.sourceforge.net/DTD/sodipodi-0.dtd"
   xmlns="http://www.w3.org/2000/svg"
   xmlns:svg="http://www.w3.org/2000/svg">
  <defs
     id="defs1" />
  <sodipodi:namedview
     id="namedview1"
     pagecolor="#ffffff"
     bordercolor="#000000"
     borderopacity="0.25"
     inkscape:showpageshadow="2"
     inkscape:pageopacity="0.0"
     inkscape:pagecheckerboard="0"
     inkscape:deskcolor="#d1d1d1">
    <inkscape:page
       x="0"
       y="0"
       inkscape:label="1"
       id="page1"
       width="389.11469"
       height="179.092"
       margin="0"
       bleed="0" />
  </sodipodi:namedview>
  <g
     id="g1"
     inkscape:groupmode="layer"
     inkscape:label="1">
    <path
       id="path1"
       d="M 0,0 H 291.836 V 134.319 H 0 Z"
       style="fill:#ffffff;fill-opacity:1;fill-rule:nonzero;stroke:none"
       transform="matrix(1.3333333,0,0,-1.3333333,0,179.092)" />
    <path
       id="path2"
       d="M -2.3909,14.34634 C 7.85878,14.34634 17.33292,8.8765 22.45775,0 17.33292,-8.8765 7.85878,-14.34634 -2.3909,-14.34634 h -14.34634 c 2.14581,4.55241 3.24997,9.42115 3.24997,14.33108 0,4.90993 -1.10416,9.77866 -3.24997,14.33107 z m -19.12862,-28.69268 0.24649,0.43562 m 0,0 0.23903,0.44047 m 0,0 0.23119,0.44393 m 0,0 0.2233,0.44833 m 0,0 0.21583,0.45183 m 0,0 0.20751,0.45576 m 0,0 0.19966,0.45928 m 0,0 0.19175,0.46275 m 0,0 0.18343,0.46585 m 0,0 0.17558,0.46889 m 0,0 0.16725,0.47196 m 0,0 0.15893,0.47503 m 0,0 0.15017,0.47768 m 0,0 0.14229,0.48028 m 0,0 0.13396,0.48246 m 0,0 0.12565,0.48509 m 0,0 0.11649,0.48686 m 0,0 0.10857,0.48863 m 0,0 0.09982,0.49077 m 0,0 0.09151,0.49255 m 0,0 0.0823,0.49386 m 0,0 0.07398,0.49516 m 0,0 0.06567,0.49649 m 0,0 0.05649,0.4978 m 0,0 0.04773,0.49823 m 0,0 0.03941,0.49912 m 0,0 0.03064,0.49998 m 0,0 0.02189,0.50043 m 0,0 0.01314,0.50041 m 0,0 L -17.67549,0 m 0,0 -0.0044,0.50084 m 0,0 -0.01314,0.50041 m 0,0 -0.02189,0.50043 m 0,0 -0.03064,0.49998 m 0,0 -0.03941,0.49912 m 0,0 -0.04773,0.49823 m 0,0 -0.05649,0.4978 m 0,0 -0.06567,0.49649 m 0,0 -0.07398,0.49516 m 0,0 -0.0823,0.49386 m 0,0 -0.09151,0.49255 m 0,0 -0.09982,0.49077 m 0,0 -0.10857,0.48863 m 0,0 -0.11649,0.48686 m 0,0 -0.12565,0.48509 m 0,0 -0.13396,0.48246 m 0,0 -0.14229,0.48028 m 0,0 -0.15017,0.47768 m 0,0 -0.15893,0.47503 m 0,0 -0.16725,0.47196 m 0,0 -0.17558,0.46889 m 0,0 -0.18343,0.46585 m 0,0 -0.19175,0.46275 m 0,0 -0.19966,0.45928 m 0,0 -0.20751,0.45576 m 0,0 -0.21583,0.45183 m 0,0 -0.2233,0.44833 m 0,0 -0.23119,0.44393 m 0,0 -0.23903,0.44047 m 0,0 -0.24649,0.43562"
       style="fill:none;stroke:#000000;stroke-width:0.3985;stroke-linecap:butt;stroke-linejoin:miter;stroke-miterlimit:10;stroke-dasharray:none;stroke-opacity:1"
       transform="matrix(1.3333333,0,0,-1.3333333,105.048,92.734667)" />
    <path
       id="path3"
       d="m 4.78201,-18.55257 c 7.92337,0 14.34636,-6.42299 14.34636,-14.34634 0,-7.92337 -6.42299,-14.34636 -14.34636,-14.34636 h -21.51925 v 28.6927 z"
       style="fill:none;stroke:#000000;stroke-width:0.3985;stroke-linecap:butt;stroke-linejoin:miter;stroke-miterlimit:10;stroke-dasharray:none;stroke-opacity:1"
       transform="matrix(1.3333333,0,0,-1.3333333,105.048,92.734667)" />
    <path
       id="path4"
       d="M 22.9179,0 H 58.03624"
       style="fill:none;stroke:#000000;stroke-width:0.3985;stroke-linecap:butt;stroke-linejoin:miter;stroke-miterlimit:10;stroke-dasharray:none;stroke-opacity:1"
       transform="matrix(1.3333333,0,0,-1.3333333,105.048,92.734667)" />
    <path
       id="path5"
       d="m 79.95424,19.12846 c 7.92336,0 14.34634,-6.42299 14.34634,-14.34636 0,-7.92334 -6.42298,-14.34632 -14.34634,-14.34632 H 58.43495 v 28.69268 z"
       style="fill:none;stroke:#000000;stroke-width:0.3985;stroke-linecap:butt;stroke-linejoin:miter;stroke-miterlimit:10;stroke-dasharray:none;stroke-opacity:1"
       transform="matrix(1.3333333,0,0,-1.3333333,105.048,92.734667)" />
    <path
       id="path6"
       d="m 72.7813,52.02737 c 10.24969,0 19.72384,-5.46984 24.84867,-14.34634 C 92.50514,28.80453 83.03099,23.33469 72.7813,23.33469 H 58.43495 c 2.14583,4.55241 3.24997,9.42114 3.24997,14.33108 0,4.90993 -1.10414,9.77867 -3.24997,14.33109 z m -19.12862,-28.69268 0.24649,0.43562 m 0,0 0.23903,0.44046 m 0,0 0.2312,0.44393 m 0,0 0.22328,0.44833 m 0,0 0.21584,0.45184 m 0,0 0.2075,0.45575 m 0,0 0.19968,0.45929 m 0,0 0.19176,0.46274 m 0,0 0.18342,0.46585 m 0,0 0.17558,0.46889 m 0,0 0.16726,0.47197 m 0,0 0.15892,0.47503 m 0,0 0.15016,0.47768 m 0,0 0.14229,0.48028 m 0,0 0.13395,0.48245 m 0,0 0.12567,0.4851 m 0,0 0.11647,0.48686 m 0,0 0.10857,0.48862 m 0,0 0.09982,0.49078 m 0,0 0.09153,0.49254 m 0,0 0.08229,0.49385 m 0,0 0.07397,0.49516 m 0,0 0.06568,0.49649 m 0,0 0.05648,0.4978 m 0,0 0.04775,0.49824 m 0,0 0.0394,0.49911 m 0,0 0.03065,0.5 m 0,0 0.02188,0.50041 m 0,0 0.01314,0.50043 m 0,0 0.0044,0.50084 m 0,0 -0.0044,0.50084 m 0,0 -0.01314,0.50043 m 0,0 -0.02188,0.50041 m 0,0 -0.03065,0.5 m 0,0 -0.0394,0.4991 m 0,0 -0.04775,0.49823 m 0,0 -0.05648,0.49782 m 0,0 -0.06568,0.49649 m 0,0 -0.07397,0.49516 m 0,0 -0.08229,0.49385 m 0,0 -0.09153,0.49254 m 0,0 -0.09982,0.49078 m 0,0 -0.10857,0.48862 m 0,0 -0.11647,0.48686 m 0,0 -0.12567,0.48509 m 0,0 -0.13395,0.48245 m 0,0 -0.14229,0.48029 m 0,0 -0.15016,0.47768 m 0,0 -0.15892,0.47503 m 0,0 -0.16726,0.47196 m 0,0 -0.17558,0.4689 m 0,0 -0.18342,0.46585 m 0,0 -0.19176,0.46274 m 0,0 -0.19968,0.45929 m 0,0 -0.2075,0.45575 m 0,0 -0.21584,0.45183 m 0,0 -0.22328,0.44835 m 0,0 -0.2312,0.44392 m 0,0 -0.23903,0.44046 m 0,0 -0.24649,0.43562"
       style="fill:none;stroke:#000000;stroke-width:0.3985;stroke-linecap:butt;stroke-linejoin:miter;stroke-miterlimit:10;stroke-dasharray:none;stroke-opacity:1"
       transform="matrix(1.3333333,0,0,-1.3333333,105.048,92.734667)" />
    <path
       id="path7"
       d="m 94.6991,4.7821 h 35.11834"
       style="fill:none;stroke:#000000;stroke-width:0.3985;stroke-linecap:butt;stroke-linejoin:miter;stroke-miterlimit:10;stroke-dasharray:none;stroke-opacity:1"
       transform="matrix(1.3333333,0,0,-1.3333333,105.048,92.734667)" />
    <path
       id="path8"
       d="m 141.12692,14.34634 c 10.2497,0 19.72383,-5.46984 24.84867,-14.34634 -5.12484,-8.8765 -14.59897,-14.34634 -24.84867,-14.34634 h -14.34636 c 2.51764,4.36068 3.84404,9.31106 3.84404,14.34634 0,5.03528 -1.3264,9.98566 -3.84404,14.34634 z"
       style="fill:none;stroke:#000000;stroke-width:0.3985;stroke-linecap:butt;stroke-linejoin:miter;stroke-miterlimit:10;stroke-dasharray:none;stroke-opacity:1"
       transform="matrix(1.3333333,0,0,-1.3333333,105.048,92.734667)" />
    <path
       id="path9"
       d="m 129.81744,-4.7821 h -7.02366 V -32.89891 H 19.52687"
       style="fill:none;stroke:#000000;stroke-width:0.3985;stroke-linecap:butt;stroke-linejoin:miter;stroke-miterlimit:10;stroke-dasharray:none;stroke-opacity:1"
       transform="matrix(1.3333333,0,0,-1.3333333,105.048,92.734667)" />
    <path
       id="path10"
       d="M -18.4824,4.7821 H -46.57709"
       style="fill:none;stroke:#000000;stroke-width:0.3985;stroke-linecap:butt;stroke-linejoin:miter;stroke-miterlimit:10;stroke-dasharray:none;stroke-opacity:1"
       transform="matrix(1.3333333,0,0,-1.3333333,105.048,92.734667)" />
    <path
       id="path11"
       d="M 4.4172812,-8.448875 C 4.3000937,-8.9645 4.0188437,-8.9645 3.6907187,-8.9645 c -0.4453125,0 -0.6210937,0.058594 -0.7265625,0.515625 L 1.194625,-0.8316875 c -0.48046875,0 -0.80859375,0 -0.80859375,0.421875 0,0.41015625 0.38671875,0.41015625 0.5859375,0.41015625 H 2.3547812 c 0.1992188,0 0.5859375,0 0.5859375,-0.41015625 0,-0.421875 -0.3398437,-0.421875 -0.7851562,-0.421875 L 2.5188437,-2.4371562 H 4.850875 l 0.375,1.6054687 c -0.4453125,0 -0.796875,0 -0.796875,0.421875 0,0.41015625 0.3867187,0.41015625 0.5859375,0.41015625 H 6.39775 c 0.1992187,0 0.5859375,0 0.5859375,-0.41015625 0,-0.421875 -0.328125,-0.421875 -0.796875,-0.421875 z m -1.7109375,5.1796875 c 0.1054688,-0.4335937 0.890625,-3.8203125 0.9609375,-4.5 h 0.023437 c 0.035156,0.328125 0.234375,1.1953125 0.234375,1.21875 l 0.7382813,3.28125 z m 0,0"
       style="fill:#000000;fill-opacity:1;fill-rule:nonzero;stroke:none"
       aria-label="A"
       transform="matrix(1.3333333,0,0,1.3333333,26.594667,92.202667)" />
    <path
       id="path12"
       d="M -17.13597,-37.68103 H -45.23065"
       style="fill:none;stroke:#000000;stroke-width:0.3985;stroke-linecap:butt;stroke-linejoin:miter;stroke-miterlimit:10;stroke-dasharray:none;stroke-opacity:1"
       transform="matrix(1.3333333,0,0,-1.3333333,105.048,92.734667)" />
    <path
       id="path13"
       d="m 0.9491875,-8.7653906 c -0.19921875,0 -0.57421875,0 -0.57421875,0.421875 0,0.4101562 0.38671875,0.4101562 0.5859375,0.4101562 H 1.30075 v 7.10156253 H 0.96090625 c -0.19921875,0 -0.5859375,0 -0.5859375,0.421875 0,0.410156245 0.38671875,0.410156245 0.57421875,0.410156245 H 4.347625 c 1.59375,0 2.4375,-1.265624975 2.4375,-2.390624975 0,-1.0195313 -0.703125,-1.9570313 -1.8398438,-2.203125 0.7148438,-0.2226563 1.5351563,-0.9140625 1.5351563,-1.9453125 0,-1.0429688 -0.84375,-2.2265625 -2.4257813,-2.2265625 z M 2.23825,-4.9802344 v -2.953125 H 4.0195 c 1.1835937,0 1.5351562,0.890625 1.5351562,1.40625 0,0.6796875 -0.5625,1.546875 -1.7695312,1.546875 z m 0,4.14843753 V -4.1482031 h 1.875 c 1.453125,0 1.734375,1.2421875 1.734375,1.7226562 0,0.703125 -0.5390625,1.59375003 -1.8164063,1.59375003 z m 0,0"
       style="fill:#000000;fill-opacity:1;fill-rule:nonzero;stroke:none"
       aria-label="B"
       transform="matrix(1.3333333,0,0,1.3333333,28.390667,148.82)" />
    <path
       id="path14"
       d="m -18.4824,4.7821 h -7.02367 v -32.89889 h 8.3701"
       style="fill:none;stroke:#000000;stroke-width:0.3985;stroke-linecap:butt;stroke-linejoin:miter;stroke-miterlimit:10;stroke-dasharray:none;stroke-opacity:1"
       transform="matrix(1.3333333,0,0,-1.3333333,105.048,92.734667)" />
    <path
       id="path15"
       d="m -23.75017,4.7821 c 0,0.96978 -0.78613,1.75591 -1.7559,1.75591 -0.96976,0 -1.75591,-0.78613 -1.75591,-1.75591 0,-0.96975 0.78615,-1.7559 1.75591,-1.7559 0.96977,0 1.7559,0.78615 1.7559,1.7559 z"
       style="fill:#000000;fill-opacity:1;fill-rule:nonzero;stroke:none"
       transform="matrix(1.3333333,0,0,-1.3333333,105.048,92.734667)" />
    <path
       id="path16"
       d="M -17.13597,-37.68103 H -31.1833 V -4.7821 h 12.7009"
       style="fill:none;stroke:#000000;stroke-width:0.3985;stroke-linecap:butt;stroke-linejoin:miter;stroke-miterlimit:10;stroke-dasharray:none;stroke-opacity:1"
       transform="matrix(1.3333333,0,0,-1.3333333,105.048,92.734667)" />
    <path
       id="path17"
       d="m -29.4274,-37.68103 c 0,0.96977 -0.78615,1.7559 -1.7559,1.7559 -0.96978,0 -1.75591,-0.78613 -1.75591,-1.7559 0,-0.96976 0.78613,-1.75591 1.75591,-1.75591 0.96975,0 1.7559,0.78615 1.7559,1.75591 z"
       style="fill:#000000;fill-opacity:1;fill-rule:nonzero;stroke:none"
       transform="matrix(1.3333333,0,0,-1.3333333,105.048,92.734667)" />
    <path
       id="path18"
       d="M 56.68979,42.46315 H -46.57709"
       style="fill:none;stroke:#000000;stroke-width:0.3985;stroke-linecap:butt;stroke-linejoin:miter;stroke-miterlimit:10;stroke-dasharray:none;stroke-opacity:1"
       transform="matrix(1.3333333,0,0,-1.3333333,105.048,92.734667)" />
    <path
       id="path19"
       d="m 6.7974922,-8.3919219 c 0,-0.234375 0,-0.5507812 -0.3984375,-0.5507812 -0.2578125,0 -0.328125,0.1640625 -0.3867188,0.2578125 -0.046875,0.1171875 -0.1640625,0.375 -0.1992187,0.4804687 -0.5859375,-0.515625 -1.2539063,-0.7382812 -1.8515625,-0.7382812 -1.8515625,0 -3.38671876,1.9804687 -3.38671876,4.546875 0,2.625 1.58203126,4.57031248 3.38671876,4.57031248 1.6757812,0 2.8359375,-1.33593748 2.8359375,-2.60156248 0,-0.4453125 -0.3046875,-0.4453125 -0.46875,-0.4453125 -0.1992188,0 -0.4335938,0.070312 -0.4570313,0.3164062 -0.1171875,1.79296878 -1.5703125,1.89843753 -1.8164062,1.89843753 -1.3242188,0 -2.5429688,-1.57031253 -2.5429688,-3.73828123 0,-2.15625 1.2304688,-3.7148438 2.53125,-3.7148438 0.7734375,0 1.6171875,0.6210938 1.828125,1.9453125 0.035156,0.3164063 0.1640625,0.3984375 0.4570313,0.3984375 0.46875,0 0.46875,-0.2578125 0.46875,-0.5507812 z m 4.9218748,0.2578125 c 0,-0.3632812 -0.292969,-0.6445312 -0.644531,-0.6445312 -0.363281,0 -0.65625,0.28125 -0.65625,0.6445312 0,0.3632813 0.292969,0.6445313 0.65625,0.6445313 0.351562,0 0.644531,-0.28125 0.644531,-0.6445313 z m -2.4726561,1.9453125 c -0.1992187,0 -0.5742187,0 -0.5742187,0.421875 0,0.4101563 0.375,0.4101563 0.5742187,0.4101563 h 1.5351561 v 4.52343748 H 9.1529609 c -0.2109375,0 -0.5976562,0 -0.5976562,0.421875 0,0.41015625 0.3867187,0.41015625 0.5976562,0.41015625 h 3.9843751 c 0.199219,0 0.574219,0 0.574219,-0.41015625 0,-0.421875 -0.375,-0.421875 -0.574219,-0.421875 H 11.719367 V -5.5911406 c 0,-0.4453125 -0.09375,-0.5976563 -0.574219,-0.5976563 z m 11.5195311,1.9804688 c 0,-1.40625 -0.667969,-2.0625 -1.839844,-2.0625 -0.972656,0 -1.605468,0.5507812 -1.851562,0.8203125 0,-0.5273438 0,-0.7382813 -0.574219,-0.7382813 h -0.949219 c -0.199218,0 -0.574218,0 -0.574218,0.421875 0,0.4101563 0.375,0.4101563 0.574218,0.4101563 h 0.597657 v 4.52343748 h -0.597657 c -0.199218,0 -0.574218,0 -0.574218,0.421875 0,0.41015625 0.375,0.41015625 0.574218,0.41015625 h 2.109375 c 0.199219,0 0.574219,0 0.574219,-0.41015625 0,-0.421875 -0.375,-0.421875 -0.574219,-0.421875 H 17.074836 V -3.4348906 c 0,-1.3828125 0.972656,-2.0039063 1.746094,-2.0039063 0.832031,0 1.007812,0.46875 1.007812,1.2890625 v 3.31640628 h -0.585937 c -0.199219,0 -0.574219,0 -0.574219,0.421875 0,0.41015625 0.375,0.41015625 0.574219,0.41015625 h 2.109375 c 0.199218,0 0.574218,0 0.574218,-0.41015625 0,-0.421875 -0.375,-0.421875 -0.574218,-0.421875 h -0.585938 z m 0,0"
       style="fill:#000000;fill-opacity:1;fill-rule:nonzero;stroke:none"
       aria-label="Cin"
       transform="matrix(1.3333333,0,0,1.3333333,6.9093333,41.962667)" />
    <path
       id="path20"
       d="M 56.68979,42.46315 H 49.66614 V 9.56422 h 8.3701"
       style="fill:none;stroke:#000000;stroke-width:0.3985;stroke-linecap:butt;stroke-linejoin:miter;stroke-miterlimit:10;stroke-dasharray:none;stroke-opacity:1"
       transform="matrix(1.3333333,0,0,-1.3333333,105.048,92.734667)" />
    <path
       id="path21"
       d="m 51.42204,42.46315 c 0,0.96975 -0.78614,1.75591 -1.7559,1.75591 -0.96977,0 -1.75591,-0.78616 -1.75591,-1.75591 0,-0.96977 0.78614,-1.75591 1.75591,-1.75591 0.96976,0 1.7559,0.78614 1.7559,1.75591 z"
       style="fill:#000000;fill-opacity:1;fill-rule:nonzero;stroke:none"
       transform="matrix(1.3333333,0,0,-1.3333333,105.048,92.734667)" />
    <path
       id="path22"
       d="M 58.03624,0 H 43.98889 v 32.89891 h 12.7009"
       style="fill:none;stroke:#000000;stroke-width:0.3985;stroke-linecap:butt;stroke-linejoin:miter;stroke-miterlimit:10;stroke-dasharray:none;stroke-opacity:1"
       transform="matrix(1.3333333,0,0,-1.3333333,105.048,92.734667)" />
    <path
       id="path23"
       d="m 45.7448,0 c 0,0.96976 -0.78614,1.75589 -1.75591,1.75589 -0.96976,0 -1.7559,-0.78613 -1.7559,-1.75589 0,-0.96976 0.78614,-1.75589 1.7559,-1.75589 0.96977,0 1.75591,0.78613 1.75591,1.75589 z"
       style="fill:#000000;fill-opacity:1;fill-rule:nonzero;stroke:none"
       transform="matrix(1.3333333,0,0,-1.3333333,105.048,92.734667)" />
    <path
       id="path24"
       d="m 166.43571,0 h 7.02367"
       style="fill:none;stroke:#000000;stroke-width:0.3985;stroke-linecap:butt;stroke-linejoin:miter;stroke-miterlimit:10;stroke-dasharray:none;stroke-opacity:1"
       transform="matrix(1.3333333,0,0,-1.3333333,105.048,92.734667)" />
    <path
       id="path25"
       d="m 6.7958984,-8.3910312 c 0,-0.234375 0,-0.5507813 -0.3984375,-0.5507813 -0.2578125,0 -0.328125,0.1640625 -0.3867187,0.2578125 -0.046875,0.1171875 -0.1640625,0.375 -0.1992188,0.4804688 -0.5859375,-0.515625 -1.2539062,-0.7382813 -1.8515625,-0.7382813 -1.8515625,0 -3.38671871,1.9804688 -3.38671871,4.546875 0,2.625 1.58203121,4.5703125 3.38671871,4.5703125 1.6757813,0 2.8359375,-1.3359375 2.8359375,-2.6015625 0,-0.4453125 -0.3046875,-0.4453125 -0.46875,-0.4453125 -0.1992187,0 -0.4335937,0.070312 -0.4570312,0.3164063 -0.1171875,1.7929687 -1.5703125,1.89843745 -1.8164063,1.89843745 -1.3242187,0 -2.5429687,-1.57031245 -2.5429687,-3.73828125 0,-2.15625 1.2304687,-3.7148437 2.53125,-3.7148437 0.7734375,0 1.6171875,0.6210937 1.828125,1.9453125 0.035156,0.3164062 0.1640625,0.3984375 0.4570312,0.3984375 0.46875,0 0.46875,-0.2578125 0.46875,-0.5507813 z m 7.1249996,5.296875 c 0,-1.7929688 -1.300781,-3.2226563 -2.847656,-3.2226563 -1.5585936,0 -2.8593748,1.4296875 -2.8593748,3.2226563 0,1.8046875 1.3242187,3.1757812 2.8593748,3.1757812 1.535156,0 2.847656,-1.3710937 2.847656,-3.1757812 z m -2.847656,2.34374995 c -1.042969,0 -1.9218748,-1.08984375 -1.9218748,-2.44921875 0,-1.3359375 0.9140628,-2.2851562 1.9218748,-2.2851562 0.996094,0 1.921875,0.9492187 1.921875,2.2851562 0,1.3828125 -0.890625,2.44921875 -1.921875,2.44921875 z M 20.764648,-5.59025 c 0,-0.4453125 -0.09375,-0.5976562 -0.574218,-0.5976562 h -0.949219 c -0.199219,0 -0.574219,0 -0.574219,0.421875 0,0.4101562 0.375,0.4101562 0.574219,0.4101562 h 0.585937 v 3.1171875 c 0,1.171875 -0.972656,1.48828125 -1.617187,1.48828125 -1.136719,0 -1.136719,-0.51562495 -1.136719,-0.96093745 V -5.59025 c 0,-0.4453125 -0.08203,-0.5976562 -0.574219,-0.5976562 h -0.949218 c -0.199219,0 -0.574219,0 -0.574219,0.421875 0,0.4101562 0.375,0.4101562 0.574219,0.4101562 h 0.597656 v 3.7148438 c 0,1.3242187 0.855469,1.7226562 1.957031,1.7226562 0.878906,0 1.417969,-0.3515625 1.710938,-0.59765625 0,0.515625 0.339843,0.515625 0.585937,0.515625 h 0.949219 c 0.199219,0 0.574219,0 0.574219,-0.41015625 0,-0.421875 -0.375,-0.421875 -0.574219,-0.421875 h -0.585938 z m 4.476563,0.234375 h 2.332031 c 0.199219,0 0.574219,0 0.574219,-0.4101562 0,-0.421875 -0.375,-0.421875 -0.574219,-0.421875 h -2.332031 v -1.171875 c 0,-0.2578125 0,-0.5859375 -0.457031,-0.5859375 -0.46875,0 -0.46875,0.328125 -0.46875,0.5859375 v 1.171875 h -1.21875 c -0.199219,0 -0.585938,0 -0.585938,0.421875 0,0.4101562 0.363281,0.4101562 0.574219,0.4101562 h 1.230469 v 3.6210938 c 0,1.33593745 0.914062,1.8164062 1.945312,1.8164062 0.773438,0 2.203125,-0.38671875 2.203125,-1.8515625 0,-0.28125 0,-0.5976562 -0.480469,-0.5976562 -0.457031,0 -0.457031,0.3164062 -0.457031,0.6210937 -0.01172,0.85546875 -0.832031,0.99609375 -1.160156,0.99609375 -1.125,0 -1.125,-0.71484375 -1.125,-1.05468745 z m 0,0"
       style="fill:#000000;fill-opacity:1;fill-rule:nonzero;stroke:none"
       aria-label="Cout"
       transform="matrix(1.3333333,0,0,1.3333333,342.83333,98.578667)" />
    <path
       id="path26"
       d="m 98.0901,37.68103 h 75.36928"
       style="fill:none;stroke:#000000;stroke-width:0.3985;stroke-linecap:butt;stroke-linejoin:miter;stroke-miterlimit:10;stroke-dasharray:none;stroke-opacity:1"
       transform="matrix(1.3333333,0,0,-1.3333333,105.048,92.734667)" />
    <path
       id="path27"
       d="m 6.2685547,-8.3897422 c 0,-0.234375 0,-0.5507812 -0.3984375,-0.5507812 -0.3046875,0 -0.3398438,0.1171875 -0.5039063,0.7265625 -0.703125,-0.6210938 -1.5234375,-0.7265625 -2.0273437,-0.7265625 -1.5234375,0 -2.61328126,1.0898437 -2.61328126,2.3554687 0,0.84375 0.50390626,1.40625 0.59765626,1.4882813 0.5976562,0.609375 0.84375,0.6679687 2.34375,1.0195312 1.078125,0.2460938 1.3242187,0.3046875 1.6875,0.703125 0.2578125,0.3164063 0.3984375,0.6796875 0.3984375,1.078125 0,0.7734375 -0.6210938,1.64062501 -1.7578125,1.64062501 -1.2304688,0 -2.2617188,-0.53906251 -2.3320313,-1.79296871 -0.011719,-0.2226563 -0.023437,-0.4570313 -0.4570312,-0.4570313 -0.48046876,0 -0.48046876,0.2695313 -0.48046876,0.5507813 v 1.98046871 c 0,0.234375 0,0.55078125 0.41015626,0.55078125 0.2929687,0 0.328125,-0.1171875 0.5039062,-0.7265625 0.7851563,0.62109375 1.7695313,0.7265625 2.3554688,0.7265625 1.6289062,0 2.6484375,-1.25390626 2.6484375,-2.53124996 0,-0.9960938 -0.6210938,-1.6289063 -0.6679688,-1.6875 -0.5742187,-0.5859375 -0.84375,-0.6445313 -2.2851562,-0.9960938 -0.3398438,-0.082031 -0.890625,-0.2109375 -1.0078125,-0.234375 -0.5859375,-0.2226562 -1.0664063,-0.7265625 -1.0664063,-1.3710937 0,-0.7617188 0.7265625,-1.4648438 1.7109375,-1.4648438 1.078125,0 1.8046875,0.5742188 1.9921875,1.7929688 0.046875,0.28125 0.070312,0.46875 0.46875,0.46875 0.4804688,0 0.4804688,-0.2578125 0.4804688,-0.5507813 z m 0,0"
       style="fill:#000000;fill-opacity:1;fill-rule:nonzero;stroke:none"
       aria-label="S"
       transform="matrix(1.3333333,0,0,1.3333333,342.83333,48.338667)" />
    <path
       id="path28"
       d="m 14.04735,11.64522 h -42.14203 c -3.87911,0 -7.02367,-3.14455 -7.02367,-7.02365 v -42.14203 c 0,-3.87911 3.14456,-7.02367 7.02367,-7.02367 h 42.14203 c 3.8791,0 7.02366,3.14456 7.02366,7.02367 V 4.62157 c 0,3.8791 -3.14456,7.02365 -7.02366,7.02365 z"
       style="fill:none;stroke:#808080;stroke-width:0.3985;stroke-linecap:butt;stroke-linejoin:miter;stroke-miterlimit:10;stroke-dasharray:2.98883, 2.98883;stroke-dashoffset:0;stroke-opacity:1"
       transform="matrix(1.3333333,0,0,-1.3333333,105.048,92.734667)" />
    <path
       id="path29"
       d="m 6.0811094,-4.3118047 c 0,-0.8789062 -0.1875,-2.203125 -1.921875,-2.203125 -0.984375,0 -1.6523438,0.5625 -1.9921875,0.9960938 V -9.9485234 H 1.1006406 V 6.953125e-4 H 2.1904844 V -3.5735234 c 0,-0.890625 0.328125,-2.0742188 1.4179687,-2.0742188 1.3359375,0 1.3828125,0.9257813 1.3828125,1.4296875 V 6.953125e-4 h 1.0898438 z m 6.7382816,0.1054688 c 0,-1.3710938 -0.996094,-2.3789063 -2.332032,-2.3789063 -0.8554684,0 -1.4999996,0.1992188 -2.2031246,0.609375 l 0.082031,0.9375 c 0.6328125,-0.4570312 1.2890625,-0.7148437 2.1210936,-0.7148437 0.667969,0 1.242188,0.5273437 1.242188,1.5820312 v 0.5859375 c -0.65625,0.023437 -1.511719,0.070312 -2.3671878,0.3632813 -0.9609375,0.328125 -1.5234375,0.8554687 -1.5234375,1.5703125 0,0.6328125 0.375,1.79296871 1.59375,1.79296871 0.7851563,0 1.7929693,-0.22265625 2.3203123,-0.66796875 V 6.953125e-4 h 1.066407 z m -1.089844,2.2851562 c 0,0.28125 0,0.6328125 -0.480469,0.9140625 -0.386719,0.24609376 -0.867187,0.29296876 -1.089844,0.29296876 -0.7734371,0 -1.3007809,-0.42187496 -1.3007809,-0.94921876 0,-0.9726562 1.9921879,-1.1953125 2.8710939,-1.1953125 z M 16.10943,-9.9485234 H 15.043023 V 6.953125e-4 h 1.066407 z m 3.609375,4.4179687 h 1.535156 v -0.8320312 h -1.570313 v -1.7226563 c 0,-0.984375 0.820313,-1.1484375 1.289063,-1.1484375 0.503906,0 0.949219,0.1523438 1.125,0.2226563 v -0.9375 c -0.105469,-0.035156 -0.574219,-0.1523436 -1.101563,-0.1523436 -1.371093,0 -2.34375,1.0546873 -2.34375,2.4374998 v 1.3007813 H 17.60943 v 0.8320312 h 1.042968 V 6.953125e-4 h 1.066407 z m 12.096679,1.3242188 c 0,-1.3710938 -0.996093,-2.3789063 -2.332031,-2.3789063 -0.855469,0 -1.5,0.1992188 -2.203125,0.609375 l 0.08203,0.9375 c 0.632813,-0.4570312 1.289063,-0.7148437 2.121094,-0.7148437 0.667969,0 1.242188,0.5273437 1.242188,1.5820312 v 0.5859375 c -0.65625,0.023437 -1.511719,0.070312 -2.367188,0.3632813 -0.960937,0.328125 -1.523437,0.8554687 -1.523437,1.5703125 0,0.6328125 0.375,1.79296871 1.59375,1.79296871 0.785156,0 1.792968,-0.22265625 2.320312,-0.66796875 V 6.953125e-4 h 1.066406 z m -1.089843,2.2851562 c 0,0.28125 0,0.6328125 -0.480469,0.9140625 -0.386719,0.24609376 -0.867188,0.29296876 -1.089844,0.29296876 -0.773437,0 -1.300781,-0.42187496 -1.300781,-0.94921876 0,-0.9726562 1.992187,-1.1953125 2.871094,-1.1953125 z m 8.273437,-8.0273437 h -1.066406 v 4.1835937 c -0.65625,-0.5507812 -1.40625,-0.75 -2.015625,-0.75 -1.371094,0 -2.484375,1.4648438 -2.484375,3.328125 0,1.8515625 1.054687,3.32812501 2.425781,3.32812501 0.527344,0 1.335938,-0.1640625 2.050781,-0.8671875 V 6.953125e-4 h 1.089844 z m -1.089844,8.2617187 c -0.351562,0.609375 -0.84375,0.97265626 -1.476562,0.97265626 -0.878906,0 -1.910156,-0.67968746 -1.910156,-2.46093746 0,-1.8984375 1.21875,-2.4726563 2.050781,-2.4726563 0.5625,0 1.019531,0.28125 1.335937,0.7617188 z m 8.293946,-8.2617187 h -1.066407 v 4.1835937 c -0.65625,-0.5507812 -1.40625,-0.75 -2.015625,-0.75 -1.371093,0 -2.484375,1.4648438 -2.484375,3.328125 0,1.8515625 1.054688,3.32812501 2.425782,3.32812501 0.527343,0 1.335937,-0.1640625 2.050781,-0.8671875 V 6.953125e-4 h 1.089844 z m -1.089844,8.2617187 c -0.351563,0.609375 -0.84375,0.97265626 -1.476563,0.97265626 -0.878906,0 -1.910156,-0.67968746 -1.910156,-2.46093746 0,-1.8984375 1.21875,-2.4726563 2.050781,-2.4726563 0.5625,0 1.019532,0.28125 1.335938,0.7617188 z m 8.077148,-1.5351562 c 0,-0.6210938 -0.05859,-1.5 -0.515625,-2.2617188 -0.585937,-0.984375 -1.59375,-1.1015625 -2.003906,-1.1015625 -1.546875,0 -2.847656,1.4882813 -2.847656,3.3632813 0,1.8867187 1.382812,3.36328121 3.046875,3.36328121 0.65625,0 1.453125,-0.1875 2.238281,-0.76171875 0,-0.0585938 -0.04687,-0.49218746 -0.04687,-0.52734376 -0.01172,-0.011719 -0.04687,-0.328125 -0.04687,-0.3867187 -0.84375,0.71484371 -1.6875,0.82031246 -2.121094,0.82031246 -1.101562,0 -2.050781,-0.99609376 -2.074218,-2.50781246 z m -4.289062,-0.7734375 c 0.246094,-0.9726563 0.925781,-1.7226563 1.769531,-1.7226563 0.445313,0 1.429688,0.1992188 1.675781,1.7226563 z m 6.861328,0.8554687 c 0,-1.453125 1.089844,-2.390625 2.378906,-2.4140625 v -0.9609375 c -1.300781,0.023437 -2.0625,0.7734375 -2.449218,1.3359375 v -1.265625 H 54.696344 V 6.953125e-4 h 1.066406 z m 0,0"
       style="fill:#808080;fill-opacity:1;fill-rule:nonzero;stroke:none"
       aria-label="halfadder"
       transform="matrix(1.3333333,0,0,1.3333333,56.774667,172.18267)" />
    <path
       id="path30"
       d="M 89.21956,49.32625 H 47.07751 c -3.8791,0 -7.02366,-3.14456 -7.02366,-7.02367 V 0.16054 c 0,-3.87909 3.14456,-7.02365 7.02366,-7.02365 h 42.14205 c 3.8791,0 7.02365,3.14456 7.02365,7.02365 v 42.14204 c 0,3.87911 -3.14455,7.02367 -7.02365,7.02367 z"
       style="fill:none;stroke:#808080;stroke-width:0.3985;stroke-linecap:butt;stroke-linejoin:miter;stroke-miterlimit:10;stroke-dasharray:2.98883, 2.98883;stroke-dashoffset:0;stroke-opacity:1"
       transform="matrix(1.3333333,0,0,-1.3333333,105.048,92.734667)" />
    <path
       id="path31"
       d="m 6.0829609,-4.3139453 c 0,-0.8789063 -0.1875,-2.203125 -1.921875,-2.203125 -0.984375,0 -1.6523437,0.5625 -1.9921875,0.9960937 V -9.9506641 H 1.1024922 v 9.94921879 H 2.1923359 V -3.5756641 c 0,-0.890625 0.328125,-2.0742187 1.4179688,-2.0742187 1.3359375,0 1.3828125,0.9257812 1.3828125,1.4296875 v 4.21874999 h 1.0898437 z m 6.7353511,0.1054687 c 0,-1.3710937 -0.996093,-2.3789062 -2.332031,-2.3789062 -0.8554685,0 -1.4999998,0.1992187 -2.2031248,0.609375 l 0.082031,0.9375 C 8.998,-5.4975391 9.65425,-5.7553516 10.486281,-5.7553516 c 0.667969,0 1.242188,0.5273438 1.242188,1.5820313 v 0.5859375 c -0.65625,0.023437 -1.511719,0.070312 -2.3671878,0.3632812 -0.9609375,0.328125 -1.5234375,0.8554688 -1.5234375,1.5703125 0,0.6328125 0.375,1.79296879 1.59375,1.79296879 0.7851563,0 1.7929683,-0.22265625 2.3203123,-0.66796875 v 0.52734375 h 1.066406 z m -1.089843,2.2851563 c 0,0.28125 0,0.6328125 -0.480469,0.9140625 -0.386719,0.24609374 -0.867188,0.29296874 -1.089844,0.29296874 -0.7734373,0 -1.300781,-0.42187504 -1.300781,-0.94921874 0,-0.9726563 1.992187,-1.1953125 2.871094,-1.1953125 z m 4.382812,-8.0273438 h -1.066406 v 9.94921879 h 1.066406 z m 3.606446,4.4179688 h 1.535156 V -6.3647266 H 19.68257 v -1.7226562 c 0,-0.984375 0.820313,-1.1484375 1.289063,-1.1484375 0.503906,0 0.949219,0.1523437 1.125,0.2226562 v -0.9375 c -0.105469,-0.035156 -0.574219,-0.1523439 -1.101563,-0.1523439 -1.371093,0 -2.34375,1.0546877 -2.34375,2.4375002 v 1.3007812 h -1.042968 v 0.8320313 h 1.042968 v 5.53124999 h 1.066407 z m 12.099609,1.3242187 c 0,-1.3710937 -0.996094,-2.3789062 -2.332031,-2.3789062 -0.855469,0 -1.5,0.1992187 -2.203125,0.609375 l 0.08203,0.9375 c 0.632812,-0.4570313 1.289062,-0.7148438 2.121094,-0.7148438 0.667968,0 1.242187,0.5273438 1.242187,1.5820313 v 0.5859375 c -0.65625,0.023437 -1.511719,0.070312 -2.367187,0.3632812 -0.960938,0.328125 -1.523438,0.8554688 -1.523438,1.5703125 0,0.6328125 0.375,1.79296879 1.59375,1.79296879 0.785156,0 1.792969,-0.22265625 2.320313,-0.66796875 v 0.52734375 h 1.066406 z m -1.089844,2.2851563 c 0,0.28125 0,0.6328125 -0.480469,0.9140625 -0.386718,0.24609374 -0.867187,0.29296874 -1.089843,0.29296874 -0.773438,0 -1.300782,-0.42187504 -1.300782,-0.94921874 0,-0.9726563 1.992188,-1.1953125 2.871094,-1.1953125 z M 38.998,-9.9506641 h -1.066406 v 4.1835938 c -0.65625,-0.5507813 -1.40625,-0.75 -2.015625,-0.75 -1.371094,0 -2.484375,1.4648437 -2.484375,3.328125 0,1.8515625 1.054687,3.32812499 2.425781,3.32812499 0.527344,0 1.335937,-0.1640625 2.050781,-0.8671875 v 0.7265625 H 38.998 Z m -1.089844,8.2617188 c -0.351562,0.609375 -0.84375,0.97265624 -1.476562,0.97265624 -0.878907,0 -1.910157,-0.67968754 -1.910157,-2.46093754 0,-1.8984375 1.21875,-2.4726562 2.050782,-2.4726562 0.5625,0 1.019531,0.28125 1.335937,0.7617187 z m 8.308594,-8.2617188 h -1.066406 v 4.1835938 c -0.65625,-0.5507813 -1.40625,-0.75 -2.015625,-0.75 -1.371094,0 -2.484375,1.4648437 -2.484375,3.328125 0,1.8515625 1.054687,3.32812499 2.425781,3.32812499 0.527344,0 1.335937,-0.1640625 2.050781,-0.8671875 v 0.7265625 h 1.089844 z m -1.089844,8.2617188 c -0.351562,0.609375 -0.84375,0.97265624 -1.476562,0.97265624 -0.878907,0 -1.910157,-0.67968754 -1.910157,-2.46093754 0,-1.8984375 1.21875,-2.4726562 2.050782,-2.4726562 0.5625,0 1.019531,0.28125 1.335937,0.7617187 z m 8.0625,-1.5351563 c 0,-0.6210937 -0.05859,-1.5 -0.515625,-2.2617187 -0.585937,-0.984375 -1.59375,-1.1015625 -2.003906,-1.1015625 -1.546875,0 -2.847656,1.4882812 -2.847656,3.3632812 0,1.8867188 1.382812,3.36328129 3.046875,3.36328129 0.65625,0 1.453125,-0.1875 2.238281,-0.76171875 0,-0.0585938 -0.04687,-0.49218754 -0.04687,-0.52734374 -0.01172,-0.011719 -0.04687,-0.328125 -0.04687,-0.3867188 -0.84375,0.71484379 -1.6875,0.82031254 -2.121094,0.82031254 -1.101562,0 -2.050781,-0.99609374 -2.074219,-2.50781254 z m -4.289062,-0.7734375 c 0.246093,-0.9726562 0.925781,-1.7226562 1.769531,-1.7226562 0.445312,0 1.429687,0.1992187 1.675781,1.7226562 z m 6.861328,0.8554688 c 0,-1.453125 1.089844,-2.390625 2.378906,-2.4140625 v -0.9609375 c -1.300781,0.023437 -2.0625,0.7734375 -2.449219,1.3359375 v -1.265625 h -0.996093 v 6.44531249 h 1.066406 z m 0,0"
       style="fill:#808080;fill-opacity:1;fill-rule:nonzero;stroke:none"
       aria-label="halfadder"
       transform="matrix(1.3333333,0,0,1.3333333,157.00267,20.193333)" />
  </g>
</svg>
