<?xml version="1.0" encoding="UTF-8" standalone="no"?>
<!-- Created with Inkscape (http://www.inkscape.org/) -->

<svg
   version="1.1"
   id="svg1"
   width="167.63867"
   height="135.21733"
   viewBox="0 0 167.63867 135.21733"
   sodipodi:docname="main.pdf"
   xmlns:inkscape="http://www.inkscape.org/namespaces/inkscape"
   xmlns:sodipodi="http://sodipodi.sourceforge.net/DTD/sodipodi-0.dtd"
   xmlns="http://www.w3.org/2000/svg"
   xmlns:svg="http://www.w3.org/2000/svg">
  <defs
     id="defs1" />
  <sodipodi:namedview
     id="namedview1"
     pagecolor="#ffffff"
     bordercolor="#000000"
     borderopacity="0.25"
     inkscape:showpageshadow="2"
     inkscape:pageopacity="0.0"
     inkscape:pagecheckerboard="0"
     inkscape:deskcolor="#d1d1d1">
    <inkscape:page
       x="0"
       y="0"
       inkscape:label="1"
       id="page1"
       width="167.63867"
       height="135.21733"
       margin="0"
       bleed="0" />
  </sodipodi:namedview>
  <g
     id="g1"
     inkscape:groupmode="layer"
     inkscape:label="1">
    <path
       id="path1"
       d="M 0,0 H 125.729 V 101.413 H 0 Z"
       style="fill:#ffffff;fill-opacity:1;fill-rule:nonzero;stroke:none"
       transform="matrix(1.3333333,0,0,-1.3333333,0,135.21733)" />
    <path
       id="path2"
       d="M 14.28682,21.43051 H -14.28682 V -21.43051 H 14.28682 Z"
       style="fill:none;stroke:#000000;stroke-width:0.797;stroke-linecap:butt;stroke-linejoin:miter;stroke-miterlimit:10;stroke-dasharray:none;stroke-opacity:1"
       transform="matrix(1.3333333,0,0,-1.3333333,56.561333,54.436)" />
    <path
       id="path3"
       d="m -14.28682,-11.42963 2.85736,-2.85736 -2.85736,-2.85737"
       style="fill:none;stroke:#000000;stroke-width:0.3985;stroke-linecap:butt;stroke-linejoin:miter;stroke-miterlimit:10;stroke-dasharray:none;stroke-opacity:1"
       transform="matrix(1.3333333,0,0,-1.3333333,56.561333,54.436)" />
    <path
       id="path4"
       d="M 0,0 H 13.449"
       style="fill:none;stroke:#000000;stroke-width:0.574;stroke-linecap:butt;stroke-linejoin:miter;stroke-miterlimit:10;stroke-dasharray:none;stroke-opacity:1"
       transform="matrix(0.8,0,0,-0.8,41.258933,51.1008)" />
    <path
       id="path5"
       d="m 5.8384427,-3.2219141 c 0,-0.625 -0.058594,-1.5039062 -0.5078125,-2.265625 -0.5859375,-0.9765625 -1.6015625,-1.09375 -2.0117187,-1.09375 -1.5625,0 -2.85156254,1.484375 -2.85156254,3.359375 0,1.8945313 1.38671874,3.35937504 3.04687504,3.35937504 0.6640625,0 1.4453125,-0.17578125 2.2460937,-0.76171875 0,-0.0585938 -0.039063,-0.48828129 -0.039063,-0.52734379 -0.019531,-0.019531 -0.058594,-0.3320312 -0.058594,-0.390625 -0.8398438,0.72265629 -1.6796875,0.82031254 -2.109375,0.82031254 -1.1132813,0 -2.0703125,-0.97656254 -2.0898438,-2.50000004 z m -4.296875,-0.78125 c 0.2539063,-0.9570312 0.9179688,-1.71875 1.7773438,-1.71875 0.4492187,0 1.4257812,0.1953125 1.6796875,1.71875 z m 10.7958983,-0.3125 c 0,-0.8789062 -0.195312,-2.2070312 -1.933594,-2.2070312 -0.8007809,0 -1.4843746,0.3710937 -2.0312496,1.0546875 V -6.4445703 H 7.3569974 V 7.421875e-4 H 8.4312161 V -3.5734766 c 0,-0.8984375 0.3320313,-2.0898437 1.4257813,-2.0898437 1.3476566,0 1.3867186,0.9375 1.3867186,1.4453125 V 7.421875e-4 h 1.09375 z m 0,0"
       style="fill:#000000;fill-opacity:1;fill-rule:nonzero;stroke:none"
       aria-label="en"
       transform="matrix(0.8,0,0,0.8,41.258933,57.808)" />
    <path
       id="path6"
       d="m 1.3071927,-9.9620052 v 9.96093749 H 4.998599 c 2.4023437,0 4.3164062,-2.16796879 4.3164062,-4.90234379 0,-2.7929687 -1.9140625,-5.0585937 -4.3164062,-5.0585937 z m 1.2109375,9.16015624 V -9.161224 h 2.1484375 c 1.9140625,0 3.4375,1.6601563 3.4375,4.2578125 0,2.6171875 -1.5820312,4.10156254 -3.4375,4.10156254 z m 0,0"
       style="fill:#000000;fill-opacity:1;fill-rule:nonzero;stroke:none"
       aria-label="D"
       transform="matrix(0.8,0,0,0.8,41.258933,38.758667)" />
    <path
       id="path7"
       d="m 7.4981068,-0.46981771 c 1.40625,-1.15234379 2.0703125,-2.71484379 2.0703125,-4.49218749 0,-3.0273438 -2.0703125,-5.3124998 -4.3945313,-5.3124998 -2.3828125,0 -4.39453123,2.3242185 -4.39453123,5.3124998 0,3.0078125 2.03125003,5.25390624 4.39453123,5.25390624 0.6054688,0 1.1523438,-0.15625 1.3476563,-0.234375 L 7.7129505,1.7958073 H 9.1777943 Z M 5.9746693,-0.72372396 c -0.2734375,0.0976563 -0.390625,0.13671875 -0.8007813,0.13671875 -1.6601562,0 -3.203125,-1.69921879 -3.203125,-4.37499999 0,-2.7148438 1.5820313,-4.4140625 3.203125,-4.4140625 1.6796875,0 3.203125,1.7382812 3.203125,4.4140625 0,1.8554687 -0.7226562,3.0859375 -1.4648437,3.6914062 L 5.798888,-2.7940365 h -1.25 z m 0,0"
       style="fill:#000000;fill-opacity:1;fill-rule:nonzero;stroke:none"
       aria-label="Q"
       transform="matrix(0.8,0,0,0.8,63.575733,38.758667)" />
    <path
       id="path8"
       d="M 0,0 H 14.617"
       style="fill:none;stroke:#000000;stroke-width:0.319;stroke-linecap:butt;stroke-linejoin:miter;stroke-miterlimit:10;stroke-dasharray:none;stroke-opacity:1"
       transform="matrix(0.8,0,0,-0.8,50.714933,75.217867)" />
    <path
       id="path9"
       d="m 5.2537943,-0.15829427 c -0.3125,-0.0195313 -0.46875,-0.0976563 -0.703125,-0.37109375 L 2.9100443,-2.5411068 c 0.546875,-0.097656 0.78125,-0.1953125 1.0351562,-0.4101562 0.2539063,-0.2148438 0.4101563,-0.546875 0.4101563,-0.9179688 0,-0.3515625 -0.097656,-0.6445312 -0.3125,-0.8789062 C 3.749888,-5.060638 3.0858255,-5.2754818 2.343638,-5.2754818 H 0.13660677 v 0.15625 c 0.60546875,0.058594 0.68359375,0.1367188 0.68359375,0.703125 v 3.45703128 c 0,0.6640625 -0.078125,0.76171875 -0.68359375,0.80078125 v 0.15625 H 2.343638 v -0.15625 C 1.7381693,-0.19735677 1.6209818,-0.29501302 1.6209818,-0.86141927 V -2.4434505 l 0.4492187,-0.019531 1.8945313,2.46093753 H 5.2537943 Z M 1.6209818,-4.6895443 c 0,-0.234375 0.097656,-0.2929687 0.4101562,-0.2929687 0.9960938,0 1.4648438,0.3515625 1.4648438,1.09375 0,0.390625 -0.1757813,0.7226562 -0.46875,0.8789062 -0.3515625,0.2148438 -0.6445313,0.2539063 -1.40625,0.2734375 z m 7.2509765,-0.703125 h -0.15625 c -0.039063,0.1953125 -0.1171875,0.2734375 -0.2539062,0.2734375 -0.078125,0 -0.2148438,-0.039063 -0.3515625,-0.097656 -0.2929688,-0.1171875 -0.5859375,-0.1757813 -0.8398438,-0.1757813 -0.3515625,0 -0.703125,0.1367188 -0.9570312,0.3710938 -0.2929688,0.2539062 -0.4296875,0.5859375 -0.4296875,0.9960937 0,0.6445313 0.3515625,1.0742188 1.25,1.5625 0.5664062,0.2929688 0.9765625,0.625 1.171875,0.9179688 0.078125,0.1171875 0.1171875,0.2734375 0.1171875,0.46875 0,0.52734373 -0.390625,0.89843748 -0.9765625,0.89843748 -0.703125,0 -1.2109375,-0.4296875 -1.6015625,-1.40624998 H 5.6493021 l 0.234375,1.67968748 h 0.1757812 c 0.019531,-0.13671875 0.1171875,-0.25390625 0.234375,-0.25390625 0.078125,0 0.2148438,0.0195313 0.3710938,0.078125 0.2929687,0.1171875 0.625,0.1953125 0.9375,0.1953125 0.9179687,0 1.6210937,-0.64453125 1.6210937,-1.46484373 0,-0.6445313 -0.4296875,-1.171875 -1.484375,-1.71875 -0.8398437,-0.46875 -1.171875,-0.8203125 -1.171875,-1.25 0,-0.4492188 0.3320313,-0.7421875 0.8203125,-0.7421875 0.3710938,0 0.703125,0.15625 0.9765625,0.4296875 0.2539063,0.2539062 0.3710938,0.46875 0.4882813,0.9375 h 0.1953125 z m 2.9052737,0.4492188 v 3.98437498 c 0,0.68359375 -0.09766,0.76171875 -0.761719,0.80078125 v 0.15625 h 2.324219 v -0.15625 c -0.644531,-0.0195313 -0.761719,-0.13671875 -0.761719,-0.703125 V -4.9434505 h 0.429688 c 0.917968,0 1.09375,0.1367187 1.269531,1.015625 h 0.195312 l -0.05859,-1.3476563 H 9.921763 L 9.8827,-3.9278255 h 0.195313 c 0.195313,-0.859375 0.371093,-1.015625 1.269531,-1.015625 z m 0,0"
       style="fill:#000000;fill-opacity:1;fill-rule:nonzero;stroke:none"
       aria-label="RST"
       transform="matrix(0.8,0,0,0.8,50.714933,80.458667)" />
    <path
       id="path10"
       d="m 38.22131,14.28699 c 0,3.86468 -3.13285,6.99754 -6.99754,6.99754 -3.86467,0 -6.99753,-3.13286 -6.99753,-6.99754 0,-3.86467 3.13286,-6.99753 6.99753,-6.99753 3.86469,0 6.99754,3.13286 6.99754,6.99753 z"
       style="fill:none;stroke:#000000;stroke-width:0.3985;stroke-linecap:butt;stroke-linejoin:miter;stroke-miterlimit:10;stroke-dasharray:none;stroke-opacity:1"
       transform="matrix(1.3333333,0,0,-1.3333333,56.561333,54.436)" />
    <path
       id="path11"
       d="m 2.4261016,-2.13375 h 1.1015625 c 0.082031,0 0.3984375,0 0.3984375,-0.2929687 0,-0.3164063 -0.3046875,-0.3164063 -0.3984375,-0.3164063 H 2.4261016 v -1.1015625 c 0,-0.09375 0,-0.3984375 -0.3046875,-0.3984375 -0.3164063,0 -0.3164063,0.2929688 -0.3164063,0.3984375 V -2.743125 H 0.70344531 c -0.09375,0 -0.3984375,0 -0.3984375,0.3046875 0,0.3046875 0.3046875,0.3046875 0.3984375,0.3046875 H 1.8050078 v 1.1132813 c 0,0.0820312 0,0.39843745 0.3046875,0.39843745 0.3164063,0 0.3164063,-0.3046875 0.3164063,-0.39843745 z m 0,0"
       style="fill:#000000;fill-opacity:1;fill-rule:nonzero;stroke:none"
       aria-label="+"
       transform="matrix(1.3333333,0,0,1.3333333,95.370667,38.22)" />
    <path
       id="path12"
       d="M 14.28682,14.28699 H 24.027"
       style="fill:none;stroke:#000000;stroke-width:1.2702;stroke-linecap:butt;stroke-linejoin:miter;stroke-miterlimit:10;stroke-dasharray:none;stroke-opacity:1"
       transform="matrix(1.3333333,0,0,-1.3333333,56.561333,54.436)" />
    <path
       id="path13"
       d="m 38.42056,14.28699 h 33.8739"
       style="fill:none;stroke:#000000;stroke-width:1.2702;stroke-linecap:butt;stroke-linejoin:miter;stroke-miterlimit:10;stroke-dasharray:none;stroke-opacity:1"
       transform="matrix(1.3333333,0,0,-1.3333333,56.561333,54.436)" />
    <path
       id="path14"
       d="m 56.83951,14.28699 c 0,0.81849 -0.66351,1.48199 -1.482,1.48199 -0.81849,0 -1.48199,-0.6635 -1.48199,-1.48199 0,-0.81849 0.6635,-1.48199 1.48199,-1.48199 0.81849,0 1.482,0.6635 1.482,1.48199 z"
       style="fill:#000000;fill-opacity:1;fill-rule:nonzero;stroke:none"
       transform="matrix(1.3333333,0,0,-1.3333333,56.561333,54.436)" />
    <path
       id="path15"
       d="m 2.3309062,-1.7686953 0.890625,-1.1367188 H 3.5145 c 0.1054687,0 0.3515625,0 0.3515625,-0.2695312 0,-0.2578125 -0.2460938,-0.2578125 -0.3515625,-0.2578125 H 2.5887187 c -0.1171875,0 -0.3398437,0 -0.3398437,0.2578125 0,0.2695312 0.2109375,0.2695312 0.375,0.2695312 L 2.0848125,-2.1905703 1.54575,-2.9054141 c 0.1289062,0 0.3632812,0 0.3632812,-0.2695312 0,-0.2578125 -0.234375,-0.2578125 -0.3515625,-0.2578125 H 0.6316875 c -0.10546875,0 -0.3515625,0 -0.3515625,0.2578125 0,0.2695312 0.24609375,0.2695312 0.3515625,0.2695312 H 0.936375 l 0.9140625,1.1367188 -0.97265625,1.24218749 H 0.5848125 c -0.1171875,0 -0.3515625,0 -0.3515625,0.26953125 0,0.2578124975 0.24609375,0.2578124975 0.3515625,0.2578124975 h 0.9257812 c 0.1171875,0 0.3398438,0 0.3398438,-0.2578124975 0,-0.26953125 -0.2226563,-0.26953125 -0.3984375,-0.26953125 l 0.6328125,-0.90234379 0.65625,0.90234379 c -0.1640625,0 -0.3867188,0 -0.3867188,0.26953125 0,0.2578124975 0.2226563,0.2578124975 0.3515625,0.2578124975 h 0.9140625 c 0.1171875,0 0.3515625,0 0.3515625,-0.2578124975 0,-0.26953125 -0.234375,-0.26953125 -0.3515625,-0.26953125 H 3.327 Z m 0,0"
       style="fill:#000000;fill-opacity:1;fill-rule:nonzero;stroke:none"
       aria-label="x"
       transform="matrix(1.3333333,0,0,1.3333333,157.564,37.674667)" />
    <path
       id="path16"
       d="M -14.28682,14.287 H -22.7553 V 39.69243 H 55.35751 V 15.76898"
       style="fill:none;stroke:#000000;stroke-width:1.2702;stroke-linecap:butt;stroke-linejoin:miter;stroke-miterlimit:10;stroke-dasharray:none;stroke-opacity:1"
       transform="matrix(1.3333333,0,0,-1.3333333,56.561333,54.436)" />
    <path
       id="path17"
       d="M 31.22377,7.09021 V -1.37825"
       style="fill:none;stroke:#000000;stroke-width:0.3985;stroke-linecap:butt;stroke-linejoin:miter;stroke-miterlimit:10;stroke-dasharray:none;stroke-opacity:1"
       transform="matrix(1.3333333,0,0,-1.3333333,56.561333,54.436)" />
    <path
       id="path18"
       d="M 2.4249375,-2.1331563 H 3.5265 c 0.082031,0 0.3984375,0 0.3984375,-0.2929687 0,-0.3164063 -0.3046875,-0.3164063 -0.3984375,-0.3164063 H 2.4249375 v -1.1015625 c 0,-0.09375 0,-0.3984375 -0.3046875,-0.3984375 -0.3164063,0 -0.3164063,0.2929688 -0.3164063,0.3984375 v 1.1015625 H 0.70228125 c -0.09375,0 -0.3984375,0 -0.3984375,0.3046875 0,0.3046875 0.3046875,0.3046875 0.3984375,0.3046875 H 1.8038437 v 1.1132813 c 0,0.0820313 0,0.3984375 0.3046875,0.3984375 0.3164063,0 0.3164063,-0.3046875 0.3164063,-0.3984375 z m 4.3417969,-2.4726562 c 0,-0.1171875 0,-0.3398438 -0.2578125,-0.3398438 -0.1640625,0 -0.2226563,0.1054688 -0.2578125,0.1757813 -0.3515625,0.75 -0.7148438,0.7734375 -0.9609375,0.796875 -0.1171875,0 -0.234375,0.1054687 -0.234375,0.2578125 0,0.09375 0.046875,0.2695312 0.2929687,0.2695312 0.375,0 0.7148438,-0.234375 0.8203125,-0.328125 v 3.2460938 H 5.4542344 c -0.1171875,0 -0.3515625,0 -0.3515625,0.26953125 0,0.2578125 0.2460937,0.2578125 0.3515625,0.2578125 h 2.0273437 c 0.1171875,0 0.3515625,0 0.3515625,-0.2578125 0,-0.26953125 -0.2460937,-0.26953125 -0.3515625,-0.26953125 H 6.7667344 Z m 0,0"
       style="fill:#000000;fill-opacity:1;fill-rule:nonzero;stroke:none"
       aria-label="+1"
       transform="matrix(1.3333333,0,0,1.3333333,92.548,66.797333)" />
    <path
       id="path19"
       d="m 0,-21.43051 v -8.46848"
       style="fill:none;stroke:#000000;stroke-width:0.3985;stroke-linecap:butt;stroke-linejoin:miter;stroke-miterlimit:10;stroke-dasharray:none;stroke-opacity:1"
       transform="matrix(1.3333333,0,0,-1.3333333,56.561333,54.436)" />
    <path
       id="path20"
       d="m 1.8043984,-1.4524375 c 0,-0.8789063 0.6210938,-1.5 1.3945313,-1.5 0.011719,0.3164062 0.234375,0.375 0.3632812,0.375 0.1992188,0 0.3632813,-0.140625 0.3632813,-0.375 0,-0.1992188 -0.140625,-0.515625 -0.7617188,-0.515625 -0.7382812,0 -1.1601562,0.421875 -1.359375,0.6210937 v -0.2460937 c 0,-0.2695313 -0.082031,-0.3398438 -0.3515625,-0.3398438 H 0.58564844 c -0.10546875,0 -0.3515625,0 -0.3515625,0.2578125 0,0.2695313 0.24609375,0.2695313 0.3515625,0.2695313 H 1.1950234 v 2.37890625 H 0.58564844 c -0.10546875,0 -0.3515625,0 -0.3515625,0.26953125 0,0.2578125 0.24609375,0.2578125 0.3515625,0.2578125 H 2.6481484 c 0.1289063,0 0.3398438,0 0.3398438,-0.2578125 0,-0.26953125 -0.2109375,-0.26953125 -0.3398438,-0.26953125 h -0.84375 z m 5.8271485,-0.046875 c 0.1523437,0 0.3515625,0 0.3515625,-0.3046875 0,-0.9492188 -0.5507813,-1.6992188 -1.5703125,-1.6992188 -0.984375,0 -1.7578125,0.796875 -1.7578125,1.7695313 0,0.94921875 0.796875,1.76953125 1.8867187,1.76953125 1.0898438,0 1.4414063,-0.69140625 1.4414063,-0.890625 0,-0.17578125 -0.140625,-0.25781255 -0.3046875,-0.25781255 -0.140625,0 -0.2226563,0.011719 -0.2929688,0.18750005 -0.1640625,0.36328125 -0.5507812,0.4453125 -0.8085937,0.4453125 -0.5859375,0 -1.1601563,-0.38671875 -1.2890625,-1.01953125 z m -2.34375,-0.515625 c 0.1289062,-0.5625 0.5976562,-0.9609375 1.125,-0.9609375 0.7148437,0 0.890625,0.5625 0.9492187,0.9609375 z M 11.91475,-3.1516563 c 0,-0.1171875 0,-0.3515625 -0.257812,-0.3515625 -0.1875,0 -0.222657,0.1054688 -0.246094,0.1523438 -0.328125,-0.1523438 -0.644531,-0.1523438 -0.832031,-0.1523438 -1.3476567,0 -1.523438,0.6796875 -1.523438,0.9492188 0,0.75 0.8320313,0.8789062 1.535156,0.984375 0.433594,0.070312 1.042969,0.1640625 1.042969,0.5625 0,0.28125 -0.304687,0.52734375 -0.996094,0.52734375 -0.492187,0 -0.8085935,-0.17578125 -0.9843747,-0.65625005 -0.035156,-0.1171875 -0.070312,-0.2226562 -0.3046875,-0.2226562 -0.2929688,0 -0.2929688,0.1992187 -0.2929688,0.3515625 V -0.304 c 0,0.1171875 0,0.33984375 0.2578125,0.33984375 0.082031,0 0.2226563,-0.0234375 0.3046875,-0.2578125 0.410156,0.2578125 0.855469,0.2578125 1.007813,0.2578125 1.359375,0 1.535156,-0.75 1.535156,-1.04296875 0,-0.1875 -0.07031,-0.46875 -0.363281,-0.703125 C 11.469438,-1.9563438 11.16475,-2.0032188 10.60225,-2.0969688 10.063188,-2.179 9.5827188,-2.2610313 9.5827188,-2.554 c 0,-0.1523438 0.1875,-0.421875 0.9843752,-0.421875 0.714844,0 0.738281,0.2578125 0.75,0.3984375 0.01172,0.2578125 0.210937,0.2578125 0.304687,0.2578125 0.292969,0 0.292969,-0.1875 0.292969,-0.3398438 z m 0,0"
       style="fill:#000000;fill-opacity:1;fill-rule:nonzero;stroke:none"
       aria-label="res"
       transform="matrix(1.3333333,0,0,1.3333333,43.238667,102.90533)" />
    <path
       id="path21"
       d="M 0,0 H 2.541"
       style="fill:none;stroke:#000000;stroke-width:0.398;stroke-linecap:butt;stroke-linejoin:miter;stroke-miterlimit:10;stroke-dasharray:none;stroke-opacity:1"
       transform="matrix(1.3333333,0,0,-1.3333333,60.852,102.64)" />
    <path
       id="path22"
       d="m 3.4674609,-2.319625 c 0,-0.796875 -0.3984375,-1.1484375 -1.0546875,-1.1484375 -0.5859375,0 -0.9726562,0.3164062 -1.0546875,0.3984375 0,-0.2460938 -0.023437,-0.3632813 -0.3398437,-0.3632813 H 0.43230469 c -0.12890625,0 -0.3515625,0 -0.3515625,0.2578125 0,0.2695313 0.22265625,0.2695313 0.3515625,0.2695313 h 0.328125 v 2.37890625 h -0.328125 c -0.12890625,0 -0.3515625,0 -0.3515625,0.26953125 0,0.2578125 0.22265625,0.2578125 0.3515625,0.2578125 H 1.6862109 c 0.1289063,0 0.3398438,0 0.3398438,-0.2578125 0,-0.26953125 -0.2109375,-0.26953125 -0.3398438,-0.26953125 H 1.3580859 V -1.89775 c 0,-0.7617188 0.6210938,-1.0546875 1.0195313,-1.0546875 0.3632812,0 0.4804687,0.1757812 0.4804687,0.6445312 v 1.78125005 H 2.6002734 c -0.1289062,0 -0.3515625,0 -0.3515625,0.26953125 0,0.2578125 0.2226563,0.2578125 0.3515625,0.2578125 h 1.1953125 c 0.1289063,0 0.3398438,0 0.3398438,-0.2578125 0,-0.26953125 -0.2109375,-0.26953125 -0.3398438,-0.26953125 h -0.328125 z m 0,0"
       style="fill:#000000;fill-opacity:1;fill-rule:nonzero;stroke:none"
       aria-label="n"
       transform="matrix(1.3333333,0,0,1.3333333,64.24,102.90533)" />
    <path
       id="path23"
       d="M -14.28682,-14.28699 H -22.7553 V -39.69241"
       style="fill:none;stroke:#000000;stroke-width:0.3985;stroke-linecap:butt;stroke-linejoin:miter;stroke-miterlimit:10;stroke-dasharray:none;stroke-opacity:1"
       transform="matrix(1.3333333,0,0,-1.3333333,56.561333,54.436)" />
    <path
       id="path24"
       d="m 3.7504297,-0.85435938 c 0,-0.17578122 -0.140625,-0.25781252 -0.3046875,-0.25781252 -0.1171875,0 -0.2226563,0 -0.2929688,0.18750002 -0.1523437,0.3515625 -0.46875,0.4453125 -0.75,0.4453125 -0.6679687,0 -1.21875,-0.55078122 -1.21875,-1.24218752 0,-0.4101562 0.2460938,-1.2539062 1.265625,-1.2539062 0.2226563,0 0.3632813,0.023437 0.3984375,0.023437 0.023437,0.011719 0.035156,0.023437 0.035156,0.09375 0.023437,0.234375 0.1875,0.3632812 0.3867187,0.3632812 0.234375,0 0.3867188,-0.1757812 0.3867188,-0.3867187 0,-0.6210938 -0.8320313,-0.6210938 -1.1953125,-0.6210938 -1.4179688,0 -1.88671876,1.1015625 -1.88671876,1.78125 0,0.96093752 0.76171876,1.75781252 1.78124996,1.75781252 1.1367188,0 1.3945313,-0.76171875 1.3945316,-0.8906245 z M 6.6478906,-4.5223281 c 0,-0.2695313 -0.082031,-0.3398438 -0.3398437,-0.3398438 h -1.265625 c -0.1171875,0 -0.3515625,0 -0.3515625,0.2578125 0,0.2578125 0.2460937,0.2578125 0.3515625,0.2578125 h 0.9960937 v 3.82031252 H 5.0424219 c -0.1171875,0 -0.3515625,0 -0.3515625,0.26953125 0,0.2578125 0.2460937,0.2578125 0.3515625,0.2578125 h 2.6015625 c 0.1171875,0 0.3515625,0 0.3515625,-0.2578125 0,-0.26953125 -0.234375,-0.26953125 -0.3515625,-0.26953125 H 6.6478906 Z m 4.1777344,2.5195312 v -0.011719 l 0.949219,-0.890625 h 0.269531 c 0.128906,0 0.339844,0 0.339844,-0.2695313 0,-0.2578125 -0.210938,-0.2578125 -0.339844,-0.2578125 h -1.21875 c -0.128906,0 -0.351562,0 -0.351562,0.2578125 0,0.2695313 0.222656,0.2695313 0.351562,0.2695313 h 0.222656 l -1.2187497,1.125 v -2.7421875 c 0,-0.2695313 -0.082031,-0.3398438 -0.3398438,-0.3398438 H 8.9857813 c -0.1289063,0 -0.3515625,0 -0.3515625,0.2578125 0,0.2578125 0.234375,0.2578125 0.3515625,0.2578125 h 0.3515625 v 3.82031252 H 8.9857813 c -0.1289063,0 -0.3515625,0 -0.3515625,0.26953125 0,0.2578125 0.234375,0.2578125 0.3515625,0.2578125 h 1.2070317 c 0.117187,0 0.351562,0 0.351562,-0.2578125 0,-0.26953125 -0.246094,-0.26953125 -0.351562,-0.26953125 H 9.8295313 V -1.1121719 l 0.6210937,-0.5625 0.902344,1.14843752 c -0.210938,0 -0.421875,0 -0.421875,0.26953125 0,0.2578125 0.246094,0.2578125 0.351562,0.2578125 h 0.9375 c 0.117188,0 0.339844,0 0.339844,-0.2578125 0,-0.26953125 -0.222656,-0.26953125 -0.339844,-0.26953125 h -0.234375 z m 0,0"
       style="fill:#000000;fill-opacity:1;fill-rule:nonzero;stroke:none"
       aria-label="clk"
       transform="matrix(1.3333333,0,0,1.3333333,17.753333,117.88133)" />
    <path
       id="path25"
       d="M -14.28682,0 H -31.22377 V -50.81084"
       style="fill:none;stroke:#000000;stroke-width:0.3985;stroke-linecap:butt;stroke-linejoin:miter;stroke-miterlimit:10;stroke-dasharray:none;stroke-opacity:1"
       transform="matrix(1.3333333,0,0,-1.3333333,56.561333,54.436)" />
    <path
       id="path26"
       d="m 3.3987031,-1.4992031 c 0.1523438,0 0.3515625,0 0.3515625,-0.3046875 0,-0.9492188 -0.5507812,-1.6992188 -1.5703125,-1.6992188 -0.984375,0 -1.75781247,0.796875 -1.75781247,1.7695313 0,0.94921872 0.79687497,1.76953122 1.88671877,1.76953122 1.0898437,0 1.4414062,-0.69140625 1.4414062,-0.890625 0,-0.17578122 -0.140625,-0.25781252 -0.3046875,-0.25781252 -0.140625,0 -0.2226562,0.011719 -0.2929687,0.18750002 -0.1640625,0.36328125 -0.5507813,0.4453125 -0.8085938,0.4453125 -0.5859375,0 -1.1601562,-0.38671875 -1.2890625,-1.01953122 z m -2.34375,-0.515625 c 0.1289063,-0.5625 0.5976563,-0.9609375 1.125,-0.9609375 0.7148438,0 0.890625,0.5625 0.9492188,0.9609375 z m 6.647461,-0.3046875 c 0,-0.796875 -0.3984375,-1.1484375 -1.0546875,-1.1484375 -0.5859375,0 -0.9726563,0.3164062 -1.0546875,0.3984375 0,-0.2460938 -0.023437,-0.3632813 -0.3398438,-0.3632813 H 4.6672578 c -0.1289062,0 -0.3515625,0 -0.3515625,0.2578125 0,0.2695313 0.2226563,0.2695313 0.3515625,0.2695313 h 0.328125 v 2.37890622 h -0.328125 c -0.1289062,0 -0.3515625,0 -0.3515625,0.26953125 0,0.257812505 0.2226563,0.257812505 0.3515625,0.257812505 h 1.2539063 c 0.1289062,0 0.3398437,0 0.3398437,-0.257812505 0,-0.26953125 -0.2109375,-0.26953125 -0.3398437,-0.26953125 H 5.5930391 V -1.8976406 c 0,-0.7617188 0.6210937,-1.0546875 1.0195312,-1.0546875 0.3632813,0 0.4804688,0.1757812 0.4804688,0.6445312 v 1.78125002 H 6.8352266 c -0.1289063,0 -0.3515625,0 -0.3515625,0.26953125 0,0.257812505 0.2226562,0.257812505 0.3515625,0.257812505 h 1.1953125 c 0.1289062,0 0.3398437,0 0.3398437,-0.257812505 0,-0.26953125 -0.2109375,-0.26953125 -0.3398437,-0.26953125 h -0.328125 z m 0,0"
       style="fill:#000000;fill-opacity:1;fill-rule:nonzero;stroke:none"
       aria-label="en"
       transform="matrix(1.3333333,0,0,1.3333333,4.4293333,130.788)" />
    <path
       id="path27"
       d="M 0,0 H 2.541"
       style="fill:none;stroke:#000000;stroke-width:0.398;stroke-linecap:butt;stroke-linejoin:miter;stroke-miterlimit:10;stroke-dasharray:none;stroke-opacity:1"
       transform="matrix(1.3333333,0,0,-1.3333333,16.398667,130.52133)" />
    <path
       id="path28"
       d="m 3.4686172,-2.3195156 c 0,-0.796875 -0.3984375,-1.1484375 -1.0546875,-1.1484375 -0.5859375,0 -0.9726563,0.3164062 -1.0546875,0.3984375 0,-0.2460938 -0.023437,-0.3632813 -0.3398438,-0.3632813 H 0.43346094 c -0.12890625,0 -0.3515625,0 -0.3515625,0.2578125 0,0.2695313 0.22265625,0.2695313 0.3515625,0.2695313 h 0.328125 v 2.37890622 h -0.328125 c -0.12890625,0 -0.3515625,0 -0.3515625,0.26953125 0,0.257812505 0.22265625,0.257812505 0.3515625,0.257812505 H 1.6873672 c 0.1289062,0 0.3398437,0 0.3398437,-0.257812505 0,-0.26953125 -0.2109375,-0.26953125 -0.3398437,-0.26953125 H 1.3592422 V -1.8976406 c 0,-0.7617188 0.6210937,-1.0546875 1.0195312,-1.0546875 0.3632813,0 0.4804688,0.1757812 0.4804688,0.6445312 v 1.78125002 H 2.6014297 c -0.1289063,0 -0.3515625,0 -0.3515625,0.26953125 0,0.257812505 0.2226562,0.257812505 0.3515625,0.257812505 h 1.1953125 c 0.1289062,0 0.3398437,0 0.3398437,-0.257812505 0,-0.26953125 -0.2109375,-0.26953125 -0.3398437,-0.26953125 h -0.328125 z m 0,0"
       style="fill:#000000;fill-opacity:1;fill-rule:nonzero;stroke:none"
       aria-label="n"
       transform="matrix(1.3333333,0,0,1.3333333,19.785333,130.788)" />
    <path
       id="path29"
       d="m 60.80421,11.26523 6.04355,6.04353"
       style="fill:none;stroke:#000000;stroke-width:0.3985;stroke-linecap:butt;stroke-linejoin:miter;stroke-miterlimit:10;stroke-dasharray:none;stroke-opacity:1"
       transform="matrix(1.3333333,0,0,-1.3333333,56.561333,54.436)" />
    <path
       id="path30"
       d="m 3.80775,-4.2197344 c 0.011719,-0.1054687 0.023437,-0.1171875 0.09375,-0.1289062 0.1171875,-0.011719 0.2226562,-0.09375 0.2226562,-0.2578125 0,-0.2578125 -0.2226562,-0.2578125 -0.3398437,-0.2578125 H 3.1515 c -0.1171875,0 -0.3398438,0 -0.3398438,0.2578125 0,0.2578125 0.2226563,0.2578125 0.3398438,0.2578125 h 0.1757812 l -0.328125,2.4726562 c -0.046875,0.421875 -0.1171875,0.87890627 -0.140625,1.21875002 C 2.8350937,-1.2548906 2.4718125,-2.7080156 2.448375,-2.7314531 2.3780625,-2.9072344 2.2374375,-2.9306719 2.1085312,-2.9306719 c -0.070312,0 -0.234375,0 -0.328125,0.1523438 -0.046875,0.082031 -0.3984375,1.5585937 -0.421875,2.12109372 C 1.3350937,-0.91504688 1.3116562,-1.1259844 1.2765,-1.4306719 L 0.88978125,-4.3486406 H 1.0655625 c 0.1171875,0 0.3398437,0 0.3398437,-0.2578125 0,-0.2578125 -0.2226562,-0.2578125 -0.3398437,-0.2578125 H 0.43275 c -0.1171875,0 -0.33984375,0 -0.33984375,0.2578125 0,0.2226562 0.1640625,0.2578125 0.29296875,0.2578125 l 0.0234375,0.1289062 0.55078125,3.97265627 c 0.0234375,0.1640625 0.046875,0.328125 0.35156245,0.328125 0.070312,0 0.2226563,0 0.3164063,-0.15234375 0.058594,-0.09375 0.4453125,-1.88671872 0.4804687,-2.20312502 0.035156,0.3398438 0.421875,2.09765627 0.46875,2.19140627 0.09375,0.1640625 0.2578125,0.1640625 0.328125,0.1640625 0.3046875,0 0.328125,-0.17578125 0.3515625,-0.31640625 z m 2.8417969,-0.1289062 h 0.8320312 c 0.1171875,0 0.3515625,0 0.3515625,-0.2578125 0,-0.2578125 -0.2460937,-0.2578125 -0.3515625,-0.2578125 H 5.2198594 c -0.1289063,0 -0.3515625,0 -0.3515625,0.2578125 0,0.2578125 0.234375,0.2578125 0.3515625,0.2578125 h 0.8203125 v 3.82031247 H 5.2198594 c -0.1289063,0 -0.3515625,0 -0.3515625,0.26953125 0,0.257812505 0.234375,0.257812505 0.3515625,0.257812505 h 2.2617187 c 0.1171875,0 0.3515625,0 0.3515625,-0.257812505 0,-0.26953125 -0.2460937,-0.26953125 -0.3515625,-0.26953125 H 6.6495469 Z m 2.2998047,-0.515625 c -0.1289063,0 -0.3398438,0 -0.3398438,0.2578125 0,0.2578125 0.2226563,0.2578125 0.3398438,0.2578125 h 0.1523437 v 3.82031247 H 8.9493516 c -0.1171875,0 -0.3398438,0 -0.3398438,0.26953125 0,0.257812505 0.2109375,0.257812505 0.3398438,0.257812505 h 1.6640624 c 1.054688,0 1.769531,-1.125000025 1.769531,-2.402343725 0,-1.265625 -0.691406,-2.4609375 -1.769531,-2.4609375 z m 0.7617187,4.33593747 V -4.3486406 h 0.7382817 c 0.890625,0 1.324218,1.0429687 1.324218,1.9453125 0,0.9257812 -0.457031,1.87499997 -1.324218,1.87499997 z M 15.116344,-4.3486406 h 0.984375 v 0.4101562 c 0,0.1523438 0,0.3398438 0.304687,0.3398438 0.304688,0 0.304688,-0.1875 0.304688,-0.3398438 v -0.5859375 c 0,-0.2695312 -0.08203,-0.3398437 -0.339844,-0.3398437 h -3.105469 c -0.246094,0 -0.351562,0.046875 -0.351562,0.3398437 v 0.5859375 c 0,0.1523438 0,0.3398438 0.304687,0.3398438 0.304688,0 0.304688,-0.1875 0.304688,-0.3398438 v -0.4101562 h 0.984375 v 3.82031247 h -0.375 c -0.117188,0 -0.351563,0 -0.351563,0.26953125 0,0.257812505 0.234375,0.257812505 0.351563,0.257812505 h 1.371093 c 0.117188,0 0.351563,0 0.351563,-0.257812505 0,-0.26953125 -0.246094,-0.26953125 -0.351563,-0.26953125 h -0.386718 z m 5.373047,0 h 0.164062 c 0.117188,0 0.351563,0 0.351563,-0.2578125 0,-0.2578125 -0.234375,-0.2578125 -0.351563,-0.2578125 h -0.9375 c -0.128906,0 -0.351562,0 -0.351562,0.2578125 0,0.2578125 0.222656,0.2578125 0.351562,0.2578125 h 0.164063 v 1.546875 h -1.664063 v -1.546875 h 0.175781 c 0.117188,0 0.351563,0 0.351563,-0.2578125 0,-0.2578125 -0.234375,-0.2578125 -0.351563,-0.2578125 h -0.9375 c -0.128906,0 -0.351562,0 -0.351562,0.2578125 0,0.2578125 0.222656,0.2578125 0.351562,0.2578125 h 0.164063 v 3.82031247 h -0.164063 c -0.128906,0 -0.351562,0 -0.351562,0.26953125 0,0.257812505 0.222656,0.257812505 0.351562,0.257812505 h 0.9375 c 0.117188,0 0.351563,0 0.351563,-0.257812505 0,-0.26953125 -0.234375,-0.26953125 -0.351563,-0.26953125 H 18.215953 V -2.2744219 h 1.664063 v 1.74609377 h -0.164063 c -0.128906,0 -0.351562,0 -0.351562,0.26953125 0,0.257812505 0.222656,0.257812505 0.351562,0.257812505 h 0.9375 c 0.117188,0 0.351563,0 0.351563,-0.257812505 0,-0.26953125 -0.234375,-0.26953125 -0.351563,-0.26953125 h -0.164062 z m 0,0"
       style="fill:#000000;fill-opacity:1;fill-rule:nonzero;stroke:none"
       aria-label="WIDTH"
       transform="matrix(1.3333333,0,0,1.3333333,127.548,51.556)" />
  </g>
</svg>
